<?xml version="1.0" encoding="UTF-8" standalone="no"?>
<!DOCTYPE svg PUBLIC "-//W3C//DTD SVG 1.1//EN" "http://www.w3.org/Graphics/SVG/1.1/DTD/svg11.dtd">
<svg width="100%" height="100%" viewBox="0 0 3288 1769" version="1.1" xmlns="http://www.w3.org/2000/svg" xmlns:xlink="http://www.w3.org/1999/xlink" xml:space="preserve" xmlns:serif="http://www.serif.com/" style="fill-rule:evenodd;clip-rule:evenodd;stroke-linejoin:round;stroke-miterlimit:2;">
    <g transform="matrix(1,0,0,1,-2257.22,-2553.52)">
        <g id="Vectorizado" transform="matrix(0.864478,0,0,0.864478,527.963,466.883)">
            <g id="Bautismo">
                <g id="Vectorizado1" serif:id="Vectorizado">
                    <g transform="matrix(5.24185,-0.268305,0.268305,5.24185,-27579.5,-12348.5)">
                        <path d="M5698.79,3412.79C5697.62,3414.02 5696.43,3415.23 5695.2,3416.42C5690.81,3420.68 5686.11,3424.35 5681.11,3427.42C5676.11,3430.48 5671.01,3432.02 5665.81,3432.02C5661.14,3432.15 5657.44,3431.08 5654.7,3428.82C5651.97,3426.55 5650.07,3424.08 5649.01,3421.42C5648.34,3419.42 5648.01,3417.48 5648.01,3415.62C5648.01,3412.28 5648.77,3408.72 5650.31,3404.92C5651.84,3401.12 5653.74,3397.38 5656.01,3393.72C5658.27,3390.05 5660.7,3386.48 5663.31,3383.02C5665.9,3379.55 5668.34,3376.42 5670.61,3373.62C5672.87,3370.82 5674.7,3368.45 5676.11,3366.52C5677.51,3364.58 5678.2,3363.28 5678.2,3362.62C5678.2,3361.68 5677.84,3361.12 5677.11,3360.92C5676.37,3360.72 5675.51,3360.65 5674.51,3360.72C5673.51,3360.78 5672.47,3360.88 5671.4,3361.02C5670.34,3361.15 5669.4,3361.22 5668.61,3361.22C5665.94,3361.48 5663.54,3361.48 5661.4,3361.22C5659.94,3363.62 5657.77,3366.85 5654.9,3370.92C5652.04,3374.98 5649.14,3379.62 5646.2,3384.82C5643.27,3390.02 5640.74,3395.72 5638.61,3401.92C5636.47,3408.12 5635.4,3414.55 5635.4,3421.22C5635.4,3422.28 5635.44,3423.38 5635.51,3424.52C5635.57,3425.65 5635.67,3426.75 5635.81,3427.82C5635.81,3428.22 5636.17,3428.75 5636.9,3429.42C5637.64,3430.08 5637.81,3430.75 5637.4,3431.42C5636.74,3432.22 5635.44,3432.45 5633.51,3432.12C5631.57,3431.78 5629.57,3430.92 5627.51,3429.52C5625.44,3428.12 5623.57,3426.12 5621.9,3423.52C5620.24,3420.92 5619.4,3417.68 5619.4,3413.82C5619.4,3411.15 5619.94,3408.15 5621.01,3404.82C5622.07,3401.48 5623.94,3397.88 5626.61,3394.02C5628.74,3390.55 5631.24,3387.02 5634.11,3383.42C5636.97,3379.82 5639.77,3376.45 5642.51,3373.32C5645.24,3370.18 5647.67,3367.42 5649.81,3365.02C5651.94,3362.62 5653.27,3360.88 5653.81,3359.82C5651.54,3358.88 5649.64,3357.65 5648.11,3356.12C5646.57,3354.58 5645.34,3353.02 5644.4,3351.42C5643.47,3349.82 5642.84,3348.28 5642.51,3346.82C5642.17,3345.35 5642.01,3344.08 5642.01,3343.02C5642.01,3341.82 5642.24,3340.02 5642.7,3337.62C5643.17,3335.22 5643.9,3332.75 5644.9,3330.22C5645.9,3327.68 5647.14,3325.48 5648.61,3323.62C5650.07,3321.75 5651.87,3320.82 5654.01,3320.82C5656.14,3320.82 5658.4,3321.95 5660.81,3324.22C5664.67,3328.08 5666.61,3333.28 5666.61,3339.82C5666.61,3341.42 5666.47,3343.05 5666.2,3344.72C5665.94,3346.38 5665.61,3348.15 5665.2,3350.02C5667.87,3349.35 5670.64,3348.78 5673.51,3348.32C5676.37,3347.85 5679.14,3347.62 5681.81,3347.62C5685.27,3347.62 5688.31,3348.22 5690.9,3349.42C5693.51,3350.62 5695.14,3352.75 5695.81,3355.82C5696.07,3356.88 5695.7,3358.52 5694.7,3360.72C5693.7,3362.92 5692.37,3365.52 5690.7,3368.52C5689.04,3371.52 5687.2,3374.75 5685.2,3378.22C5683.2,3381.68 5681.34,3385.15 5679.61,3388.62C5677.87,3392.08 5676.4,3395.42 5675.2,3398.62C5674.01,3401.82 5673.4,3404.62 5673.4,3407.02C5673.4,3409.95 5674.47,3412.08 5676.61,3413.42C5678.2,3414.62 5680.54,3414.42 5683.61,3412.82C5686.67,3411.22 5689.84,3408.98 5693.11,3406.12C5696.37,3403.25 5699.44,3400.18 5702.31,3396.92C5704.83,3394.04 5706.81,3391.55 5708.25,3389.44C5708.69,3388.64 5709.14,3387.83 5709.61,3387.02C5711.87,3383.02 5714.01,3379.02 5716.01,3375.02C5718.94,3369.02 5721.14,3364.58 5722.61,3361.72C5724.07,3358.85 5724.87,3357.08 5725.01,3356.42C5725.14,3355.75 5724.84,3354.75 5724.11,3353.42C5723.37,3352.08 5723.27,3350.95 5723.81,3350.02C5724.34,3349.08 5725.2,3348.62 5726.4,3348.62C5726.94,3348.62 5727.54,3348.68 5728.2,3348.82C5731.01,3349.62 5733.47,3350.68 5735.61,3352.02C5737.47,3353.08 5739.14,3354.52 5740.61,3356.32C5742.07,3358.12 5742.74,3360.15 5742.61,3362.42C5742.47,3363.75 5741.87,3365.55 5740.81,3367.82C5739.74,3370.08 5738.4,3372.62 5736.81,3375.42C5735.2,3378.22 5733.47,3381.18 5731.61,3384.32C5729.74,3387.45 5728.04,3390.55 5726.51,3393.62C5724.97,3396.68 5723.67,3399.65 5722.61,3402.52C5721.54,3405.38 5721.01,3407.88 5721.01,3410.02C5721.01,3412.42 5721.81,3414.28 5723.4,3415.62C5724.74,3416.42 5726.27,3416.65 5728.01,3416.32C5729.74,3415.98 5731.57,3415.25 5733.51,3414.12C5735.44,3412.98 5737.4,3411.55 5739.4,3409.82C5741.4,3408.08 5743.34,3406.28 5745.2,3404.42C5746.35,3403.27 5747.51,3402.06 5748.67,3400.78C5748.99,3399.27 5749.4,3397.72 5749.9,3396.12C5751.31,3391.65 5753.54,3386.75 5756.61,3381.42C5761.54,3373.02 5766.94,3366.55 5772.81,3362.02C5778.67,3357.48 5784.14,3354.15 5789.2,3352.02C5795.07,3349.62 5800.94,3348.22 5806.81,3347.82C5808.4,3347.82 5810.07,3348.08 5811.81,3348.62C5813.54,3349.15 5815.27,3349.98 5817.01,3351.12C5818.74,3352.25 5820.31,3353.65 5821.7,3355.32C5823.11,3356.98 5824.27,3358.95 5825.2,3361.22C5828.01,3357.48 5829.4,3355.08 5829.4,3354.02C5829.4,3353.35 5829.31,3352.42 5829.11,3351.22C5828.9,3350.02 5829.14,3349.08 5829.81,3348.42C5830.61,3347.48 5831.61,3347.15 5832.81,3347.42C5833.34,3347.55 5833.87,3347.75 5834.4,3348.02C5836.94,3349.62 5839.14,3351.28 5841.01,3353.02C5842.61,3354.48 5843.94,3356.25 5845.01,3358.32C5846.07,3360.38 5846.27,3362.55 5845.61,3364.82C5845.2,3366.42 5844.14,3368.52 5842.4,3371.12C5840.67,3373.72 5838.67,3376.58 5836.4,3379.72C5834.14,3382.85 5831.84,3386.08 5829.51,3389.42C5827.17,3392.75 5825.24,3395.98 5823.7,3399.12C5822.17,3402.25 5821.17,3405.12 5820.7,3407.72C5820.24,3410.32 5820.74,3412.35 5822.2,3413.82C5823.81,3415.42 5825.67,3416.22 5827.81,3416.22C5829.4,3416.22 5831.14,3415.82 5833.01,3415.02C5834.87,3414.22 5836.74,3413.15 5838.61,3411.82C5840.47,3410.48 5842.37,3408.98 5844.31,3407.32C5846.24,3405.65 5848.07,3403.95 5849.81,3402.22C5849.98,3402.04 5850.15,3401.86 5850.32,3401.68C5850.35,3401.59 5850.38,3401.5 5850.4,3401.42C5852.14,3395.82 5854.51,3389.82 5857.51,3383.42C5860.51,3377.02 5863.97,3370.42 5867.9,3363.62C5871.84,3356.82 5875.81,3350.22 5879.81,3343.82C5878.34,3344.08 5877.04,3344.22 5875.9,3344.22L5872.61,3344.22C5870.2,3344.22 5868.27,3344.02 5866.81,3343.62C5865.34,3343.22 5864.2,3342.65 5863.4,3341.92C5862.61,3341.18 5862.01,3340.35 5861.61,3339.42C5861.2,3338.48 5860.87,3337.42 5860.61,3336.22C5860.34,3335.02 5860.4,3334.22 5860.81,3333.82C5861.07,3333.55 5861.34,3333.42 5861.61,3333.42C5862.14,3333.42 5862.4,3333.65 5862.4,3334.12C5862.4,3334.58 5862.74,3334.95 5863.4,3335.22C5864.07,3335.48 5864.9,3335.68 5865.9,3335.82C5866.9,3335.95 5868.01,3336.02 5869.2,3336.02C5871.47,3336.02 5874.01,3335.85 5876.81,3335.52C5879.61,3335.18 5882.54,3334.75 5885.61,3334.22C5888.81,3329.28 5891.84,3324.68 5894.7,3320.42C5897.57,3316.15 5900.11,3312.35 5902.31,3309.02C5904.51,3305.68 5906.27,3302.95 5907.61,3300.82C5908.94,3298.68 5909.67,3297.28 5909.81,3296.62C5910.07,3295.95 5910.07,3295.35 5909.81,3294.82C5909.54,3294.28 5909.4,3293.68 5909.4,3293.02C5909.54,3292.35 5909.97,3291.88 5910.7,3291.62C5911.44,3291.35 5912.2,3291.35 5913.01,3291.62C5914.61,3292.28 5916.07,3293.15 5917.4,3294.22C5918.47,3295.15 5919.51,3296.32 5920.51,3297.72C5921.51,3299.12 5922.01,3300.82 5922.01,3302.82C5922.01,3303.62 5921.94,3304.52 5921.81,3305.52C5921.67,3306.52 5921.34,3307.55 5920.81,3308.62C5919.87,3310.62 5918.31,3313.55 5916.11,3317.42C5913.9,3321.28 5911.27,3325.82 5908.2,3331.02C5911.67,3330.62 5914.74,3330.38 5917.4,3330.32C5920.07,3330.25 5922.07,3330.48 5923.4,3331.02C5924.61,3331.55 5925.61,3332.52 5926.4,3333.92C5927.2,3335.32 5927.77,3336.75 5928.11,3338.22C5928.44,3339.68 5928.54,3340.98 5928.4,3342.12C5928.27,3343.25 5927.94,3343.82 5927.4,3343.82C5926.74,3343.82 5926.4,3343.48 5926.4,3342.82C5926.4,3342.15 5925.94,3341.68 5925.01,3341.42C5924.34,3341.28 5923.4,3341.08 5922.2,3340.82C5921.14,3340.55 5919.84,3340.35 5918.31,3340.22C5916.77,3340.08 5914.94,3340.02 5912.81,3340.02C5910.01,3340.02 5906.61,3340.22 5902.61,3340.62C5899.01,3346.75 5895.37,3353.18 5891.7,3359.92C5888.04,3366.65 5884.7,3373.12 5881.7,3379.32C5878.7,3385.52 5876.27,3391.28 5874.4,3396.62C5872.54,3401.95 5871.61,3406.28 5871.61,3409.62C5871.61,3412.02 5872.2,3413.82 5873.4,3415.02C5875.01,3416.48 5877.2,3416.62 5880.01,3415.42C5882.81,3414.22 5885.87,3412.25 5889.2,3409.52C5892.54,3406.78 5895.97,3403.52 5899.51,3399.72C5900.33,3398.83 5901.14,3397.94 5901.94,3397.06C5902.68,3395.63 5903.46,3394.15 5904.31,3392.62C5906.51,3388.62 5908.9,3384.48 5911.51,3380.22C5914.11,3375.95 5916.47,3371.95 5918.61,3368.22C5920.74,3364.48 5922.47,3361.22 5923.81,3358.42C5925.14,3355.62 5925.74,3353.55 5925.61,3352.22C5925.47,3351.55 5925.07,3350.78 5924.4,3349.92C5923.74,3349.05 5923.74,3348.22 5924.4,3347.42C5924.81,3346.88 5925.37,3346.62 5926.11,3346.62C5926.84,3346.62 5927.54,3346.75 5928.2,3347.02C5929.01,3347.28 5929.87,3347.62 5930.81,3348.02C5933.34,3348.82 5935.54,3349.88 5937.4,3351.22C5939.01,3352.28 5940.47,3353.65 5941.81,3355.32C5943.14,3356.98 5943.67,3358.88 5943.4,3361.02C5943.14,3363.55 5942.24,3366.35 5940.7,3369.42C5939.17,3372.48 5937.37,3375.68 5935.31,3379.02C5933.24,3382.35 5931.17,3385.65 5929.11,3388.92C5927.04,3392.18 5925.31,3395.32 5923.9,3398.32C5922.51,3401.32 5921.64,3404.02 5921.31,3406.42C5920.97,3408.82 5921.61,3410.75 5923.2,3412.22C5924.4,3413.28 5926.01,3413.38 5928.01,3412.52C5930.01,3411.65 5932.24,3410.12 5934.7,3407.92C5937.17,3405.72 5939.77,3403.02 5942.51,3399.82C5945.24,3396.62 5947.97,3393.25 5950.7,3389.72C5953.44,3386.18 5956.07,3382.65 5958.61,3379.12C5961.14,3375.58 5963.4,3372.35 5965.4,3369.42C5967.67,3365.55 5969.57,3362.18 5971.11,3359.32C5972.64,3356.45 5973.4,3354.28 5973.4,3352.82C5973.54,3352.28 5973.24,3351.45 5972.51,3350.32C5971.77,3349.18 5971.74,3348.22 5972.4,3347.42C5972.67,3347.02 5973.17,3346.78 5973.9,3346.72C5974.64,3346.65 5975.34,3346.75 5976.01,3347.02C5976.81,3347.28 5977.74,3347.62 5978.81,3348.02C5981.2,3348.95 5983.27,3350.15 5985.01,3351.62C5986.47,3352.82 5987.77,3354.35 5988.9,3356.22C5990.04,3358.08 5990.4,3360.28 5990.01,3362.82C5989.47,3366.02 5988.14,3369.62 5986.01,3373.62C5983.87,3377.62 5981.64,3381.72 5979.31,3385.92C5976.97,3390.12 5974.87,3394.18 5973.01,3398.12C5971.14,3402.05 5970.2,3405.48 5970.2,3408.42C5970.2,3410.82 5970.94,3412.68 5972.4,3414.02C5973.61,3415.08 5975.07,3415.52 5976.81,3415.32C5978.54,3415.12 5980.37,3414.52 5982.31,3413.52C5984.24,3412.52 5986.27,3411.15 5988.4,3409.42C5990.54,3407.68 5992.61,3405.88 5994.61,3404.02C5995.76,3402.93 5996.94,3401.77 5998.14,3400.55C5999.15,3398.46 6000.44,3396.28 6002.01,3394.02C6004.14,3390.55 6006.64,3387.02 6009.51,3383.42C6012.37,3379.82 6015.17,3376.45 6017.9,3373.32C6020.64,3370.18 6023.07,3367.42 6025.2,3365.02C6027.34,3362.62 6028.67,3360.88 6029.2,3359.82C6026.94,3358.88 6025.04,3357.65 6023.51,3356.12C6021.97,3354.58 6020.74,3353.02 6019.81,3351.42C6018.87,3349.82 6018.24,3348.28 6017.9,3346.82C6017.57,3345.35 6017.4,3344.08 6017.4,3343.02C6017.4,3341.82 6017.64,3340.02 6018.11,3337.62C6018.57,3335.22 6019.31,3332.75 6020.31,3330.22C6021.31,3327.68 6022.54,3325.48 6024.01,3323.62C6025.47,3321.75 6027.27,3320.82 6029.4,3320.82C6031.54,3320.82 6033.81,3321.95 6036.2,3324.22C6040.07,3328.08 6042.01,3333.28 6042.01,3339.82C6042.01,3341.42 6041.87,3343.05 6041.61,3344.72C6041.34,3346.38 6041.01,3348.15 6040.61,3350.02C6043.27,3349.35 6046.04,3348.78 6048.9,3348.32C6051.77,3347.85 6054.54,3347.62 6057.2,3347.62C6060.67,3347.62 6063.7,3348.22 6066.31,3349.42C6068.9,3350.62 6070.54,3352.75 6071.2,3355.82C6071.47,3356.88 6071.11,3358.52 6070.11,3360.72C6069.11,3362.92 6067.77,3365.52 6066.11,3368.52C6064.44,3371.52 6062.61,3374.75 6060.61,3378.22C6058.61,3381.68 6056.74,3385.15 6055.01,3388.62C6053.27,3392.08 6051.81,3395.42 6050.61,3398.62C6049.4,3401.82 6048.81,3404.62 6048.81,3407.02C6048.81,3409.95 6049.87,3412.08 6052.01,3413.42C6053.61,3414.62 6055.94,3414.42 6059.01,3412.82C6062.07,3411.22 6065.24,3408.98 6068.51,3406.12C6070.9,3404.02 6073.18,3401.81 6075.36,3399.49C6075.63,3398.39 6075.94,3397.27 6076.31,3396.12C6077.7,3391.65 6079.94,3386.75 6083.01,3381.42C6087.94,3373.02 6093.34,3366.55 6099.2,3362.02C6105.07,3357.48 6110.54,3354.15 6115.61,3352.02C6121.47,3349.62 6127.34,3348.22 6133.2,3347.82C6134.81,3347.82 6136.47,3348.08 6138.2,3348.62C6139.94,3349.15 6141.67,3349.98 6143.4,3351.12C6145.14,3352.25 6146.7,3353.65 6148.11,3355.32C6149.51,3356.98 6150.67,3358.95 6151.61,3361.22C6154.4,3357.48 6155.81,3355.08 6155.81,3354.02C6155.81,3353.35 6155.7,3352.42 6155.51,3351.22C6155.31,3350.02 6155.54,3349.08 6156.2,3348.42C6157.01,3347.48 6158.01,3347.15 6159.2,3347.42C6159.74,3347.55 6160.27,3347.75 6160.81,3348.02C6163.34,3349.62 6165.54,3351.28 6167.4,3353.02C6169.01,3354.48 6170.34,3356.25 6171.4,3358.32C6172.47,3360.38 6172.67,3362.55 6172.01,3364.82C6171.61,3366.42 6170.54,3368.52 6168.81,3371.12C6167.07,3373.72 6165.07,3376.58 6162.81,3379.72C6160.54,3382.85 6158.24,3386.08 6155.9,3389.42C6153.57,3392.75 6151.64,3395.98 6150.11,3399.12C6148.57,3402.25 6147.57,3405.12 6147.11,3407.72C6146.64,3410.32 6147.14,3412.35 6148.61,3413.82C6150.2,3415.42 6152.07,3416.22 6154.2,3416.22C6155.81,3416.22 6157.54,3415.82 6159.4,3415.02C6161.27,3414.22 6163.14,3413.15 6165.01,3411.82C6166.87,3410.48 6168.77,3408.98 6170.7,3407.32C6172.64,3405.65 6174.47,3403.95 6176.2,3402.22C6180.2,3398.08 6184.27,3393.42 6188.4,3388.22L6194.61,3391.82L6194.81,3391.82C6191.74,3396.08 6188.37,3400.58 6184.7,3405.32C6181.04,3410.05 6177.07,3414.38 6172.81,3418.32C6168.54,3422.25 6164.01,3425.48 6159.2,3428.02C6154.4,3430.55 6149.47,3431.82 6144.4,3431.82C6137.07,3431.82 6131.67,3430.02 6128.2,3426.42C6124.74,3422.82 6123.14,3418.28 6123.4,3412.82C6118.34,3417.88 6113.47,3422.18 6108.81,3425.72C6104.14,3429.25 6100.27,3431.22 6097.2,3431.62C6094.4,3431.88 6091.64,3431.58 6088.9,3430.72C6086.17,3429.85 6083.7,3428.42 6081.51,3426.42C6079.31,3424.42 6077.54,3421.92 6076.2,3418.92C6075.35,3416.99 6074.76,3414.85 6074.46,3412.5C6073.21,3413.83 6071.93,3415.14 6070.61,3416.42C6066.2,3420.68 6061.51,3424.35 6056.51,3427.42C6051.51,3430.48 6046.4,3432.02 6041.2,3432.02C6036.54,3432.15 6032.84,3431.08 6030.11,3428.82C6027.37,3426.55 6025.47,3424.08 6024.4,3421.42C6023.74,3419.42 6023.4,3417.48 6023.4,3415.62C6023.4,3412.28 6024.17,3408.72 6025.7,3404.92C6027.24,3401.12 6029.14,3397.38 6031.4,3393.72C6033.67,3390.05 6036.11,3386.48 6038.7,3383.02C6041.31,3379.55 6043.74,3376.42 6046.01,3373.62C6048.27,3370.82 6050.11,3368.45 6051.51,3366.52C6052.9,3364.58 6053.61,3363.28 6053.61,3362.62C6053.61,3361.68 6053.24,3361.12 6052.51,3360.92C6051.77,3360.72 6050.9,3360.65 6049.9,3360.72C6048.9,3360.78 6047.87,3360.88 6046.81,3361.02C6045.74,3361.15 6044.81,3361.22 6044.01,3361.22C6041.34,3361.48 6038.94,3361.48 6036.81,3361.22C6035.34,3363.62 6033.17,3366.85 6030.31,3370.92C6027.44,3374.98 6024.54,3379.62 6021.61,3384.82C6018.67,3390.02 6016.14,3395.72 6014.01,3401.92C6011.87,3408.12 6010.81,3414.55 6010.81,3421.22C6010.81,3422.28 6010.84,3423.38 6010.9,3424.52C6010.97,3425.65 6011.07,3426.75 6011.2,3427.82C6011.2,3428.22 6011.57,3428.75 6012.31,3429.42C6013.04,3430.08 6013.2,3430.75 6012.81,3431.42C6012.14,3432.22 6010.84,3432.45 6008.9,3432.12C6006.97,3431.78 6004.97,3430.92 6002.9,3429.52C6000.84,3428.12 5998.97,3426.12 5997.31,3423.52C5996.06,3421.57 5995.27,3419.26 5994.96,3416.6C5994.16,3417.35 5993.34,3418.08 5992.51,3418.82C5989.77,3421.22 5986.87,3423.38 5983.81,3425.32C5980.74,3427.25 5977.54,3428.78 5974.2,3429.92C5970.87,3431.05 5967.47,3431.62 5964.01,3431.62C5957.87,3431.88 5953.37,3430.08 5950.51,3426.22C5947.64,3422.35 5946.2,3417.55 5946.2,3411.82L5946.2,3410.42C5941.27,3416.28 5936.11,3421.28 5930.7,3425.42C5925.31,3429.55 5919.81,3431.62 5914.2,3431.62C5908.2,3431.88 5903.67,3430.08 5900.61,3426.22C5898.27,3423.27 5896.9,3419.78 5896.5,3415.75C5895.65,3416.56 5894.78,3417.34 5893.9,3418.12C5889.57,3421.92 5885.01,3425.12 5880.2,3427.72C5875.4,3430.32 5870.54,3431.68 5865.61,3431.82C5860.94,3432.08 5857.01,3431.18 5853.81,3429.12C5850.72,3427.12 5848.88,3422.94 5848.27,3416.55C5847.65,3417.15 5847.03,3417.74 5846.4,3418.32C5842.14,3422.25 5837.61,3425.48 5832.81,3428.02C5828.01,3430.55 5823.07,3431.82 5818.01,3431.82C5810.67,3431.82 5805.27,3430.02 5801.81,3426.42C5798.34,3422.82 5796.74,3418.28 5797.01,3412.82C5791.94,3417.88 5787.07,3422.18 5782.4,3425.72C5777.74,3429.25 5773.87,3431.22 5770.81,3431.62C5768.01,3431.88 5765.24,3431.58 5762.51,3430.72C5759.77,3429.85 5757.31,3428.42 5755.11,3426.42C5752.9,3424.42 5751.14,3421.92 5749.81,3418.92C5749.24,3417.64 5748.79,3416.27 5748.47,3414.82C5745.15,3418.3 5741.33,3421.57 5737.01,3424.62C5731.14,3428.75 5724.47,3431.15 5717.01,3431.82C5714.61,3432.08 5712.37,3431.78 5710.31,3430.92C5708.24,3430.05 5706.44,3428.98 5704.9,3427.72C5703.37,3426.45 5702.14,3425.02 5701.2,3423.42C5700.27,3421.82 5699.61,3420.35 5699.2,3419.02C5698.65,3417.08 5698.51,3415.01 5698.79,3412.79ZM6101.2,3417.62C6102.94,3417.62 6105.11,3416.65 6107.7,3414.72C6110.31,3412.78 6113.07,3410.35 6116.01,3407.42C6118.94,3404.48 6121.97,3401.22 6125.11,3397.62C6128.24,3394.02 6131.14,3390.48 6133.81,3387.02C6136.47,3383.55 6138.87,3380.28 6141.01,3377.22C6143.14,3374.15 6144.67,3371.75 6145.61,3370.02C6146.01,3369.35 6146.07,3368.62 6145.81,3367.82C6145.54,3367.02 6145.11,3366.22 6144.51,3365.42C6143.9,3364.62 6143.24,3363.95 6142.51,3363.42C6141.77,3362.88 6141.01,3362.48 6140.2,3362.22C6137.01,3361.55 6133.67,3361.95 6130.2,3363.42C6126.74,3364.88 6123.34,3366.98 6120.01,3369.72C6116.67,3372.45 6113.51,3375.68 6110.51,3379.42C6107.51,3383.15 6104.84,3386.95 6102.51,3390.82C6100.17,3394.68 6098.34,3398.42 6097.01,3402.02C6095.67,3405.62 6095.01,3408.68 6095.01,3411.22C6095.01,3415.62 6097.07,3417.75 6101.2,3417.62ZM5774.81,3417.62C5776.54,3417.62 5778.7,3416.65 5781.31,3414.72C5783.9,3412.78 5786.67,3410.35 5789.61,3407.42C5792.54,3404.48 5795.57,3401.22 5798.7,3397.62C5801.84,3394.02 5804.74,3390.48 5807.4,3387.02C5810.07,3383.55 5812.47,3380.28 5814.61,3377.22C5816.74,3374.15 5818.27,3371.75 5819.2,3370.02C5819.61,3369.35 5819.67,3368.62 5819.4,3367.82C5819.14,3367.02 5818.7,3366.22 5818.11,3365.42C5817.51,3364.62 5816.84,3363.95 5816.11,3363.42C5815.37,3362.88 5814.61,3362.48 5813.81,3362.22C5810.61,3361.55 5807.27,3361.95 5803.81,3363.42C5800.34,3364.88 5796.94,3366.98 5793.61,3369.72C5790.27,3372.45 5787.11,3375.68 5784.11,3379.42C5781.11,3383.15 5778.44,3386.95 5776.11,3390.82C5773.77,3394.68 5771.94,3398.42 5770.61,3402.02C5769.27,3405.62 5768.61,3408.68 5768.61,3411.22C5768.61,3415.62 5770.67,3417.75 5774.81,3417.62ZM5597.24,3275.42C5607.76,3279.95 5615.22,3286.02 5619.61,3293.62C5624.01,3301.22 5626.2,3309.42 5626.2,3318.22C5626.2,3326.08 5624.82,3334.08 5622.05,3342.22C5619.27,3350.35 5615.77,3357.88 5611.55,3364.82C5607.32,3371.75 5602.7,3377.72 5597.7,3382.72C5592.7,3387.72 5588.01,3391.02 5583.61,3392.62C5578.94,3394.48 5574.61,3395.42 5570.61,3395.42C5566.2,3395.42 5562.57,3394.52 5559.7,3392.72C5556.84,3390.92 5554.64,3388.85 5553.11,3386.52C5551.57,3384.18 5550.67,3381.95 5550.4,3379.82C5550.14,3377.68 5550.4,3376.22 5551.2,3375.42C5552.67,3373.95 5554.2,3374.02 5555.81,3375.62C5556.34,3376.15 5557.04,3376.65 5557.9,3377.12C5558.77,3377.58 5559.54,3377.62 5560.2,3377.22C5566.74,3375.22 5572.81,3371.42 5578.4,3365.82C5584.01,3360.22 5588.84,3353.82 5592.9,3346.62C5596.97,3339.42 5600.14,3332.02 5602.4,3324.42C5604.67,3316.82 5605.81,3310.08 5605.81,3304.22C5605.81,3300.62 5605.34,3297.52 5604.4,3294.92C5603.47,3292.32 5601.94,3290.48 5599.81,3289.42C5598.87,3289.15 5597.74,3288.88 5596.4,3288.62C5595.07,3288.35 5593.54,3288.22 5591.81,3288.22C5588.34,3288.22 5584.14,3289.02 5579.2,3290.62C5574.27,3292.22 5568.7,3295.32 5562.51,3299.92C5556.31,3304.52 5549.47,3310.98 5542.01,3319.32C5534.54,3327.65 5526.61,3338.55 5518.2,3352.02C5508.2,3367.88 5501.07,3382.65 5496.81,3396.32C5492.54,3409.98 5490.4,3422.15 5490.4,3432.82C5490.4,3439.75 5491.2,3445.92 5492.81,3451.32C5494.4,3456.72 5496.64,3461.28 5499.51,3465.02C5502.37,3468.75 5505.81,3471.58 5509.81,3473.52C5513.81,3475.45 5518.14,3476.35 5522.81,3476.22C5528.4,3475.95 5533.54,3474.68 5538.2,3472.42C5542.87,3470.15 5546.97,3467.35 5550.51,3464.02C5554.04,3460.68 5557.07,3457.02 5559.61,3453.02C5562.14,3449.02 5564.11,3445.25 5565.51,3441.72C5566.9,3438.18 5567.74,3435.12 5568.01,3432.52C5568.27,3429.92 5567.94,3428.22 5567.01,3427.42C5566.47,3427.02 5565.97,3426.32 5565.51,3425.32C5565.04,3424.32 5564.81,3423.38 5564.81,3422.52C5564.81,3421.65 5565.17,3420.95 5565.9,3420.42C5566.64,3419.88 5567.87,3419.82 5569.61,3420.22C5574.01,3421.68 5577.47,3424.25 5580.01,3427.92C5582.54,3431.58 5583.81,3435.95 5583.81,3441.02C5583.81,3445.68 5582.64,3450.75 5580.31,3456.22C5577.97,3461.68 5574.14,3467.42 5568.81,3473.42C5563.61,3479.02 5557.81,3483.12 5551.4,3485.72C5545.01,3488.32 5538.4,3489.62 5531.61,3489.62C5523.74,3489.62 5516.04,3487.98 5508.51,3484.72C5500.97,3481.45 5494.2,3476.72 5488.2,3470.52C5482.2,3464.32 5477.37,3456.75 5473.7,3447.82C5470.04,3438.88 5468.2,3428.82 5468.2,3417.62C5468.2,3410.02 5469.17,3401.92 5471.1,3393.32C5473.03,3384.72 5476.19,3375.62 5480.59,3366.02C5486.85,3352.42 5493.27,3340.72 5499.86,3330.92C5506.46,3321.12 5513.05,3312.82 5519.64,3306.02C5526.23,3299.22 5532.69,3293.75 5539.01,3289.62C5545.34,3285.48 5551.36,3282.25 5557.09,3279.92C5562.82,3277.58 5568.08,3276.05 5572.87,3275.32C5577.67,3274.58 5581.86,3274.22 5585.46,3274.22C5587.32,3274.22 5588.95,3274.28 5590.35,3274.42C5591.75,3274.55 5592.98,3274.68 5594.05,3274.82C5595.24,3275.08 5596.31,3275.28 5597.24,3275.42ZM5731.61,3340.22C5733.07,3337.82 5734.54,3334.95 5736.01,3331.62C5737.47,3328.28 5738.77,3325.02 5739.9,3321.82C5741.04,3318.62 5742.01,3315.68 5742.81,3313.02C5743.61,3310.35 5744.01,3308.42 5744.01,3307.22C5744.01,3306.15 5743.77,3305.32 5743.31,3304.72C5742.84,3304.12 5742.37,3303.55 5741.9,3303.02C5741.44,3302.48 5741.11,3301.85 5740.9,3301.12C5740.7,3300.38 5741.01,3299.42 5741.81,3298.22C5742.61,3297.02 5744.04,3296.68 5746.11,3297.22C5748.17,3297.75 5750.34,3298.75 5752.61,3300.22C5754.87,3301.68 5756.94,3303.42 5758.81,3305.42C5760.67,3307.42 5761.74,3309.22 5762.01,3310.82C5762.27,3312.42 5761.51,3314.92 5759.7,3318.32C5757.9,3321.72 5755.77,3325.22 5753.31,3328.82C5750.84,3332.42 5748.27,3335.82 5745.61,3339.02C5742.94,3342.22 5740.87,3344.48 5739.4,3345.82C5737.94,3347.15 5736.67,3347.65 5735.61,3347.32C5734.54,3346.98 5733.67,3346.35 5733.01,3345.42C5732.34,3344.48 5731.9,3343.45 5731.7,3342.32C5731.51,3341.18 5731.47,3340.48 5731.61,3340.22Z" style="fill:rgb(182,155,84);"/>
                    </g>
                    <g transform="matrix(2.60351,0,0,2.60351,-6243.97,-5090.13)">
                        <path d="M3517.68,3037.48L3542.25,3037.48L3542.25,3184.05L3517.68,3184.05L3517.68,3180.86C3513.87,3183.06 3509.67,3184.05 3505.46,3184.05L3493.25,3184.05C3479.66,3184.05 3468.88,3173.26 3468.88,3159.68L3468.88,3037.48L3493.25,3037.48L3493.25,3159.68L3517.68,3159.68L3517.68,3037.48ZM3647.45,3061.85L3647.45,3184.05L3623.08,3184.05L3623.08,3061.85L3598.65,3061.85L3598.65,3184.05L3574.28,3184.05L3574.28,3037.48L3598.65,3037.48L3598.65,3040.68C3602.45,3038.48 3606.66,3037.48 3610.86,3037.48L3623.08,3037.48C3636.66,3037.48 3647.45,3048.27 3647.45,3061.85ZM3752.85,3061.85L3752.85,3184.05L3728.28,3184.05L3728.28,3123.05L3703.85,3123.05L3703.85,3184.05L3679.48,3184.05L3679.48,3061.85C3679.48,3048.27 3690.26,3037.48 3703.85,3037.48L3728.28,3037.48C3741.86,3037.48 3752.85,3048.27 3752.85,3061.85ZM3703.85,3098.48L3728.28,3098.48L3728.28,3061.85L3703.85,3061.85L3703.85,3098.48ZM3919.85,3061.85L3919.85,3184.05L3895.48,3184.05L3895.48,3061.85L3871.05,3061.85L3871.05,3184.05L3846.68,3184.05L3846.68,3037.48L3871.05,3037.48L3871.05,3040.68C3874.86,3038.48 3879.06,3037.48 3883.26,3037.48L3895.48,3037.48C3909.06,3037.48 3919.85,3048.27 3919.85,3061.85ZM4000.68,3037.48L4025.25,3037.48L4025.25,3184.05L4000.68,3184.05L4000.68,3180.86C3996.87,3183.06 3992.67,3184.05 3988.46,3184.05L3976.25,3184.05C3962.66,3184.05 3951.88,3173.26 3951.88,3159.68L3951.88,3037.48L3976.25,3037.48L3976.25,3159.68L4000.68,3159.68L4000.68,3037.48ZM4081.65,3159.68L4115.25,3159.68L4115.25,3184.05L4081.65,3184.05C4068.07,3184.05 4057.28,3173.26 4057.28,3159.68L4057.28,3061.85C4057.28,3048.27 4068.07,3037.48 4081.65,3037.48L4115.25,3037.48L4115.25,3061.85L4081.65,3061.85L4081.65,3098.48L4115.25,3098.48L4115.25,3123.05L4081.65,3123.05L4081.65,3159.68ZM4194.86,3037.48L4219.45,3037.48L4195.06,3184.05L4170.67,3184.05L4146.28,3037.48L4171.07,3037.48L4182.86,3108.87L4194.86,3037.48ZM4323.65,3061.85L4323.65,3184.05L4299.08,3184.05L4299.08,3123.05L4274.65,3123.05L4274.65,3184.05L4250.28,3184.05L4250.28,3061.85C4250.28,3048.27 4261.07,3037.48 4274.65,3037.48L4299.08,3037.48C4312.66,3037.48 4323.65,3048.27 4323.65,3061.85ZM4274.65,3098.48L4299.08,3098.48L4299.08,3061.85L4274.65,3061.85L4274.65,3098.48Z" style="fill:rgb(59,59,59);"/>
                    </g>
                    <g transform="matrix(1.16385,0,0,1,-638.486,575.434)">
                        <path d="M3366.99,2033.38L3373.38,2052.57L3304.62,2083.57L3270.22,1980.22L3337.33,1949.97L3343.72,1969.16L3297.03,1990.21L3304.51,2012.65L3345.73,1994.06L3351.93,2012.67L3310.7,2031.25L3318.66,2055.17L3366.99,2033.38ZM3459.31,1905.37L3486.49,2011.59L3469.15,2017.6L3407.14,1968.88L3423.65,2033.37L3402.79,2040.6L3375.61,1934.38L3393.08,1928.32L3454.95,1977.09L3438.45,1912.6L3459.31,1905.37ZM3617.61,1980.89C3608.06,1982.87 3599.05,1982.25 3590.59,1979.01C3582.12,1975.78 3575.03,1970.34 3569.3,1962.68C3563.57,1955.02 3559.87,1945.79 3558.22,1934.98C3556.57,1924.17 3557.3,1914.02 3560.41,1904.53C3563.51,1895.04 3568.56,1887.08 3575.55,1880.65C3582.53,1874.22 3590.85,1870 3600.49,1868.01C3608.62,1866.32 3616.21,1866.47 3623.28,1868.43C3630.36,1870.4 3636.6,1874.04 3642.02,1879.35L3630.38,1897.2C3622.74,1889.99 3614.23,1887.36 3604.85,1889.3C3599.05,1890.5 3594.09,1893.05 3589.99,1896.96C3585.89,1900.86 3582.97,1905.73 3581.24,1911.56C3579.51,1917.38 3579.15,1923.67 3580.19,1930.43C3581.22,1937.18 3583.41,1942.95 3586.77,1947.72C3590.12,1952.49 3594.31,1955.89 3599.31,1957.91C3604.32,1959.93 3609.72,1960.34 3615.53,1959.13C3624.9,1957.19 3632.1,1951.25 3637.12,1941.31L3653.34,1953.39C3649.85,1960.66 3645.05,1966.64 3638.95,1971.33C3632.85,1976.02 3625.74,1979.21 3617.61,1980.89ZM3744.65,1959.22L3723.63,1930.73L3703.47,1933.18L3706.22,1963.89L3684.3,1966.55L3674.43,1856.31L3715.43,1851.34C3723.82,1850.32 3731.24,1851.06 3737.72,1853.57C3744.19,1856.07 3749.36,1860.11 3753.23,1865.69C3757.11,1871.27 3759.41,1878.16 3760.14,1886.35C3760.88,1894.54 3759.82,1901.8 3756.97,1908.14C3754.11,1914.48 3749.72,1919.61 3743.77,1923.51L3768.19,1956.37L3744.65,1959.22ZM3737.95,1889.04C3737.4,1882.84 3735.26,1878.3 3731.53,1875.41C3727.81,1872.52 3722.65,1871.47 3716.07,1872.27L3698.21,1874.44L3701.65,1912.86L3719.51,1910.7C3726.1,1909.9 3730.95,1907.61 3734.08,1903.83C3737.21,1900.06 3738.5,1895.13 3737.95,1889.04ZM3792.15,1843.93L3814.16,1842.54L3819.31,1953.21L3797.31,1954.6L3792.15,1843.93ZM3886.95,1952.98C3879.43,1953.04 3872.14,1951.91 3865.1,1949.6C3858.05,1947.28 3852.39,1944.24 3848.1,1940.48L3855.47,1921.1C3859.57,1924.55 3864.44,1927.31 3870.08,1929.37C3875.71,1931.43 3881.34,1932.44 3886.96,1932.39C3893.22,1932.34 3897.84,1931.22 3900.82,1929.03C3903.8,1926.84 3905.28,1923.96 3905.26,1920.37C3905.24,1917.73 3904.34,1915.55 3902.56,1913.82C3900.78,1912.09 3898.51,1910.71 3895.73,1909.68C3892.96,1908.65 3889.21,1907.52 3884.49,1906.29C3877.22,1904.35 3871.27,1902.39 3866.63,1900.42C3861.99,1898.45 3858.01,1895.27 3854.67,1890.86C3851.33,1886.46 3849.64,1880.56 3849.59,1873.17C3849.55,1866.73 3851.01,1860.89 3853.97,1855.64C3856.94,1850.39 3861.42,1846.21 3867.43,1843.1C3873.45,1839.99 3880.81,1838.39 3889.51,1838.32C3895.59,1838.27 3901.53,1839.07 3907.35,1840.71C3913.16,1842.35 3918.26,1844.73 3922.63,1847.86L3915.95,1867.39C3907.12,1861.66 3898.3,1858.83 3889.5,1858.9C3883.34,1858.96 3878.79,1860.16 3875.85,1862.5C3872.92,1864.85 3871.47,1867.92 3871.49,1871.72C3871.51,1875.52 3873.23,1878.33 3876.64,1880.15C3880.05,1881.97 3885.26,1883.75 3892.25,1885.48C3899.52,1887.43 3905.47,1889.38 3910.11,1891.35C3914.75,1893.32 3918.74,1896.45 3922.07,1900.75C3925.41,1905.05 3927.1,1910.89 3927.15,1918.28C3927.18,1924.62 3925.7,1930.41 3922.7,1935.66C3919.69,1940.91 3915.16,1945.09 3909.1,1948.2C3903.04,1951.31 3895.66,1952.91 3886.95,1952.98ZM3978.12,1863.05L3947.68,1861.26L3948.59,1840.39L4031.47,1845.25L4030.57,1866.12L4000.13,1864.34L3996.24,1954.15L3974.23,1952.87L3978.12,1863.05ZM4096.33,1966.29C4086.51,1964.94 4077.91,1961.26 4070.53,1955.24C4063.16,1949.23 4057.68,1941.59 4054.1,1932.33C4050.52,1923.07 4049.28,1913.04 4050.38,1902.24C4051.48,1891.44 4054.7,1882.03 4060.03,1874C4065.37,1865.96 4072.23,1860.03 4080.61,1856.19C4089,1852.35 4098.1,1851.1 4107.91,1852.45C4117.73,1853.81 4126.31,1857.49 4133.64,1863.5C4140.98,1869.5 4146.45,1877.14 4150.08,1886.41C4153.7,1895.68 4154.96,1905.71 4153.86,1916.51C4152.77,1927.3 4149.52,1936.72 4144.14,1944.74C4138.76,1952.77 4131.9,1958.71 4123.56,1962.55C4115.22,1966.4 4106.15,1967.65 4096.33,1966.29ZM4098.54,1944.59C4104.12,1945.36 4109.32,1944.57 4114.12,1942.2C4118.93,1939.83 4122.89,1936.15 4126,1931.16C4129.11,1926.17 4131.02,1920.27 4131.71,1913.45C4132.4,1906.64 4131.74,1900.38 4129.71,1894.68C4127.69,1888.98 4124.58,1884.33 4120.38,1880.72C4116.18,1877.11 4111.29,1874.92 4105.7,1874.15C4100.12,1873.38 4094.93,1874.18 4090.12,1876.55C4085.31,1878.92 4081.35,1882.6 4078.24,1887.59C4075.13,1892.58 4073.23,1898.48 4072.54,1905.3C4071.84,1912.11 4072.51,1918.37 4074.53,1924.07C4076.55,1929.77 4079.66,1934.42 4083.86,1938.03C4088.06,1941.64 4092.95,1943.83 4098.54,1944.59ZM4259.47,1998.86C4252.13,1996.91 4245.26,1993.88 4238.86,1989.75C4232.46,1985.62 4227.54,1981.15 4224.11,1976.35L4235.08,1959.44C4238.4,1963.89 4242.6,1967.87 4247.68,1971.38C4252.76,1974.89 4258.04,1977.37 4263.52,1978.82C4269.63,1980.43 4274.34,1980.57 4277.67,1979.24C4281,1977.9 4283.01,1975.48 4283.69,1971.98C4284.2,1969.4 4283.75,1967.04 4282.36,1964.89C4280.97,1962.73 4279.02,1960.78 4276.52,1959.04C4274.03,1957.3 4270.6,1955.2 4266.24,1952.75C4259.55,1948.92 4254.14,1945.43 4250.01,1942.28C4245.88,1939.13 4242.63,1934.97 4240.24,1929.8C4237.86,1924.62 4237.37,1918.43 4238.78,1911.22C4240.01,1904.94 4242.57,1899.64 4246.49,1895.32C4250.4,1891 4255.59,1888.12 4262.06,1886.69C4268.52,1885.26 4276,1885.67 4284.49,1887.92C4290.41,1889.48 4296.04,1891.84 4301.38,1894.98C4306.72,1898.13 4311.21,1901.81 4314.85,1906.02L4304.51,1923.25C4297.04,1915.32 4289.01,1910.22 4280.43,1907.95C4274.42,1906.36 4269.76,1906.32 4266.44,1907.82C4263.12,1909.33 4261.1,1911.93 4260.38,1915.64C4259.65,1919.34 4260.77,1922.54 4263.74,1925.21C4266.7,1927.89 4271.42,1931.01 4277.89,1934.56C4284.58,1938.39 4289.99,1941.87 4294.12,1945.02C4298.25,1948.17 4301.52,1952.28 4303.92,1957.36C4306.32,1962.43 4306.82,1968.57 4305.41,1975.78C4304.21,1981.95 4301.63,1987.19 4297.67,1991.51C4293.71,1995.82 4288.48,1998.68 4281.97,2000.1C4275.46,2001.52 4267.96,2001.1 4259.47,1998.86ZM4370.6,2033.48C4361.16,2030.07 4353.28,2024.62 4346.97,2017.15C4340.65,2009.67 4336.46,2001 4334.39,1991.13C4332.32,1981.27 4332.67,1971.14 4335.44,1960.76C4338.2,1950.38 4342.84,1941.8 4349.35,1935.03C4355.85,1928.26 4363.53,1923.88 4372.37,1921.88C4381.21,1919.88 4390.35,1920.58 4399.8,1923.99C4409.24,1927.4 4417.09,1932.84 4423.37,1940.3C4429.64,1947.76 4433.83,1956.43 4435.95,1966.31C4438.06,1976.19 4437.73,1986.32 4434.96,1996.71C4432.19,2007.09 4427.54,2015.66 4420.99,2022.41C4414.44,2029.16 4406.77,2033.55 4397.97,2035.57C4389.17,2037.58 4380.05,2036.89 4370.6,2033.48ZM4376.17,2012.61C4381.54,2014.55 4386.77,2014.86 4391.87,2013.55C4396.97,2012.24 4401.44,2009.47 4405.27,2005.22C4409.11,2000.97 4411.91,1995.56 4413.65,1989.01C4415.4,1982.46 4415.73,1976.16 4414.63,1970.13C4413.53,1964.1 4411.2,1958.86 4407.64,1954.43C4404.07,1949.99 4399.6,1946.8 4394.23,1944.86C4388.86,1942.92 4383.63,1942.61 4378.53,1943.91C4373.43,1945.22 4368.97,1948 4365.12,1952.25C4361.29,1956.5 4358.49,1961.9 4356.74,1968.46C4355,1975.01 4354.67,1981.3 4355.77,1987.34C4356.87,1993.37 4359.2,1998.6 4362.77,2003.04C4366.33,2007.48 4370.8,2010.67 4376.17,2012.61ZM4500.18,2043.96L4487.58,2080.39L4467.14,2070.8L4479.84,2034.09L4468.51,1951.97L4490.22,1962.14L4498.01,2018.88L4537.41,1984.26L4557.48,1993.66L4500.18,2043.96Z" style="fill:rgb(59,59,59);"/>
                    </g>
                </g>
            </g>
        </g>
    </g>
</svg>
