<svg width="16px" height="16px" fill="currentColor" viewBox="0 0 24 24"><path id="path1" d="M 11.411133 0.041015625 C 11.128276 0.041015625 10.878248 0.21182573 10.775391 0.47753906 L 7.5205078 8.6132812 L 7.5205078 15.46875 L 8.3759766 17.182617 L 6.1318359 20.182617 L 6.6621094 20.182617 L 10.681641 20.182617 L 11.162109 20.182617 L 12.216797 18.076172 L 12.216797 17.663086 L 12.216797 17.115234 L 12.234375 17.080078 L 12.234375 15.899414 L 12.234375 15.46875 L 12.234375 15.041016 L 12.234375 8.1826172 L 12.234375 7.7548828 L 12.216797 7.7548828 L 11.976562 7.7548828 L 11.238281 7.7548828 C 10.603999 7.7548828 10.089844 8.2690367 10.089844 8.9033203 L 10.089844 15.46875 L 9.6621094 15.46875 L 9.6621094 8.9033203 C 9.6621094 8.0376091 10.37257 7.3271484 11.238281 7.3271484 L 11.976562 7.3271484 L 12.216797 7.3271484 L 12.216797 0.46875 L 12.216797 0.041015625 L 11.976562 0.041015625 L 11.411133 0.041015625 z M 12.421875 0.041015625 L 12.421875 0.46875 L 12.421875 7.3271484 L 12.662109 7.3271484 L 13.400391 7.3271484 C 14.266102 7.3271484 14.976563 8.0376091 14.976562 8.9033203 L 14.976562 15.46875 L 14.548828 15.46875 L 14.548828 8.9033203 C 14.548828 8.2690367 14.034674 7.7548828 13.400391 7.7548828 L 12.662109 7.7548828 L 12.421875 7.7548828 L 12.404297 7.7548828 L 12.404297 8.1826172 L 12.404297 15.041016 L 12.404297 15.46875 L 12.404297 15.899414 L 12.404297 17.080078 L 12.421875 17.115234 L 12.421875 17.663086 L 12.421875 18.076172 L 13.476562 20.182617 L 13.957031 20.182617 L 17.976562 20.182617 L 18.506836 20.182617 L 16.262695 17.182617 L 17.118164 15.46875 L 17.118164 8.6132812 L 13.863281 0.47753906 C 13.760424 0.21182573 13.510395 0.041015625 13.227539 0.041015625 L 12.662109 0.041015625 L 12.421875 0.041015625 z M 4.5615234 20.613281 C 4.2872384 20.613281 4.0382978 20.801887 3.9697266 21.076172 L 3.421875 23.285156 C 3.3275891 23.67087 3.6193872 24.041016 4.0136719 24.041016 L 11.332031 24.041016 C 11.606316 24.041016 11.846468 23.852411 11.915039 23.578125 L 12.319336 21.975586 L 12.720703 23.578125 C 12.789273 23.852411 13.029426 24.041016 13.303711 24.041016 L 20.625 24.041016 C 21.019285 24.041016 21.311082 23.67087 21.216797 23.285156 L 20.668945 21.076172 C 20.600375 20.801887 20.351433 20.613281 20.077148 20.613281 L 19.374023 20.613281 L 13.209961 20.613281 L 12.755859 20.613281 C 12.695859 20.613281 12.637365 20.619609 12.585938 20.636719 C 12.525938 20.653859 12.473303 20.68154 12.421875 20.71582 C 12.387585 20.73296 12.353623 20.766282 12.319336 20.791992 C 12.285046 20.766272 12.251084 20.73296 12.216797 20.71582 C 12.165367 20.68153 12.112734 20.653859 12.052734 20.636719 C 12.001304 20.619579 11.942812 20.613281 11.882812 20.613281 L 11.428711 20.613281 L 5.2646484 20.613281 L 4.5615234 20.613281 z " stroke="currentColor" stroke-width="0" stroke-linecap="round" stroke-linejoin="round"/></svg>