<svg width="16px" height="16px" fill="currentColor" viewBox="0 0 24 24"><path d="m -0.06696094,23.318502 c 0,-0.76384 -0.09939133,-0.685448 1.11902714,-0.882649 0.2578424,-0.04176 0.6055242,-0.145342 0.7726256,-0.230258 0.6737946,-0.342387 0.6501278,0.03029 0.6501278,-10.23839 V 2.5191014 L 2.1098505,2.1604745 C 1.8129357,1.8687202 1.5814681,1.7747966 0.86851518,1.6567471 L -0.0078502,1.5116465 V 0.82240165 0.13314811 l 6.9160082,0.005177 c 5.960338,0.005177 7.099991,0.0334794 8.247463,0.20752072 4.564681,0.69238577 6.293888,2.38871447 6.293888,6.17421167 0,3.2486786 -1.423457,5.0631085 -4.568765,5.8236705 -0.445694,0.107772 -0.826008,0.207883 -0.845143,0.222465 -0.03379,0.0258 1.083857,1.845899 3.921478,6.38628 1.617412,2.587969 2.137217,3.142675 3.268094,3.487496 l 0.754225,0.229981 0.006,0.638939 0.006,0.63894 -3.609932,0.03072 -3.609933,0.03072 -3.362523,-5.519766 -3.362523,-5.519766 H 9.1865996 8.3268309 v 4.063635 c 0,4.457562 0.041254,4.765685 0.6884357,5.141345 0.1797733,0.104356 0.6836196,0.250785 1.1196584,0.325398 l 0.792798,0.135661 v 0.685103 0.685103 H 5.4303832 -0.06695654 Z M 9.0113142,10.196669 C 10.001864,9.7052375 11.959726,9.3366962 14.390364,9.1841405 c 1.037678,-0.065147 1.296081,-0.1177907 1.385738,-0.2824094 0.0723,-0.1327615 0.03,-0.7364871 -0.123022,-1.755444 C 15.422498,5.6108236 15.326975,3.1186766 15.487841,2.8352836 15.623824,2.5957331 15.240766,3.0009982 12.167326,6.3482944 10.553997,8.1053866 9.0456895,9.7390448 8.8155328,9.9786471 8.3440251,10.469501 8.3801997,10.509788 9.0113142,10.196669 Z" id="path1" stroke="currentColor" stroke-width="0" stroke-linecap="round" stroke-linejoin="round"/></svg>