<svg width="16px" height="16px" fill="currentColor" viewBox="0 0 24 24"><path id="path1" d="m 0.66831632,0.01020207 c -0.3491581,0 -0.63025153,0.28109343 -0.63025153,0.63025149 V 2.5312082 c 0,0.3491581 0.28109343,0.6302515 0.63025153,0.6302515 H 23.357373 c 0.349158,0 0.630252,-0.2810934 0.630252,-0.6302515 V 0.64045356 c 0,-0.34915806 -0.281094,-0.63025149 -0.630252,-0.63025149 z M 3.1893224,4.4219628 c -0.3491581,0 -0.6302515,0.2810934 -0.6302515,0.6302515 v 1.8907555 c 0,0.3491581 0.2810934,0.6302516 0.6302515,0.6302516 H 20.836367 c 0.349158,0 0.630252,-0.2810935 0.630252,-0.6302516 V 5.0522143 c 0,-0.3491581 -0.281094,-0.6302515 -0.630252,-0.6302515 z M 5.080077,8.8337244 V 18.91775 H 8.8615871 V 8.8337244 Z m 5.042013,0 V 21.438756 H 13.9036 V 8.8337244 Z m 5.042013,0 V 23.959762 h 3.78151 V 8.8337244 Z" stroke="currentColor" stroke-width="0" stroke-linecap="round" stroke-linejoin="round"/></svg>