<?xml version="1.0" encoding="UTF-8" standalone="no"?>
<!DOCTYPE svg PUBLIC "-//W3C//DTD SVG 1.1//EN" "http://www.w3.org/Graphics/SVG/1.1/DTD/svg11.dtd">
<svg width="100%" height="100%" viewBox="0 0 1200 1000" version="1.1" xmlns="http://www.w3.org/2000/svg" xmlns:xlink="http://www.w3.org/1999/xlink" xml:space="preserve" xmlns:serif="http://www.serif.com/" style="fill-rule:evenodd;clip-rule:evenodd;stroke-linecap:square;stroke-linejoin:round;stroke-miterlimit:1.5;">
    <g transform="matrix(1,0,0,1,-15.5,116.5)">
        <path d="M615.693,162.163C639.496,119.343 723.99,-2.202 892.987,52.758C958.46,74.051 1120.9,183.766 976.108,433.5C949.973,478.578 861.576,563.072 782.985,632.021C709.959,696.088 646.194,769.987 616.392,811.108L616.392,813.048C616.161,812.726 615.928,812.402 615.693,812.076C615.458,812.402 615.225,812.726 614.994,813.048L614.994,811.108C585.192,769.987 521.427,696.088 448.401,632.021C369.81,563.072 281.413,478.578 255.278,433.5C110.489,183.766 272.926,74.051 338.399,52.758C507.396,-2.202 591.889,119.343 615.693,162.163Z" style="fill:none;stroke:black;stroke-opacity:0.33;stroke-width:31px;"/>
    </g>
    <g id="Capa1">
        <g transform="matrix(0.662467,0,0,0.622809,15.5624,177.222)">
            <path d="M464.595,178.209L464.595,349.921C464.595,370.552 448.847,387.303 429.451,387.303L89.772,387.303C70.376,387.303 54.628,370.552 54.628,349.921L54.628,178.209C54.628,157.578 70.376,140.827 89.772,140.827L429.451,140.827C448.847,140.827 464.595,157.578 464.595,178.209Z" style="fill:white;stroke:black;stroke-width:12.54px;"/>
        </g>
        <g transform="matrix(0.997881,-0.977084,1.02562,1.04745,-345.098,558.842)">
            <path d="M347.049,325.552L347.049,299.92L438.103,299.92L438.103,276.119L476.539,312.736L438.103,349.353L438.103,325.552L347.049,325.552Z" style="fill:rgb(120,120,120);"/>
            <path d="M341.274,325.552L341.274,299.92C341.274,296.882 343.859,294.419 347.049,294.419L432.329,294.419L432.329,276.119C432.329,273.894 433.736,271.888 435.894,271.037C438.051,270.185 440.535,270.656 442.186,272.229L480.622,308.846C482.877,310.994 482.877,314.477 480.622,316.626L442.186,353.243C440.535,354.816 438.051,355.287 435.894,354.435C433.736,353.584 432.329,351.578 432.329,349.353L432.329,331.053L347.049,331.053C343.859,331.053 341.274,328.59 341.274,325.552ZM347.049,325.552L438.103,325.552L438.103,349.353L476.539,312.736L438.103,276.119L438.103,299.92L347.049,299.92L347.049,325.552Z" style="fill:white;"/>
        </g>
        <g transform="matrix(5.05575e-17,0.825667,-1.46597,8.97646e-17,642.14,153.454)">
            <path d="M347.049,325.552L347.049,299.92L411.526,299.92L411.526,276.119L476.539,312.736L411.526,349.353L411.526,325.552L347.049,325.552Z" style="fill:rgb(120,120,120);"/>
            <path d="M337.281,325.552L337.281,299.92C337.281,296.882 341.654,294.419 347.049,294.419L401.759,294.419L401.759,276.119C401.759,273.894 404.139,271.888 407.788,271.037C411.438,270.185 415.639,270.656 418.433,272.229L483.446,308.846C487.26,310.994 487.26,314.477 483.446,316.626L418.433,353.243C415.639,354.816 411.438,355.287 407.788,354.435C404.139,353.584 401.759,351.578 401.759,349.353C401.759,349.353 401.759,331.053 401.759,331.053L347.049,331.053C341.654,331.053 337.281,328.59 337.281,325.552ZM347.049,325.552L411.526,325.552L411.526,349.353L476.539,312.736L411.526,276.119L411.526,299.92L347.049,299.92L347.049,325.552Z" style="fill:white;"/>
        </g>
        <g transform="matrix(0.997881,-0.977084,1.02562,1.04745,74.9019,558.842)">
            <path d="M347.049,325.552L347.049,299.92L438.103,299.92L438.103,276.119L476.539,312.736L438.103,349.353L438.103,325.552L347.049,325.552Z" style="fill:rgb(120,120,120);"/>
            <path d="M341.274,325.552L341.274,299.92C341.274,296.882 343.859,294.419 347.049,294.419L432.329,294.419L432.329,276.119C432.329,273.894 433.736,271.888 435.894,271.037C438.051,270.185 440.535,270.656 442.186,272.229L480.622,308.846C482.877,310.994 482.877,314.477 480.622,316.626L442.186,353.243C440.535,354.816 438.051,355.287 435.894,354.435C433.736,353.584 432.329,351.578 432.329,349.353L432.329,331.053L347.049,331.053C343.859,331.053 341.274,328.59 341.274,325.552ZM347.049,325.552L438.103,325.552L438.103,349.353L476.539,312.736L438.103,276.119L438.103,299.92L347.049,299.92L347.049,325.552Z" style="fill:white;"/>
        </g>
        <g transform="matrix(5.05575e-17,0.825667,-1.46597,8.97646e-17,1062.14,153.454)">
            <path d="M347.049,325.552L347.049,299.92L411.526,299.92L411.526,276.119L476.539,312.736L411.526,349.353L411.526,325.552L347.049,325.552Z" style="fill:rgb(120,120,120);"/>
            <path d="M337.281,325.552L337.281,299.92C337.281,296.882 341.654,294.419 347.049,294.419L401.759,294.419L401.759,276.119C401.759,273.894 404.139,271.888 407.788,271.037C411.438,270.185 415.639,270.656 418.433,272.229L483.446,308.846C487.26,310.994 487.26,314.477 483.446,316.626L418.433,353.243C415.639,354.816 411.438,355.287 407.788,354.435C404.139,353.584 401.759,351.578 401.759,349.353C401.759,349.353 401.759,331.053 401.759,331.053L347.049,331.053C341.654,331.053 337.281,328.59 337.281,325.552ZM347.049,325.552L411.526,325.552L411.526,349.353L476.539,312.736L411.526,276.119L411.526,299.92L347.049,299.92L347.049,325.552Z" style="fill:white;"/>
        </g>
        <g transform="matrix(5.05575e-17,0.825667,-1.46597,8.97646e-17,1474.78,153.454)">
            <path d="M347.049,325.552L347.049,299.92L411.526,299.92L411.526,276.119L476.539,312.736L411.526,349.353L411.526,325.552L347.049,325.552Z" style="fill:rgb(120,120,120);"/>
            <path d="M337.281,325.552L337.281,299.92C337.281,296.882 341.654,294.419 347.049,294.419L401.759,294.419L401.759,276.119C401.759,273.894 404.139,271.888 407.788,271.037C411.438,270.185 415.639,270.656 418.433,272.229L483.446,308.846C487.26,310.994 487.26,314.477 483.446,316.626L418.433,353.243C415.639,354.816 411.438,355.287 407.788,354.435C404.139,353.584 401.759,351.578 401.759,349.353C401.759,349.353 401.759,331.053 401.759,331.053L347.049,331.053C341.654,331.053 337.281,328.59 337.281,325.552ZM347.049,325.552L411.526,325.552L411.526,349.353L476.539,312.736L411.526,276.119L411.526,299.92L347.049,299.92L347.049,325.552Z" style="fill:white;"/>
        </g>
        <g transform="matrix(0.662467,0,0,0.622809,842.14,177.222)">
            <path d="M464.595,178.209L464.595,349.921C464.595,370.552 448.847,387.303 429.451,387.303L89.772,387.303C70.376,387.303 54.628,370.552 54.628,349.921L54.628,178.209C54.628,157.578 70.376,140.827 89.772,140.827L429.451,140.827C448.847,140.827 464.595,157.578 464.595,178.209Z" style="fill:white;stroke:black;stroke-width:12.54px;"/>
        </g>
        <g transform="matrix(0.662467,0,0,0.622809,428.851,177.222)">
            <path d="M464.595,178.209L464.595,349.921C464.595,370.552 448.847,387.303 429.451,387.303L89.772,387.303C70.376,387.303 54.628,370.552 54.628,349.921L54.628,178.209C54.628,157.578 70.376,140.827 89.772,140.827L429.451,140.827C448.847,140.827 464.595,157.578 464.595,178.209Z" style="fill:white;stroke:black;stroke-width:12.54px;"/>
        </g>
        <g transform="matrix(2.06782,0,0,2.06782,-103.743,-23.3958)">
            <g transform="matrix(20,0,0,20,368.288,184.633)">
            </g>
            <text x="311.768px" y="184.633px" style="font-family:'Oswald-Regular', 'Oswald';font-size:20px;">DESEOS</text>
        </g>
        <g transform="matrix(2.06782,0,0,2.06782,310.228,-25.7922)">
            <g transform="matrix(17.1315,0,0,17.1315,388.382,184.633)">
            </g>
            <text x="291.675px" y="184.633px" style="font-family:'Oswald-Regular', 'Oswald';font-size:17.131px;">COMPROMISOS</text>
        </g>
        <g transform="matrix(2.06782,0,0,2.06782,-516.563,-23.4165)">
            <g transform="matrix(20,0,0,20,395.628,184.633)">
            </g>
            <text x="284.428px" y="184.633px" style="font-family:'Oswald-Regular', 'Oswald';font-size:20px;">CONVICCIONES</text>
        </g>
        <g transform="matrix(0.662467,0,0,0.622809,15.5624,479.222)">
            <path d="M464.595,178.209L464.595,349.921C464.595,370.552 448.847,387.303 429.451,387.303L89.772,387.303C70.376,387.303 54.628,370.552 54.628,349.921L54.628,178.209C54.628,157.578 70.376,140.827 89.772,140.827L429.451,140.827C448.847,140.827 464.595,157.578 464.595,178.209Z" style="fill:white;stroke:black;stroke-width:12.54px;"/>
        </g>
        <g transform="matrix(0.662467,0,0,0.622809,842.14,479.222)">
            <path d="M464.595,178.209L464.595,349.921C464.595,370.552 448.847,387.303 429.451,387.303L89.772,387.303C70.376,387.303 54.628,370.552 54.628,349.921L54.628,178.209C54.628,157.578 70.376,140.827 89.772,140.827L429.451,140.827C448.847,140.827 464.595,157.578 464.595,178.209Z" style="fill:white;stroke:black;stroke-width:12.54px;"/>
        </g>
        <g transform="matrix(0.662467,0,0,0.622809,428.851,479.222)">
            <path d="M464.595,178.209L464.595,349.921C464.595,370.552 448.847,387.303 429.451,387.303L89.772,387.303C70.376,387.303 54.628,370.552 54.628,349.921L54.628,178.209C54.628,157.578 70.376,140.827 89.772,140.827L429.451,140.827C448.847,140.827 464.595,157.578 464.595,178.209Z" style="fill:white;stroke:black;stroke-width:12.54px;"/>
        </g>
        <g transform="matrix(2.06782,0,0,2.06782,-103.743,278.604)">
            <g transform="matrix(20,0,0,20,393.398,184.633)">
            </g>
            <text x="286.658px" y="184.633px" style="font-family:'Oswald-Regular', 'Oswald';font-size:20px;">SENTIMIENTOS</text>
        </g>
        <g transform="matrix(2.06782,0,0,2.06782,310.228,276.208)">
            <g transform="matrix(17.1315,0,0,17.1315,371.833,184.633)">
            </g>
            <text x="308.224px" y="184.633px" style="font-family:'Oswald-Regular', 'Oswald';font-size:17.131px;">ACCIONES</text>
        </g>
        <g transform="matrix(2.06782,0,0,2.06782,-516.563,278.584)">
            <g transform="matrix(16.1201,0,0,16.1201,397.496,184.633)">
            </g>
            <text x="282.56px" y="184.633px" style="font-family:'Oswald-Regular', 'Oswald';font-size:16.12px;">INTERPRETACIONES</text>
        </g>
    </g>
</svg>
