<?xml version="1.0" encoding="UTF-8" standalone="no"?>
<!DOCTYPE svg PUBLIC "-//W3C//DTD SVG 1.1//EN" "http://www.w3.org/Graphics/SVG/1.1/DTD/svg11.dtd">
<svg width="100%" height="100%" viewBox="0 0 600 250" version="1.1" xmlns="http://www.w3.org/2000/svg" xmlns:xlink="http://www.w3.org/1999/xlink" xml:space="preserve" xmlns:serif="http://www.serif.com/" style="fill-rule:evenodd;clip-rule:evenodd;stroke-linejoin:round;stroke-miterlimit:1.5;">
    <g id="Capa2">
        <g transform="matrix(1.44381,0,0,1.44381,-137.511,-32.407)">
            <g transform="matrix(1,0,0,1,21.925,2)">
                <text x="108.87px" y="60px" style="font-family:'NotoSerif-Regular', 'Noto Serif', serif;font-size:30px;">yo</text>
                <text x="106.218px" y="89px" style="font-family:'NotoSerif-Regular', 'Noto Serif', serif;font-size:18px;">Εʼγω<tspan x="143.01px " y="89px ">́</tspan></text>
                <g transform="matrix(17,0,0,17,152.571,117)">
                </g>
                <text x="99.429px" y="117px" style="font-family:'NotoSerif-Regular', 'Noto Serif', serif;font-size:17px;">RP1NS</text>
            </g>
            <g transform="matrix(1,0,0,1,88.925,2)">
                <text x="107.67px" y="60px" style="font-family:'NotoSerif-Regular', 'Noto Serif', serif;font-size:30px;">no</text>
                <text x="111.168px" y="89px" style="font-family:'NotoSerif-Regular', 'Noto Serif', serif;font-size:18px;">ου<tspan x="126.054px 131.292px " y="86.228px 89px ">̓κ</tspan></text>
                <g transform="matrix(17,0,0,17,149.741,117)">
                </g>
                <text x="102.26px" y="117px" style="font-family:'NotoSerif-Regular', 'Noto Serif', serif;font-size:17px;">ΒΝΤΝ</text>
            </g>
            <g transform="matrix(1,0,0,1,164.915,2)">
                <text x="102.405px" y="60px" style="font-family:'NotoSerif-Regular', 'Noto Serif', serif;font-size:30px;">so<tspan x="132.645px " y="60px ">y</tspan></text>
                <text x="111.132px" y="89px" style="font-family:'NotoSerif-Regular', 'Noto Serif', serif;font-size:18px;">ει<tspan x="122.22px 125.154px 135.72px 142.344px " y="86.228px 89px 89px 89px ">̓μί</tspan></text>
                <g transform="matrix(17,0,0,17,154.934,117)">
                </g>
                <text x="97.066px" y="117px" style="font-family:'NotoSerif-Regular', 'Noto Serif', serif;font-size:17px;">VP<tspan x="117.959px " y="117px ">A</tspan>I1S</text>
            </g>
            <g transform="matrix(1,0,0,1,235.915,2)">
                <text x="113.325px" y="60px" style="font-family:'NotoSerif-Regular', 'Noto Serif', serif;font-size:30px;">el</text>
                <text x="120.807px" y="89px" style="font-family:'NotoSerif-Regular', 'Noto Serif', serif;font-size:18px;">ο<tspan x="126.009px " y="86.228px ">̔</tspan></text>
                <g transform="matrix(17,0,0,17,151.262,117)">
                </g>
                <text x="100.738px" y="117px" style="font-family:'NotoSerif-Regular', 'Noto Serif', serif;font-size:17px;">DNSM</text>
            </g>
            <g transform="matrix(1,0,0,1,323.915,2)">
                <text x="84.225px" y="60px" style="font-family:'NotoSerif-Regular', 'Noto Serif', serif;font-size:30px;">Cristo</text>
                <text x="93.762px" y="89px" style="font-family:'NotoSerif-Regular', 'Noto Serif', serif;font-size:18px;">χριστο<tspan x="148.806px 149.58px " y="89px 89px ">́ς</tspan></text>
                <g transform="matrix(17,0,0,17,151.568,117)">
                </g>
                <text x="100.432px" y="117px" style="font-family:'NotoSerif-Regular', 'Noto Serif', serif;font-size:17px;">NNSM</text>
            </g>
        </g>
        <g transform="matrix(1.44381,0,0,1.44381,-163.483,-32.407)">
            <text x="133.086px" y="164.407px" style="font-family:'AtkinsonHyperlegible-Regular', 'Atkinson Hyperlegible';font-size:12px;">P<tspan x="139.962px " y="164.407px ">a</tspan>labr<tspan x="166.146px " y="164.407px ">a</tspan>:</text>
            <text x="137.706px" y="176.407px" style="font-family:'AtkinsonHyperlegible-Bold', 'Atkinson Hyperlegible';font-weight:700;font-size:12px;">V<tspan x="145.014px " y="176.407px ">e</tspan>rbo</text>
        </g>
        <g transform="matrix(1.44381,0,0,1.44381,-72.5229,-32.407)">
            <text x="132.768px" y="164.407px" style="font-family:'AtkinsonHyperlegible-Regular', 'Atkinson Hyperlegible';font-size:12px;">Tiempo:</text>
            <text x="128.916px" y="176.407px" style="font-family:'AtkinsonHyperlegible-Bold', 'Atkinson Hyperlegible';font-weight:700;font-size:12px;">Presente</text>
        </g>
        <g transform="matrix(1.44381,0,0,1.44381,12.6621,-32.407)">
            <text x="143.448px" y="164.407px" style="font-family:'AtkinsonHyperlegible-Regular', 'Atkinson Hyperlegible';font-size:12px;">V<tspan x="149.952px " y="164.407px ">o</tspan>z:</text>
            <g transform="matrix(12,0,0,12,171.786,176.407)">
            </g>
            <text x="136.218px" y="176.407px" style="font-family:'AtkinsonHyperlegible-Bold', 'Atkinson Hyperlegible';font-weight:700;font-size:12px;">Activ<tspan x="165.15px " y="176.407px ">a</tspan></text>
        </g>
        <g transform="matrix(1.44381,0,0,1.44381,107.619,-32.407)">
            <text x="137.844px" y="164.407px" style="font-family:'AtkinsonHyperlegible-Regular', 'Atkinson Hyperlegible';font-size:12px;">Modo:</text>
            <text x="125.268px" y="176.407px" style="font-family:'AtkinsonHyperlegible-Bold', 'Atkinson Hyperlegible';font-weight:700;font-size:12px;">Indicativ<tspan x="175.86px " y="176.407px ">o</tspan></text>
        </g>
        <g transform="matrix(1.44381,0,0,1.44381,205.798,-32.407)">
            <text x="131.322px" y="164.407px" style="font-family:'AtkinsonHyperlegible-Regular', 'Atkinson Hyperlegible';font-size:12px;">Persona:</text>
            <g transform="matrix(12,0,0,12,156.69,176.407)">
            </g>
            <text x="151.314px" y="176.407px" style="font-family:'AtkinsonHyperlegible-Bold', 'Atkinson Hyperlegible';font-weight:700;font-size:12px;">1</text>
        </g>
        <g transform="matrix(1.44381,0,0,1.44381,290.983,-32.407)">
            <text x="131.856px" y="164.407px" style="font-family:'AtkinsonHyperlegible-Regular', 'Atkinson Hyperlegible';font-size:12px;">Núm<tspan x="156.516px " y="164.407px ">e</tspan>ro:</text>
            <g transform="matrix(12,0,0,12,177.606,176.407)">
            </g>
            <text x="130.398px" y="176.407px" style="font-family:'AtkinsonHyperlegible-Bold', 'Atkinson Hyperlegible';font-weight:700;font-size:12px;">Singul<tspan x="166.506px " y="176.407px ">a</tspan>r</text>
        </g>
        <g transform="matrix(1.44381,0,0,1.44381,-128.819,-46.8451)">
            <g transform="matrix(0.69261,-0,-0,0.69261,89.2214,32.4454)">
                <path d="M61.474,179.277L58.877,184.165L54.911,180.303L61.474,179.277Z" style="fill:rgb(137,137,137);"/>
                <path d="M248.104,143.738C220.244,181.621 54.113,131.117 58.329,180.665" style="fill:none;stroke:rgb(137,137,137);stroke-width:1.48px;"/>
            </g>
        </g>
        <g transform="matrix(-1.44381,0,0,1.44381,696.504,-46.8451)">
            <g transform="matrix(-0.69261,0,0,0.69261,482.406,32.4454)">
                <path d="M512.774,180.303L508.808,184.165L506.211,179.277L512.774,180.303Z" style="fill:rgb(137,137,137);"/>
                <path d="M319.581,143.738C347.441,181.621 513.572,131.117 509.356,180.665" style="fill:none;stroke:rgb(137,137,137);stroke-width:1.48px;"/>
            </g>
        </g>
        <g transform="matrix(1.44381,0,0,1.44381,-112.937,-46.8451)">
            <g transform="matrix(0.69261,-0,-0,0.69261,78.2214,32.4454)">
                <path d="M148.567,180.948L144.062,184.165L142.235,178.939L148.567,180.948Z" style="fill:rgb(137,137,137);"/>
                <path d="M260.117,143.738C228.331,181.254 158.019,148.339 145.133,180.788" style="fill:none;stroke:rgb(137,137,137);stroke-width:1.48px;"/>
            </g>
        </g>
        <g transform="matrix(-1.44381,0,0,1.44381,679.82,-46.8451)">
            <g transform="matrix(-0.69261,0,0,0.69261,470.85,32.4454)">
                <path d="M424.647,178.939L422.821,184.165L418.316,180.948L424.647,178.939Z" style="fill:rgb(137,137,137);"/>
                <path d="M306.766,143.738C338.551,181.254 408.864,148.339 421.749,180.788" style="fill:none;stroke:rgb(137,137,137);stroke-width:1.48px;"/>
            </g>
        </g>
        <g transform="matrix(1.44381,0,0,1.44381,-92.7238,-46.8451)">
            <g transform="matrix(0.69261,-0,-0,0.69261,64.2214,32.4454)">
                <path d="M237.238,182.021L232.134,184.165L231.505,178.665L237.238,182.021Z" style="fill:rgb(137,137,137);"/>
                <path d="M280.33,143.738C263.959,172.806 251.032,153.306 233.924,181.108" style="fill:none;stroke:rgb(137,137,137);stroke-width:1.48px;"/>
            </g>
        </g>
        <g transform="matrix(-1.44381,0,0,1.44381,667.272,-46.8451)">
            <g transform="matrix(-0.69261,0,0,0.69261,462.16,32.4454)">
                <path d="M328.669,178.673L327.976,184.165L322.897,181.962L328.669,178.673Z" style="fill:rgb(137,137,137);"/>
                <path d="M294.218,143.738C310.585,172.799 310.028,153.316 326.222,181.087" style="fill:none;stroke:rgb(137,137,137);stroke-width:1.48px;"/>
            </g>
        </g>
    </g>
</svg>
