<?xml version="1.0" encoding="UTF-8" standalone="no"?>
<!DOCTYPE svg PUBLIC "-//W3C//DTD SVG 1.1//EN" "http://www.w3.org/Graphics/SVG/1.1/DTD/svg11.dtd">
<svg width="100%" height="100%" viewBox="0 0 400 202" version="1.1" xmlns="http://www.w3.org/2000/svg" xmlns:xlink="http://www.w3.org/1999/xlink" xml:space="preserve" xmlns:serif="http://www.serif.com/" style="fill-rule:evenodd;clip-rule:evenodd;stroke-linejoin:round;stroke-miterlimit:1.5;">
    <g transform="matrix(1,0,0,1,-94.4528,-205.981)">
        <g id="Estructura-del-verbo-griego" serif:id="Estructura del verbo griego" transform="matrix(1,0,0,1,0,175)">
            <g id="text4">
            </g>
            <g transform="matrix(1,0,-0.00560429,1,233.357,96.487)">
                <g transform="matrix(89.1997,0,0,89.1997,-100.698,0)">
                    <path d="M0.48,-0.094c0.001,0.004 0.002,0.007 0.002,0.011c0,0.004 0,0.008 0,0.011c0,0.01 -0.001,0.02 -0.004,0.029c-0.003,0.01 -0.007,0.018 -0.013,0.026c-0.006,0.007 -0.013,0.013 -0.021,0.018c-0.009,0.005 -0.018,0.007 -0.029,0.007c-0.014,-0 -0.025,-0.004 -0.035,-0.01c-0.009,-0.007 -0.017,-0.016 -0.023,-0.027c-0.005,-0.01 -0.011,-0.024 -0.016,-0.042c-0.006,-0.018 -0.012,-0.04 -0.019,-0.067c-0.007,-0.026 -0.014,-0.058 -0.022,-0.093c-0.008,-0.036 -0.017,-0.077 -0.027,-0.123c-0.028,0.061 -0.054,0.118 -0.079,0.173c-0.024,0.054 -0.048,0.105 -0.072,0.152c-0.004,0.008 -0.008,0.014 -0.012,0.019c-0.004,0.004 -0.009,0.008 -0.014,0.011c-0.006,0.002 -0.011,0.004 -0.018,0.005c-0.006,0.001 -0.013,0.002 -0.021,0.002c-0.008,-0 -0.017,-0.001 -0.026,-0.002c-0.008,-0.001 -0.017,-0.003 -0.026,-0.007l-0.001,-0.004c0.021,-0.033 0.043,-0.067 0.065,-0.103c0.021,-0.036 0.043,-0.072 0.064,-0.11c0.021,-0.037 0.042,-0.074 0.063,-0.112c0.02,-0.037 0.04,-0.073 0.058,-0.108c-0.009,-0.038 -0.018,-0.07 -0.027,-0.096c-0.009,-0.026 -0.018,-0.047 -0.028,-0.064c-0.01,-0.016 -0.02,-0.028 -0.032,-0.035c-0.012,-0.007 -0.025,-0.011 -0.041,-0.011c-0.012,0 -0.023,0.002 -0.034,0.005c-0.011,0.004 -0.022,0.01 -0.033,0.018c-0.01,-0.007 -0.018,-0.016 -0.023,-0.025c-0.005,-0.01 -0.008,-0.019 -0.008,-0.028c0,-0.008 0.002,-0.016 0.006,-0.024c0.004,-0.007 0.009,-0.013 0.016,-0.019c0.007,-0.005 0.016,-0.009 0.026,-0.012c0.011,-0.004 0.023,-0.005 0.037,-0.005c0.031,-0 0.056,0.008 0.077,0.024c0.02,0.017 0.038,0.041 0.053,0.073c0.016,0.033 0.029,0.072 0.041,0.12c0.013,0.047 0.026,0.102 0.041,0.164c0.008,0.037 0.016,0.07 0.022,0.098c0.007,0.028 0.013,0.052 0.018,0.072c0.005,0.02 0.01,0.036 0.015,0.049c0.005,0.013 0.01,0.024 0.016,0.031c0.005,0.008 0.011,0.013 0.018,0.016c0.006,0.003 0.014,0.004 0.023,0.004c0.011,0 0.025,-0.004 0.04,-0.012l0.003,0.001Z" style="fill-rule:nonzero;"/>
                </g>
                <g transform="matrix(89.1997,0,0,89.1997,-58.3631,0)">
                    <path d="M0.328,-0.45c0.003,-0.003 0.007,-0.005 0.012,-0.006c0.005,-0.002 0.01,-0.002 0.014,-0.002c0.003,-0 0.005,-0 0.007,0c0.002,0.001 0.003,0.003 0.005,0.005c0.015,0.029 0.027,0.06 0.035,0.092c0.008,0.033 0.012,0.065 0.012,0.098c-0,0.035 -0.005,0.069 -0.013,0.102c-0.009,0.032 -0.022,0.061 -0.039,0.086c-0.017,0.025 -0.038,0.045 -0.063,0.061c-0.025,0.015 -0.054,0.022 -0.087,0.022c-0.017,0 -0.034,-0.003 -0.05,-0.01c-0.015,-0.007 -0.029,-0.017 -0.041,-0.031c-0.012,-0.013 -0.022,-0.03 -0.029,-0.05c-0.007,-0.019 -0.01,-0.041 -0.01,-0.066c-0,-0.024 0.001,-0.045 0.002,-0.061c0.002,-0.017 0.005,-0.032 0.007,-0.045c0.003,-0.013 0.005,-0.024 0.007,-0.033c0.002,-0.009 0.003,-0.018 0.003,-0.026c-0,-0.007 -0.001,-0.013 -0.003,-0.018c-0.002,-0.006 -0.005,-0.011 -0.01,-0.015c-0.004,-0.004 -0.009,-0.008 -0.016,-0.01c-0.006,-0.003 -0.014,-0.004 -0.023,-0.004c-0.002,0 -0.005,0 -0.007,0c-0.003,0.001 -0.005,0.001 -0.008,0.001l-0.001,-0.002c0,-0.018 0.003,-0.033 0.007,-0.045c0.005,-0.012 0.011,-0.022 0.018,-0.029c0.006,-0.008 0.014,-0.013 0.022,-0.016c0.009,-0.003 0.017,-0.005 0.025,-0.005c0.007,0 0.014,0.002 0.021,0.005c0.007,0.003 0.013,0.007 0.019,0.013c0.005,0.005 0.01,0.012 0.013,0.021c0.003,0.008 0.005,0.018 0.005,0.028c0,0.014 -0.002,0.029 -0.005,0.045c-0.004,0.016 -0.008,0.033 -0.012,0.051c-0.004,0.018 -0.008,0.037 -0.012,0.057c-0.003,0.02 -0.005,0.04 -0.005,0.061c-0,0.014 0.001,0.026 0.004,0.039c0.003,0.012 0.008,0.022 0.014,0.032c0.007,0.009 0.015,0.016 0.026,0.022c0.01,0.006 0.023,0.008 0.038,0.008c0.018,0 0.033,-0.003 0.047,-0.01c0.014,-0.006 0.025,-0.016 0.035,-0.027c0.011,-0.012 0.019,-0.026 0.026,-0.041c0.008,-0.016 0.013,-0.033 0.017,-0.05c0.005,-0.018 0.008,-0.036 0.01,-0.055c0.002,-0.018 0.003,-0.037 0.003,-0.055c-0,-0.025 -0.002,-0.049 -0.005,-0.072c-0.004,-0.024 -0.009,-0.046 -0.015,-0.065Z" style="fill-rule:nonzero;"/>
                </g>
                <g transform="matrix(89.1997,0,0,89.1997,31.1415,0)">
                    <path d="M0.227,-0.458c0.025,0 0.046,0.007 0.064,0.02c0.018,0.013 0.032,0.029 0.043,0.048c0.012,0.02 0.02,0.041 0.025,0.064c0.006,0.023 0.008,0.045 0.008,0.066c0,0.018 -0.001,0.038 -0.004,0.058c-0.004,0.02 -0.008,0.041 -0.015,0.06c-0.006,0.02 -0.014,0.039 -0.024,0.058c-0.01,0.018 -0.021,0.034 -0.035,0.048c-0.013,0.013 -0.029,0.025 -0.046,0.033c-0.017,0.008 -0.036,0.012 -0.057,0.012c-0.017,0 -0.032,-0.003 -0.045,-0.009c-0.014,-0.006 -0.026,-0.014 -0.036,-0.024c-0.01,-0.01 -0.019,-0.022 -0.026,-0.035c-0.008,-0.013 -0.014,-0.027 -0.019,-0.042c-0.005,-0.015 -0.008,-0.03 -0.011,-0.045c-0.002,-0.015 -0.003,-0.029 -0.003,-0.043c-0,-0.018 0.001,-0.037 0.005,-0.057c0.003,-0.021 0.007,-0.041 0.014,-0.061c0.006,-0.019 0.015,-0.039 0.024,-0.057c0.01,-0.018 0.022,-0.034 0.035,-0.048c0.013,-0.014 0.029,-0.025 0.046,-0.033c0.017,-0.008 0.036,-0.013 0.057,-0.013Zm0.006,0.081c-0.024,-0 -0.045,0.006 -0.064,0.019c-0.018,0.013 -0.034,0.029 -0.046,0.048c-0.012,0.019 -0.021,0.04 -0.027,0.063c-0.006,0.023 -0.01,0.044 -0.01,0.063c0,0.015 0.002,0.03 0.006,0.043c0.003,0.014 0.009,0.026 0.016,0.037c0.008,0.01 0.017,0.018 0.029,0.024c0.012,0.006 0.026,0.009 0.043,0.009c0.024,0 0.046,-0.006 0.064,-0.019c0.018,-0.013 0.034,-0.03 0.046,-0.049c0.012,-0.02 0.021,-0.041 0.027,-0.063c0.007,-0.023 0.01,-0.044 0.01,-0.064c-0,-0.015 -0.002,-0.03 -0.006,-0.044c-0.004,-0.013 -0.009,-0.025 -0.017,-0.035c-0.008,-0.01 -0.017,-0.018 -0.029,-0.024c-0.012,-0.006 -0.026,-0.008 -0.042,-0.008Z" style="fill:rgb(121,125,127);fill-rule:nonzero;"/>
                </g>
                <g transform="matrix(89.1997,0,0,89.1997,116.552,0)">
                    <path d="M0.351,-0.205c-0,-0.013 0,-0.029 0.001,-0.047c0.001,-0.017 0.003,-0.036 0.005,-0.054c0.001,-0.018 0.004,-0.036 0.006,-0.054c0.002,-0.018 0.005,-0.034 0.008,-0.048c0.003,-0.014 0.006,-0.026 0.009,-0.034c0.004,-0.009 0.007,-0.013 0.01,-0.013c0.004,-0 0.01,0.001 0.018,0.004c0.009,0.003 0.017,0.006 0.025,0.01c0.008,0.004 0.015,0.008 0.021,0.012c0.006,0.004 0.009,0.008 0.009,0.011c-0,0.017 -0.003,0.038 -0.008,0.06c-0.005,0.023 -0.012,0.046 -0.019,0.068c-0.008,0.023 -0.017,0.045 -0.025,0.066c-0.009,0.02 -0.017,0.037 -0.024,0.051c-0,0.002 -0,0.005 -0.001,0.007c0,0.002 0,0.004 0,0.006c0,0.012 0.002,0.023 0.005,0.033c0.003,0.01 0.008,0.02 0.015,0.028c0.006,0.008 0.014,0.015 0.024,0.019c0.01,0.005 0.021,0.008 0.033,0.008c0.016,-0 0.031,-0.004 0.044,-0.011c0.013,-0.008 0.023,-0.018 0.031,-0.03l0.004,0.002c0.002,0.006 0.003,0.011 0.004,0.016c0.001,0.005 0.001,0.01 0.001,0.014c0,0.012 -0.002,0.022 -0.005,0.033c-0.004,0.01 -0.01,0.019 -0.018,0.027c-0.007,0.009 -0.017,0.015 -0.028,0.02c-0.011,0.005 -0.024,0.007 -0.038,0.007c-0.028,0 -0.05,-0.01 -0.067,-0.03c-0.017,-0.02 -0.029,-0.051 -0.035,-0.095c-0.007,0.014 -0.015,0.028 -0.024,0.043c-0.009,0.015 -0.019,0.029 -0.03,0.042c-0.01,0.013 -0.022,0.023 -0.035,0.031c-0.013,0.008 -0.028,0.012 -0.043,0.012c-0.016,0 -0.029,-0.003 -0.041,-0.01c-0.012,-0.006 -0.022,-0.015 -0.031,-0.025c-0.009,-0.011 -0.016,-0.023 -0.022,-0.036c-0.006,-0.013 -0.011,-0.026 -0.014,-0.039l-0.003,0.001c-0.001,0.013 -0.003,0.026 -0.004,0.038c-0.001,0.013 -0.001,0.026 -0.001,0.04c-0,0.044 0.006,0.087 0.017,0.127c0.012,0.041 0.031,0.081 0.057,0.12c-0.017,0.018 -0.035,0.026 -0.054,0.026c-0.015,0 -0.027,-0.005 -0.037,-0.016c-0.01,-0.012 -0.018,-0.026 -0.023,-0.042c-0.006,-0.017 -0.009,-0.035 -0.012,-0.055c-0.002,-0.02 -0.003,-0.038 -0.003,-0.055c0,-0.027 0.002,-0.055 0.004,-0.084c0.003,-0.029 0.006,-0.057 0.01,-0.084c0.003,-0.027 0.008,-0.052 0.012,-0.075c0.005,-0.023 0.009,-0.043 0.013,-0.058c-0.001,-0.009 -0.001,-0.018 -0.001,-0.027l0,-0.027c0,-0.06 0.003,-0.106 0.008,-0.137c0.006,-0.031 0.013,-0.046 0.022,-0.046c0.005,-0 0.012,0.001 0.02,0.004c0.008,0.002 0.016,0.006 0.024,0.01c0.008,0.003 0.015,0.007 0.02,0.012c0.006,0.004 0.008,0.007 0.008,0.01c0,0.014 -0.001,0.029 -0.005,0.046c-0.003,0.017 -0.008,0.035 -0.013,0.054c-0.005,0.019 -0.011,0.038 -0.018,0.058c-0.006,0.02 -0.012,0.039 -0.018,0.058c-0,0.015 0,0.029 0.002,0.045c0.001,0.015 0.005,0.029 0.01,0.041c0.005,0.013 0.013,0.023 0.024,0.031c0.01,0.008 0.024,0.012 0.042,0.012c0.016,-0 0.03,-0.004 0.043,-0.011c0.013,-0.007 0.025,-0.016 0.035,-0.028c0.011,-0.012 0.021,-0.026 0.03,-0.042c0.009,-0.015 0.018,-0.032 0.026,-0.05Z" style="fill:rgb(183,149,11);fill-rule:nonzero;"/>
                </g>
                <g transform="matrix(89.1997,0,0,89.1997,165.986,0)">
                    <path d="M0.357,-0.123c0.001,0.003 0.002,0.007 0.003,0.012c0.001,0.006 0.001,0.01 0.001,0.014c0,0.019 -0.005,0.035 -0.015,0.048c-0.011,0.014 -0.024,0.025 -0.04,0.034c-0.016,0.009 -0.034,0.015 -0.053,0.019c-0.02,0.004 -0.038,0.006 -0.056,0.006c-0.02,0 -0.04,-0.002 -0.058,-0.006c-0.018,-0.005 -0.034,-0.012 -0.047,-0.021c-0.014,-0.009 -0.025,-0.021 -0.033,-0.035c-0.008,-0.015 -0.012,-0.032 -0.012,-0.052c0,-0.012 0.002,-0.023 0.006,-0.034c0.004,-0.012 0.009,-0.022 0.015,-0.032c0.006,-0.01 0.013,-0.019 0.022,-0.027c0.008,-0.008 0.017,-0.015 0.026,-0.022c-0.01,-0.005 -0.018,-0.011 -0.026,-0.018c-0.007,-0.007 -0.014,-0.014 -0.019,-0.023c-0.005,-0.008 -0.009,-0.016 -0.012,-0.025c-0.003,-0.009 -0.004,-0.018 -0.004,-0.027c-0,-0.017 0.003,-0.033 0.009,-0.047c0.006,-0.014 0.014,-0.026 0.025,-0.037c0.01,-0.011 0.022,-0.021 0.036,-0.029c0.014,-0.008 0.029,-0.015 0.044,-0.02c0.016,-0.005 0.031,-0.009 0.047,-0.011c0.016,-0.003 0.032,-0.004 0.046,-0.004c0.027,0 0.047,0.003 0.061,0.01c0.015,0.007 0.022,0.018 0.022,0.033c0,0.006 -0.001,0.013 -0.002,0.019c-0.002,0.007 -0.004,0.013 -0.007,0.019c-0.025,-0.004 -0.048,-0.006 -0.068,-0.006c-0.048,-0 -0.085,0.007 -0.112,0.022c-0.027,0.015 -0.04,0.035 -0.04,0.06c0,0.011 0.002,0.022 0.007,0.032c0.004,0.009 0.012,0.019 0.023,0.03c0.016,-0.008 0.031,-0.015 0.046,-0.02c0.015,-0.005 0.029,-0.009 0.042,-0.012c0.013,-0.003 0.025,-0.005 0.037,-0.006c0.011,-0.002 0.02,-0.002 0.028,-0.002c0.005,-0 0.008,0.002 0.011,0.007c0.002,0.005 0.003,0.011 0.003,0.018c-0,0.005 -0.001,0.009 -0.002,0.015c-0.001,0.005 -0.003,0.009 -0.005,0.014c-0.002,0.005 -0.004,0.008 -0.006,0.012c-0.003,0.003 -0.005,0.005 -0.008,0.007c-0.01,0.004 -0.021,0.007 -0.032,0.01c-0.012,0.002 -0.024,0.003 -0.036,0.003c-0.013,-0 -0.025,-0.001 -0.037,-0.003c-0.012,-0.001 -0.024,-0.004 -0.034,-0.007c-0.011,0.008 -0.021,0.017 -0.029,0.029c-0.008,0.011 -0.012,0.023 -0.012,0.037c0,0.012 0.003,0.022 0.008,0.031c0.005,0.009 0.012,0.016 0.021,0.022c0.008,0.005 0.019,0.009 0.03,0.012c0.012,0.003 0.025,0.004 0.038,0.004c0.03,0 0.057,-0.005 0.082,-0.015c0.025,-0.01 0.046,-0.023 0.063,-0.039l0.003,0.001Z" style="fill:rgb(183,149,11);fill-rule:nonzero;"/>
                </g>
                <g transform="matrix(89.1997,0,0,89.1997,200.394,0)">
                    <path d="M0.314,-0.453c0.004,-0.002 0.009,-0.003 0.014,-0.004c0.005,-0.001 0.01,-0.001 0.013,-0.001c0.004,-0 0.006,-0 0.008,0.001c0.001,0.001 0.002,0.002 0.003,0.004c0.005,0.018 0.008,0.035 0.01,0.052c0.003,0.017 0.004,0.036 0.004,0.055c-0,0.037 -0.005,0.073 -0.015,0.11c-0.011,0.036 -0.025,0.07 -0.045,0.101c-0.019,0.03 -0.042,0.058 -0.069,0.082c-0.026,0.024 -0.057,0.045 -0.091,0.063c-0.004,0.001 -0.009,0 -0.015,-0.003c-0.007,-0.003 -0.012,-0.006 -0.017,-0.01c0.001,-0.015 0.002,-0.026 0.003,-0.035c0,-0.008 0.001,-0.018 0.002,-0.03c0,-0.012 0.001,-0.023 0.001,-0.033c0,-0.01 0.001,-0.024 0.001,-0.043c-0,-0.028 -0.002,-0.058 -0.005,-0.089c-0.003,-0.032 -0.009,-0.057 -0.019,-0.077c-0.009,-0.02 -0.019,-0.033 -0.031,-0.041c-0.011,-0.007 -0.024,-0.011 -0.039,-0.011c-0.002,0 -0.005,0 -0.007,0c-0.002,0.001 -0.004,0.001 -0.007,0.002l-0.002,-0.003c0,-0.031 0.006,-0.054 0.016,-0.07c0.011,-0.016 0.026,-0.024 0.046,-0.024c0.016,0 0.029,0.006 0.041,0.016c0.012,0.011 0.023,0.029 0.031,0.054c0.009,0.025 0.015,0.054 0.017,0.088c0.003,0.034 0.005,0.066 0.005,0.096c-0,0.011 -0.001,0.02 -0.001,0.028c0,0.008 -0,0.017 -0,0.027c-0.001,0.01 -0.001,0.019 -0.002,0.028c-0.001,0.009 -0.001,0.019 -0.002,0.03l0.005,0.001c0.025,-0.018 0.046,-0.038 0.063,-0.06c0.017,-0.022 0.033,-0.048 0.046,-0.077c0.013,-0.029 0.023,-0.061 0.03,-0.094c0.006,-0.033 0.009,-0.066 0.009,-0.1c0,-0.005 0,-0.01 0,-0.015c0,-0.005 -0,-0.011 -0.001,-0.018Z" style="fill:rgb(183,149,11);fill-rule:nonzero;"/>
                </g>
            </g>
            <g id="Capa2">
                <g transform="matrix(1.44381,0,0,1.44381,-91.2182,-22.5234)">
                    <g transform="matrix(12,0,0,12,139.23,164.407)">
                        <path d="M0.552,-0l-0.143,-0.205c-0.006,0.001 -0.015,0.001 -0.027,0.001l-0.158,0l0,0.204l-0.13,-0l0,-0.7l0.288,0c0.061,0 0.113,0.01 0.158,0.03c0.045,0.02 0.08,0.049 0.104,0.086c0.024,0.037 0.036,0.082 0.036,0.133c0,0.053 -0.013,0.098 -0.039,0.136c-0.025,0.038 -0.062,0.066 -0.11,0.085l0.161,0.23l-0.14,0Zm-0.003,-0.451c0,-0.045 -0.015,-0.079 -0.044,-0.103c-0.029,-0.024 -0.072,-0.036 -0.129,-0.036l-0.152,0l0,0.279l0.152,0c0.057,0 0.1,-0.012 0.129,-0.036c0.029,-0.025 0.044,-0.059 0.044,-0.104Z" style="fill-rule:nonzero;"/>
                    </g>
                    <g transform="matrix(12,0,0,12,148.002,164.407)">
                        <path d="M0.548,-0.162l-0.35,0l-0.069,0.162l-0.134,-0l0.315,-0.7l0.128,0l0.316,0.7l-0.136,-0l-0.07,-0.162Zm-0.043,-0.102l-0.132,-0.306l-0.131,0.306l0.263,0Z" style="fill-rule:nonzero;"/>
                    </g>
                    <g transform="matrix(12,0,0,12,156.99,164.407)">
                        <rect x="0.094" y="-0.7" width="0.13" height="0.7" style="fill-rule:nonzero;"/>
                    </g>
                    <g transform="matrix(12,0,0,12,160.818,164.407)">
                        <path d="M0.638,-0.11l0,0.11l-0.597,-0l-0,-0.087l0.412,-0.503l-0.405,0l-0,-0.11l0.577,0l0,0.087l-0.412,0.503l0.425,-0Z" style="fill-rule:nonzero;"/>
                    </g>
                    <g transform="matrix(12,0,0,12,128.658,176.407)">
                        <path d="M0.734,-0.7l-0.305,0.7l-0.128,-0l-0.306,-0.7l0.141,0l0.233,0.54l0.235,-0.54l0.13,0Z" style="fill-rule:nonzero;"/>
                    </g>
                    <g transform="matrix(12,0,0,12,137.226,176.407)">
                        <path d="M0.619,-0.109l0,0.109l-0.525,-0l0,-0.7l0.511,0l0,0.109l-0.381,0l0,0.182l0.338,0l0,0.107l-0.338,0l-0,0.193l0.395,0Z" style="fill-rule:nonzero;"/>
                    </g>
                    <g transform="matrix(12,0,0,12,145.266,176.407)">
                        <path d="M0.552,-0l-0.143,-0.205c-0.006,0.001 -0.015,0.001 -0.027,0.001l-0.158,0l0,0.204l-0.13,-0l0,-0.7l0.288,0c0.061,0 0.113,0.01 0.158,0.03c0.045,0.02 0.08,0.049 0.104,0.086c0.024,0.037 0.036,0.082 0.036,0.133c0,0.053 -0.013,0.098 -0.039,0.136c-0.025,0.038 -0.062,0.066 -0.11,0.085l0.161,0.23l-0.14,0Zm-0.003,-0.451c0,-0.045 -0.015,-0.079 -0.044,-0.103c-0.029,-0.024 -0.072,-0.036 -0.129,-0.036l-0.152,0l0,0.279l0.152,0c0.057,0 0.1,-0.012 0.129,-0.036c0.029,-0.025 0.044,-0.059 0.044,-0.104Z" style="fill-rule:nonzero;"/>
                    </g>
                    <g transform="matrix(12,0,0,12,154.038,176.407)">
                        <path d="M0.59,-0.364c0.039,0.013 0.069,0.034 0.092,0.064c0.023,0.029 0.034,0.066 0.034,0.11c0,0.061 -0.023,0.108 -0.07,0.141c-0.047,0.032 -0.115,0.049 -0.204,0.049l-0.348,-0l0,-0.7l0.328,0c0.083,0 0.146,0.016 0.191,0.049c0.045,0.032 0.067,0.076 0.067,0.133c0,0.035 -0.008,0.065 -0.024,0.092c-0.016,0.027 -0.038,0.047 -0.066,0.062Zm-0.366,-0.234l0,0.193l0.184,0c0.045,0 0.08,-0.008 0.105,-0.024c0.024,-0.017 0.036,-0.041 0.036,-0.072c0,-0.032 -0.012,-0.056 -0.036,-0.072c-0.025,-0.017 -0.06,-0.025 -0.105,-0.025l-0.184,0Zm0.21,0.496c0.101,0 0.151,-0.034 0.151,-0.101c0,-0.067 -0.05,-0.101 -0.151,-0.101l-0.21,0l0,0.202l0.21,0Z" style="fill-rule:nonzero;"/>
                    </g>
                    <g transform="matrix(12,0,0,12,163.17,176.407)">
                        <path d="M0.548,-0.162l-0.35,0l-0.069,0.162l-0.134,-0l0.315,-0.7l0.128,0l0.316,0.7l-0.136,-0l-0.07,-0.162Zm-0.043,-0.102l-0.132,-0.306l-0.131,0.306l0.263,0Z" style="fill-rule:nonzero;"/>
                    </g>
                    <g transform="matrix(12,0,0,12,172.158,176.407)">
                        <path d="M0.094,-0.7l0.13,0l0,0.59l0.366,0l0,0.11l-0.496,0l0,-0.7Z" style="fill-rule:nonzero;"/>
                    </g>
                </g>
                <g transform="matrix(1.44381,0,0,1.44381,54.8935,-22.5234)">
                    <g transform="matrix(12,0,0,12,132.348,164.407)">
                        <path d="M0.734,-0.7l-0.305,0.7l-0.128,-0l-0.306,-0.7l0.141,0l0.233,0.54l0.235,-0.54l0.13,0Z" style="fill-rule:nonzero;"/>
                    </g>
                    <g transform="matrix(12,0,0,12,140.832,164.407)">
                        <path d="M0.421,0.01c-0.071,-0 -0.136,-0.016 -0.193,-0.047c-0.057,-0.031 -0.102,-0.074 -0.135,-0.129c-0.033,-0.054 -0.049,-0.116 -0.049,-0.184c0,-0.068 0.016,-0.13 0.049,-0.185c0.033,-0.055 0.078,-0.098 0.135,-0.129c0.057,-0.031 0.122,-0.046 0.193,-0.046c0.071,0 0.136,0.015 0.193,0.046c0.057,0.031 0.102,0.074 0.135,0.129c0.033,0.055 0.049,0.116 0.049,0.185c0,0.069 -0.016,0.13 -0.049,0.185c-0.033,0.055 -0.078,0.097 -0.135,0.128c-0.057,0.031 -0.122,0.047 -0.193,0.047Zm0,-0.114c0.047,-0 0.089,-0.011 0.126,-0.032c0.037,-0.021 0.067,-0.05 0.088,-0.088c0.021,-0.037 0.032,-0.079 0.032,-0.126c0,-0.047 -0.011,-0.089 -0.032,-0.127c-0.021,-0.037 -0.051,-0.067 -0.088,-0.088c-0.037,-0.021 -0.079,-0.031 -0.126,-0.031c-0.047,0 -0.089,0.01 -0.126,0.031c-0.037,0.021 -0.067,0.051 -0.088,0.088c-0.021,0.038 -0.032,0.08 -0.032,0.127c0,0.047 0.011,0.089 0.032,0.126c0.021,0.038 0.051,0.067 0.088,0.088c0.037,0.021 0.079,0.032 0.126,0.032Z" style="fill-rule:nonzero;"/>
                    </g>
                    <g transform="matrix(12,0,0,12,150.936,164.407)">
                        <path d="M0.418,0.01c-0.071,-0 -0.135,-0.016 -0.191,-0.047c-0.057,-0.031 -0.102,-0.073 -0.134,-0.128c-0.033,-0.055 -0.049,-0.116 -0.049,-0.185c0,-0.069 0.016,-0.13 0.049,-0.185c0.033,-0.055 0.078,-0.098 0.135,-0.129c0.056,-0.031 0.12,-0.046 0.191,-0.046c0.057,0 0.11,0.01 0.157,0.03c0.047,0.02 0.087,0.049 0.12,0.087l-0.084,0.079c-0.051,-0.055 -0.113,-0.082 -0.187,-0.082c-0.048,0 -0.091,0.01 -0.129,0.031c-0.038,0.021 -0.068,0.051 -0.089,0.088c-0.021,0.037 -0.032,0.08 -0.032,0.127c0,0.047 0.011,0.09 0.032,0.127c0.021,0.037 0.051,0.066 0.089,0.087c0.038,0.021 0.081,0.032 0.129,0.032c0.074,-0 0.136,-0.028 0.187,-0.083l0.084,0.08c-0.033,0.038 -0.073,0.067 -0.12,0.087c-0.048,0.02 -0.101,0.03 -0.158,0.03Z" style="fill-rule:nonzero;"/>
                    </g>
                    <g transform="matrix(12,0,0,12,159.48,164.407)">
                        <path d="M0.548,-0.162l-0.35,0l-0.069,0.162l-0.134,-0l0.315,-0.7l0.128,0l0.316,0.7l-0.136,-0l-0.07,-0.162Zm-0.043,-0.102l-0.132,-0.306l-0.131,0.306l0.263,0Z" style="fill-rule:nonzero;"/>
                    </g>
                    <g transform="matrix(12,0,0,12,168.468,164.407)">
                        <path d="M0.094,-0.7l0.13,0l0,0.59l0.366,0l0,0.11l-0.496,0l0,-0.7Z" style="fill-rule:nonzero;"/>
                    </g>
                    <g transform="matrix(12,0,0,12,122.064,176.407)">
                        <path d="M0.236,-0.59l-0.232,0l-0,-0.11l0.594,0l0,0.11l-0.232,0l0,0.59l-0.13,-0l0,-0.59Z" style="fill-rule:nonzero;"/>
                    </g>
                    <g transform="matrix(12,0,0,12,129.288,176.407)">
                        <path d="M0.619,-0.109l0,0.109l-0.525,-0l0,-0.7l0.511,0l0,0.109l-0.381,0l0,0.182l0.338,0l0,0.107l-0.338,0l-0,0.193l0.395,0Z" style="fill-rule:nonzero;"/>
                    </g>
                    <g transform="matrix(12,0,0,12,137.328,176.407)">
                        <path d="M0.737,-0l-0.001,-0.464l-0.23,0.384l-0.058,0l-0.23,-0.378l0,0.458l-0.124,-0l0,-0.7l0.107,0l0.278,0.464l0.273,-0.464l0.107,0l0.001,0.7l-0.123,-0Z" style="fill-rule:nonzero;"/>
                    </g>
                    <g transform="matrix(12,0,0,12,148.788,176.407)">
                        <path d="M0.548,-0.162l-0.35,0l-0.069,0.162l-0.134,-0l0.315,-0.7l0.128,0l0.316,0.7l-0.136,-0l-0.07,-0.162Zm-0.043,-0.102l-0.132,-0.306l-0.131,0.306l0.263,0Zm-0.08,-0.63l0.147,0l-0.174,0.137l-0.108,0l0.135,-0.137Z" style="fill-rule:nonzero;"/>
                    </g>
                    <g transform="matrix(12,0,0,12,157.356,176.407)">
                        <path d="M0.236,-0.59l-0.232,0l-0,-0.11l0.594,0l0,0.11l-0.232,0l0,0.59l-0.13,-0l0,-0.59Z" style="fill-rule:nonzero;"/>
                    </g>
                    <g transform="matrix(12,0,0,12,164.58,176.407)">
                        <rect x="0.094" y="-0.7" width="0.13" height="0.7" style="fill-rule:nonzero;"/>
                    </g>
                    <g transform="matrix(12,0,0,12,168.408,176.407)">
                        <path d="M0.418,0.01c-0.071,-0 -0.135,-0.016 -0.191,-0.047c-0.057,-0.031 -0.102,-0.073 -0.134,-0.128c-0.033,-0.055 -0.049,-0.116 -0.049,-0.185c0,-0.069 0.016,-0.13 0.049,-0.185c0.033,-0.055 0.078,-0.098 0.135,-0.129c0.056,-0.031 0.12,-0.046 0.191,-0.046c0.057,0 0.11,0.01 0.157,0.03c0.047,0.02 0.087,0.049 0.12,0.087l-0.084,0.079c-0.051,-0.055 -0.113,-0.082 -0.187,-0.082c-0.048,0 -0.091,0.01 -0.129,0.031c-0.038,0.021 -0.068,0.051 -0.089,0.088c-0.021,0.037 -0.032,0.08 -0.032,0.127c0,0.047 0.011,0.09 0.032,0.127c0.021,0.037 0.051,0.066 0.089,0.087c0.038,0.021 0.081,0.032 0.129,0.032c0.074,-0 0.136,-0.028 0.187,-0.083l0.084,0.08c-0.033,0.038 -0.073,0.067 -0.12,0.087c-0.048,0.02 -0.101,0.03 -0.158,0.03Z" style="fill-rule:nonzero;"/>
                    </g>
                    <g transform="matrix(12,0,0,12,176.952,176.407)">
                        <path d="M0.548,-0.162l-0.35,0l-0.069,0.162l-0.134,-0l0.315,-0.7l0.128,0l0.316,0.7l-0.136,-0l-0.07,-0.162Zm-0.043,-0.102l-0.132,-0.306l-0.131,0.306l0.263,0Z" style="fill-rule:nonzero;"/>
                    </g>
                </g>
                <g transform="matrix(1.44381,0,0,1.44381,221.857,-22.6966)">
                    <g transform="matrix(12,0,0,12,126.768,164.407)">
                        <path d="M0.224,-0.591l0,0.213l0.338,0l0,0.11l-0.338,0l-0,0.268l-0.13,-0l-0,-0.7l0.511,0l0,0.109l-0.381,0Z" style="fill-rule:nonzero;"/>
                    </g>
                    <g transform="matrix(12,0,0,12,134.412,164.407)">
                        <path d="M0.094,-0.7l0.13,0l0,0.59l0.366,0l0,0.11l-0.496,0l0,-0.7Z" style="fill-rule:nonzero;"/>
                    </g>
                    <g transform="matrix(12,0,0,12,141.6,164.407)">
                        <path d="M0.619,-0.109l0,0.109l-0.525,-0l0,-0.7l0.511,0l0,0.109l-0.381,0l0,0.182l0.338,0l0,0.107l-0.338,0l-0,0.193l0.395,0Z" style="fill-rule:nonzero;"/>
                    </g>
                    <g transform="matrix(12,0,0,12,149.544,164.407)">
                        <path d="M0.535,-0l-0.19,-0.266l-0.188,0.266l-0.148,-0l0.26,-0.357l-0.246,-0.343l0.147,0l0.179,0.249l0.177,-0.249l0.141,0l-0.245,0.338l0.263,0.362l-0.15,-0Z" style="fill-rule:nonzero;"/>
                    </g>
                    <g transform="matrix(12,0,0,12,157.584,164.407)">
                        <rect x="0.094" y="-0.7" width="0.13" height="0.7" style="fill-rule:nonzero;"/>
                    </g>
                    <g transform="matrix(12,0,0,12,161.412,164.407)">
                        <path d="M0.421,0.01c-0.071,-0 -0.136,-0.016 -0.193,-0.047c-0.057,-0.031 -0.102,-0.074 -0.135,-0.129c-0.033,-0.054 -0.049,-0.116 -0.049,-0.184c0,-0.068 0.016,-0.13 0.049,-0.185c0.033,-0.055 0.078,-0.098 0.135,-0.129c0.057,-0.031 0.122,-0.046 0.193,-0.046c0.071,0 0.136,0.015 0.193,0.046c0.057,0.031 0.102,0.074 0.135,0.129c0.033,0.055 0.049,0.116 0.049,0.185c0,0.069 -0.016,0.13 -0.049,0.185c-0.033,0.055 -0.078,0.097 -0.135,0.128c-0.057,0.031 -0.122,0.047 -0.193,0.047Zm0,-0.114c0.047,-0 0.089,-0.011 0.126,-0.032c0.037,-0.021 0.067,-0.05 0.088,-0.088c0.021,-0.037 0.032,-0.079 0.032,-0.126c0,-0.047 -0.011,-0.089 -0.032,-0.127c-0.021,-0.037 -0.051,-0.067 -0.088,-0.088c-0.037,-0.021 -0.079,-0.031 -0.126,-0.031c-0.047,0 -0.089,0.01 -0.126,0.031c-0.037,0.021 -0.067,0.051 -0.088,0.088c-0.021,0.038 -0.032,0.08 -0.032,0.127c0,0.047 0.011,0.089 0.032,0.126c0.021,0.038 0.051,0.067 0.088,0.088c0.037,0.021 0.079,0.032 0.126,0.032Zm0.051,-0.79l0.147,0l-0.174,0.137l-0.108,0l0.135,-0.137Z" style="fill-rule:nonzero;"/>
                    </g>
                    <g transform="matrix(12,0,0,12,171.516,164.407)">
                        <path d="M0.716,-0.7l0,0.7l-0.107,-0l-0.386,-0.474l0,0.474l-0.129,-0l0,-0.7l0.107,0l0.386,0.474l0,-0.474l0.129,0Z" style="fill-rule:nonzero;"/>
                    </g>
                    <g transform="matrix(12,0,0,12,119.526,176.407)">
                        <path d="M0.382,-0.7c0.061,0 0.113,0.01 0.158,0.03c0.045,0.02 0.08,0.049 0.104,0.086c0.024,0.037 0.036,0.082 0.036,0.133c0,0.051 -0.012,0.095 -0.036,0.133c-0.024,0.037 -0.058,0.066 -0.104,0.086c-0.045,0.02 -0.097,0.03 -0.158,0.03l-0.158,0l0,0.202l-0.13,0l0,-0.7l0.288,0Zm-0.006,0.388c0.057,0 0.1,-0.012 0.129,-0.036c0.029,-0.024 0.044,-0.058 0.044,-0.103c0,-0.045 -0.015,-0.079 -0.044,-0.103c-0.029,-0.024 -0.072,-0.036 -0.129,-0.036l-0.152,0l0,0.278l0.152,0Z" style="fill-rule:nonzero;"/>
                    </g>
                    <g transform="matrix(12,0,0,12,128.118,176.407)">
                        <path d="M0.619,-0.109l0,0.109l-0.525,-0l0,-0.7l0.511,0l0,0.109l-0.381,0l0,0.182l0.338,0l0,0.107l-0.338,0l-0,0.193l0.395,0Z" style="fill-rule:nonzero;"/>
                    </g>
                    <g transform="matrix(12,0,0,12,136.158,176.407)">
                        <path d="M0.552,-0l-0.143,-0.205c-0.006,0.001 -0.015,0.001 -0.027,0.001l-0.158,0l0,0.204l-0.13,-0l0,-0.7l0.288,0c0.061,0 0.113,0.01 0.158,0.03c0.045,0.02 0.08,0.049 0.104,0.086c0.024,0.037 0.036,0.082 0.036,0.133c0,0.053 -0.013,0.098 -0.039,0.136c-0.025,0.038 -0.062,0.066 -0.11,0.085l0.161,0.23l-0.14,0Zm-0.003,-0.451c0,-0.045 -0.015,-0.079 -0.044,-0.103c-0.029,-0.024 -0.072,-0.036 -0.129,-0.036l-0.152,0l0,0.279l0.152,0c0.057,0 0.1,-0.012 0.129,-0.036c0.029,-0.025 0.044,-0.059 0.044,-0.104Z" style="fill-rule:nonzero;"/>
                    </g>
                    <g transform="matrix(12,0,0,12,144.93,176.407)">
                        <path d="M0.311,0.01c-0.054,-0 -0.106,-0.008 -0.157,-0.023c-0.05,-0.015 -0.09,-0.036 -0.119,-0.061l0.045,-0.101c0.029,0.023 0.064,0.041 0.106,0.055c0.041,0.015 0.083,0.022 0.125,0.022c0.052,0 0.091,-0.008 0.116,-0.025c0.026,-0.017 0.039,-0.039 0.039,-0.066c0,-0.02 -0.007,-0.037 -0.021,-0.049c-0.015,-0.014 -0.033,-0.024 -0.055,-0.031c-0.022,-0.007 -0.052,-0.016 -0.09,-0.025c-0.053,-0.013 -0.096,-0.025 -0.129,-0.038c-0.033,-0.013 -0.062,-0.032 -0.085,-0.059c-0.024,-0.027 -0.036,-0.064 -0.036,-0.11c0,-0.039 0.011,-0.074 0.032,-0.106c0.021,-0.031 0.052,-0.056 0.095,-0.075c0.042,-0.019 0.094,-0.028 0.155,-0.028c0.043,0 0.085,0.005 0.126,0.016c0.041,0.011 0.077,0.026 0.107,0.046l-0.041,0.101c-0.031,-0.018 -0.063,-0.032 -0.096,-0.041c-0.033,-0.009 -0.066,-0.014 -0.097,-0.014c-0.051,0 -0.089,0.009 -0.114,0.026c-0.025,0.017 -0.038,0.04 -0.038,0.069c0,0.02 0.007,0.036 0.022,0.049c0.014,0.013 0.032,0.023 0.054,0.03c0.022,0.007 0.052,0.016 0.09,0.025c0.052,0.012 0.095,0.024 0.128,0.037c0.033,0.013 0.062,0.033 0.086,0.06c0.023,0.027 0.035,0.063 0.035,0.108c0,0.039 -0.01,0.074 -0.031,0.105c-0.021,0.031 -0.053,0.056 -0.096,0.075c-0.043,0.019 -0.095,0.028 -0.156,0.028Z" style="fill-rule:nonzero;"/>
                    </g>
                    <g transform="matrix(12,0,0,12,152.478,176.407)">
                        <path d="M0.421,0.01c-0.071,-0 -0.136,-0.016 -0.193,-0.047c-0.057,-0.031 -0.102,-0.074 -0.135,-0.129c-0.033,-0.054 -0.049,-0.116 -0.049,-0.184c0,-0.068 0.016,-0.13 0.049,-0.185c0.033,-0.055 0.078,-0.098 0.135,-0.129c0.057,-0.031 0.122,-0.046 0.193,-0.046c0.071,0 0.136,0.015 0.193,0.046c0.057,0.031 0.102,0.074 0.135,0.129c0.033,0.055 0.049,0.116 0.049,0.185c0,0.069 -0.016,0.13 -0.049,0.185c-0.033,0.055 -0.078,0.097 -0.135,0.128c-0.057,0.031 -0.122,0.047 -0.193,0.047Zm0,-0.114c0.047,-0 0.089,-0.011 0.126,-0.032c0.037,-0.021 0.067,-0.05 0.088,-0.088c0.021,-0.037 0.032,-0.079 0.032,-0.126c0,-0.047 -0.011,-0.089 -0.032,-0.127c-0.021,-0.037 -0.051,-0.067 -0.088,-0.088c-0.037,-0.021 -0.079,-0.031 -0.126,-0.031c-0.047,0 -0.089,0.01 -0.126,0.031c-0.037,0.021 -0.067,0.051 -0.088,0.088c-0.021,0.038 -0.032,0.08 -0.032,0.127c0,0.047 0.011,0.089 0.032,0.126c0.021,0.038 0.051,0.067 0.088,0.088c0.037,0.021 0.079,0.032 0.126,0.032Z" style="fill-rule:nonzero;"/>
                    </g>
                    <g transform="matrix(12,0,0,12,162.582,176.407)">
                        <path d="M0.716,-0.7l0,0.7l-0.107,-0l-0.386,-0.474l0,0.474l-0.129,-0l0,-0.7l0.107,0l0.386,0.474l0,-0.474l0.129,0Z" style="fill-rule:nonzero;"/>
                    </g>
                    <g transform="matrix(12,0,0,12,172.302,176.407)">
                        <path d="M0.548,-0.162l-0.35,0l-0.069,0.162l-0.134,-0l0.315,-0.7l0.128,0l0.316,0.7l-0.136,-0l-0.07,-0.162Zm-0.043,-0.102l-0.132,-0.306l-0.131,0.306l0.263,0Z" style="fill-rule:nonzero;"/>
                    </g>
                    <g transform="matrix(12,0,0,12,181.29,176.407)">
                        <path d="M0.094,-0.7l0.13,0l0,0.59l0.366,0l0,0.11l-0.496,0l0,-0.7Z" style="fill-rule:nonzero;"/>
                    </g>
                </g>
                <g transform="matrix(-1.44381,0,0,2.97559,670.735,-287.992)">
                    <g transform="matrix(-0.69261,0,0,0.336067,399.139,107.196)">
                        <path d="M200.36,156.148l-7.936,7.974l-5.433,-9.851l13.369,1.877Z" style="fill:rgb(137,137,137);"/>
                        <path d="M186.228,78.862c-12.654,73.47 16.278,8.917 7.197,78.13" style="fill:none;stroke:rgb(137,137,137);stroke-width:3px;"/>
                    </g>
                </g>
                <g transform="matrix(-1.44381,0,0,1.44381,778.892,-84.7399)">
                    <g transform="matrix(-0.69261,0,0,0.69261,474.049,80.1495)">
                        <path d="M360.078,154.938l-6.497,9.184l-6.998,-8.809l13.495,-0.375Z" style="fill:rgb(137,137,137);"/>
                        <path d="M322.385,78.862c2.737,24.605 28.326,46.038 30.995,78.063" style="fill:none;stroke:rgb(137,137,137);stroke-width:3px;"/>
                    </g>
                </g>
                <g transform="matrix(1.44381,0,0,2.30419,-217.842,-181.812)">
                    <g transform="matrix(0.69261,-0,-0,0.433992,216.298,92.3503)">
                        <path d="M43.31,151.124l-6.753,8.998l-6.747,-9.002l13.5,0.004Z" style="fill:rgb(137,137,137);"/>
                        <path d="M70.759,78.862c6.74,65.997 -32.337,28.229 -34.2,74.06" style="fill:none;stroke:rgb(137,137,137);stroke-width:3px;"/>
                    </g>
                </g>
            </g>
        </g>
    </g>
</svg>
