<?xml version="1.0" encoding="UTF-8" standalone="no"?><!DOCTYPE svg PUBLIC "-//W3C//DTD SVG 1.1//EN" "http://www.w3.org/Graphics/SVG/1.1/DTD/svg11.dtd"><svg width="100%" height="100%" viewBox="0 0 480 182" version="1.1" xmlns="http://www.w3.org/2000/svg" xmlns:xlink="http://www.w3.org/1999/xlink" xml:space="preserve" xmlns:serif="http://www.serif.com/" style="fill-rule:evenodd;clip-rule:evenodd;stroke-linejoin:round;stroke-miterlimit:1.5;"><g id="Capa4"><g transform="matrix(1,0,0,1,-50.1481,-188.813)"><g transform="matrix(40,0,0,40,268.46,218.833)"><path d="M0.168,0.236c-0.006,0.005 -0.014,0.009 -0.024,0.011c-0.01,0.003 -0.021,0.004 -0.033,0.004c-0.008,0 -0.015,-0.001 -0.021,-0.004c-0.005,-0.004 -0.008,-0.009 -0.009,-0.018c-0.001,-0.009 -0.001,-0.021 -0.001,-0.036c-0.001,-0.016 -0.001,-0.032 -0.001,-0.05c-0.001,-0.018 -0.001,-0.035 -0.001,-0.053l0,-0.148c0,-0.038 0.001,-0.078 0.003,-0.121c0.001,-0.042 0.004,-0.086 0.008,-0.131c0.004,-0.045 0.01,-0.088 0.017,-0.13c0.008,-0.043 0.018,-0.083 0.03,-0.12c0.012,-0.038 0.027,-0.071 0.045,-0.099c0.018,-0.028 0.039,-0.05 0.064,-0.067c0.025,-0.016 0.054,-0.024 0.087,-0.024c0.023,-0 0.043,0.004 0.061,0.013c0.018,0.009 0.034,0.021 0.046,0.036c0.013,0.015 0.023,0.033 0.03,0.052c0.006,0.02 0.01,0.041 0.01,0.062c-0,0.039 -0.008,0.076 -0.024,0.108c-0.016,0.033 -0.037,0.062 -0.063,0.089c0.04,0.021 0.071,0.049 0.093,0.084c0.022,0.035 0.033,0.076 0.033,0.121c-0,0.028 -0.005,0.053 -0.015,0.077c-0.009,0.023 -0.022,0.044 -0.039,0.062c-0.016,0.017 -0.036,0.031 -0.058,0.041c-0.023,0.01 -0.048,0.015 -0.074,0.015c-0.018,0 -0.035,-0.003 -0.053,-0.009c-0.018,-0.006 -0.035,-0.015 -0.051,-0.026c-0.016,-0.011 -0.031,-0.024 -0.044,-0.04c-0.014,-0.015 -0.025,-0.032 -0.035,-0.051c0,0.008 -0,0.017 -0,0.027c-0,0.009 -0.001,0.019 -0.001,0.028c0,0.027 0.001,0.056 0.002,0.086c0.002,0.03 0.003,0.059 0.005,0.086c0.002,0.028 0.004,0.053 0.007,0.075c0.002,0.022 0.004,0.039 0.006,0.05Zm-0.014,-0.409c0.009,0.016 0.019,0.031 0.031,0.044c0.012,0.012 0.025,0.023 0.039,0.032c0.014,0.009 0.029,0.015 0.045,0.02c0.016,0.005 0.032,0.007 0.048,0.007c0.02,0 0.038,-0.003 0.054,-0.01c0.016,-0.006 0.03,-0.016 0.042,-0.028c0.011,-0.012 0.02,-0.027 0.027,-0.044c0.006,-0.017 0.009,-0.035 0.009,-0.056c0,-0.033 -0.008,-0.063 -0.024,-0.089c-0.016,-0.027 -0.037,-0.049 -0.063,-0.066c-0.009,0.006 -0.017,0.012 -0.026,0.018c-0.009,0.005 -0.018,0.01 -0.026,0.014c-0.009,0.004 -0.018,0.007 -0.026,0.009c-0.008,0.003 -0.015,0.004 -0.022,0.004c-0.021,0 -0.031,-0.009 -0.031,-0.029c-0,-0.008 0.001,-0.016 0.004,-0.025c0.003,-0.008 0.007,-0.016 0.013,-0.022c0.005,-0.007 0.012,-0.012 0.019,-0.016c0.008,-0.004 0.016,-0.007 0.025,-0.007c0.008,0 0.017,0.001 0.028,0.003c0.01,0.001 0.02,0.004 0.031,0.007c0.021,-0.019 0.037,-0.042 0.049,-0.068c0.012,-0.026 0.018,-0.054 0.018,-0.085c0,-0.013 -0.001,-0.026 -0.005,-0.038c-0.004,-0.013 -0.009,-0.025 -0.016,-0.035c-0.007,-0.011 -0.016,-0.019 -0.027,-0.026c-0.01,-0.006 -0.022,-0.009 -0.036,-0.009c-0.024,-0 -0.045,0.006 -0.063,0.018c-0.018,0.012 -0.033,0.029 -0.046,0.05c-0.013,0.022 -0.024,0.048 -0.033,0.079c-0.008,0.03 -0.015,0.064 -0.02,0.1c-0.006,0.037 -0.01,0.076 -0.012,0.118c-0.003,0.042 -0.005,0.086 -0.006,0.13Z" style="fill-rule:nonzero;"/></g><g transform="matrix(40,0,0,40,290.96,218.833)"><path d="M0.329,-0.328c0.006,-0.023 0.012,-0.043 0.017,-0.059c0.005,-0.016 0.009,-0.03 0.013,-0.04c0.003,-0.009 0.007,-0.017 0.01,-0.021c0.003,-0.005 0.005,-0.007 0.008,-0.007c0.005,-0 0.01,0.002 0.018,0.005c0.007,0.004 0.014,0.008 0.021,0.013c0.006,0.005 0.012,0.01 0.017,0.015c0.005,0.005 0.007,0.009 0.007,0.012c0,0.008 -0.001,0.019 -0.005,0.031c-0.004,0.012 -0.009,0.025 -0.015,0.04c-0.006,0.014 -0.013,0.03 -0.021,0.045c-0.008,0.016 -0.016,0.031 -0.024,0.046c-0.008,0.015 -0.016,0.03 -0.023,0.043c-0.008,0.013 -0.015,0.025 -0.021,0.034c-0.001,0.002 -0.001,0.005 -0.002,0.011c-0,0.005 -0,0.011 -0,0.018c-0,0.012 0.001,0.022 0.005,0.031c0.003,0.008 0.008,0.016 0.014,0.021c0.006,0.006 0.012,0.01 0.02,0.013c0.008,0.003 0.017,0.005 0.026,0.005c0.013,-0 0.027,-0.003 0.041,-0.009c0.014,-0.006 0.026,-0.017 0.036,-0.032l0.005,0.002c0.002,0.006 0.003,0.015 0.003,0.026c0,0.012 -0.002,0.024 -0.007,0.035c-0.005,0.012 -0.012,0.021 -0.02,0.03c-0.009,0.008 -0.019,0.015 -0.031,0.019c-0.012,0.005 -0.025,0.007 -0.039,0.007c-0.012,0 -0.024,-0.002 -0.035,-0.006c-0.011,-0.005 -0.02,-0.012 -0.028,-0.022c-0.008,-0.011 -0.015,-0.024 -0.019,-0.04c-0.005,-0.015 -0.007,-0.035 -0.007,-0.057l-0.001,-0.001c-0.027,0.042 -0.054,0.075 -0.081,0.097c-0.027,0.022 -0.053,0.033 -0.078,0.033c-0.012,0 -0.023,-0.002 -0.033,-0.008c-0.009,-0.005 -0.017,-0.012 -0.024,-0.021c-0.006,-0.009 -0.012,-0.019 -0.016,-0.03c-0.005,-0.011 -0.008,-0.023 -0.01,-0.035c-0.003,-0.012 -0.005,-0.024 -0.006,-0.035c-0.001,-0.012 -0.001,-0.022 -0.001,-0.031c-0,-0.022 0.001,-0.044 0.004,-0.067c0.003,-0.023 0.008,-0.046 0.014,-0.068c0.006,-0.023 0.013,-0.044 0.023,-0.064c0.009,-0.02 0.02,-0.038 0.032,-0.053c0.013,-0.016 0.027,-0.028 0.043,-0.037c0.016,-0.009 0.033,-0.013 0.052,-0.013c0.015,-0 0.028,0.004 0.04,0.011c0.012,0.007 0.022,0.017 0.032,0.028c0.01,0.012 0.018,0.025 0.026,0.04c0.007,0.015 0.014,0.03 0.02,0.045Zm-0.012,0.046c-0.005,-0.013 -0.011,-0.026 -0.017,-0.037c-0.006,-0.012 -0.012,-0.022 -0.019,-0.031c-0.007,-0.008 -0.015,-0.015 -0.024,-0.021c-0.008,-0.005 -0.018,-0.007 -0.028,-0.007c-0.014,-0 -0.027,0.003 -0.039,0.01c-0.012,0.007 -0.023,0.016 -0.034,0.028c-0.01,0.012 -0.02,0.025 -0.028,0.041c-0.009,0.015 -0.016,0.032 -0.022,0.048c-0.005,0.017 -0.01,0.034 -0.013,0.051c-0.003,0.017 -0.005,0.033 -0.005,0.047c0,0.01 0.001,0.019 0.003,0.029c0.002,0.009 0.005,0.017 0.009,0.025c0.004,0.007 0.01,0.013 0.017,0.017c0.007,0.005 0.016,0.007 0.027,0.007c0.014,0 0.028,-0.003 0.042,-0.009c0.014,-0.007 0.028,-0.016 0.042,-0.027c0.013,-0.012 0.026,-0.025 0.039,-0.041c0.012,-0.016 0.024,-0.034 0.036,-0.052c0.001,-0.011 0.003,-0.024 0.006,-0.037c0.002,-0.014 0.005,-0.027 0.008,-0.041Z" style="fill-rule:nonzero;"/></g><g transform="matrix(40,0,0,40,310.881,218.833)"><path d="M0.48,-0.094c0.001,0.004 0.002,0.007 0.002,0.011c0,0.004 0,0.008 0,0.011c0,0.01 -0.001,0.02 -0.004,0.029c-0.003,0.01 -0.007,0.018 -0.013,0.026c-0.006,0.007 -0.013,0.013 -0.021,0.018c-0.009,0.005 -0.018,0.007 -0.029,0.007c-0.014,-0 -0.025,-0.004 -0.035,-0.01c-0.009,-0.007 -0.017,-0.016 -0.023,-0.027c-0.005,-0.01 -0.011,-0.024 -0.016,-0.042c-0.006,-0.018 -0.012,-0.04 -0.019,-0.067c-0.007,-0.026 -0.014,-0.058 -0.022,-0.093c-0.008,-0.036 -0.017,-0.077 -0.027,-0.123c-0.028,0.061 -0.054,0.118 -0.079,0.173c-0.024,0.054 -0.048,0.105 -0.072,0.152c-0.004,0.008 -0.008,0.014 -0.012,0.019c-0.004,0.004 -0.009,0.008 -0.014,0.011c-0.006,0.002 -0.011,0.004 -0.018,0.005c-0.006,0.001 -0.013,0.002 -0.021,0.002c-0.008,-0 -0.017,-0.001 -0.026,-0.002c-0.008,-0.001 -0.017,-0.003 -0.026,-0.007l-0.001,-0.004c0.021,-0.033 0.043,-0.067 0.065,-0.103c0.021,-0.036 0.043,-0.072 0.064,-0.11c0.021,-0.037 0.042,-0.074 0.063,-0.112c0.02,-0.037 0.04,-0.073 0.058,-0.108c-0.009,-0.038 -0.018,-0.07 -0.027,-0.096c-0.009,-0.026 -0.018,-0.047 -0.028,-0.064c-0.01,-0.016 -0.02,-0.028 -0.032,-0.035c-0.012,-0.007 -0.025,-0.011 -0.041,-0.011c-0.012,0 -0.023,0.002 -0.034,0.005c-0.011,0.004 -0.022,0.01 -0.033,0.018c-0.01,-0.007 -0.018,-0.016 -0.023,-0.025c-0.005,-0.01 -0.008,-0.019 -0.008,-0.028c0,-0.008 0.002,-0.016 0.006,-0.024c0.004,-0.007 0.009,-0.013 0.016,-0.019c0.007,-0.005 0.016,-0.009 0.026,-0.012c0.011,-0.004 0.023,-0.005 0.037,-0.005c0.031,-0 0.056,0.008 0.077,0.024c0.02,0.017 0.038,0.041 0.053,0.073c0.016,0.033 0.029,0.072 0.041,0.12c0.013,0.047 0.026,0.102 0.041,0.164c0.008,0.037 0.016,0.07 0.022,0.098c0.007,0.028 0.013,0.052 0.018,0.072c0.005,0.02 0.01,0.036 0.015,0.049c0.005,0.013 0.01,0.024 0.016,0.031c0.005,0.008 0.011,0.013 0.018,0.016c0.006,0.003 0.014,0.004 0.023,0.004c0.011,0 0.025,-0.004 0.04,-0.012l0.003,0.001Z" style="fill-rule:nonzero;"/></g><g transform="matrix(13,0,0,13,262.461,241.083)"><path d="M0.083,-0l0,-0.7l0.303,0c0.063,0 0.117,0.01 0.162,0.031c0.045,0.02 0.08,0.049 0.105,0.087c0.025,0.038 0.037,0.083 0.037,0.136c-0,0.052 -0.012,0.097 -0.037,0.135c-0.025,0.037 -0.06,0.066 -0.105,0.086c-0.045,0.02 -0.099,0.03 -0.162,0.03l-0.213,0l0.072,-0.071l-0,0.266l-0.162,-0Zm0.445,-0l-0.175,-0.254l0.173,0l0.177,0.254l-0.175,-0Zm-0.283,-0.248l-0.072,-0.076l0.204,0c0.05,0 0.087,-0.011 0.112,-0.032c0.025,-0.022 0.037,-0.052 0.037,-0.09c0,-0.039 -0.012,-0.069 -0.037,-0.09c-0.025,-0.021 -0.062,-0.032 -0.112,-0.032l-0.204,0l0.072,-0.077l-0,0.397Z" style="fill-rule:nonzero;"/></g><g transform="matrix(13,0,0,13,271.951,241.083)"><path d="M0.402,-0l0,-0.105l-0.01,-0.023l0,-0.188c0,-0.033 -0.01,-0.059 -0.031,-0.078c-0.02,-0.019 -0.051,-0.028 -0.093,-0.028c-0.029,0 -0.057,0.005 -0.085,0.014c-0.027,0.009 -0.051,0.021 -0.07,0.036l-0.056,-0.109c0.029,-0.021 0.065,-0.037 0.106,-0.048c0.041,-0.011 0.083,-0.017 0.126,-0.017c0.082,0 0.146,0.019 0.191,0.058c0.045,0.039 0.068,0.099 0.068,0.181l0,0.307l-0.146,0Zm-0.164,0.008c-0.042,-0 -0.078,-0.007 -0.108,-0.021c-0.03,-0.015 -0.053,-0.034 -0.069,-0.059c-0.016,-0.025 -0.024,-0.052 -0.024,-0.083c0,-0.032 0.008,-0.06 0.024,-0.084c0.015,-0.024 0.04,-0.043 0.074,-0.056c0.034,-0.014 0.078,-0.021 0.133,-0.021l0.143,0l-0,0.091l-0.126,0c-0.037,0 -0.062,0.006 -0.076,0.018c-0.013,0.012 -0.02,0.027 -0.02,0.045c-0,0.02 0.008,0.036 0.023,0.048c0.016,0.011 0.038,0.017 0.065,0.017c0.026,0 0.049,-0.006 0.07,-0.018c0.021,-0.013 0.036,-0.031 0.045,-0.055l0.024,0.072c-0.011,0.035 -0.032,0.061 -0.062,0.079c-0.03,0.018 -0.069,0.027 -0.116,0.027Z" style="fill-rule:nonzero;"/></g><g transform="matrix(13,0,0,13,279.972,241.083)"><path d="M0.072,-0l-0,-0.538l0.156,0l0,0.538l-0.156,-0Zm-0.013,-0.607l0.135,-0.144l0.168,0l-0.181,0.144l-0.122,0Z" style="fill-rule:nonzero;"/></g><g transform="matrix(13,0,0,13,283.885,241.083)"><path d="M0.035,-0l0,-0.094l0.318,-0.376l0.027,0.052l-0.338,0l0,-0.12l0.464,0l0,0.094l-0.318,0.376l-0.028,-0.052l0.355,0l0,0.12l-0.48,0Z" style="fill-rule:nonzero;"/></g><g transform="matrix(13,0,0,13,294.623,241.083)"><path d="M0.218,-0l-0.226,-0.538l0.161,0l0.188,0.463l-0.08,0l0.195,-0.463l0.15,0l-0.227,0.538l-0.161,-0Z" style="fill-rule:nonzero;"/></g><g transform="matrix(13,0,0,13,302.202,241.083)"><path d="M0.339,0.008c-0.061,-0 -0.115,-0.012 -0.162,-0.036c-0.046,-0.024 -0.082,-0.057 -0.107,-0.099c-0.025,-0.041 -0.038,-0.089 -0.038,-0.142c-0,-0.054 0.012,-0.102 0.037,-0.143c0.025,-0.042 0.06,-0.075 0.103,-0.098c0.043,-0.024 0.092,-0.036 0.147,-0.036c0.053,0 0.1,0.011 0.142,0.034c0.043,0.022 0.076,0.054 0.101,0.096c0.025,0.041 0.037,0.091 0.037,0.149c-0,0.006 -0,0.013 -0.001,0.021c-0.001,0.007 -0.001,0.014 -0.002,0.021l-0.437,0l-0,-0.091l0.355,0l-0.06,0.027c0,-0.028 -0.006,-0.052 -0.017,-0.073c-0.011,-0.021 -0.027,-0.037 -0.047,-0.048c-0.02,-0.012 -0.043,-0.018 -0.07,-0.018c-0.027,0 -0.05,0.006 -0.071,0.018c-0.02,0.011 -0.036,0.028 -0.047,0.049c-0.011,0.021 -0.017,0.045 -0.017,0.074l0,0.024c0,0.029 0.007,0.055 0.019,0.078c0.014,0.022 0.032,0.039 0.056,0.05c0.023,0.012 0.051,0.018 0.083,0.018c0.029,0 0.054,-0.004 0.075,-0.013c0.022,-0.009 0.042,-0.022 0.06,-0.039l0.083,0.09c-0.025,0.028 -0.056,0.05 -0.093,0.065c-0.037,0.014 -0.08,0.022 -0.129,0.022Z" style="fill-rule:nonzero;"/></g><g transform="matrix(13,0,0,13,310.405,241.083)"><path d="M0.072,-0l-0,-0.538l0.149,0l0,0.152l-0.021,-0.044c0.016,-0.038 0.042,-0.067 0.077,-0.086c0.035,-0.02 0.078,-0.03 0.129,-0.03l0,0.144c-0.007,-0.001 -0.013,-0.001 -0.018,-0.002c-0.005,0 -0.011,0 -0.017,0c-0.043,0 -0.077,0.012 -0.103,0.037c-0.027,0.024 -0.04,0.062 -0.04,0.113l0,0.254l-0.156,0Z" style="fill-rule:nonzero;"/></g><g transform="matrix(13,0,0,13,315.956,241.083)"><path d="M0.39,0.008c-0.047,-0 -0.088,-0.01 -0.122,-0.03c-0.034,-0.02 -0.06,-0.05 -0.078,-0.092c-0.018,-0.041 -0.027,-0.092 -0.027,-0.155c0,-0.063 0.009,-0.115 0.028,-0.156c0.019,-0.041 0.046,-0.071 0.08,-0.091c0.034,-0.02 0.074,-0.03 0.119,-0.03c0.051,0 0.096,0.011 0.136,0.034c0.041,0.023 0.073,0.055 0.097,0.096c0.023,0.041 0.035,0.09 0.035,0.147c0,0.056 -0.012,0.105 -0.035,0.146c-0.024,0.041 -0.056,0.074 -0.097,0.097c-0.04,0.023 -0.085,0.034 -0.136,0.034Zm-0.318,-0.008l-0,-0.742l0.156,0l0,0.313l-0.01,0.159l0.003,0.16l0,0.11l-0.149,0Zm0.291,-0.12c0.026,0 0.049,-0.006 0.07,-0.018c0.02,-0.012 0.036,-0.029 0.048,-0.051c0.013,-0.023 0.019,-0.049 0.019,-0.08c0,-0.031 -0.006,-0.058 -0.019,-0.08c-0.012,-0.022 -0.028,-0.039 -0.048,-0.051c-0.021,-0.012 -0.044,-0.018 -0.07,-0.018c-0.026,0 -0.049,0.006 -0.07,0.018c-0.021,0.012 -0.037,0.029 -0.049,0.051c-0.012,0.022 -0.018,0.049 -0.018,0.08c0,0.031 0.006,0.057 0.018,0.08c0.012,0.022 0.028,0.039 0.049,0.051c0.021,0.012 0.044,0.018 0.07,0.018Z" style="fill-rule:nonzero;"/></g><g transform="matrix(13,0,0,13,324.809,241.083)"><path d="M0.402,-0l0,-0.105l-0.01,-0.023l0,-0.188c0,-0.033 -0.01,-0.059 -0.031,-0.078c-0.02,-0.019 -0.051,-0.028 -0.093,-0.028c-0.029,0 -0.057,0.005 -0.085,0.014c-0.027,0.009 -0.051,0.021 -0.07,0.036l-0.056,-0.109c0.029,-0.021 0.065,-0.037 0.106,-0.048c0.041,-0.011 0.083,-0.017 0.126,-0.017c0.082,0 0.146,0.019 0.191,0.058c0.045,0.039 0.068,0.099 0.068,0.181l0,0.307l-0.146,0Zm-0.164,0.008c-0.042,-0 -0.078,-0.007 -0.108,-0.021c-0.03,-0.015 -0.053,-0.034 -0.069,-0.059c-0.016,-0.025 -0.024,-0.052 -0.024,-0.083c0,-0.032 0.008,-0.06 0.024,-0.084c0.015,-0.024 0.04,-0.043 0.074,-0.056c0.034,-0.014 0.078,-0.021 0.133,-0.021l0.143,0l-0,0.091l-0.126,0c-0.037,0 -0.062,0.006 -0.076,0.018c-0.013,0.012 -0.02,0.027 -0.02,0.045c-0,0.02 0.008,0.036 0.023,0.048c0.016,0.011 0.038,0.017 0.065,0.017c0.026,0 0.049,-0.006 0.07,-0.018c0.021,-0.013 0.036,-0.031 0.045,-0.055l0.024,0.072c-0.011,0.035 -0.032,0.061 -0.062,0.079c-0.03,0.018 -0.069,0.027 -0.116,0.027Z" style="fill-rule:nonzero;"/></g><g transform="matrix(13,0,0,13,332.83,241.083)"><rect x="0.072" y="-0.742" width="0.156" height="0.742" style="fill-rule:nonzero;"/></g></g><g transform="matrix(1,0,0,1,-50.1481,-54.8134)"><g transform="matrix(40,0,0,40,256.311,218.833)"><path d="M0.168,0.236c-0.006,0.005 -0.014,0.009 -0.024,0.011c-0.01,0.003 -0.021,0.004 -0.033,0.004c-0.008,0 -0.015,-0.001 -0.021,-0.004c-0.005,-0.004 -0.008,-0.009 -0.009,-0.018c-0.001,-0.009 -0.001,-0.021 -0.001,-0.036c-0.001,-0.016 -0.001,-0.032 -0.001,-0.05c-0.001,-0.018 -0.001,-0.035 -0.001,-0.053l0,-0.148c0,-0.038 0.001,-0.078 0.003,-0.121c0.001,-0.042 0.004,-0.086 0.008,-0.131c0.004,-0.045 0.01,-0.088 0.017,-0.13c0.008,-0.043 0.018,-0.083 0.03,-0.12c0.012,-0.038 0.027,-0.071 0.045,-0.099c0.018,-0.028 0.039,-0.05 0.064,-0.067c0.025,-0.016 0.054,-0.024 0.087,-0.024c0.023,-0 0.043,0.004 0.061,0.013c0.018,0.009 0.034,0.021 0.046,0.036c0.013,0.015 0.023,0.033 0.03,0.052c0.006,0.02 0.01,0.041 0.01,0.062c-0,0.039 -0.008,0.076 -0.024,0.108c-0.016,0.033 -0.037,0.062 -0.063,0.089c0.04,0.021 0.071,0.049 0.093,0.084c0.022,0.035 0.033,0.076 0.033,0.121c-0,0.028 -0.005,0.053 -0.015,0.077c-0.009,0.023 -0.022,0.044 -0.039,0.062c-0.016,0.017 -0.036,0.031 -0.058,0.041c-0.023,0.01 -0.048,0.015 -0.074,0.015c-0.018,0 -0.035,-0.003 -0.053,-0.009c-0.018,-0.006 -0.035,-0.015 -0.051,-0.026c-0.016,-0.011 -0.031,-0.024 -0.044,-0.04c-0.014,-0.015 -0.025,-0.032 -0.035,-0.051c0,0.008 -0,0.017 -0,0.027c-0,0.009 -0.001,0.019 -0.001,0.028c0,0.027 0.001,0.056 0.002,0.086c0.002,0.03 0.003,0.059 0.005,0.086c0.002,0.028 0.004,0.053 0.007,0.075c0.002,0.022 0.004,0.039 0.006,0.05Zm-0.014,-0.409c0.009,0.016 0.019,0.031 0.031,0.044c0.012,0.012 0.025,0.023 0.039,0.032c0.014,0.009 0.029,0.015 0.045,0.02c0.016,0.005 0.032,0.007 0.048,0.007c0.02,0 0.038,-0.003 0.054,-0.01c0.016,-0.006 0.03,-0.016 0.042,-0.028c0.011,-0.012 0.02,-0.027 0.027,-0.044c0.006,-0.017 0.009,-0.035 0.009,-0.056c0,-0.033 -0.008,-0.063 -0.024,-0.089c-0.016,-0.027 -0.037,-0.049 -0.063,-0.066c-0.009,0.006 -0.017,0.012 -0.026,0.018c-0.009,0.005 -0.018,0.01 -0.026,0.014c-0.009,0.004 -0.018,0.007 -0.026,0.009c-0.008,0.003 -0.015,0.004 -0.022,0.004c-0.021,0 -0.031,-0.009 -0.031,-0.029c-0,-0.008 0.001,-0.016 0.004,-0.025c0.003,-0.008 0.007,-0.016 0.013,-0.022c0.005,-0.007 0.012,-0.012 0.019,-0.016c0.008,-0.004 0.016,-0.007 0.025,-0.007c0.008,0 0.017,0.001 0.028,0.003c0.01,0.001 0.02,0.004 0.031,0.007c0.021,-0.019 0.037,-0.042 0.049,-0.068c0.012,-0.026 0.018,-0.054 0.018,-0.085c0,-0.013 -0.001,-0.026 -0.005,-0.038c-0.004,-0.013 -0.009,-0.025 -0.016,-0.035c-0.007,-0.011 -0.016,-0.019 -0.027,-0.026c-0.01,-0.006 -0.022,-0.009 -0.036,-0.009c-0.024,-0 -0.045,0.006 -0.063,0.018c-0.018,0.012 -0.033,0.029 -0.046,0.05c-0.013,0.022 -0.024,0.048 -0.033,0.079c-0.008,0.03 -0.015,0.064 -0.02,0.1c-0.006,0.037 -0.01,0.076 -0.012,0.118c-0.003,0.042 -0.005,0.086 -0.006,0.13Z" style="fill:#2a81d3;fill-rule:nonzero;"/></g><g transform="matrix(40,0,0,40,278.811,218.833)"><path d="M0.329,-0.328c0.006,-0.023 0.012,-0.043 0.017,-0.059c0.005,-0.016 0.009,-0.03 0.013,-0.04c0.003,-0.009 0.007,-0.017 0.01,-0.021c0.003,-0.005 0.005,-0.007 0.008,-0.007c0.005,-0 0.01,0.002 0.018,0.005c0.007,0.004 0.014,0.008 0.021,0.013c0.006,0.005 0.012,0.01 0.017,0.015c0.005,0.005 0.007,0.009 0.007,0.012c0,0.008 -0.001,0.019 -0.005,0.031c-0.004,0.012 -0.009,0.025 -0.015,0.04c-0.006,0.014 -0.013,0.03 -0.021,0.045c-0.008,0.016 -0.016,0.031 -0.024,0.046c-0.008,0.015 -0.016,0.03 -0.023,0.043c-0.008,0.013 -0.015,0.025 -0.021,0.034c-0.001,0.002 -0.001,0.005 -0.002,0.011c-0,0.005 -0,0.011 -0,0.018c-0,0.012 0.001,0.022 0.005,0.031c0.003,0.008 0.008,0.016 0.014,0.021c0.006,0.006 0.012,0.01 0.02,0.013c0.008,0.003 0.017,0.005 0.026,0.005c0.013,-0 0.027,-0.003 0.041,-0.009c0.014,-0.006 0.026,-0.017 0.036,-0.032l0.005,0.002c0.002,0.006 0.003,0.015 0.003,0.026c0,0.012 -0.002,0.024 -0.007,0.035c-0.005,0.012 -0.012,0.021 -0.02,0.03c-0.009,0.008 -0.019,0.015 -0.031,0.019c-0.012,0.005 -0.025,0.007 -0.039,0.007c-0.012,0 -0.024,-0.002 -0.035,-0.006c-0.011,-0.005 -0.02,-0.012 -0.028,-0.022c-0.008,-0.011 -0.015,-0.024 -0.019,-0.04c-0.005,-0.015 -0.007,-0.035 -0.007,-0.057l-0.001,-0.001c-0.027,0.042 -0.054,0.075 -0.081,0.097c-0.027,0.022 -0.053,0.033 -0.078,0.033c-0.012,0 -0.023,-0.002 -0.033,-0.008c-0.009,-0.005 -0.017,-0.012 -0.024,-0.021c-0.006,-0.009 -0.012,-0.019 -0.016,-0.03c-0.005,-0.011 -0.008,-0.023 -0.01,-0.035c-0.003,-0.012 -0.005,-0.024 -0.006,-0.035c-0.001,-0.012 -0.001,-0.022 -0.001,-0.031c-0,-0.022 0.001,-0.044 0.004,-0.067c0.003,-0.023 0.008,-0.046 0.014,-0.068c0.006,-0.023 0.013,-0.044 0.023,-0.064c0.009,-0.02 0.02,-0.038 0.032,-0.053c0.013,-0.016 0.027,-0.028 0.043,-0.037c0.016,-0.009 0.033,-0.013 0.052,-0.013c0.015,-0 0.028,0.004 0.04,0.011c0.012,0.007 0.022,0.017 0.032,0.028c0.01,0.012 0.018,0.025 0.026,0.04c0.007,0.015 0.014,0.03 0.02,0.045Zm-0.012,0.046c-0.005,-0.013 -0.011,-0.026 -0.017,-0.037c-0.006,-0.012 -0.012,-0.022 -0.019,-0.031c-0.007,-0.008 -0.015,-0.015 -0.024,-0.021c-0.008,-0.005 -0.018,-0.007 -0.028,-0.007c-0.014,-0 -0.027,0.003 -0.039,0.01c-0.012,0.007 -0.023,0.016 -0.034,0.028c-0.01,0.012 -0.02,0.025 -0.028,0.041c-0.009,0.015 -0.016,0.032 -0.022,0.048c-0.005,0.017 -0.01,0.034 -0.013,0.051c-0.003,0.017 -0.005,0.033 -0.005,0.047c0,0.01 0.001,0.019 0.003,0.029c0.002,0.009 0.005,0.017 0.009,0.025c0.004,0.007 0.01,0.013 0.017,0.017c0.007,0.005 0.016,0.007 0.027,0.007c0.014,0 0.028,-0.003 0.042,-0.009c0.014,-0.007 0.028,-0.016 0.042,-0.027c0.013,-0.012 0.026,-0.025 0.039,-0.041c0.012,-0.016 0.024,-0.034 0.036,-0.052c0.001,-0.011 0.003,-0.024 0.006,-0.037c0.002,-0.014 0.005,-0.027 0.008,-0.041Z" style="fill:#2a81d3;fill-rule:nonzero;"/></g><g transform="matrix(40,0,0,40,298.733,218.833)"><path d="M0.48,-0.094c0.001,0.004 0.002,0.007 0.002,0.011c0,0.004 0,0.008 0,0.011c0,0.01 -0.001,0.02 -0.004,0.029c-0.003,0.01 -0.007,0.018 -0.013,0.026c-0.006,0.007 -0.013,0.013 -0.021,0.018c-0.009,0.005 -0.018,0.007 -0.029,0.007c-0.014,-0 -0.025,-0.004 -0.035,-0.01c-0.009,-0.007 -0.017,-0.016 -0.023,-0.027c-0.005,-0.01 -0.011,-0.024 -0.016,-0.042c-0.006,-0.018 -0.012,-0.04 -0.019,-0.067c-0.007,-0.026 -0.014,-0.058 -0.022,-0.093c-0.008,-0.036 -0.017,-0.077 -0.027,-0.123c-0.028,0.061 -0.054,0.118 -0.079,0.173c-0.024,0.054 -0.048,0.105 -0.072,0.152c-0.004,0.008 -0.008,0.014 -0.012,0.019c-0.004,0.004 -0.009,0.008 -0.014,0.011c-0.006,0.002 -0.011,0.004 -0.018,0.005c-0.006,0.001 -0.013,0.002 -0.021,0.002c-0.008,-0 -0.017,-0.001 -0.026,-0.002c-0.008,-0.001 -0.017,-0.003 -0.026,-0.007l-0.001,-0.004c0.021,-0.033 0.043,-0.067 0.065,-0.103c0.021,-0.036 0.043,-0.072 0.064,-0.11c0.021,-0.037 0.042,-0.074 0.063,-0.112c0.02,-0.037 0.04,-0.073 0.058,-0.108c-0.009,-0.038 -0.018,-0.07 -0.027,-0.096c-0.009,-0.026 -0.018,-0.047 -0.028,-0.064c-0.01,-0.016 -0.02,-0.028 -0.032,-0.035c-0.012,-0.007 -0.025,-0.011 -0.041,-0.011c-0.012,0 -0.023,0.002 -0.034,0.005c-0.011,0.004 -0.022,0.01 -0.033,0.018c-0.01,-0.007 -0.018,-0.016 -0.023,-0.025c-0.005,-0.01 -0.008,-0.019 -0.008,-0.028c0,-0.008 0.002,-0.016 0.006,-0.024c0.004,-0.007 0.009,-0.013 0.016,-0.019c0.007,-0.005 0.016,-0.009 0.026,-0.012c0.011,-0.004 0.023,-0.005 0.037,-0.005c0.031,-0 0.056,0.008 0.077,0.024c0.02,0.017 0.038,0.041 0.053,0.073c0.016,0.033 0.029,0.072 0.041,0.12c0.013,0.047 0.026,0.102 0.041,0.164c0.008,0.037 0.016,0.07 0.022,0.098c0.007,0.028 0.013,0.052 0.018,0.072c0.005,0.02 0.01,0.036 0.015,0.049c0.005,0.013 0.01,0.024 0.016,0.031c0.005,0.008 0.011,0.013 0.018,0.016c0.006,0.003 0.014,0.004 0.023,0.004c0.011,0 0.025,-0.004 0.04,-0.012l0.003,0.001Z" style="fill:#2a81d3;fill-rule:nonzero;"/></g><g transform="matrix(40,0,0,40,318.596,218.833)"><path d="M0.433,-0.443c0.003,-0.002 0.006,-0.005 0.011,-0.009c0.005,-0.003 0.01,-0.005 0.016,-0.005c0.004,-0 0.009,0.002 0.013,0.006c0.013,0.013 0.024,0.028 0.035,0.046c0.01,0.019 0.019,0.039 0.026,0.061c0.007,0.021 0.013,0.044 0.017,0.067c0.004,0.024 0.006,0.048 0.006,0.071c-0,0.037 -0.005,0.07 -0.014,0.097c-0.009,0.027 -0.02,0.049 -0.035,0.066c-0.014,0.018 -0.031,0.031 -0.049,0.039c-0.018,0.008 -0.036,0.012 -0.054,0.012c-0.027,0 -0.049,-0.007 -0.068,-0.022c-0.018,-0.014 -0.034,-0.039 -0.046,-0.072c-0.017,0.032 -0.037,0.056 -0.059,0.072c-0.023,0.015 -0.045,0.023 -0.067,0.023c-0.017,0 -0.032,-0.004 -0.046,-0.012c-0.014,-0.008 -0.027,-0.02 -0.037,-0.035c-0.011,-0.015 -0.019,-0.033 -0.025,-0.054c-0.007,-0.021 -0.01,-0.045 -0.01,-0.071c0,-0.024 0.002,-0.048 0.005,-0.071c0.004,-0.024 0.009,-0.047 0.015,-0.069c0.006,-0.022 0.013,-0.042 0.022,-0.061c0.008,-0.019 0.018,-0.035 0.028,-0.049c0.01,-0.014 0.021,-0.025 0.033,-0.033c0.011,-0.008 0.023,-0.012 0.036,-0.012c0.014,0 0.024,0.005 0.03,0.014c0.006,0.009 0.009,0.02 0.009,0.032c-0,0.01 -0.002,0.019 -0.004,0.027c-0.018,0.007 -0.035,0.018 -0.051,0.033c-0.015,0.015 -0.029,0.032 -0.041,0.051c-0.011,0.019 -0.021,0.04 -0.027,0.062c-0.007,0.023 -0.01,0.045 -0.01,0.067c-0,0.017 0.002,0.031 0.006,0.043c0.005,0.013 0.011,0.023 0.018,0.031c0.008,0.008 0.017,0.014 0.028,0.017c0.01,0.004 0.021,0.006 0.033,0.006c0.01,0 0.02,-0.001 0.03,-0.004c0.009,-0.003 0.019,-0.008 0.027,-0.014c0.009,-0.006 0.017,-0.014 0.024,-0.023c0.007,-0.009 0.013,-0.019 0.017,-0.03c-0.002,-0.01 -0.004,-0.019 -0.006,-0.03c-0.002,-0.01 -0.004,-0.02 -0.005,-0.031c-0.002,-0.01 -0.003,-0.02 -0.004,-0.03c-0.001,-0.01 -0.001,-0.02 -0.001,-0.029c-0,-0.005 0.003,-0.01 0.009,-0.015c0.006,-0.005 0.013,-0.009 0.022,-0.013c0.009,-0.004 0.018,-0.007 0.028,-0.009c0.01,-0.003 0.019,-0.004 0.027,-0.004c0.006,-0 0.011,0.001 0.015,0.002c0.004,0.002 0.006,0.005 0.006,0.009c-0,0.004 -0.001,0.012 -0.004,0.023c-0.002,0.011 -0.005,0.024 -0.009,0.04c-0.005,0.015 -0.01,0.032 -0.016,0.05c-0.007,0.019 -0.014,0.037 -0.022,0.056c0.006,0.018 0.016,0.031 0.029,0.04c0.014,0.008 0.028,0.013 0.044,0.013c0.019,-0 0.036,-0.005 0.049,-0.013c0.014,-0.009 0.025,-0.021 0.033,-0.036c0.009,-0.015 0.015,-0.032 0.019,-0.052c0.004,-0.019 0.006,-0.039 0.006,-0.061c-0,-0.019 -0.002,-0.039 -0.005,-0.059c-0.003,-0.019 -0.007,-0.038 -0.013,-0.057c-0.005,-0.018 -0.012,-0.035 -0.019,-0.051c-0.008,-0.015 -0.016,-0.029 -0.025,-0.04Zm-0.009,-0.217c0.007,-0.006 0.014,-0.01 0.022,-0.014c0.008,-0.004 0.016,-0.006 0.024,-0.006c0.008,-0 0.015,0.003 0.02,0.009c0.006,0.005 0.009,0.016 0.009,0.03c-0,0.012 -0.002,0.024 -0.007,0.037c-0.004,0.013 -0.01,0.025 -0.018,0.036c-0.008,0.011 -0.018,0.02 -0.03,0.028c-0.012,0.007 -0.026,0.011 -0.041,0.011c-0.008,0 -0.016,-0.001 -0.022,-0.003c-0.007,-0.002 -0.013,-0.004 -0.018,-0.008c-0.006,-0.003 -0.011,-0.007 -0.016,-0.011c-0.005,-0.004 -0.01,-0.008 -0.014,-0.013c-0.012,-0.01 -0.023,-0.018 -0.033,-0.025c-0.01,-0.007 -0.022,-0.01 -0.035,-0.01c-0.011,-0 -0.02,0.002 -0.028,0.007c-0.008,0.004 -0.015,0.01 -0.02,0.018c-0.006,0.007 -0.011,0.015 -0.015,0.024c-0.003,0.01 -0.007,0.019 -0.01,0.029c-0.011,-0.001 -0.02,-0.003 -0.028,-0.007c0.003,-0.018 0.007,-0.036 0.013,-0.055c0.006,-0.018 0.013,-0.035 0.022,-0.05c0.009,-0.015 0.02,-0.028 0.032,-0.037c0.012,-0.01 0.026,-0.015 0.041,-0.015c0.009,0 0.017,0.002 0.024,0.006c0.008,0.003 0.014,0.007 0.02,0.013c0.005,0.006 0.011,0.012 0.015,0.019c0.005,0.007 0.01,0.014 0.014,0.021c0.004,0.007 0.009,0.013 0.013,0.02c0.004,0.006 0.008,0.012 0.013,0.017c0.005,0.005 0.01,0.008 0.015,0.011c0.006,0.003 0.012,0.005 0.019,0.005c0.012,-0 0.021,-0.004 0.027,-0.012c0.006,-0.007 0.009,-0.016 0.009,-0.027c0,-0.008 -0.001,-0.016 -0.004,-0.025c-0.003,-0.009 -0.007,-0.016 -0.013,-0.023Z" style="fill-rule:nonzero;"/></g><g transform="matrix(12,0,0,12,239.968,233.833)"><path d="M0.228,-0l0,-0.568l-0.224,0l-0,-0.132l0.61,0l0,0.132l-0.224,0l0,0.568l-0.162,-0Z" style="fill-rule:nonzero;"/></g><g transform="matrix(12,0,0,12,246.724,233.833)"><path d="M0.339,0.008c-0.061,-0 -0.115,-0.012 -0.162,-0.036c-0.046,-0.024 -0.082,-0.057 -0.107,-0.099c-0.025,-0.041 -0.038,-0.089 -0.038,-0.142c-0,-0.054 0.012,-0.102 0.037,-0.143c0.025,-0.042 0.06,-0.075 0.103,-0.098c0.043,-0.024 0.092,-0.036 0.147,-0.036c0.053,0 0.1,0.011 0.142,0.034c0.043,0.022 0.076,0.054 0.101,0.096c0.025,0.041 0.037,0.091 0.037,0.149c-0,0.006 -0,0.013 -0.001,0.021c-0.001,0.007 -0.001,0.014 -0.002,0.021l-0.437,0l-0,-0.091l0.355,0l-0.06,0.027c0,-0.028 -0.006,-0.052 -0.017,-0.073c-0.011,-0.021 -0.027,-0.037 -0.047,-0.048c-0.02,-0.012 -0.043,-0.018 -0.07,-0.018c-0.027,0 -0.05,0.006 -0.071,0.018c-0.02,0.011 -0.036,0.028 -0.047,0.049c-0.011,0.021 -0.017,0.045 -0.017,0.074l0,0.024c0,0.029 0.007,0.055 0.019,0.078c0.014,0.022 0.032,0.039 0.056,0.05c0.023,0.012 0.051,0.018 0.083,0.018c0.029,0 0.054,-0.004 0.075,-0.013c0.022,-0.009 0.042,-0.022 0.06,-0.039l0.083,0.09c-0.025,0.028 -0.056,0.05 -0.093,0.065c-0.037,0.014 -0.08,0.022 -0.129,0.022Z" style="fill-rule:nonzero;"/></g><g transform="matrix(12,0,0,12,254.296,233.833)"><path d="M0.761,-0.546c0.043,0 0.081,0.009 0.114,0.026c0.032,0.017 0.058,0.043 0.078,0.078c0.019,0.035 0.028,0.079 0.028,0.134l0,0.308l-0.156,-0l0,-0.284c0,-0.043 -0.009,-0.075 -0.027,-0.096c-0.018,-0.021 -0.043,-0.031 -0.076,-0.031c-0.023,0 -0.043,0.005 -0.061,0.016c-0.018,0.01 -0.032,0.025 -0.042,0.046c-0.01,0.021 -0.015,0.047 -0.015,0.079l0,0.27l-0.156,-0l0,-0.284c0,-0.043 -0.009,-0.075 -0.026,-0.096c-0.018,-0.021 -0.043,-0.031 -0.076,-0.031c-0.023,0 -0.043,0.005 -0.061,0.016c-0.018,0.01 -0.032,0.025 -0.042,0.046c-0.01,0.021 -0.015,0.047 -0.015,0.079l0,0.27l-0.156,-0l0,-0.538l0.149,0l0,0.147l-0.028,-0.043c0.019,-0.037 0.045,-0.065 0.08,-0.083c0.034,-0.019 0.073,-0.029 0.117,-0.029c0.049,0 0.093,0.013 0.13,0.038c0.037,0.025 0.061,0.063 0.073,0.114l-0.055,-0.015c0.018,-0.042 0.047,-0.075 0.087,-0.1c0.039,-0.025 0.085,-0.037 0.136,-0.037Z" style="fill-rule:nonzero;"/></g><g transform="matrix(12,0,0,12,266.884,233.833)"><path d="M0.402,-0l0,-0.105l-0.01,-0.023l0,-0.188c0,-0.033 -0.01,-0.059 -0.031,-0.078c-0.02,-0.019 -0.051,-0.028 -0.093,-0.028c-0.029,0 -0.057,0.005 -0.085,0.014c-0.027,0.009 -0.051,0.021 -0.07,0.036l-0.056,-0.109c0.029,-0.021 0.065,-0.037 0.106,-0.048c0.041,-0.011 0.083,-0.017 0.126,-0.017c0.082,0 0.146,0.019 0.191,0.058c0.045,0.039 0.068,0.099 0.068,0.181l0,0.307l-0.146,0Zm-0.164,0.008c-0.042,-0 -0.078,-0.007 -0.108,-0.021c-0.03,-0.015 -0.053,-0.034 -0.069,-0.059c-0.016,-0.025 -0.024,-0.052 -0.024,-0.083c0,-0.032 0.008,-0.06 0.024,-0.084c0.015,-0.024 0.04,-0.043 0.074,-0.056c0.034,-0.014 0.078,-0.021 0.133,-0.021l0.143,0l-0,0.091l-0.126,0c-0.037,0 -0.062,0.006 -0.076,0.018c-0.013,0.012 -0.02,0.027 -0.02,0.045c-0,0.02 0.008,0.036 0.023,0.048c0.016,0.011 0.038,0.017 0.065,0.017c0.026,0 0.049,-0.006 0.07,-0.018c0.021,-0.013 0.036,-0.031 0.045,-0.055l0.024,0.072c-0.011,0.035 -0.032,0.061 -0.062,0.079c-0.03,0.018 -0.069,0.027 -0.116,0.027Z" style="fill-rule:nonzero;"/></g><g transform="matrix(12,0,0,12,277.684,233.833)"><path d="M0.218,-0l-0.226,-0.538l0.161,0l0.188,0.463l-0.08,0l0.195,-0.463l0.15,0l-0.227,0.538l-0.161,-0Z" style="fill-rule:nonzero;"/></g><g transform="matrix(12,0,0,12,284.68,233.833)"><path d="M0.339,0.008c-0.061,-0 -0.115,-0.012 -0.162,-0.036c-0.046,-0.024 -0.082,-0.057 -0.107,-0.099c-0.025,-0.041 -0.038,-0.089 -0.038,-0.142c-0,-0.054 0.012,-0.102 0.037,-0.143c0.025,-0.042 0.06,-0.075 0.103,-0.098c0.043,-0.024 0.092,-0.036 0.147,-0.036c0.053,0 0.1,0.011 0.142,0.034c0.043,0.022 0.076,0.054 0.101,0.096c0.025,0.041 0.037,0.091 0.037,0.149c-0,0.006 -0,0.013 -0.001,0.021c-0.001,0.007 -0.001,0.014 -0.002,0.021l-0.437,0l-0,-0.091l0.355,0l-0.06,0.027c0,-0.028 -0.006,-0.052 -0.017,-0.073c-0.011,-0.021 -0.027,-0.037 -0.047,-0.048c-0.02,-0.012 -0.043,-0.018 -0.07,-0.018c-0.027,0 -0.05,0.006 -0.071,0.018c-0.02,0.011 -0.036,0.028 -0.047,0.049c-0.011,0.021 -0.017,0.045 -0.017,0.074l0,0.024c0,0.029 0.007,0.055 0.019,0.078c0.014,0.022 0.032,0.039 0.056,0.05c0.023,0.012 0.051,0.018 0.083,0.018c0.029,0 0.054,-0.004 0.075,-0.013c0.022,-0.009 0.042,-0.022 0.06,-0.039l0.083,0.09c-0.025,0.028 -0.056,0.05 -0.093,0.065c-0.037,0.014 -0.08,0.022 -0.129,0.022Z" style="fill-rule:nonzero;"/></g><g transform="matrix(12,0,0,12,292.252,233.833)"><path d="M0.072,-0l-0,-0.538l0.149,0l0,0.152l-0.021,-0.044c0.016,-0.038 0.042,-0.067 0.077,-0.086c0.035,-0.02 0.078,-0.03 0.129,-0.03l0,0.144c-0.007,-0.001 -0.013,-0.001 -0.018,-0.002c-0.005,0 -0.011,0 -0.017,0c-0.043,0 -0.077,0.012 -0.103,0.037c-0.027,0.024 -0.04,0.062 -0.04,0.113l0,0.254l-0.156,0Z" style="fill-rule:nonzero;"/></g><g transform="matrix(12,0,0,12,297.376,233.833)"><path d="M0.39,0.008c-0.047,-0 -0.088,-0.01 -0.122,-0.03c-0.034,-0.02 -0.06,-0.05 -0.078,-0.092c-0.018,-0.041 -0.027,-0.092 -0.027,-0.155c0,-0.063 0.009,-0.115 0.028,-0.156c0.019,-0.041 0.046,-0.071 0.08,-0.091c0.034,-0.02 0.074,-0.03 0.119,-0.03c0.051,0 0.096,0.011 0.136,0.034c0.041,0.023 0.073,0.055 0.097,0.096c0.023,0.041 0.035,0.09 0.035,0.147c0,0.056 -0.012,0.105 -0.035,0.146c-0.024,0.041 -0.056,0.074 -0.097,0.097c-0.04,0.023 -0.085,0.034 -0.136,0.034Zm-0.318,-0.008l-0,-0.742l0.156,0l0,0.313l-0.01,0.159l0.003,0.16l0,0.11l-0.149,0Zm0.291,-0.12c0.026,0 0.049,-0.006 0.07,-0.018c0.02,-0.012 0.036,-0.029 0.048,-0.051c0.013,-0.023 0.019,-0.049 0.019,-0.08c0,-0.031 -0.006,-0.058 -0.019,-0.08c-0.012,-0.022 -0.028,-0.039 -0.048,-0.051c-0.021,-0.012 -0.044,-0.018 -0.07,-0.018c-0.026,0 -0.049,0.006 -0.07,0.018c-0.021,0.012 -0.037,0.029 -0.049,0.051c-0.012,0.022 -0.018,0.049 -0.018,0.08c0,0.031 0.006,0.057 0.018,0.08c0.012,0.022 0.028,0.039 0.049,0.051c0.021,0.012 0.044,0.018 0.07,0.018Z" style="fill-rule:nonzero;"/></g><g transform="matrix(12,0,0,12,305.548,233.833)"><path d="M0.402,-0l0,-0.105l-0.01,-0.023l0,-0.188c0,-0.033 -0.01,-0.059 -0.031,-0.078c-0.02,-0.019 -0.051,-0.028 -0.093,-0.028c-0.029,0 -0.057,0.005 -0.085,0.014c-0.027,0.009 -0.051,0.021 -0.07,0.036l-0.056,-0.109c0.029,-0.021 0.065,-0.037 0.106,-0.048c0.041,-0.011 0.083,-0.017 0.126,-0.017c0.082,0 0.146,0.019 0.191,0.058c0.045,0.039 0.068,0.099 0.068,0.181l0,0.307l-0.146,0Zm-0.164,0.008c-0.042,-0 -0.078,-0.007 -0.108,-0.021c-0.03,-0.015 -0.053,-0.034 -0.069,-0.059c-0.016,-0.025 -0.024,-0.052 -0.024,-0.083c0,-0.032 0.008,-0.06 0.024,-0.084c0.015,-0.024 0.04,-0.043 0.074,-0.056c0.034,-0.014 0.078,-0.021 0.133,-0.021l0.143,0l-0,0.091l-0.126,0c-0.037,0 -0.062,0.006 -0.076,0.018c-0.013,0.012 -0.02,0.027 -0.02,0.045c-0,0.02 0.008,0.036 0.023,0.048c0.016,0.011 0.038,0.017 0.065,0.017c0.026,0 0.049,-0.006 0.07,-0.018c0.021,-0.013 0.036,-0.031 0.045,-0.055l0.024,0.072c-0.011,0.035 -0.032,0.061 -0.062,0.079c-0.03,0.018 -0.069,0.027 -0.116,0.027Z" style="fill-rule:nonzero;"/></g><g transform="matrix(12,0,0,12,312.952,233.833)"><rect x="0.072" y="-0.742" width="0.156" height="0.742" style="fill-rule:nonzero;"/></g><g transform="matrix(12,0,0,12,319.96,233.833)"><path d="M0.091,-0l0,-0.55c0,-0.061 0.018,-0.109 0.054,-0.145c0.036,-0.037 0.087,-0.055 0.154,-0.055c0.023,0 0.045,0.002 0.066,0.007c0.021,0.005 0.038,0.012 0.053,0.022l-0.041,0.113c-0.009,-0.006 -0.018,-0.011 -0.029,-0.014c-0.011,-0.003 -0.022,-0.005 -0.034,-0.005c-0.023,0 -0.04,0.007 -0.052,0.02c-0.013,0.013 -0.019,0.032 -0.019,0.058l0,0.05l0.004,0.067l0,0.432l-0.156,0Zm-0.083,-0.406l0,-0.12l0.373,0l0,0.12l-0.373,0Z" style="fill-rule:nonzero;"/></g><g transform="matrix(12,0,0,12,324.604,233.833)"><path d="M0.299,0.008c-0.045,-0 -0.084,-0.009 -0.119,-0.026c-0.036,-0.017 -0.063,-0.044 -0.082,-0.08c-0.019,-0.035 -0.029,-0.081 -0.029,-0.136l0,-0.304l0.156,0l0,0.281c0,0.045 0.01,0.078 0.029,0.099c0.019,0.02 0.045,0.031 0.08,0.031c0.024,0 0.045,-0.005 0.064,-0.015c0.019,-0.011 0.033,-0.027 0.044,-0.048c0.011,-0.022 0.016,-0.049 0.016,-0.082l0,-0.266l0.156,0l0,0.538l-0.148,-0l0,-0.148l0.027,0.043c-0.018,0.037 -0.044,0.065 -0.08,0.084c-0.034,0.019 -0.073,0.029 -0.114,0.029Z" style="fill-rule:nonzero;"/></g><g transform="matrix(12,0,0,12,332.848,233.833)"><path d="M0.292,0.008c-0.063,-0 -0.113,-0.016 -0.148,-0.049c-0.035,-0.032 -0.053,-0.08 -0.053,-0.144l0,-0.472l0.156,0l0,0.47c0,0.023 0.006,0.04 0.018,0.052c0.012,0.013 0.028,0.019 0.049,0.019c0.025,0 0.046,-0.007 0.063,-0.02l0.042,0.11c-0.016,0.011 -0.035,0.02 -0.057,0.026c-0.023,0.005 -0.046,0.008 -0.07,0.008Zm-0.284,-0.414l0,-0.12l0.373,0l0,0.12l-0.373,0Z" style="fill-rule:nonzero;"/></g><g transform="matrix(12,0,0,12,338.068,233.833)"><path d="M0.299,0.008c-0.045,-0 -0.084,-0.009 -0.119,-0.026c-0.036,-0.017 -0.063,-0.044 -0.082,-0.08c-0.019,-0.035 -0.029,-0.081 -0.029,-0.136l0,-0.304l0.156,0l0,0.281c0,0.045 0.01,0.078 0.029,0.099c0.019,0.02 0.045,0.031 0.08,0.031c0.024,0 0.045,-0.005 0.064,-0.015c0.019,-0.011 0.033,-0.027 0.044,-0.048c0.011,-0.022 0.016,-0.049 0.016,-0.082l0,-0.266l0.156,0l0,0.538l-0.148,-0l0,-0.148l0.027,0.043c-0.018,0.037 -0.044,0.065 -0.08,0.084c-0.034,0.019 -0.073,0.029 -0.114,0.029Z" style="fill-rule:nonzero;"/></g><g transform="matrix(12,0,0,12,346.312,233.833)"><path d="M0.072,-0l-0,-0.538l0.149,0l0,0.152l-0.021,-0.044c0.016,-0.038 0.042,-0.067 0.077,-0.086c0.035,-0.02 0.078,-0.03 0.129,-0.03l0,0.144c-0.007,-0.001 -0.013,-0.001 -0.018,-0.002c-0.005,0 -0.011,0 -0.017,0c-0.043,0 -0.077,0.012 -0.103,0.037c-0.027,0.024 -0.04,0.062 -0.04,0.113l0,0.254l-0.156,0Z" style="fill-rule:nonzero;"/></g><g transform="matrix(12,0,0,12,351.376,233.833)"><path d="M0.328,0.008c-0.057,-0 -0.108,-0.012 -0.153,-0.036c-0.044,-0.024 -0.079,-0.057 -0.105,-0.099c-0.025,-0.041 -0.038,-0.089 -0.038,-0.142c-0,-0.054 0.013,-0.102 0.038,-0.143c0.026,-0.042 0.061,-0.075 0.105,-0.098c0.045,-0.024 0.096,-0.036 0.153,-0.036c0.057,0 0.107,0.012 0.152,0.036c0.045,0.023 0.08,0.056 0.105,0.097c0.025,0.041 0.038,0.089 0.038,0.144c0,0.053 -0.013,0.101 -0.038,0.143c-0.025,0.041 -0.06,0.074 -0.105,0.098c-0.045,0.024 -0.095,0.036 -0.152,0.036Zm0,-0.128c0.026,0 0.049,-0.006 0.07,-0.018c0.021,-0.012 0.037,-0.029 0.049,-0.051c0.012,-0.023 0.018,-0.049 0.018,-0.08c0,-0.031 -0.006,-0.058 -0.018,-0.08c-0.012,-0.022 -0.028,-0.039 -0.049,-0.051c-0.021,-0.012 -0.044,-0.018 -0.07,-0.018c-0.026,0 -0.049,0.006 -0.07,0.018c-0.021,0.012 -0.037,0.029 -0.049,0.051c-0.013,0.022 -0.019,0.049 -0.019,0.08c0,0.031 0.006,0.057 0.019,0.08c0.012,0.022 0.028,0.039 0.049,0.051c0.021,0.012 0.044,0.018 0.07,0.018Z" style="fill-rule:nonzero;"/></g></g><g transform="matrix(1,0,0,1,121.852,-55.8134)"><g transform="matrix(12,0,0,12,241.51,218.833)"><path d="M0.228,-0l0,-0.568l-0.224,0l-0,-0.132l0.61,0l0,0.132l-0.224,0l0,0.568l-0.162,-0Z" style="fill-rule:nonzero;"/></g><g transform="matrix(12,0,0,12,248.266,218.833)"><path d="M0.339,0.008c-0.061,-0 -0.115,-0.012 -0.162,-0.036c-0.046,-0.024 -0.082,-0.057 -0.107,-0.099c-0.025,-0.041 -0.038,-0.089 -0.038,-0.142c-0,-0.054 0.012,-0.102 0.037,-0.143c0.025,-0.042 0.06,-0.075 0.103,-0.098c0.043,-0.024 0.092,-0.036 0.147,-0.036c0.053,0 0.1,0.011 0.142,0.034c0.043,0.022 0.076,0.054 0.101,0.096c0.025,0.041 0.037,0.091 0.037,0.149c-0,0.006 -0,0.013 -0.001,0.021c-0.001,0.007 -0.001,0.014 -0.002,0.021l-0.437,0l-0,-0.091l0.355,0l-0.06,0.027c0,-0.028 -0.006,-0.052 -0.017,-0.073c-0.011,-0.021 -0.027,-0.037 -0.047,-0.048c-0.02,-0.012 -0.043,-0.018 -0.07,-0.018c-0.027,0 -0.05,0.006 -0.071,0.018c-0.02,0.011 -0.036,0.028 -0.047,0.049c-0.011,0.021 -0.017,0.045 -0.017,0.074l0,0.024c0,0.029 0.007,0.055 0.019,0.078c0.014,0.022 0.032,0.039 0.056,0.05c0.023,0.012 0.051,0.018 0.083,0.018c0.029,0 0.054,-0.004 0.075,-0.013c0.022,-0.009 0.042,-0.022 0.06,-0.039l0.083,0.09c-0.025,0.028 -0.056,0.05 -0.093,0.065c-0.037,0.014 -0.08,0.022 -0.129,0.022Z" style="fill-rule:nonzero;"/></g><g transform="matrix(12,0,0,12,255.838,218.833)"><path d="M0.761,-0.546c0.043,0 0.081,0.009 0.114,0.026c0.032,0.017 0.058,0.043 0.078,0.078c0.019,0.035 0.028,0.079 0.028,0.134l0,0.308l-0.156,-0l0,-0.284c0,-0.043 -0.009,-0.075 -0.027,-0.096c-0.018,-0.021 -0.043,-0.031 -0.076,-0.031c-0.023,0 -0.043,0.005 -0.061,0.016c-0.018,0.01 -0.032,0.025 -0.042,0.046c-0.01,0.021 -0.015,0.047 -0.015,0.079l0,0.27l-0.156,-0l0,-0.284c0,-0.043 -0.009,-0.075 -0.026,-0.096c-0.018,-0.021 -0.043,-0.031 -0.076,-0.031c-0.023,0 -0.043,0.005 -0.061,0.016c-0.018,0.01 -0.032,0.025 -0.042,0.046c-0.01,0.021 -0.015,0.047 -0.015,0.079l0,0.27l-0.156,-0l0,-0.538l0.149,0l0,0.147l-0.028,-0.043c0.019,-0.037 0.045,-0.065 0.08,-0.083c0.034,-0.019 0.073,-0.029 0.117,-0.029c0.049,0 0.093,0.013 0.13,0.038c0.037,0.025 0.061,0.063 0.073,0.114l-0.055,-0.015c0.018,-0.042 0.047,-0.075 0.087,-0.1c0.039,-0.025 0.085,-0.037 0.136,-0.037Z" style="fill-rule:nonzero;"/></g><g transform="matrix(12,0,0,12,268.426,218.833)"><path d="M0.402,-0l0,-0.105l-0.01,-0.023l0,-0.188c0,-0.033 -0.01,-0.059 -0.031,-0.078c-0.02,-0.019 -0.051,-0.028 -0.093,-0.028c-0.029,0 -0.057,0.005 -0.085,0.014c-0.027,0.009 -0.051,0.021 -0.07,0.036l-0.056,-0.109c0.029,-0.021 0.065,-0.037 0.106,-0.048c0.041,-0.011 0.083,-0.017 0.126,-0.017c0.082,0 0.146,0.019 0.191,0.058c0.045,0.039 0.068,0.099 0.068,0.181l0,0.307l-0.146,0Zm-0.164,0.008c-0.042,-0 -0.078,-0.007 -0.108,-0.021c-0.03,-0.015 -0.053,-0.034 -0.069,-0.059c-0.016,-0.025 -0.024,-0.052 -0.024,-0.083c0,-0.032 0.008,-0.06 0.024,-0.084c0.015,-0.024 0.04,-0.043 0.074,-0.056c0.034,-0.014 0.078,-0.021 0.133,-0.021l0.143,0l-0,0.091l-0.126,0c-0.037,0 -0.062,0.006 -0.076,0.018c-0.013,0.012 -0.02,0.027 -0.02,0.045c-0,0.02 0.008,0.036 0.023,0.048c0.016,0.011 0.038,0.017 0.065,0.017c0.026,0 0.049,-0.006 0.07,-0.018c0.021,-0.013 0.036,-0.031 0.045,-0.055l0.024,0.072c-0.011,0.035 -0.032,0.061 -0.062,0.079c-0.03,0.018 -0.069,0.027 -0.116,0.027Z" style="fill-rule:nonzero;"/></g><g transform="matrix(12,0,0,12,275.83,218.833)"><path d="M0.253,0.008c-0.046,-0 -0.09,-0.006 -0.133,-0.017c-0.042,-0.01 -0.075,-0.024 -0.1,-0.041l0.052,-0.112c0.025,0.015 0.054,0.028 0.088,0.038c0.033,0.009 0.066,0.014 0.099,0.014c0.036,0 0.062,-0.004 0.077,-0.013c0.014,-0.009 0.022,-0.021 0.022,-0.036c-0,-0.013 -0.006,-0.022 -0.018,-0.028c-0.011,-0.007 -0.027,-0.012 -0.046,-0.015c-0.019,-0.003 -0.041,-0.007 -0.064,-0.01c-0.023,-0.003 -0.046,-0.008 -0.069,-0.013c-0.023,-0.006 -0.045,-0.015 -0.064,-0.026c-0.019,-0.011 -0.035,-0.027 -0.047,-0.046c-0.011,-0.019 -0.017,-0.044 -0.017,-0.075c-0,-0.034 0.01,-0.064 0.029,-0.09c0.02,-0.026 0.049,-0.046 0.086,-0.061c0.037,-0.015 0.082,-0.023 0.134,-0.023c0.037,0 0.074,0.004 0.112,0.012c0.038,0.008 0.07,0.02 0.095,0.035l-0.052,0.111c-0.026,-0.015 -0.052,-0.026 -0.079,-0.031c-0.026,-0.006 -0.051,-0.009 -0.076,-0.009c-0.035,0 -0.06,0.005 -0.076,0.014c-0.016,0.009 -0.024,0.021 -0.024,0.036c0,0.013 0.006,0.023 0.018,0.03c0.011,0.007 0.027,0.012 0.046,0.016c0.019,0.004 0.041,0.008 0.064,0.011c0.023,0.003 0.046,0.007 0.069,0.013c0.023,0.006 0.045,0.015 0.064,0.026c0.019,0.011 0.034,0.026 0.046,0.045c0.012,0.019 0.018,0.043 0.018,0.074c0,0.033 -0.01,0.063 -0.03,0.089c-0.02,0.025 -0.049,0.045 -0.086,0.06c-0.038,0.015 -0.084,0.022 -0.138,0.022Z" style="fill-rule:nonzero;"/></g><g transform="matrix(12,0,0,12,285.598,218.833)"><path d="M0.218,-0l-0.226,-0.538l0.161,0l0.188,0.463l-0.08,0l0.195,-0.463l0.15,0l-0.227,0.538l-0.161,-0Z" style="fill-rule:nonzero;"/></g><g transform="matrix(12,0,0,12,292.594,218.833)"><path d="M0.339,0.008c-0.061,-0 -0.115,-0.012 -0.162,-0.036c-0.046,-0.024 -0.082,-0.057 -0.107,-0.099c-0.025,-0.041 -0.038,-0.089 -0.038,-0.142c-0,-0.054 0.012,-0.102 0.037,-0.143c0.025,-0.042 0.06,-0.075 0.103,-0.098c0.043,-0.024 0.092,-0.036 0.147,-0.036c0.053,0 0.1,0.011 0.142,0.034c0.043,0.022 0.076,0.054 0.101,0.096c0.025,0.041 0.037,0.091 0.037,0.149c-0,0.006 -0,0.013 -0.001,0.021c-0.001,0.007 -0.001,0.014 -0.002,0.021l-0.437,0l-0,-0.091l0.355,0l-0.06,0.027c0,-0.028 -0.006,-0.052 -0.017,-0.073c-0.011,-0.021 -0.027,-0.037 -0.047,-0.048c-0.02,-0.012 -0.043,-0.018 -0.07,-0.018c-0.027,0 -0.05,0.006 -0.071,0.018c-0.02,0.011 -0.036,0.028 -0.047,0.049c-0.011,0.021 -0.017,0.045 -0.017,0.074l0,0.024c0,0.029 0.007,0.055 0.019,0.078c0.014,0.022 0.032,0.039 0.056,0.05c0.023,0.012 0.051,0.018 0.083,0.018c0.029,0 0.054,-0.004 0.075,-0.013c0.022,-0.009 0.042,-0.022 0.06,-0.039l0.083,0.09c-0.025,0.028 -0.056,0.05 -0.093,0.065c-0.037,0.014 -0.08,0.022 -0.129,0.022Z" style="fill-rule:nonzero;"/></g><g transform="matrix(12,0,0,12,300.166,218.833)"><path d="M0.072,-0l-0,-0.538l0.149,0l0,0.152l-0.021,-0.044c0.016,-0.038 0.042,-0.067 0.077,-0.086c0.035,-0.02 0.078,-0.03 0.129,-0.03l0,0.144c-0.007,-0.001 -0.013,-0.001 -0.018,-0.002c-0.005,0 -0.011,0 -0.017,0c-0.043,0 -0.077,0.012 -0.103,0.037c-0.027,0.024 -0.04,0.062 -0.04,0.113l0,0.254l-0.156,0Z" style="fill-rule:nonzero;"/></g><g transform="matrix(12,0,0,12,305.29,218.833)"><path d="M0.39,0.008c-0.047,-0 -0.088,-0.01 -0.122,-0.03c-0.034,-0.02 -0.06,-0.05 -0.078,-0.092c-0.018,-0.041 -0.027,-0.092 -0.027,-0.155c0,-0.063 0.009,-0.115 0.028,-0.156c0.019,-0.041 0.046,-0.071 0.08,-0.091c0.034,-0.02 0.074,-0.03 0.119,-0.03c0.051,0 0.096,0.011 0.136,0.034c0.041,0.023 0.073,0.055 0.097,0.096c0.023,0.041 0.035,0.09 0.035,0.147c0,0.056 -0.012,0.105 -0.035,0.146c-0.024,0.041 -0.056,0.074 -0.097,0.097c-0.04,0.023 -0.085,0.034 -0.136,0.034Zm-0.318,-0.008l-0,-0.742l0.156,0l0,0.313l-0.01,0.159l0.003,0.16l0,0.11l-0.149,0Zm0.291,-0.12c0.026,0 0.049,-0.006 0.07,-0.018c0.02,-0.012 0.036,-0.029 0.048,-0.051c0.013,-0.023 0.019,-0.049 0.019,-0.08c0,-0.031 -0.006,-0.058 -0.019,-0.08c-0.012,-0.022 -0.028,-0.039 -0.048,-0.051c-0.021,-0.012 -0.044,-0.018 -0.07,-0.018c-0.026,0 -0.049,0.006 -0.07,0.018c-0.021,0.012 -0.037,0.029 -0.049,0.051c-0.012,0.022 -0.018,0.049 -0.018,0.08c0,0.031 0.006,0.057 0.018,0.08c0.012,0.022 0.028,0.039 0.049,0.051c0.021,0.012 0.044,0.018 0.07,0.018Z" style="fill-rule:nonzero;"/></g><g transform="matrix(12,0,0,12,313.462,218.833)"><path d="M0.402,-0l0,-0.105l-0.01,-0.023l0,-0.188c0,-0.033 -0.01,-0.059 -0.031,-0.078c-0.02,-0.019 -0.051,-0.028 -0.093,-0.028c-0.029,0 -0.057,0.005 -0.085,0.014c-0.027,0.009 -0.051,0.021 -0.07,0.036l-0.056,-0.109c0.029,-0.021 0.065,-0.037 0.106,-0.048c0.041,-0.011 0.083,-0.017 0.126,-0.017c0.082,0 0.146,0.019 0.191,0.058c0.045,0.039 0.068,0.099 0.068,0.181l0,0.307l-0.146,0Zm-0.164,0.008c-0.042,-0 -0.078,-0.007 -0.108,-0.021c-0.03,-0.015 -0.053,-0.034 -0.069,-0.059c-0.016,-0.025 -0.024,-0.052 -0.024,-0.083c0,-0.032 0.008,-0.06 0.024,-0.084c0.015,-0.024 0.04,-0.043 0.074,-0.056c0.034,-0.014 0.078,-0.021 0.133,-0.021l0.143,0l-0,0.091l-0.126,0c-0.037,0 -0.062,0.006 -0.076,0.018c-0.013,0.012 -0.02,0.027 -0.02,0.045c-0,0.02 0.008,0.036 0.023,0.048c0.016,0.011 0.038,0.017 0.065,0.017c0.026,0 0.049,-0.006 0.07,-0.018c0.021,-0.013 0.036,-0.031 0.045,-0.055l0.024,0.072c-0.011,0.035 -0.032,0.061 -0.062,0.079c-0.03,0.018 -0.069,0.027 -0.116,0.027Z" style="fill-rule:nonzero;"/></g><g transform="matrix(12,0,0,12,320.866,218.833)"><rect x="0.072" y="-0.742" width="0.156" height="0.742" style="fill-rule:nonzero;"/></g><g transform="matrix(12,0,0,12,324.478,218.833)"><path d="M0.339,0.008c-0.061,-0 -0.115,-0.012 -0.162,-0.036c-0.046,-0.024 -0.082,-0.057 -0.107,-0.099c-0.025,-0.041 -0.038,-0.089 -0.038,-0.142c-0,-0.054 0.012,-0.102 0.037,-0.143c0.025,-0.042 0.06,-0.075 0.103,-0.098c0.043,-0.024 0.092,-0.036 0.147,-0.036c0.053,0 0.1,0.011 0.142,0.034c0.043,0.022 0.076,0.054 0.101,0.096c0.025,0.041 0.037,0.091 0.037,0.149c-0,0.006 -0,0.013 -0.001,0.021c-0.001,0.007 -0.001,0.014 -0.002,0.021l-0.437,0l-0,-0.091l0.355,0l-0.06,0.027c0,-0.028 -0.006,-0.052 -0.017,-0.073c-0.011,-0.021 -0.027,-0.037 -0.047,-0.048c-0.02,-0.012 -0.043,-0.018 -0.07,-0.018c-0.027,0 -0.05,0.006 -0.071,0.018c-0.02,0.011 -0.036,0.028 -0.047,0.049c-0.011,0.021 -0.017,0.045 -0.017,0.074l0,0.024c0,0.029 0.007,0.055 0.019,0.078c0.014,0.022 0.032,0.039 0.056,0.05c0.023,0.012 0.051,0.018 0.083,0.018c0.029,0 0.054,-0.004 0.075,-0.013c0.022,-0.009 0.042,-0.022 0.06,-0.039l0.083,0.09c-0.025,0.028 -0.056,0.05 -0.093,0.065c-0.037,0.014 -0.08,0.022 -0.129,0.022Z" style="fill-rule:nonzero;"/></g><g transform="matrix(12,0,0,12,332.05,218.833)"><path d="M0.253,0.008c-0.046,-0 -0.09,-0.006 -0.133,-0.017c-0.042,-0.01 -0.075,-0.024 -0.1,-0.041l0.052,-0.112c0.025,0.015 0.054,0.028 0.088,0.038c0.033,0.009 0.066,0.014 0.099,0.014c0.036,0 0.062,-0.004 0.077,-0.013c0.014,-0.009 0.022,-0.021 0.022,-0.036c-0,-0.013 -0.006,-0.022 -0.018,-0.028c-0.011,-0.007 -0.027,-0.012 -0.046,-0.015c-0.019,-0.003 -0.041,-0.007 -0.064,-0.01c-0.023,-0.003 -0.046,-0.008 -0.069,-0.013c-0.023,-0.006 -0.045,-0.015 -0.064,-0.026c-0.019,-0.011 -0.035,-0.027 -0.047,-0.046c-0.011,-0.019 -0.017,-0.044 -0.017,-0.075c-0,-0.034 0.01,-0.064 0.029,-0.09c0.02,-0.026 0.049,-0.046 0.086,-0.061c0.037,-0.015 0.082,-0.023 0.134,-0.023c0.037,0 0.074,0.004 0.112,0.012c0.038,0.008 0.07,0.02 0.095,0.035l-0.052,0.111c-0.026,-0.015 -0.052,-0.026 -0.079,-0.031c-0.026,-0.006 -0.051,-0.009 -0.076,-0.009c-0.035,0 -0.06,0.005 -0.076,0.014c-0.016,0.009 -0.024,0.021 -0.024,0.036c0,0.013 0.006,0.023 0.018,0.03c0.011,0.007 0.027,0.012 0.046,0.016c0.019,0.004 0.041,0.008 0.064,0.011c0.023,0.003 0.046,0.007 0.069,0.013c0.023,0.006 0.045,0.015 0.064,0.026c0.019,0.011 0.034,0.026 0.046,0.045c0.012,0.019 0.018,0.043 0.018,0.074c0,0.033 -0.01,0.063 -0.03,0.089c-0.02,0.025 -0.049,0.045 -0.086,0.06c-0.038,0.015 -0.084,0.022 -0.138,0.022Z" style="fill-rule:nonzero;"/></g><g transform="matrix(12,0,0,12,341.818,218.833)"><path d="M0.303,0.008c-0.051,-0 -0.096,-0.012 -0.137,-0.035c-0.041,-0.023 -0.073,-0.055 -0.096,-0.096c-0.024,-0.041 -0.036,-0.09 -0.036,-0.146c0,-0.057 0.012,-0.106 0.036,-0.147c0.023,-0.041 0.055,-0.073 0.096,-0.096c0.041,-0.023 0.086,-0.034 0.137,-0.034c0.045,0 0.085,0.01 0.119,0.03c0.034,0.02 0.06,0.05 0.079,0.091c0.019,0.041 0.028,0.093 0.028,0.156c0,0.063 -0.009,0.115 -0.027,0.156c-0.018,0.041 -0.044,0.071 -0.078,0.091c-0.033,0.02 -0.074,0.03 -0.121,0.03Zm0.027,-0.128c0.025,0 0.048,-0.006 0.069,-0.018c0.021,-0.012 0.037,-0.029 0.049,-0.051c0.013,-0.023 0.019,-0.049 0.019,-0.08c0,-0.031 -0.006,-0.058 -0.019,-0.08c-0.012,-0.022 -0.028,-0.039 -0.049,-0.051c-0.021,-0.012 -0.044,-0.018 -0.069,-0.018c-0.026,0 -0.049,0.006 -0.07,0.018c-0.021,0.012 -0.037,0.029 -0.05,0.051c-0.012,0.022 -0.018,0.049 -0.018,0.08c0,0.031 0.006,0.057 0.018,0.08c0.013,0.022 0.029,0.039 0.05,0.051c0.021,0.012 0.044,0.018 0.07,0.018Zm0.141,0.12l-0,-0.11l0.003,-0.16l-0.01,-0.159l0,-0.313l0.156,0l0,0.742l-0.149,-0Z" style="fill-rule:nonzero;"/></g><g transform="matrix(12,0,0,12,350.122,218.833)"><path d="M0.339,0.008c-0.061,-0 -0.115,-0.012 -0.162,-0.036c-0.046,-0.024 -0.082,-0.057 -0.107,-0.099c-0.025,-0.041 -0.038,-0.089 -0.038,-0.142c-0,-0.054 0.012,-0.102 0.037,-0.143c0.025,-0.042 0.06,-0.075 0.103,-0.098c0.043,-0.024 0.092,-0.036 0.147,-0.036c0.053,0 0.1,0.011 0.142,0.034c0.043,0.022 0.076,0.054 0.101,0.096c0.025,0.041 0.037,0.091 0.037,0.149c-0,0.006 -0,0.013 -0.001,0.021c-0.001,0.007 -0.001,0.014 -0.002,0.021l-0.437,0l-0,-0.091l0.355,0l-0.06,0.027c0,-0.028 -0.006,-0.052 -0.017,-0.073c-0.011,-0.021 -0.027,-0.037 -0.047,-0.048c-0.02,-0.012 -0.043,-0.018 -0.07,-0.018c-0.027,0 -0.05,0.006 -0.071,0.018c-0.02,0.011 -0.036,0.028 -0.047,0.049c-0.011,0.021 -0.017,0.045 -0.017,0.074l0,0.024c0,0.029 0.007,0.055 0.019,0.078c0.014,0.022 0.032,0.039 0.056,0.05c0.023,0.012 0.051,0.018 0.083,0.018c0.029,0 0.054,-0.004 0.075,-0.013c0.022,-0.009 0.042,-0.022 0.06,-0.039l0.083,0.09c-0.025,0.028 -0.056,0.05 -0.093,0.065c-0.037,0.014 -0.08,0.022 -0.129,0.022Z" style="fill-rule:nonzero;"/></g><g transform="matrix(12,0,0,12,255.964,233.833)"><path d="M0.328,0.008c-0.057,-0 -0.108,-0.012 -0.153,-0.036c-0.044,-0.024 -0.079,-0.057 -0.105,-0.099c-0.025,-0.041 -0.038,-0.089 -0.038,-0.142c-0,-0.054 0.013,-0.102 0.038,-0.143c0.026,-0.042 0.061,-0.075 0.105,-0.098c0.045,-0.024 0.096,-0.036 0.153,-0.036c0.057,0 0.107,0.012 0.152,0.036c0.045,0.023 0.08,0.056 0.105,0.097c0.025,0.041 0.038,0.089 0.038,0.144c0,0.053 -0.013,0.101 -0.038,0.143c-0.025,0.041 -0.06,0.074 -0.105,0.098c-0.045,0.024 -0.095,0.036 -0.152,0.036Zm0,-0.128c0.026,0 0.049,-0.006 0.07,-0.018c0.021,-0.012 0.037,-0.029 0.049,-0.051c0.012,-0.023 0.018,-0.049 0.018,-0.08c0,-0.031 -0.006,-0.058 -0.018,-0.08c-0.012,-0.022 -0.028,-0.039 -0.049,-0.051c-0.021,-0.012 -0.044,-0.018 -0.07,-0.018c-0.026,0 -0.049,0.006 -0.07,0.018c-0.021,0.012 -0.037,0.029 -0.049,0.051c-0.013,0.022 -0.019,0.049 -0.019,0.08c0,0.031 0.006,0.057 0.019,0.08c0.012,0.022 0.028,0.039 0.049,0.051c0.021,0.012 0.044,0.018 0.07,0.018Z" style="fill-rule:nonzero;"/></g><g transform="matrix(12,0,0,12,263.824,233.833)"><path d="M0.292,0.008c-0.063,-0 -0.113,-0.016 -0.148,-0.049c-0.035,-0.032 -0.053,-0.08 -0.053,-0.144l0,-0.472l0.156,0l0,0.47c0,0.023 0.006,0.04 0.018,0.052c0.012,0.013 0.028,0.019 0.049,0.019c0.025,0 0.046,-0.007 0.063,-0.02l0.042,0.11c-0.016,0.011 -0.035,0.02 -0.057,0.026c-0.023,0.005 -0.046,0.008 -0.07,0.008Zm-0.284,-0.414l0,-0.12l0.373,0l0,0.12l-0.373,0Z" style="fill-rule:nonzero;"/></g><g transform="matrix(12,0,0,12,269.044,233.833)"><path d="M0.072,-0l-0,-0.538l0.149,0l0,0.152l-0.021,-0.044c0.016,-0.038 0.042,-0.067 0.077,-0.086c0.035,-0.02 0.078,-0.03 0.129,-0.03l0,0.144c-0.007,-0.001 -0.013,-0.001 -0.018,-0.002c-0.005,0 -0.011,0 -0.017,0c-0.043,0 -0.077,0.012 -0.103,0.037c-0.027,0.024 -0.04,0.062 -0.04,0.113l0,0.254l-0.156,0Z" style="fill-rule:nonzero;"/></g><g transform="matrix(12,0,0,12,274.108,233.833)"><path d="M0.328,0.008c-0.057,-0 -0.108,-0.012 -0.153,-0.036c-0.044,-0.024 -0.079,-0.057 -0.105,-0.099c-0.025,-0.041 -0.038,-0.089 -0.038,-0.142c-0,-0.054 0.013,-0.102 0.038,-0.143c0.026,-0.042 0.061,-0.075 0.105,-0.098c0.045,-0.024 0.096,-0.036 0.153,-0.036c0.057,0 0.107,0.012 0.152,0.036c0.045,0.023 0.08,0.056 0.105,0.097c0.025,0.041 0.038,0.089 0.038,0.144c0,0.053 -0.013,0.101 -0.038,0.143c-0.025,0.041 -0.06,0.074 -0.105,0.098c-0.045,0.024 -0.095,0.036 -0.152,0.036Zm0,-0.128c0.026,0 0.049,-0.006 0.07,-0.018c0.021,-0.012 0.037,-0.029 0.049,-0.051c0.012,-0.023 0.018,-0.049 0.018,-0.08c0,-0.031 -0.006,-0.058 -0.018,-0.08c-0.012,-0.022 -0.028,-0.039 -0.049,-0.051c-0.021,-0.012 -0.044,-0.018 -0.07,-0.018c-0.026,0 -0.049,0.006 -0.07,0.018c-0.021,0.012 -0.037,0.029 -0.049,0.051c-0.013,0.022 -0.019,0.049 -0.019,0.08c0,0.031 0.006,0.057 0.019,0.08c0.012,0.022 0.028,0.039 0.049,0.051c0.021,0.012 0.044,0.018 0.07,0.018Z" style="fill-rule:nonzero;"/></g><g transform="matrix(12,0,0,12,281.968,233.833)"><path d="M0.253,0.008c-0.046,-0 -0.09,-0.006 -0.133,-0.017c-0.042,-0.01 -0.075,-0.024 -0.1,-0.041l0.052,-0.112c0.025,0.015 0.054,0.028 0.088,0.038c0.033,0.009 0.066,0.014 0.099,0.014c0.036,0 0.062,-0.004 0.077,-0.013c0.014,-0.009 0.022,-0.021 0.022,-0.036c-0,-0.013 -0.006,-0.022 -0.018,-0.028c-0.011,-0.007 -0.027,-0.012 -0.046,-0.015c-0.019,-0.003 -0.041,-0.007 -0.064,-0.01c-0.023,-0.003 -0.046,-0.008 -0.069,-0.013c-0.023,-0.006 -0.045,-0.015 -0.064,-0.026c-0.019,-0.011 -0.035,-0.027 -0.047,-0.046c-0.011,-0.019 -0.017,-0.044 -0.017,-0.075c-0,-0.034 0.01,-0.064 0.029,-0.09c0.02,-0.026 0.049,-0.046 0.086,-0.061c0.037,-0.015 0.082,-0.023 0.134,-0.023c0.037,0 0.074,0.004 0.112,0.012c0.038,0.008 0.07,0.02 0.095,0.035l-0.052,0.111c-0.026,-0.015 -0.052,-0.026 -0.079,-0.031c-0.026,-0.006 -0.051,-0.009 -0.076,-0.009c-0.035,0 -0.06,0.005 -0.076,0.014c-0.016,0.009 -0.024,0.021 -0.024,0.036c0,0.013 0.006,0.023 0.018,0.03c0.011,0.007 0.027,0.012 0.046,0.016c0.019,0.004 0.041,0.008 0.064,0.011c0.023,0.003 0.046,0.007 0.069,0.013c0.023,0.006 0.045,0.015 0.064,0.026c0.019,0.011 0.034,0.026 0.046,0.045c0.012,0.019 0.018,0.043 0.018,0.074c0,0.033 -0.01,0.063 -0.03,0.089c-0.02,0.025 -0.049,0.045 -0.086,0.06c-0.038,0.015 -0.084,0.022 -0.138,0.022Z" style="fill-rule:nonzero;"/></g><g transform="matrix(12,0,0,12,291.736,233.833)"><path d="M0.292,0.008c-0.063,-0 -0.113,-0.016 -0.148,-0.049c-0.035,-0.032 -0.053,-0.08 -0.053,-0.144l0,-0.472l0.156,0l0,0.47c0,0.023 0.006,0.04 0.018,0.052c0.012,0.013 0.028,0.019 0.049,0.019c0.025,0 0.046,-0.007 0.063,-0.02l0.042,0.11c-0.016,0.011 -0.035,0.02 -0.057,0.026c-0.023,0.005 -0.046,0.008 -0.07,0.008Zm-0.284,-0.414l0,-0.12l0.373,0l0,0.12l-0.373,0Z" style="fill-rule:nonzero;"/></g><g transform="matrix(12,0,0,12,296.956,233.833)"><path d="M0.072,-0l-0,-0.538l0.156,0l0,0.538l-0.156,-0Zm0.078,-0.613c-0.029,0 -0.052,-0.008 -0.07,-0.025c-0.018,-0.017 -0.027,-0.037 -0.027,-0.062c-0,-0.025 0.009,-0.045 0.027,-0.062c0.018,-0.017 0.041,-0.025 0.07,-0.025c0.029,0 0.052,0.008 0.07,0.024c0.018,0.015 0.027,0.035 0.027,0.06c-0,0.026 -0.009,0.048 -0.027,0.065c-0.017,0.017 -0.041,0.025 -0.07,0.025Z" style="fill-rule:nonzero;"/></g><g transform="matrix(12,0,0,12,300.568,233.833)"><path d="M0.339,0.008c-0.061,-0 -0.115,-0.012 -0.162,-0.036c-0.046,-0.024 -0.082,-0.057 -0.107,-0.099c-0.025,-0.041 -0.038,-0.089 -0.038,-0.142c-0,-0.054 0.012,-0.102 0.037,-0.143c0.025,-0.042 0.06,-0.075 0.103,-0.098c0.043,-0.024 0.092,-0.036 0.147,-0.036c0.053,0 0.1,0.011 0.142,0.034c0.043,0.022 0.076,0.054 0.101,0.096c0.025,0.041 0.037,0.091 0.037,0.149c-0,0.006 -0,0.013 -0.001,0.021c-0.001,0.007 -0.001,0.014 -0.002,0.021l-0.437,0l-0,-0.091l0.355,0l-0.06,0.027c0,-0.028 -0.006,-0.052 -0.017,-0.073c-0.011,-0.021 -0.027,-0.037 -0.047,-0.048c-0.02,-0.012 -0.043,-0.018 -0.07,-0.018c-0.027,0 -0.05,0.006 -0.071,0.018c-0.02,0.011 -0.036,0.028 -0.047,0.049c-0.011,0.021 -0.017,0.045 -0.017,0.074l0,0.024c0,0.029 0.007,0.055 0.019,0.078c0.014,0.022 0.032,0.039 0.056,0.05c0.023,0.012 0.051,0.018 0.083,0.018c0.029,0 0.054,-0.004 0.075,-0.013c0.022,-0.009 0.042,-0.022 0.06,-0.039l0.083,0.09c-0.025,0.028 -0.056,0.05 -0.093,0.065c-0.037,0.014 -0.08,0.022 -0.129,0.022Z" style="fill-rule:nonzero;"/></g><g transform="matrix(12,0,0,12,308.14,233.833)"><path d="M0.761,-0.546c0.043,0 0.081,0.009 0.114,0.026c0.032,0.017 0.058,0.043 0.078,0.078c0.019,0.035 0.028,0.079 0.028,0.134l0,0.308l-0.156,-0l0,-0.284c0,-0.043 -0.009,-0.075 -0.027,-0.096c-0.018,-0.021 -0.043,-0.031 -0.076,-0.031c-0.023,0 -0.043,0.005 -0.061,0.016c-0.018,0.01 -0.032,0.025 -0.042,0.046c-0.01,0.021 -0.015,0.047 -0.015,0.079l0,0.27l-0.156,-0l0,-0.284c0,-0.043 -0.009,-0.075 -0.026,-0.096c-0.018,-0.021 -0.043,-0.031 -0.076,-0.031c-0.023,0 -0.043,0.005 -0.061,0.016c-0.018,0.01 -0.032,0.025 -0.042,0.046c-0.01,0.021 -0.015,0.047 -0.015,0.079l0,0.27l-0.156,-0l0,-0.538l0.149,0l0,0.147l-0.028,-0.043c0.019,-0.037 0.045,-0.065 0.08,-0.083c0.034,-0.019 0.073,-0.029 0.117,-0.029c0.049,0 0.093,0.013 0.13,0.038c0.037,0.025 0.061,0.063 0.073,0.114l-0.055,-0.015c0.018,-0.042 0.047,-0.075 0.087,-0.1c0.039,-0.025 0.085,-0.037 0.136,-0.037Z" style="fill-rule:nonzero;"/></g><g transform="matrix(12,0,0,12,320.728,233.833)"><path d="M0.39,0.008c-0.045,-0 -0.085,-0.01 -0.119,-0.03c-0.034,-0.02 -0.061,-0.05 -0.08,-0.092c-0.019,-0.041 -0.028,-0.092 -0.028,-0.155c0,-0.063 0.009,-0.115 0.027,-0.156c0.018,-0.041 0.044,-0.071 0.078,-0.091c0.034,-0.02 0.075,-0.03 0.122,-0.03c0.051,0 0.096,0.012 0.136,0.035c0.041,0.023 0.073,0.055 0.097,0.096c0.023,0.041 0.035,0.09 0.035,0.146c0,0.057 -0.012,0.106 -0.035,0.147c-0.024,0.041 -0.056,0.073 -0.097,0.096c-0.04,0.023 -0.085,0.034 -0.136,0.034Zm-0.318,0.186l-0,-0.732l0.149,0l0,0.11l-0.003,0.16l0.01,0.159l0,0.303l-0.156,0Zm0.291,-0.314c0.026,0 0.049,-0.006 0.07,-0.018c0.02,-0.012 0.036,-0.029 0.048,-0.051c0.013,-0.023 0.019,-0.049 0.019,-0.08c0,-0.031 -0.006,-0.058 -0.019,-0.08c-0.012,-0.022 -0.028,-0.039 -0.048,-0.051c-0.021,-0.012 -0.044,-0.018 -0.07,-0.018c-0.026,0 -0.049,0.006 -0.07,0.018c-0.021,0.012 -0.037,0.029 -0.049,0.051c-0.012,0.022 -0.018,0.049 -0.018,0.08c0,0.031 0.006,0.057 0.018,0.08c0.012,0.022 0.028,0.039 0.049,0.051c0.021,0.012 0.044,0.018 0.07,0.018Z" style="fill-rule:nonzero;"/></g><g transform="matrix(12,0,0,12,329.008,233.833)"><path d="M0.328,0.008c-0.057,-0 -0.108,-0.012 -0.153,-0.036c-0.044,-0.024 -0.079,-0.057 -0.105,-0.099c-0.025,-0.041 -0.038,-0.089 -0.038,-0.142c-0,-0.054 0.013,-0.102 0.038,-0.143c0.026,-0.042 0.061,-0.075 0.105,-0.098c0.045,-0.024 0.096,-0.036 0.153,-0.036c0.057,0 0.107,0.012 0.152,0.036c0.045,0.023 0.08,0.056 0.105,0.097c0.025,0.041 0.038,0.089 0.038,0.144c0,0.053 -0.013,0.101 -0.038,0.143c-0.025,0.041 -0.06,0.074 -0.105,0.098c-0.045,0.024 -0.095,0.036 -0.152,0.036Zm0,-0.128c0.026,0 0.049,-0.006 0.07,-0.018c0.021,-0.012 0.037,-0.029 0.049,-0.051c0.012,-0.023 0.018,-0.049 0.018,-0.08c0,-0.031 -0.006,-0.058 -0.018,-0.08c-0.012,-0.022 -0.028,-0.039 -0.049,-0.051c-0.021,-0.012 -0.044,-0.018 -0.07,-0.018c-0.026,0 -0.049,0.006 -0.07,0.018c-0.021,0.012 -0.037,0.029 -0.049,0.051c-0.013,0.022 -0.019,0.049 -0.019,0.08c0,0.031 0.006,0.057 0.019,0.08c0.012,0.022 0.028,0.039 0.049,0.051c0.021,0.012 0.044,0.018 0.07,0.018Z" style="fill-rule:nonzero;"/></g><g transform="matrix(12,0,0,12,336.868,233.833)"><path d="M0.253,0.008c-0.046,-0 -0.09,-0.006 -0.133,-0.017c-0.042,-0.01 -0.075,-0.024 -0.1,-0.041l0.052,-0.112c0.025,0.015 0.054,0.028 0.088,0.038c0.033,0.009 0.066,0.014 0.099,0.014c0.036,0 0.062,-0.004 0.077,-0.013c0.014,-0.009 0.022,-0.021 0.022,-0.036c-0,-0.013 -0.006,-0.022 -0.018,-0.028c-0.011,-0.007 -0.027,-0.012 -0.046,-0.015c-0.019,-0.003 -0.041,-0.007 -0.064,-0.01c-0.023,-0.003 -0.046,-0.008 -0.069,-0.013c-0.023,-0.006 -0.045,-0.015 -0.064,-0.026c-0.019,-0.011 -0.035,-0.027 -0.047,-0.046c-0.011,-0.019 -0.017,-0.044 -0.017,-0.075c-0,-0.034 0.01,-0.064 0.029,-0.09c0.02,-0.026 0.049,-0.046 0.086,-0.061c0.037,-0.015 0.082,-0.023 0.134,-0.023c0.037,0 0.074,0.004 0.112,0.012c0.038,0.008 0.07,0.02 0.095,0.035l-0.052,0.111c-0.026,-0.015 -0.052,-0.026 -0.079,-0.031c-0.026,-0.006 -0.051,-0.009 -0.076,-0.009c-0.035,0 -0.06,0.005 -0.076,0.014c-0.016,0.009 -0.024,0.021 -0.024,0.036c0,0.013 0.006,0.023 0.018,0.03c0.011,0.007 0.027,0.012 0.046,0.016c0.019,0.004 0.041,0.008 0.064,0.011c0.023,0.003 0.046,0.007 0.069,0.013c0.023,0.006 0.045,0.015 0.064,0.026c0.019,0.011 0.034,0.026 0.046,0.045c0.012,0.019 0.018,0.043 0.018,0.074c0,0.033 -0.01,0.063 -0.03,0.089c-0.02,0.025 -0.049,0.045 -0.086,0.06c-0.038,0.015 -0.084,0.022 -0.138,0.022Z" style="fill-rule:nonzero;"/></g></g><path d="M256.756,107.379l-6.996,13.992l-6.996,-13.992l6.996,6.996l6.996,-6.996Z"/><path d="M249.76,60.371l0,54.004" style="fill:none;stroke:#000;stroke-width:3px;"/><path d="M107.332,122.858l-15.572,-1.487l10.533,-11.566l-4.007,9.046l9.046,4.007Z"/><path d="M249.76,60.371c0,-0 -121.677,46.976 -151.474,58.48" style="fill:none;stroke:#000;stroke-width:3px;"/><path d="M397.227,109.805l10.533,11.566l-15.572,1.487l9.046,-4.007l-4.007,-9.046Z"/><path d="M249.76,60.371c0,-0 121.677,46.976 151.474,58.48" style="fill:none;stroke:#000;stroke-width:3px;"/><g transform="matrix(1,0,0,1,-222.148,-54.8134)"><g transform="matrix(40,0,0,40,249.065,218.833)"><path d="M0.168,0.236c-0.006,0.005 -0.014,0.009 -0.024,0.011c-0.01,0.003 -0.021,0.004 -0.033,0.004c-0.008,0 -0.015,-0.001 -0.021,-0.004c-0.005,-0.004 -0.008,-0.009 -0.009,-0.018c-0.001,-0.009 -0.001,-0.021 -0.001,-0.036c-0.001,-0.016 -0.001,-0.032 -0.001,-0.05c-0.001,-0.018 -0.001,-0.035 -0.001,-0.053l0,-0.148c0,-0.038 0.001,-0.078 0.003,-0.121c0.001,-0.042 0.004,-0.086 0.008,-0.131c0.004,-0.045 0.01,-0.088 0.017,-0.13c0.008,-0.043 0.018,-0.083 0.03,-0.12c0.012,-0.038 0.027,-0.071 0.045,-0.099c0.018,-0.028 0.039,-0.05 0.064,-0.067c0.025,-0.016 0.054,-0.024 0.087,-0.024c0.023,-0 0.043,0.004 0.061,0.013c0.018,0.009 0.034,0.021 0.046,0.036c0.013,0.015 0.023,0.033 0.03,0.052c0.006,0.02 0.01,0.041 0.01,0.062c-0,0.039 -0.008,0.076 -0.024,0.108c-0.016,0.033 -0.037,0.062 -0.063,0.089c0.04,0.021 0.071,0.049 0.093,0.084c0.022,0.035 0.033,0.076 0.033,0.121c-0,0.028 -0.005,0.053 -0.015,0.077c-0.009,0.023 -0.022,0.044 -0.039,0.062c-0.016,0.017 -0.036,0.031 -0.058,0.041c-0.023,0.01 -0.048,0.015 -0.074,0.015c-0.018,0 -0.035,-0.003 -0.053,-0.009c-0.018,-0.006 -0.035,-0.015 -0.051,-0.026c-0.016,-0.011 -0.031,-0.024 -0.044,-0.04c-0.014,-0.015 -0.025,-0.032 -0.035,-0.051c0,0.008 -0,0.017 -0,0.027c-0,0.009 -0.001,0.019 -0.001,0.028c0,0.027 0.001,0.056 0.002,0.086c0.002,0.03 0.003,0.059 0.005,0.086c0.002,0.028 0.004,0.053 0.007,0.075c0.002,0.022 0.004,0.039 0.006,0.05Zm-0.014,-0.409c0.009,0.016 0.019,0.031 0.031,0.044c0.012,0.012 0.025,0.023 0.039,0.032c0.014,0.009 0.029,0.015 0.045,0.02c0.016,0.005 0.032,0.007 0.048,0.007c0.02,0 0.038,-0.003 0.054,-0.01c0.016,-0.006 0.03,-0.016 0.042,-0.028c0.011,-0.012 0.02,-0.027 0.027,-0.044c0.006,-0.017 0.009,-0.035 0.009,-0.056c0,-0.033 -0.008,-0.063 -0.024,-0.089c-0.016,-0.027 -0.037,-0.049 -0.063,-0.066c-0.009,0.006 -0.017,0.012 -0.026,0.018c-0.009,0.005 -0.018,0.01 -0.026,0.014c-0.009,0.004 -0.018,0.007 -0.026,0.009c-0.008,0.003 -0.015,0.004 -0.022,0.004c-0.021,0 -0.031,-0.009 -0.031,-0.029c-0,-0.008 0.001,-0.016 0.004,-0.025c0.003,-0.008 0.007,-0.016 0.013,-0.022c0.005,-0.007 0.012,-0.012 0.019,-0.016c0.008,-0.004 0.016,-0.007 0.025,-0.007c0.008,0 0.017,0.001 0.028,0.003c0.01,0.001 0.02,0.004 0.031,0.007c0.021,-0.019 0.037,-0.042 0.049,-0.068c0.012,-0.026 0.018,-0.054 0.018,-0.085c0,-0.013 -0.001,-0.026 -0.005,-0.038c-0.004,-0.013 -0.009,-0.025 -0.016,-0.035c-0.007,-0.011 -0.016,-0.019 -0.027,-0.026c-0.01,-0.006 -0.022,-0.009 -0.036,-0.009c-0.024,-0 -0.045,0.006 -0.063,0.018c-0.018,0.012 -0.033,0.029 -0.046,0.05c-0.013,0.022 -0.024,0.048 -0.033,0.079c-0.008,0.03 -0.015,0.064 -0.02,0.1c-0.006,0.037 -0.01,0.076 -0.012,0.118c-0.003,0.042 -0.005,0.086 -0.006,0.13Z" style="fill:#2a81d3;fill-rule:nonzero;"/></g><g transform="matrix(40,0,0,40,271.565,218.833)"><path d="M0.329,-0.328c0.006,-0.023 0.012,-0.043 0.017,-0.059c0.005,-0.016 0.009,-0.03 0.013,-0.04c0.003,-0.009 0.007,-0.017 0.01,-0.021c0.003,-0.005 0.005,-0.007 0.008,-0.007c0.005,-0 0.01,0.002 0.018,0.005c0.007,0.004 0.014,0.008 0.021,0.013c0.006,0.005 0.012,0.01 0.017,0.015c0.005,0.005 0.007,0.009 0.007,0.012c0,0.008 -0.001,0.019 -0.005,0.031c-0.004,0.012 -0.009,0.025 -0.015,0.04c-0.006,0.014 -0.013,0.03 -0.021,0.045c-0.008,0.016 -0.016,0.031 -0.024,0.046c-0.008,0.015 -0.016,0.03 -0.023,0.043c-0.008,0.013 -0.015,0.025 -0.021,0.034c-0.001,0.002 -0.001,0.005 -0.002,0.011c-0,0.005 -0,0.011 -0,0.018c-0,0.012 0.001,0.022 0.005,0.031c0.003,0.008 0.008,0.016 0.014,0.021c0.006,0.006 0.012,0.01 0.02,0.013c0.008,0.003 0.017,0.005 0.026,0.005c0.013,-0 0.027,-0.003 0.041,-0.009c0.014,-0.006 0.026,-0.017 0.036,-0.032l0.005,0.002c0.002,0.006 0.003,0.015 0.003,0.026c0,0.012 -0.002,0.024 -0.007,0.035c-0.005,0.012 -0.012,0.021 -0.02,0.03c-0.009,0.008 -0.019,0.015 -0.031,0.019c-0.012,0.005 -0.025,0.007 -0.039,0.007c-0.012,0 -0.024,-0.002 -0.035,-0.006c-0.011,-0.005 -0.02,-0.012 -0.028,-0.022c-0.008,-0.011 -0.015,-0.024 -0.019,-0.04c-0.005,-0.015 -0.007,-0.035 -0.007,-0.057l-0.001,-0.001c-0.027,0.042 -0.054,0.075 -0.081,0.097c-0.027,0.022 -0.053,0.033 -0.078,0.033c-0.012,0 -0.023,-0.002 -0.033,-0.008c-0.009,-0.005 -0.017,-0.012 -0.024,-0.021c-0.006,-0.009 -0.012,-0.019 -0.016,-0.03c-0.005,-0.011 -0.008,-0.023 -0.01,-0.035c-0.003,-0.012 -0.005,-0.024 -0.006,-0.035c-0.001,-0.012 -0.001,-0.022 -0.001,-0.031c-0,-0.022 0.001,-0.044 0.004,-0.067c0.003,-0.023 0.008,-0.046 0.014,-0.068c0.006,-0.023 0.013,-0.044 0.023,-0.064c0.009,-0.02 0.02,-0.038 0.032,-0.053c0.013,-0.016 0.027,-0.028 0.043,-0.037c0.016,-0.009 0.033,-0.013 0.052,-0.013c0.015,-0 0.028,0.004 0.04,0.011c0.012,0.007 0.022,0.017 0.032,0.028c0.01,0.012 0.018,0.025 0.026,0.04c0.007,0.015 0.014,0.03 0.02,0.045Zm-0.012,0.046c-0.005,-0.013 -0.011,-0.026 -0.017,-0.037c-0.006,-0.012 -0.012,-0.022 -0.019,-0.031c-0.007,-0.008 -0.015,-0.015 -0.024,-0.021c-0.008,-0.005 -0.018,-0.007 -0.028,-0.007c-0.014,-0 -0.027,0.003 -0.039,0.01c-0.012,0.007 -0.023,0.016 -0.034,0.028c-0.01,0.012 -0.02,0.025 -0.028,0.041c-0.009,0.015 -0.016,0.032 -0.022,0.048c-0.005,0.017 -0.01,0.034 -0.013,0.051c-0.003,0.017 -0.005,0.033 -0.005,0.047c0,0.01 0.001,0.019 0.003,0.029c0.002,0.009 0.005,0.017 0.009,0.025c0.004,0.007 0.01,0.013 0.017,0.017c0.007,0.005 0.016,0.007 0.027,0.007c0.014,0 0.028,-0.003 0.042,-0.009c0.014,-0.007 0.028,-0.016 0.042,-0.027c0.013,-0.012 0.026,-0.025 0.039,-0.041c0.012,-0.016 0.024,-0.034 0.036,-0.052c0.001,-0.011 0.003,-0.024 0.006,-0.037c0.002,-0.014 0.005,-0.027 0.008,-0.041Zm0.085,-0.441l-0.118,0.222c-0.003,0 -0.008,0 -0.015,-0c-0.006,-0.001 -0.011,-0.002 -0.015,-0.003l0.051,-0.224c0.003,-0.003 0.013,-0.005 0.029,-0.005c0.02,0 0.042,0.002 0.068,0.006l-0,0.004Z" style="fill:#2a81d3;fill-rule:nonzero;"/></g><g transform="matrix(40,0,0,40,291.487,218.833)"><path d="M0.842,-0.094c0.001,0.004 0.002,0.007 0.002,0.011c0.001,0.004 0.001,0.008 0.001,0.011c-0,0.01 -0.002,0.02 -0.005,0.029c-0.003,0.01 -0.007,0.018 -0.013,0.026c-0.005,0.007 -0.012,0.013 -0.021,0.018c-0.008,0.005 -0.018,0.007 -0.029,0.007c-0.013,-0 -0.025,-0.004 -0.034,-0.01c-0.01,-0.007 -0.017,-0.016 -0.023,-0.027c-0.006,-0.01 -0.011,-0.024 -0.017,-0.042c-0.006,-0.018 -0.012,-0.04 -0.019,-0.067c-0.006,-0.026 -0.014,-0.058 -0.022,-0.093c-0.008,-0.036 -0.016,-0.077 -0.026,-0.123c-0.015,0.03 -0.03,0.059 -0.044,0.087c-0.014,0.028 -0.027,0.055 -0.04,0.081c-0.012,0.026 -0.024,0.051 -0.035,0.074c-0.011,0.024 -0.021,0.045 -0.031,0.064c-0.005,0.01 -0.01,0.02 -0.014,0.027c-0.003,0.007 -0.007,0.014 -0.01,0.018c-0.003,0.005 -0.007,0.008 -0.01,0.01c-0.003,0.002 -0.007,0.003 -0.011,0.003c-0.014,0 -0.029,-0.005 -0.043,-0.014c-0.015,-0.01 -0.029,-0.028 -0.042,-0.054c-0.008,-0.014 -0.015,-0.03 -0.021,-0.049c-0.007,-0.018 -0.014,-0.039 -0.02,-0.063c-0.007,-0.024 -0.013,-0.051 -0.02,-0.081c-0.007,-0.03 -0.014,-0.064 -0.022,-0.103c-0.028,0.061 -0.054,0.119 -0.079,0.173c-0.024,0.054 -0.048,0.105 -0.072,0.152c-0.004,0.008 -0.008,0.014 -0.012,0.019c-0.004,0.004 -0.009,0.008 -0.014,0.011c-0.006,0.002 -0.011,0.004 -0.018,0.005c-0.006,0.001 -0.013,0.002 -0.021,0.002c-0.008,-0 -0.017,-0.001 -0.026,-0.002c-0.008,-0.001 -0.017,-0.003 -0.026,-0.007l-0.001,-0.004c0.021,-0.033 0.043,-0.067 0.065,-0.103c0.021,-0.036 0.043,-0.072 0.064,-0.11c0.021,-0.037 0.042,-0.074 0.063,-0.112c0.02,-0.037 0.04,-0.073 0.058,-0.108c-0.009,-0.038 -0.018,-0.07 -0.027,-0.096c-0.009,-0.026 -0.018,-0.047 -0.028,-0.064c-0.01,-0.016 -0.02,-0.028 -0.032,-0.035c-0.012,-0.007 -0.025,-0.011 -0.041,-0.011c-0.012,0 -0.023,0.002 -0.034,0.005c-0.011,0.004 -0.022,0.01 -0.033,0.018c-0.01,-0.007 -0.018,-0.015 -0.022,-0.023c-0.004,-0.009 -0.006,-0.017 -0.006,-0.026c-0,-0.009 0.002,-0.016 0.005,-0.024c0.004,-0.007 0.009,-0.013 0.016,-0.019c0.007,-0.005 0.016,-0.009 0.027,-0.013c0.01,-0.003 0.023,-0.004 0.036,-0.004c0.031,-0 0.057,0.008 0.077,0.024c0.02,0.016 0.038,0.04 0.052,0.071c0.015,0.032 0.029,0.071 0.041,0.118c0.012,0.048 0.025,0.102 0.04,0.164c0.01,0.045 0.02,0.082 0.028,0.112c0.007,0.03 0.014,0.055 0.021,0.074c0.006,0.019 0.012,0.034 0.018,0.044c0.006,0.011 0.011,0.02 0.017,0.026c0.002,0.003 0.004,0.004 0.006,0.006c0.002,0.001 0.003,0.002 0.005,0.002c0.002,0 0.004,-0.002 0.006,-0.005c0.002,-0.003 0.005,-0.008 0.008,-0.013c0.032,-0.054 0.063,-0.109 0.092,-0.164c0.03,-0.055 0.06,-0.11 0.091,-0.167c-0.01,-0.038 -0.019,-0.07 -0.028,-0.096c-0.009,-0.027 -0.019,-0.049 -0.029,-0.065c-0.01,-0.017 -0.02,-0.029 -0.032,-0.037c-0.011,-0.008 -0.025,-0.011 -0.039,-0.011c-0.012,-0 -0.023,0.001 -0.033,0.004c-0.01,0.003 -0.02,0.009 -0.031,0.018c-0.011,-0.008 -0.018,-0.016 -0.022,-0.025c-0.004,-0.008 -0.006,-0.017 -0.006,-0.026c-0,-0.008 0.002,-0.016 0.005,-0.023c0.003,-0.007 0.008,-0.013 0.015,-0.018c0.006,-0.005 0.015,-0.01 0.025,-0.013c0.01,-0.003 0.022,-0.004 0.036,-0.004c0.03,-0 0.055,0.008 0.075,0.024c0.02,0.017 0.038,0.041 0.053,0.073c0.015,0.033 0.028,0.072 0.04,0.12c0.013,0.047 0.026,0.102 0.041,0.164c0.013,0.056 0.024,0.102 0.032,0.137c0.009,0.035 0.017,0.062 0.024,0.082c0.007,0.02 0.015,0.034 0.024,0.041c0.008,0.007 0.019,0.01 0.032,0.01c0.012,0 0.025,-0.004 0.04,-0.012l0.003,0.001Z" style="fill:#2a81d3;fill-rule:nonzero;"/></g><g transform="matrix(40,0,0,40,325.842,218.833)"><path d="M0.433,-0.443c0.003,-0.002 0.006,-0.005 0.011,-0.009c0.005,-0.003 0.01,-0.005 0.016,-0.005c0.004,-0 0.009,0.002 0.013,0.006c0.013,0.013 0.024,0.028 0.035,0.046c0.01,0.019 0.019,0.039 0.026,0.061c0.007,0.021 0.013,0.044 0.017,0.067c0.004,0.024 0.006,0.048 0.006,0.071c-0,0.037 -0.005,0.07 -0.014,0.097c-0.009,0.027 -0.02,0.049 -0.035,0.066c-0.014,0.018 -0.031,0.031 -0.049,0.039c-0.018,0.008 -0.036,0.012 -0.054,0.012c-0.027,0 -0.049,-0.007 -0.068,-0.022c-0.018,-0.014 -0.034,-0.039 -0.046,-0.072c-0.017,0.032 -0.037,0.056 -0.059,0.072c-0.023,0.015 -0.045,0.023 -0.067,0.023c-0.017,0 -0.032,-0.004 -0.046,-0.012c-0.014,-0.008 -0.027,-0.02 -0.037,-0.035c-0.011,-0.015 -0.019,-0.033 -0.025,-0.054c-0.007,-0.021 -0.01,-0.045 -0.01,-0.071c0,-0.024 0.002,-0.048 0.005,-0.071c0.004,-0.024 0.009,-0.047 0.015,-0.069c0.006,-0.022 0.013,-0.042 0.022,-0.061c0.008,-0.019 0.018,-0.035 0.028,-0.049c0.01,-0.014 0.021,-0.025 0.033,-0.033c0.011,-0.008 0.023,-0.012 0.036,-0.012c0.014,0 0.024,0.005 0.03,0.014c0.006,0.009 0.009,0.02 0.009,0.032c-0,0.01 -0.002,0.019 -0.004,0.027c-0.018,0.007 -0.035,0.018 -0.051,0.033c-0.015,0.015 -0.029,0.032 -0.041,0.051c-0.011,0.019 -0.021,0.04 -0.027,0.062c-0.007,0.023 -0.01,0.045 -0.01,0.067c-0,0.017 0.002,0.031 0.006,0.043c0.005,0.013 0.011,0.023 0.018,0.031c0.008,0.008 0.017,0.014 0.028,0.017c0.01,0.004 0.021,0.006 0.033,0.006c0.01,0 0.02,-0.001 0.03,-0.004c0.009,-0.003 0.019,-0.008 0.027,-0.014c0.009,-0.006 0.017,-0.014 0.024,-0.023c0.007,-0.009 0.013,-0.019 0.017,-0.03c-0.002,-0.01 -0.004,-0.019 -0.006,-0.03c-0.002,-0.01 -0.004,-0.02 -0.005,-0.031c-0.002,-0.01 -0.003,-0.02 -0.004,-0.03c-0.001,-0.01 -0.001,-0.02 -0.001,-0.029c-0,-0.005 0.003,-0.01 0.009,-0.015c0.006,-0.005 0.013,-0.009 0.022,-0.013c0.009,-0.004 0.018,-0.007 0.028,-0.009c0.01,-0.003 0.019,-0.004 0.027,-0.004c0.006,-0 0.011,0.001 0.015,0.002c0.004,0.002 0.006,0.005 0.006,0.009c-0,0.004 -0.001,0.012 -0.004,0.023c-0.002,0.011 -0.005,0.024 -0.009,0.04c-0.005,0.015 -0.01,0.032 -0.016,0.05c-0.007,0.019 -0.014,0.037 -0.022,0.056c0.006,0.018 0.016,0.031 0.029,0.04c0.014,0.008 0.028,0.013 0.044,0.013c0.019,-0 0.036,-0.005 0.049,-0.013c0.014,-0.009 0.025,-0.021 0.033,-0.036c0.009,-0.015 0.015,-0.032 0.019,-0.052c0.004,-0.019 0.006,-0.039 0.006,-0.061c-0,-0.019 -0.002,-0.039 -0.005,-0.059c-0.003,-0.019 -0.007,-0.038 -0.013,-0.057c-0.005,-0.018 -0.012,-0.035 -0.019,-0.051c-0.008,-0.015 -0.016,-0.029 -0.025,-0.04Z" style="fill-rule:nonzero;"/></g><g transform="matrix(12,0,0,12,222.1,233.833)"><path d="M0.228,-0l0,-0.568l-0.224,0l-0,-0.132l0.61,0l0,0.132l-0.224,0l0,0.568l-0.162,-0Z" style="fill-rule:nonzero;"/></g><g transform="matrix(12,0,0,12,228.856,233.833)"><path d="M0.339,0.008c-0.061,-0 -0.115,-0.012 -0.162,-0.036c-0.046,-0.024 -0.082,-0.057 -0.107,-0.099c-0.025,-0.041 -0.038,-0.089 -0.038,-0.142c-0,-0.054 0.012,-0.102 0.037,-0.143c0.025,-0.042 0.06,-0.075 0.103,-0.098c0.043,-0.024 0.092,-0.036 0.147,-0.036c0.053,0 0.1,0.011 0.142,0.034c0.043,0.022 0.076,0.054 0.101,0.096c0.025,0.041 0.037,0.091 0.037,0.149c-0,0.006 -0,0.013 -0.001,0.021c-0.001,0.007 -0.001,0.014 -0.002,0.021l-0.437,0l-0,-0.091l0.355,0l-0.06,0.027c0,-0.028 -0.006,-0.052 -0.017,-0.073c-0.011,-0.021 -0.027,-0.037 -0.047,-0.048c-0.02,-0.012 -0.043,-0.018 -0.07,-0.018c-0.027,0 -0.05,0.006 -0.071,0.018c-0.02,0.011 -0.036,0.028 -0.047,0.049c-0.011,0.021 -0.017,0.045 -0.017,0.074l0,0.024c0,0.029 0.007,0.055 0.019,0.078c0.014,0.022 0.032,0.039 0.056,0.05c0.023,0.012 0.051,0.018 0.083,0.018c0.029,0 0.054,-0.004 0.075,-0.013c0.022,-0.009 0.042,-0.022 0.06,-0.039l0.083,0.09c-0.025,0.028 -0.056,0.05 -0.093,0.065c-0.037,0.014 -0.08,0.022 -0.129,0.022Z" style="fill-rule:nonzero;"/></g><g transform="matrix(12,0,0,12,236.428,233.833)"><path d="M0.761,-0.546c0.043,0 0.081,0.009 0.114,0.026c0.032,0.017 0.058,0.043 0.078,0.078c0.019,0.035 0.028,0.079 0.028,0.134l0,0.308l-0.156,-0l0,-0.284c0,-0.043 -0.009,-0.075 -0.027,-0.096c-0.018,-0.021 -0.043,-0.031 -0.076,-0.031c-0.023,0 -0.043,0.005 -0.061,0.016c-0.018,0.01 -0.032,0.025 -0.042,0.046c-0.01,0.021 -0.015,0.047 -0.015,0.079l0,0.27l-0.156,-0l0,-0.284c0,-0.043 -0.009,-0.075 -0.026,-0.096c-0.018,-0.021 -0.043,-0.031 -0.076,-0.031c-0.023,0 -0.043,0.005 -0.061,0.016c-0.018,0.01 -0.032,0.025 -0.042,0.046c-0.01,0.021 -0.015,0.047 -0.015,0.079l0,0.27l-0.156,-0l0,-0.538l0.149,0l0,0.147l-0.028,-0.043c0.019,-0.037 0.045,-0.065 0.08,-0.083c0.034,-0.019 0.073,-0.029 0.117,-0.029c0.049,0 0.093,0.013 0.13,0.038c0.037,0.025 0.061,0.063 0.073,0.114l-0.055,-0.015c0.018,-0.042 0.047,-0.075 0.087,-0.1c0.039,-0.025 0.085,-0.037 0.136,-0.037Z" style="fill-rule:nonzero;"/></g><g transform="matrix(12,0,0,12,249.016,233.833)"><path d="M0.402,-0l0,-0.105l-0.01,-0.023l0,-0.188c0,-0.033 -0.01,-0.059 -0.031,-0.078c-0.02,-0.019 -0.051,-0.028 -0.093,-0.028c-0.029,0 -0.057,0.005 -0.085,0.014c-0.027,0.009 -0.051,0.021 -0.07,0.036l-0.056,-0.109c0.029,-0.021 0.065,-0.037 0.106,-0.048c0.041,-0.011 0.083,-0.017 0.126,-0.017c0.082,0 0.146,0.019 0.191,0.058c0.045,0.039 0.068,0.099 0.068,0.181l0,0.307l-0.146,0Zm-0.164,0.008c-0.042,-0 -0.078,-0.007 -0.108,-0.021c-0.03,-0.015 -0.053,-0.034 -0.069,-0.059c-0.016,-0.025 -0.024,-0.052 -0.024,-0.083c0,-0.032 0.008,-0.06 0.024,-0.084c0.015,-0.024 0.04,-0.043 0.074,-0.056c0.034,-0.014 0.078,-0.021 0.133,-0.021l0.143,0l-0,0.091l-0.126,0c-0.037,0 -0.062,0.006 -0.076,0.018c-0.013,0.012 -0.02,0.027 -0.02,0.045c-0,0.02 0.008,0.036 0.023,0.048c0.016,0.011 0.038,0.017 0.065,0.017c0.026,0 0.049,-0.006 0.07,-0.018c0.021,-0.013 0.036,-0.031 0.045,-0.055l0.024,0.072c-0.011,0.035 -0.032,0.061 -0.062,0.079c-0.03,0.018 -0.069,0.027 -0.116,0.027Z" style="fill-rule:nonzero;"/></g><g transform="matrix(12,0,0,12,259.816,233.833)"><path d="M0.218,-0l-0.226,-0.538l0.161,0l0.188,0.463l-0.08,0l0.195,-0.463l0.15,0l-0.227,0.538l-0.161,-0Z" style="fill-rule:nonzero;"/></g><g transform="matrix(12,0,0,12,266.812,233.833)"><path d="M0.339,0.008c-0.061,-0 -0.115,-0.012 -0.162,-0.036c-0.046,-0.024 -0.082,-0.057 -0.107,-0.099c-0.025,-0.041 -0.038,-0.089 -0.038,-0.142c-0,-0.054 0.012,-0.102 0.037,-0.143c0.025,-0.042 0.06,-0.075 0.103,-0.098c0.043,-0.024 0.092,-0.036 0.147,-0.036c0.053,0 0.1,0.011 0.142,0.034c0.043,0.022 0.076,0.054 0.101,0.096c0.025,0.041 0.037,0.091 0.037,0.149c-0,0.006 -0,0.013 -0.001,0.021c-0.001,0.007 -0.001,0.014 -0.002,0.021l-0.437,0l-0,-0.091l0.355,0l-0.06,0.027c0,-0.028 -0.006,-0.052 -0.017,-0.073c-0.011,-0.021 -0.027,-0.037 -0.047,-0.048c-0.02,-0.012 -0.043,-0.018 -0.07,-0.018c-0.027,0 -0.05,0.006 -0.071,0.018c-0.02,0.011 -0.036,0.028 -0.047,0.049c-0.011,0.021 -0.017,0.045 -0.017,0.074l0,0.024c0,0.029 0.007,0.055 0.019,0.078c0.014,0.022 0.032,0.039 0.056,0.05c0.023,0.012 0.051,0.018 0.083,0.018c0.029,0 0.054,-0.004 0.075,-0.013c0.022,-0.009 0.042,-0.022 0.06,-0.039l0.083,0.09c-0.025,0.028 -0.056,0.05 -0.093,0.065c-0.037,0.014 -0.08,0.022 -0.129,0.022Z" style="fill-rule:nonzero;"/></g><g transform="matrix(12,0,0,12,274.384,233.833)"><path d="M0.072,-0l-0,-0.538l0.149,0l0,0.152l-0.021,-0.044c0.016,-0.038 0.042,-0.067 0.077,-0.086c0.035,-0.02 0.078,-0.03 0.129,-0.03l0,0.144c-0.007,-0.001 -0.013,-0.001 -0.018,-0.002c-0.005,0 -0.011,0 -0.017,0c-0.043,0 -0.077,0.012 -0.103,0.037c-0.027,0.024 -0.04,0.062 -0.04,0.113l0,0.254l-0.156,0Z" style="fill-rule:nonzero;"/></g><g transform="matrix(12,0,0,12,279.508,233.833)"><path d="M0.39,0.008c-0.047,-0 -0.088,-0.01 -0.122,-0.03c-0.034,-0.02 -0.06,-0.05 -0.078,-0.092c-0.018,-0.041 -0.027,-0.092 -0.027,-0.155c0,-0.063 0.009,-0.115 0.028,-0.156c0.019,-0.041 0.046,-0.071 0.08,-0.091c0.034,-0.02 0.074,-0.03 0.119,-0.03c0.051,0 0.096,0.011 0.136,0.034c0.041,0.023 0.073,0.055 0.097,0.096c0.023,0.041 0.035,0.09 0.035,0.147c0,0.056 -0.012,0.105 -0.035,0.146c-0.024,0.041 -0.056,0.074 -0.097,0.097c-0.04,0.023 -0.085,0.034 -0.136,0.034Zm-0.318,-0.008l-0,-0.742l0.156,0l0,0.313l-0.01,0.159l0.003,0.16l0,0.11l-0.149,0Zm0.291,-0.12c0.026,0 0.049,-0.006 0.07,-0.018c0.02,-0.012 0.036,-0.029 0.048,-0.051c0.013,-0.023 0.019,-0.049 0.019,-0.08c0,-0.031 -0.006,-0.058 -0.019,-0.08c-0.012,-0.022 -0.028,-0.039 -0.048,-0.051c-0.021,-0.012 -0.044,-0.018 -0.07,-0.018c-0.026,0 -0.049,0.006 -0.07,0.018c-0.021,0.012 -0.037,0.029 -0.049,0.051c-0.012,0.022 -0.018,0.049 -0.018,0.08c0,0.031 0.006,0.057 0.018,0.08c0.012,0.022 0.028,0.039 0.049,0.051c0.021,0.012 0.044,0.018 0.07,0.018Z" style="fill-rule:nonzero;"/></g><g transform="matrix(12,0,0,12,287.68,233.833)"><path d="M0.402,-0l0,-0.105l-0.01,-0.023l0,-0.188c0,-0.033 -0.01,-0.059 -0.031,-0.078c-0.02,-0.019 -0.051,-0.028 -0.093,-0.028c-0.029,0 -0.057,0.005 -0.085,0.014c-0.027,0.009 -0.051,0.021 -0.07,0.036l-0.056,-0.109c0.029,-0.021 0.065,-0.037 0.106,-0.048c0.041,-0.011 0.083,-0.017 0.126,-0.017c0.082,0 0.146,0.019 0.191,0.058c0.045,0.039 0.068,0.099 0.068,0.181l0,0.307l-0.146,0Zm-0.164,0.008c-0.042,-0 -0.078,-0.007 -0.108,-0.021c-0.03,-0.015 -0.053,-0.034 -0.069,-0.059c-0.016,-0.025 -0.024,-0.052 -0.024,-0.083c0,-0.032 0.008,-0.06 0.024,-0.084c0.015,-0.024 0.04,-0.043 0.074,-0.056c0.034,-0.014 0.078,-0.021 0.133,-0.021l0.143,0l-0,0.091l-0.126,0c-0.037,0 -0.062,0.006 -0.076,0.018c-0.013,0.012 -0.02,0.027 -0.02,0.045c-0,0.02 0.008,0.036 0.023,0.048c0.016,0.011 0.038,0.017 0.065,0.017c0.026,0 0.049,-0.006 0.07,-0.018c0.021,-0.013 0.036,-0.031 0.045,-0.055l0.024,0.072c-0.011,0.035 -0.032,0.061 -0.062,0.079c-0.03,0.018 -0.069,0.027 -0.116,0.027Z" style="fill-rule:nonzero;"/></g><g transform="matrix(12,0,0,12,295.084,233.833)"><rect x="0.072" y="-0.742" width="0.156" height="0.742" style="fill-rule:nonzero;"/></g><g transform="matrix(12,0,0,12,302.092,233.833)"><path d="M0.303,0.008c-0.051,-0 -0.096,-0.012 -0.137,-0.035c-0.041,-0.023 -0.073,-0.055 -0.096,-0.096c-0.024,-0.041 -0.036,-0.09 -0.036,-0.146c0,-0.057 0.012,-0.106 0.036,-0.147c0.023,-0.041 0.055,-0.073 0.096,-0.096c0.041,-0.023 0.086,-0.034 0.137,-0.034c0.045,0 0.085,0.01 0.119,0.03c0.034,0.02 0.06,0.05 0.079,0.091c0.019,0.041 0.028,0.093 0.028,0.156c0,0.063 -0.009,0.115 -0.027,0.156c-0.018,0.041 -0.044,0.071 -0.078,0.091c-0.033,0.02 -0.074,0.03 -0.121,0.03Zm0.027,-0.128c0.025,0 0.048,-0.006 0.069,-0.018c0.021,-0.012 0.037,-0.029 0.049,-0.051c0.013,-0.023 0.019,-0.049 0.019,-0.08c0,-0.031 -0.006,-0.058 -0.019,-0.08c-0.012,-0.022 -0.028,-0.039 -0.049,-0.051c-0.021,-0.012 -0.044,-0.018 -0.069,-0.018c-0.026,0 -0.049,0.006 -0.07,0.018c-0.021,0.012 -0.037,0.029 -0.05,0.051c-0.012,0.022 -0.018,0.049 -0.018,0.08c0,0.031 0.006,0.057 0.018,0.08c0.013,0.022 0.029,0.039 0.05,0.051c0.021,0.012 0.044,0.018 0.07,0.018Zm0.141,0.12l-0,-0.11l0.003,-0.16l-0.01,-0.159l0,-0.313l0.156,0l0,0.742l-0.149,-0Z" style="fill-rule:nonzero;"/></g><g transform="matrix(12,0,0,12,310.396,233.833)"><path d="M0.339,0.008c-0.061,-0 -0.115,-0.012 -0.162,-0.036c-0.046,-0.024 -0.082,-0.057 -0.107,-0.099c-0.025,-0.041 -0.038,-0.089 -0.038,-0.142c-0,-0.054 0.012,-0.102 0.037,-0.143c0.025,-0.042 0.06,-0.075 0.103,-0.098c0.043,-0.024 0.092,-0.036 0.147,-0.036c0.053,0 0.1,0.011 0.142,0.034c0.043,0.022 0.076,0.054 0.101,0.096c0.025,0.041 0.037,0.091 0.037,0.149c-0,0.006 -0,0.013 -0.001,0.021c-0.001,0.007 -0.001,0.014 -0.002,0.021l-0.437,0l-0,-0.091l0.355,0l-0.06,0.027c0,-0.028 -0.006,-0.052 -0.017,-0.073c-0.011,-0.021 -0.027,-0.037 -0.047,-0.048c-0.02,-0.012 -0.043,-0.018 -0.07,-0.018c-0.027,0 -0.05,0.006 -0.071,0.018c-0.02,0.011 -0.036,0.028 -0.047,0.049c-0.011,0.021 -0.017,0.045 -0.017,0.074l0,0.024c0,0.029 0.007,0.055 0.019,0.078c0.014,0.022 0.032,0.039 0.056,0.05c0.023,0.012 0.051,0.018 0.083,0.018c0.029,0 0.054,-0.004 0.075,-0.013c0.022,-0.009 0.042,-0.022 0.06,-0.039l0.083,0.09c-0.025,0.028 -0.056,0.05 -0.093,0.065c-0.037,0.014 -0.08,0.022 -0.129,0.022Z" style="fill-rule:nonzero;"/></g><g transform="matrix(12,0,0,12,321.364,233.833)"><path d="M0.39,0.008c-0.045,-0 -0.085,-0.01 -0.119,-0.03c-0.034,-0.02 -0.061,-0.05 -0.08,-0.092c-0.019,-0.041 -0.028,-0.092 -0.028,-0.155c0,-0.063 0.009,-0.115 0.027,-0.156c0.018,-0.041 0.044,-0.071 0.078,-0.091c0.034,-0.02 0.075,-0.03 0.122,-0.03c0.051,0 0.096,0.012 0.136,0.035c0.041,0.023 0.073,0.055 0.097,0.096c0.023,0.041 0.035,0.09 0.035,0.146c0,0.057 -0.012,0.106 -0.035,0.147c-0.024,0.041 -0.056,0.073 -0.097,0.096c-0.04,0.023 -0.085,0.034 -0.136,0.034Zm-0.318,0.186l-0,-0.732l0.149,0l0,0.11l-0.003,0.16l0.01,0.159l0,0.303l-0.156,0Zm0.291,-0.314c0.026,0 0.049,-0.006 0.07,-0.018c0.02,-0.012 0.036,-0.029 0.048,-0.051c0.013,-0.023 0.019,-0.049 0.019,-0.08c0,-0.031 -0.006,-0.058 -0.019,-0.08c-0.012,-0.022 -0.028,-0.039 -0.048,-0.051c-0.021,-0.012 -0.044,-0.018 -0.07,-0.018c-0.026,0 -0.049,0.006 -0.07,0.018c-0.021,0.012 -0.037,0.029 -0.049,0.051c-0.012,0.022 -0.018,0.049 -0.018,0.08c0,0.031 0.006,0.057 0.018,0.08c0.012,0.022 0.028,0.039 0.049,0.051c0.021,0.012 0.044,0.018 0.07,0.018Z" style="fill-rule:nonzero;"/></g><g transform="matrix(12,0,0,12,329.644,233.833)"><path d="M0.072,-0l-0,-0.538l0.149,0l0,0.152l-0.021,-0.044c0.016,-0.038 0.042,-0.067 0.077,-0.086c0.035,-0.02 0.078,-0.03 0.129,-0.03l0,0.144c-0.007,-0.001 -0.013,-0.001 -0.018,-0.002c-0.005,0 -0.011,0 -0.017,0c-0.043,0 -0.077,0.012 -0.103,0.037c-0.027,0.024 -0.04,0.062 -0.04,0.113l0,0.254l-0.156,0Z" style="fill-rule:nonzero;"/></g><g transform="matrix(12,0,0,12,334.708,233.833)"><path d="M0.339,0.008c-0.061,-0 -0.115,-0.012 -0.162,-0.036c-0.046,-0.024 -0.082,-0.057 -0.107,-0.099c-0.025,-0.041 -0.038,-0.089 -0.038,-0.142c-0,-0.054 0.012,-0.102 0.037,-0.143c0.025,-0.042 0.06,-0.075 0.103,-0.098c0.043,-0.024 0.092,-0.036 0.147,-0.036c0.053,0 0.1,0.011 0.142,0.034c0.043,0.022 0.076,0.054 0.101,0.096c0.025,0.041 0.037,0.091 0.037,0.149c-0,0.006 -0,0.013 -0.001,0.021c-0.001,0.007 -0.001,0.014 -0.002,0.021l-0.437,0l-0,-0.091l0.355,0l-0.06,0.027c0,-0.028 -0.006,-0.052 -0.017,-0.073c-0.011,-0.021 -0.027,-0.037 -0.047,-0.048c-0.02,-0.012 -0.043,-0.018 -0.07,-0.018c-0.027,0 -0.05,0.006 -0.071,0.018c-0.02,0.011 -0.036,0.028 -0.047,0.049c-0.011,0.021 -0.017,0.045 -0.017,0.074l0,0.024c0,0.029 0.007,0.055 0.019,0.078c0.014,0.022 0.032,0.039 0.056,0.05c0.023,0.012 0.051,0.018 0.083,0.018c0.029,0 0.054,-0.004 0.075,-0.013c0.022,-0.009 0.042,-0.022 0.06,-0.039l0.083,0.09c-0.025,0.028 -0.056,0.05 -0.093,0.065c-0.037,0.014 -0.08,0.022 -0.129,0.022Z" style="fill-rule:nonzero;"/></g><g transform="matrix(12,0,0,12,342.28,233.833)"><path d="M0.253,0.008c-0.046,-0 -0.09,-0.006 -0.133,-0.017c-0.042,-0.01 -0.075,-0.024 -0.1,-0.041l0.052,-0.112c0.025,0.015 0.054,0.028 0.088,0.038c0.033,0.009 0.066,0.014 0.099,0.014c0.036,0 0.062,-0.004 0.077,-0.013c0.014,-0.009 0.022,-0.021 0.022,-0.036c-0,-0.013 -0.006,-0.022 -0.018,-0.028c-0.011,-0.007 -0.027,-0.012 -0.046,-0.015c-0.019,-0.003 -0.041,-0.007 -0.064,-0.01c-0.023,-0.003 -0.046,-0.008 -0.069,-0.013c-0.023,-0.006 -0.045,-0.015 -0.064,-0.026c-0.019,-0.011 -0.035,-0.027 -0.047,-0.046c-0.011,-0.019 -0.017,-0.044 -0.017,-0.075c-0,-0.034 0.01,-0.064 0.029,-0.09c0.02,-0.026 0.049,-0.046 0.086,-0.061c0.037,-0.015 0.082,-0.023 0.134,-0.023c0.037,0 0.074,0.004 0.112,0.012c0.038,0.008 0.07,0.02 0.095,0.035l-0.052,0.111c-0.026,-0.015 -0.052,-0.026 -0.079,-0.031c-0.026,-0.006 -0.051,-0.009 -0.076,-0.009c-0.035,0 -0.06,0.005 -0.076,0.014c-0.016,0.009 -0.024,0.021 -0.024,0.036c0,0.013 0.006,0.023 0.018,0.03c0.011,0.007 0.027,0.012 0.046,0.016c0.019,0.004 0.041,0.008 0.064,0.011c0.023,0.003 0.046,0.007 0.069,0.013c0.023,0.006 0.045,0.015 0.064,0.026c0.019,0.011 0.034,0.026 0.046,0.045c0.012,0.019 0.018,0.043 0.018,0.074c0,0.033 -0.01,0.063 -0.03,0.089c-0.02,0.025 -0.049,0.045 -0.086,0.06c-0.038,0.015 -0.084,0.022 -0.138,0.022Z" style="fill-rule:nonzero;"/></g><g transform="matrix(12,0,0,12,348.652,233.833)"><path d="M0.339,0.008c-0.061,-0 -0.115,-0.012 -0.162,-0.036c-0.046,-0.024 -0.082,-0.057 -0.107,-0.099c-0.025,-0.041 -0.038,-0.089 -0.038,-0.142c-0,-0.054 0.012,-0.102 0.037,-0.143c0.025,-0.042 0.06,-0.075 0.103,-0.098c0.043,-0.024 0.092,-0.036 0.147,-0.036c0.053,0 0.1,0.011 0.142,0.034c0.043,0.022 0.076,0.054 0.101,0.096c0.025,0.041 0.037,0.091 0.037,0.149c-0,0.006 -0,0.013 -0.001,0.021c-0.001,0.007 -0.001,0.014 -0.002,0.021l-0.437,0l-0,-0.091l0.355,0l-0.06,0.027c0,-0.028 -0.006,-0.052 -0.017,-0.073c-0.011,-0.021 -0.027,-0.037 -0.047,-0.048c-0.02,-0.012 -0.043,-0.018 -0.07,-0.018c-0.027,0 -0.05,0.006 -0.071,0.018c-0.02,0.011 -0.036,0.028 -0.047,0.049c-0.011,0.021 -0.017,0.045 -0.017,0.074l0,0.024c0,0.029 0.007,0.055 0.019,0.078c0.014,0.022 0.032,0.039 0.056,0.05c0.023,0.012 0.051,0.018 0.083,0.018c0.029,0 0.054,-0.004 0.075,-0.013c0.022,-0.009 0.042,-0.022 0.06,-0.039l0.083,0.09c-0.025,0.028 -0.056,0.05 -0.093,0.065c-0.037,0.014 -0.08,0.022 -0.129,0.022Z" style="fill-rule:nonzero;"/></g><g transform="matrix(12,0,0,12,356.224,233.833)"><path d="M0.399,-0.546c0.043,0 0.081,0.009 0.114,0.026c0.034,0.017 0.061,0.043 0.08,0.078c0.019,0.035 0.029,0.079 0.029,0.134l0,0.308l-0.156,-0l0,-0.284c0,-0.043 -0.009,-0.075 -0.028,-0.096c-0.019,-0.021 -0.046,-0.031 -0.081,-0.031c-0.025,0 -0.047,0.005 -0.066,0.016c-0.02,0.01 -0.035,0.026 -0.046,0.047c-0.011,0.021 -0.017,0.049 -0.017,0.082l0,0.266l-0.156,-0l0,-0.538l0.149,0l0,0.149l-0.028,-0.045c0.019,-0.036 0.047,-0.064 0.083,-0.083c0.036,-0.019 0.077,-0.029 0.123,-0.029Z" style="fill-rule:nonzero;"/></g><g transform="matrix(12,0,0,12,364.516,233.833)"><path d="M0.292,0.008c-0.063,-0 -0.113,-0.016 -0.148,-0.049c-0.035,-0.032 -0.053,-0.08 -0.053,-0.144l0,-0.472l0.156,0l0,0.47c0,0.023 0.006,0.04 0.018,0.052c0.012,0.013 0.028,0.019 0.049,0.019c0.025,0 0.046,-0.007 0.063,-0.02l0.042,0.11c-0.016,0.011 -0.035,0.02 -0.057,0.026c-0.023,0.005 -0.046,0.008 -0.07,0.008Zm-0.284,-0.414l0,-0.12l0.373,0l0,0.12l-0.373,0Z" style="fill-rule:nonzero;"/></g><g transform="matrix(12,0,0,12,369.532,233.833)"><path d="M0.339,0.008c-0.061,-0 -0.115,-0.012 -0.162,-0.036c-0.046,-0.024 -0.082,-0.057 -0.107,-0.099c-0.025,-0.041 -0.038,-0.089 -0.038,-0.142c-0,-0.054 0.012,-0.102 0.037,-0.143c0.025,-0.042 0.06,-0.075 0.103,-0.098c0.043,-0.024 0.092,-0.036 0.147,-0.036c0.053,0 0.1,0.011 0.142,0.034c0.043,0.022 0.076,0.054 0.101,0.096c0.025,0.041 0.037,0.091 0.037,0.149c-0,0.006 -0,0.013 -0.001,0.021c-0.001,0.007 -0.001,0.014 -0.002,0.021l-0.437,0l-0,-0.091l0.355,0l-0.06,0.027c0,-0.028 -0.006,-0.052 -0.017,-0.073c-0.011,-0.021 -0.027,-0.037 -0.047,-0.048c-0.02,-0.012 -0.043,-0.018 -0.07,-0.018c-0.027,0 -0.05,0.006 -0.071,0.018c-0.02,0.011 -0.036,0.028 -0.047,0.049c-0.011,0.021 -0.017,0.045 -0.017,0.074l0,0.024c0,0.029 0.007,0.055 0.019,0.078c0.014,0.022 0.032,0.039 0.056,0.05c0.023,0.012 0.051,0.018 0.083,0.018c0.029,0 0.054,-0.004 0.075,-0.013c0.022,-0.009 0.042,-0.022 0.06,-0.039l0.083,0.09c-0.025,0.028 -0.056,0.05 -0.093,0.065c-0.037,0.014 -0.08,0.022 -0.129,0.022Z" style="fill-rule:nonzero;"/></g></g></g><g id="Capa3"></g></svg>