<?xml version="1.0" encoding="UTF-8" standalone="no"?><!DOCTYPE svg PUBLIC "-//W3C//DTD SVG 1.1//EN" "http://www.w3.org/Graphics/SVG/1.1/DTD/svg11.dtd"><svg width="100%" height="100%" viewBox="0 0 340 151" version="1.1" xmlns="http://www.w3.org/2000/svg" xmlns:xlink="http://www.w3.org/1999/xlink" xml:space="preserve" xmlns:serif="http://www.serif.com/" style="fill-rule:evenodd;clip-rule:evenodd;stroke-linejoin:round;stroke-miterlimit:2;"><g id="desinencia"><g id="text4"><g transform="matrix(0.853136,0,0,0.853136,37.9536,126.021)"><text x="-23.527px" y="0px" style="font-family:'Arial-BoldMT', 'Arial', sans-serif;font-weight:700;font-size:24px;">Preposición:</text><g transform="matrix(15,0,0,15,-12.9638,25)"></g><g transform="matrix(15,0,0,15,-8.7963,25)"></g><g transform="matrix(15,0,0,15,61.2379,25)"></g><g transform="matrix(15,0,0,15,65.4054,25)"></g><g transform="matrix(15,0,0,15,143.782,25)"></g><text x="-45.476px" y="25px" style="font-family:'ArialMT', 'Arial', sans-serif;font-size:15px;">modiﬁca el signiﬁcado léxico</text></g><g transform="matrix(20.4753,0,0,20.4753,272.232,132.021)"></g><text x="215.335px" y="132.021px" style="font-family:'Arial-BoldMT', 'Arial', sans-serif;font-weight:700;font-size:20.475px;">V<tspan x="227.862px 239.249px " y="132.021px 132.021px ">er</tspan>bo</text></g><g transform="matrix(1,0,-0.00560429,1,124.462,66.9433)"><g transform="matrix(89.1997,0,0,89.1997,-83.7118,0)"></g><g transform="matrix(89.1997,0,0,89.1997,-49.3037,0)"></g><text x="-83.712px" y="0px" style="font-family:'SBLGreek', 'SBL Greek';font-size:89.2px;fill:#0088c8;">ἐκ</text><g transform="matrix(89.1997,0,0,89.1997,43.9465,0)"></g><g transform="matrix(89.1997,0,0,89.1997,89.0255,0)"></g><g transform="matrix(89.1997,0,0,89.1997,89.0255,0)"><path d="M0.842,-0.094c0.001,0.004 0.002,0.007 0.002,0.011c0.001,0.004 0.001,0.008 0.001,0.011c-0,0.01 -0.002,0.02 -0.005,0.029c-0.003,0.01 -0.007,0.018 -0.013,0.026c-0.005,0.007 -0.012,0.013 -0.021,0.018c-0.008,0.005 -0.018,0.007 -0.029,0.007c-0.013,-0 -0.025,-0.004 -0.034,-0.01c-0.01,-0.007 -0.017,-0.016 -0.023,-0.027c-0.006,-0.01 -0.011,-0.024 -0.017,-0.042c-0.006,-0.018 -0.012,-0.04 -0.019,-0.067c-0.006,-0.026 -0.014,-0.058 -0.022,-0.093c-0.008,-0.036 -0.016,-0.077 -0.026,-0.123c-0.015,0.03 -0.03,0.059 -0.044,0.087c-0.014,0.028 -0.027,0.055 -0.04,0.081c-0.012,0.026 -0.024,0.051 -0.035,0.074c-0.011,0.024 -0.021,0.045 -0.031,0.064c-0.005,0.01 -0.01,0.02 -0.014,0.027c-0.003,0.007 -0.007,0.014 -0.01,0.018c-0.003,0.005 -0.007,0.008 -0.01,0.01c-0.003,0.002 -0.007,0.003 -0.011,0.003c-0.014,0 -0.029,-0.005 -0.043,-0.014c-0.015,-0.01 -0.029,-0.028 -0.042,-0.054c-0.008,-0.014 -0.015,-0.03 -0.021,-0.049c-0.007,-0.018 -0.014,-0.039 -0.02,-0.063c-0.007,-0.024 -0.013,-0.051 -0.02,-0.081c-0.007,-0.03 -0.014,-0.064 -0.022,-0.103c-0.028,0.061 -0.054,0.119 -0.079,0.173c-0.024,0.054 -0.048,0.105 -0.072,0.152c-0.004,0.008 -0.008,0.014 -0.012,0.019c-0.004,0.004 -0.009,0.008 -0.014,0.011c-0.006,0.002 -0.011,0.004 -0.018,0.005c-0.006,0.001 -0.013,0.002 -0.021,0.002c-0.008,-0 -0.017,-0.001 -0.026,-0.002c-0.008,-0.001 -0.017,-0.003 -0.026,-0.007l-0.001,-0.004c0.021,-0.033 0.043,-0.067 0.065,-0.103c0.021,-0.036 0.043,-0.072 0.064,-0.11c0.021,-0.037 0.042,-0.074 0.063,-0.112c0.02,-0.037 0.04,-0.073 0.058,-0.108c-0.009,-0.038 -0.018,-0.07 -0.027,-0.096c-0.009,-0.026 -0.018,-0.047 -0.028,-0.064c-0.01,-0.016 -0.02,-0.028 -0.032,-0.035c-0.012,-0.007 -0.025,-0.011 -0.041,-0.011c-0.012,0 -0.023,0.002 -0.034,0.005c-0.011,0.004 -0.022,0.01 -0.033,0.018c-0.01,-0.007 -0.018,-0.015 -0.022,-0.023c-0.004,-0.009 -0.006,-0.017 -0.006,-0.026c-0,-0.009 0.002,-0.016 0.005,-0.024c0.004,-0.007 0.009,-0.013 0.016,-0.019c0.007,-0.005 0.016,-0.009 0.027,-0.013c0.01,-0.003 0.023,-0.004 0.036,-0.004c0.031,-0 0.057,0.008 0.077,0.024c0.02,0.016 0.038,0.04 0.052,0.071c0.015,0.032 0.029,0.071 0.041,0.118c0.012,0.048 0.025,0.102 0.04,0.164c0.01,0.045 0.02,0.082 0.028,0.112c0.007,0.03 0.014,0.055 0.021,0.074c0.006,0.019 0.012,0.034 0.018,0.044c0.006,0.011 0.011,0.02 0.017,0.026c0.002,0.003 0.004,0.004 0.006,0.006c0.002,0.001 0.003,0.002 0.005,0.002c0.002,0 0.004,-0.002 0.006,-0.005c0.002,-0.003 0.005,-0.008 0.008,-0.013c0.032,-0.054 0.063,-0.109 0.092,-0.164c0.03,-0.055 0.06,-0.11 0.091,-0.167c-0.01,-0.038 -0.019,-0.07 -0.028,-0.096c-0.009,-0.027 -0.019,-0.049 -0.029,-0.065c-0.01,-0.017 -0.02,-0.029 -0.032,-0.037c-0.011,-0.008 -0.025,-0.011 -0.039,-0.011c-0.012,-0 -0.023,0.001 -0.033,0.004c-0.01,0.003 -0.02,0.009 -0.031,0.018c-0.011,-0.008 -0.018,-0.016 -0.022,-0.025c-0.004,-0.008 -0.006,-0.017 -0.006,-0.026c-0,-0.008 0.002,-0.016 0.005,-0.023c0.003,-0.007 0.008,-0.013 0.015,-0.018c0.006,-0.005 0.015,-0.01 0.025,-0.013c0.01,-0.003 0.022,-0.004 0.036,-0.004c0.03,-0 0.055,0.008 0.075,0.024c0.02,0.017 0.038,0.041 0.053,0.073c0.015,0.033 0.028,0.072 0.04,0.12c0.013,0.047 0.026,0.102 0.041,0.164c0.013,0.056 0.024,0.102 0.032,0.137c0.009,0.035 0.017,0.062 0.024,0.082c0.007,0.02 0.015,0.034 0.024,0.041c0.008,0.007 0.019,0.01 0.032,0.01c0.012,0 0.025,-0.004 0.04,-0.012l0.003,0.001Z" style="fill-rule:nonzero;"/></g><g transform="matrix(89.1997,0,0,89.1997,89.0255,0)"></g><g transform="matrix(89.1997,0,0,89.1997,127.332,0)"></g><g transform="matrix(89.1997,0,0,89.1997,219.82,0)"></g><text x="-5.575px" y="0px" style="font-family:'SBLGreek', 'SBL Greek';font-size:89.2px;">βά<tspan x="165.638px " y="0px ">ω</tspan></text></g><path id="text1-3" d="M107.238,93.065c0,1.642 -0.503,2.897 -1.509,3.765c-1.006,0.868 -2.36,1.302 -4.063,1.302l-16.924,-0c-1.058,-0 -1.871,0.187 -2.438,0.562c-0.594,0.352 -1.006,0.845 -1.239,1.478c-0.258,0.633 -0.399,1.337 -0.425,2.111l-1.625,0c-0.026,-0.774 -0.155,-1.478 -0.387,-2.111c-0.258,-0.633 -0.671,-1.126 -1.239,-1.478c-0.593,-0.375 -1.406,-0.562 -2.438,-0.562l-16.924,-0c-1.754,-0 -3.108,-0.434 -4.063,-1.302c-0.98,-0.868 -1.47,-2.123 -1.47,-3.765l-0,-2.322l1.664,0l-0,1.056c-0,1.032 0.348,1.771 1.044,2.216c0.671,0.446 1.677,0.669 3.019,0.669l16.808,-0c1.264,-0 2.322,0.328 3.173,0.985c0.825,0.633 1.354,1.606 1.586,2.92l0.039,-0c0.258,-1.337 0.8,-2.322 1.625,-2.955c0.826,-0.634 1.884,-0.95 3.173,-0.95l16.886,-0c1.316,-0 2.322,-0.223 3.018,-0.669c0.697,-0.445 1.045,-1.184 1.045,-2.216l0,-1.056l1.664,0l0,2.322Z" style="fill-rule:nonzero;"/><path id="text1-3-1" d="M325.478,95.469c0,1.748 -0.32,3.084 -0.959,4.008c-0.64,0.924 -1.501,1.386 -2.584,1.386l-75.27,-0c-0.673,-0 -1.189,0.2 -1.55,0.599c-0.378,0.375 -0.64,0.899 -0.788,1.573c-0.164,0.675 -0.254,1.424 -0.27,2.248l-1.034,0c-0.016,-0.824 -0.098,-1.573 -0.246,-2.248c-0.164,-0.674 -0.426,-1.198 -0.787,-1.573c-0.378,-0.399 -0.894,-0.599 -1.551,-0.599l-75.27,-0c-1.115,-0 -1.976,-0.462 -2.583,-1.386c-0.624,-0.924 -0.935,-2.26 -0.935,-4.008l-0,-2.473l1.058,0l-0,1.124c-0,1.099 0.221,1.885 0.664,2.36c0.427,0.474 1.066,0.712 1.919,0.712l75.197,-0c0.803,-0 1.476,0.349 2.017,1.049c0.525,0.674 0.862,1.71 1.009,3.109l0.025,-0c0.164,-1.424 0.508,-2.473 1.033,-3.147c0.525,-0.674 1.198,-1.011 2.018,-1.011l75.246,-0c0.836,-0 1.476,-0.238 1.919,-0.712c0.443,-0.475 0.664,-1.261 0.664,-2.36l0,-1.124l1.058,0l0,2.473Z" style="fill-rule:nonzero;"/></g></svg>