<?xml version="1.0" encoding="UTF-8" standalone="no"?>
<!-- Created with Inkscape (http://www.inkscape.org/) -->

<svg
   width="1920"
   height="1080"
   viewBox="0 0 507.99999 285.75"
   version="1.1"
   id="svg1"
   sodipodi:docname="curso de membresia.svg"
   xml:space="preserve"
   inkscape:version="1.4.2 (f4327f4, 2025-05-13)"
   inkscape:export-filename="curso de membresia.jpg"
   inkscape:export-xdpi="96"
   inkscape:export-ydpi="96"
   xmlns:inkscape="http://www.inkscape.org/namespaces/inkscape"
   xmlns:sodipodi="http://sodipodi.sourceforge.net/DTD/sodipodi-0.dtd"
   xmlns="http://www.w3.org/2000/svg"
   xmlns:svg="http://www.w3.org/2000/svg"><sodipodi:namedview
     id="namedview1"
     pagecolor="#ffffff"
     bordercolor="#000000"
     borderopacity="0.25"
     inkscape:showpageshadow="2"
     inkscape:pageopacity="0.0"
     inkscape:pagecheckerboard="true"
     inkscape:deskcolor="#d1d1d1"
     inkscape:document-units="mm"
     inkscape:clip-to-page="true"
     showguides="true"
     inkscape:zoom="0.5175651"
     inkscape:cx="1092.6162"
     inkscape:cy="652.09188"
     inkscape:window-width="1920"
     inkscape:window-height="1129"
     inkscape:window-x="-8"
     inkscape:window-y="1072"
     inkscape:window-maximized="1"
     inkscape:current-layer="layer2"><sodipodi:guide
       position="254,-6.0159284e-14"
       orientation="1,0"
       id="guide1"
       inkscape:locked="false" /><sodipodi:guide
       position="507.99999,142.875"
       orientation="0,-1"
       id="guide2"
       inkscape:locked="false" /><sodipodi:guide
       position="254,195.79167"
       orientation="0,-1"
       id="guide3"
       inkscape:locked="false" /><sodipodi:guide
       position="254,89.958328"
       orientation="0,-1"
       id="guide4"
       inkscape:locked="false" /></sodipodi:namedview><defs
     id="defs1" /><g
     inkscape:groupmode="layer"
     id="layer2"
     inkscape:label="Fondo"><rect
       style="fill:#1c2a3a;stroke-width:0.627822;fill-opacity:1"
       id="rect1"
       width="508"
       height="285.75"
       x="-3.402118e-14"
       y="-4.5769806e-15" /><rect
       style="fill:none;stroke-width:2.47474"
       id="rect2"
       width="508"
       height="105.83334"
       x="-7.4370137e-14"
       y="89.958328"
       inkscape:export-filename="membresiabanner.png"
       inkscape:export-xdpi="96"
       inkscape:export-ydpi="96" /></g><g
     inkscape:label="wide"
     inkscape:groupmode="layer"
     id="layer1"
     style="display:none"><text
       xml:space="preserve"
       style="font-size:15.5222px;text-align:start;writing-mode:lr-tb;direction:ltr;text-anchor:start;fill:#f1d04b;fill-opacity:1;stroke:none;stroke-width:4.65044;stroke-dasharray:none"
       x="155.26782"
       y="269.78812"
       id="text2-8-2"><tspan
         sodipodi:role="line"
         id="tspan2-2-16"
         style="font-style:normal;font-variant:normal;font-weight:500;font-stretch:normal;font-size:15.5222px;font-family:Montserrat;-inkscape-font-specification:'Montserrat Medium';text-align:end;text-anchor:end;fill:#f1d04b;fill-opacity:1;stroke:none;stroke-width:4.65044;stroke-dasharray:none"
         x="155.26784"
         y="269.78812">DOMINGOS 10 AM</tspan></text><text
       xml:space="preserve"
       style="font-size:15.5222px;text-align:start;writing-mode:lr-tb;direction:ltr;text-anchor:start;fill:#f1d04b;fill-opacity:1;stroke:none;stroke-width:4.65044;stroke-dasharray:none"
       x="338.89679"
       y="269.78812"
       id="text2-8-6"><tspan
         sodipodi:role="line"
         id="tspan2-2-1"
         style="font-style:normal;font-variant:normal;font-weight:500;font-stretch:normal;font-size:15.5222px;font-family:Montserrat;-inkscape-font-specification:'Montserrat Medium';text-align:end;text-anchor:end;fill:#f1d04b;fill-opacity:1;stroke:none;stroke-width:4.65044;stroke-dasharray:none"
         x="338.89679"
         y="269.78812">MIERCOLES 7PM</tspan></text><text
       xml:space="preserve"
       style="font-size:19.7556px;text-align:start;writing-mode:lr-tb;direction:ltr;text-anchor:start;fill:#1e2f23;fill-opacity:1;stroke-width:2.49031"
       x="164.97565"
       y="91.037857"
       id="text2"><tspan
         sodipodi:role="line"
         id="tspan2"
         style="font-style:normal;font-variant:normal;font-weight:600;font-stretch:normal;font-size:19.7556px;font-family:Montserrat;-inkscape-font-specification:'Montserrat Semi-Bold';fill:#f1d04b;fill-opacity:1;stroke-width:2.49031"
         x="164.97565"
         y="91.037857">Curso de</tspan></text><text
       xml:space="preserve"
       style="font-size:29.6333px;text-align:start;writing-mode:lr-tb;direction:ltr;text-anchor:start;fill:#1e2f23;fill-opacity:1;stroke-width:2.47474;stroke-dasharray:none"
       x="266.04941"
       y="130.52654"
       id="text2-8"><tspan
         sodipodi:role="line"
         id="tspan2-2"
         style="font-style:normal;font-variant:normal;font-weight:normal;font-stretch:normal;font-size:29.6333px;font-family:Montserrat;-inkscape-font-specification:Montserrat;text-align:end;text-anchor:end;fill:#f1d04b;fill-opacity:1;stroke-width:2.47474;stroke-dasharray:none"
         x="266.04941"
         y="130.52654">MEMBRESÍA</tspan></text><path
       style="fill:#f1d04b;fill-opacity:0.988235;stroke-width:0.993664"
       d="m 354.83397,158.1955 c -3.52437,-0.37165 -4.96506,-0.92626 -9.72756,-3.74467 l -2.49761,-1.47808 -30.09279,-0.0722 -30.0928,-0.0722 -0.6016,-0.56517 c -0.87974,-0.82647 -0.83055,-2.35848 0.0991,-3.08983 l 0.70079,-0.55123 30.38796,0.0721 30.38796,0.0721 2.10324,0.99741 c 1.1568,0.54857 2.88312,1.46773 3.83629,2.04255 2.81363,1.69684 7.12874,2.27713 10.88651,1.464 1.74401,-0.37737 2.53842,-0.74569 4.89904,-2.27144 0.87833,-0.56769 2.2649,-1.30225 3.08128,-1.63235 l 1.48433,-0.60017 29.83993,-0.0754 c 16.41196,-0.0415 30.10914,-0.009 30.43816,0.0725 1.66295,0.41104 2.22723,2.52362 0.94376,3.5332 -0.69125,0.54375 -0.75537,0.54492 -30.16856,0.55643 -24.09744,0.01 -29.65792,0.0765 -30.47366,0.36748 -0.54879,0.19576 -2.0868,1.07107 -3.41779,1.94513 -3.00532,1.97357 -5.50394,2.83299 -8.72976,3.00264 -1.30137,0.0684 -2.78023,0.0808 -3.28633,0.0274 z m -0.27918,-8.65498 c -3.59228,-3.19045 -9.56627,-5.9402 -16.21329,-7.46276 -11.31552,-2.5919 -32.33528,-2.25705 -50.5488,0.80524 -1.80749,0.30391 -3.75495,0.71152 -4.32769,0.90582 -0.57275,0.1943 -1.08232,0.31232 -1.13239,0.26225 -0.0501,-0.0501 0.75192,-4.4518 1.78217,-9.78164 1.03026,-5.32984 2.22568,-11.64271 2.65649,-14.02858 0.82952,-4.59396 2.50059,-13.35352 4.02733,-21.110664 0.5065,-2.573415 1.07374,-4.9987 1.26054,-5.38952 0.41283,-0.863744 0.74635,-0.941064 6.51273,-1.509801 2.38588,-0.235317 6.5988,-0.706248 9.36203,-1.046513 4.47321,-0.550818 9.24278,-0.936306 15.74558,-1.272592 3.35094,-0.173286 9.76442,0.277462 12.74977,0.896095 2.97873,0.617245 6.46233,1.76349 8.5457,2.811884 1.81326,0.912474 5.04938,3.172682 5.66728,3.958236 0.78905,1.003094 0.66838,2.239938 -0.29787,3.052955 -1.19685,1.00708 -1.54164,0.92402 -4.60837,-1.110227 -4.01452,-2.662955 -7.63194,-3.927096 -12.98622,-4.538203 -3.71275,-0.423747 -13.22379,-0.16317 -19.4551,0.533017 -7.57047,0.845794 -14.46396,1.558771 -15.8924,1.643681 l -1.30105,0.0774 -0.33907,1.971778 c -2.121,12.334514 -6.59171,36.091254 -7.16498,38.073734 -0.24649,0.85243 -0.236,0.86908 0.45752,0.72624 7.1157,-1.46549 19.56888,-2.52014 29.71621,-2.51661 11.17793,0.004 18.43955,0.97263 25.84154,3.44745 3.09641,1.03528 8.94394,3.77178 10.82473,5.06573 0.54867,0.37747 1.06827,0.68632 1.15468,0.68632 0.0865,0 0.88482,-0.45961 1.77427,-1.02135 5.44134,-3.43652 12.56494,-5.98744 20.78673,-7.44361 3.21924,-0.57017 4.07451,-0.60503 14.72278,-0.60007 8.93503,0.004 12.24195,0.10294 15.77441,0.47122 5.28366,0.55083 13.49339,1.65606 14.13756,1.90326 0.57558,0.22087 0.5789,0.2774 -0.21093,-3.59239 -0.36559,-1.79123 -1.49536,-7.69332 -2.51057,-13.11578 -2.50795,-13.39526 -4.17193,-22.024834 -4.46628,-23.162658 l -0.245,-0.947044 -2.56368,-0.17619 c -1.41001,-0.0969 -5.69881,-0.525227 -9.53068,-0.951864 -9.41297,-1.048024 -13.02946,-1.316144 -17.71866,-1.313584 -8.55677,0.005 -13.31251,1.185384 -18.39487,4.567036 -3.28083,2.182964 -3.79932,2.297884 -5.09714,1.129684 -0.7012,-0.631167 -0.78334,-1.890301 -0.17955,-2.752325 0.86539,-1.235484 6.39504,-4.525566 9.11726,-5.42467 8.36966,-2.764375 15.3501,-2.956383 33.32458,-0.91662 3.83186,0.434843 8.44588,0.90799 10.25337,1.05145 4.15109,0.329437 4.37787,0.381747 4.86265,1.121604 0.37308,0.569387 1.37205,4.794103 1.95191,8.254871 0.13927,0.83117 0.78375,4.29143 1.43217,7.6895 0.64842,3.39807 2.02372,10.61486 3.05621,16.03733 1.0325,5.42245 2.22509,11.68217 2.65022,13.91048 0.42512,2.22833 0.72282,4.10162 0.66156,4.16288 -0.0613,0.0613 -2.45774,-0.25004 -5.32552,-0.69177 -12.29522,-1.8939 -19.7057,-2.49671 -30.84757,-2.5093 -9.08531,-0.01 -11.96959,0.19021 -17.30908,1.20312 -6.05227,1.14811 -12.4738,3.76784 -16.26587,6.63581 -3.22545,1.82344 -2.1217,1.60189 -4.12397,2.41367 -0.21128,0.0859 -0.95285,-0.37236 -1.75342,-1.08337 z m -1.33924,-13.88031 c -1.72181,-0.6354 -3.29165,-1.70782 -4.56959,-3.12171 -3.63834,-4.02544 -4.53974,-10.78469 -2.1182,-15.88375 1.21607,-2.5607 3.55933,-4.96064 5.88558,-6.02796 l 1.65445,-0.75907 -0.084,-18.803567 c -0.0933,-20.901222 -0.007,-19.858268 -1.91559,-23.114892 -1.65371,-2.821602 -3.09581,-3.707727 -8.80214,-5.408602 -4.34138,-1.294028 -5.6683,-1.782761 -7.94997,-2.928118 -5.97132,-2.997487 -10.97479,-8.323108 -13.23277,-14.084789 -1.29331,-3.300088 -2.37164,-8.591635 -2.57592,-12.64035 -0.1017,-2.014981 -0.0943,-2.042844 0.58859,-2.23471 0.38033,-0.106863 2.82108,-0.189442 5.42384,-0.18351 4.0544,0.009 5.08836,0.09887 7.21763,0.625979 9.88441,2.446777 16.84079,9.062901 20.61638,19.60797 0.74324,2.075824 2.14228,7.314242 2.40428,9.002288 0.17745,1.143269 0.65327,1.809562 0.65327,0.914756 0,-1.136135 1.94015,-6.499753 3.36002,-9.288939 6.69058,-13.142894 16.35119,-19.206699 30.68643,-19.261381 2.31357,-0.009 4.54897,0.07522 4.96751,0.1867 l 0.76101,0.202747 -0.14628,3.074605 c -0.44215,9.293252 -3.85034,17.121952 -9.86786,22.666717 -4.621,4.257968 -8.86184,6.374649 -18.45583,9.211664 -4.15021,1.227245 -5.95262,2.459075 -7.20007,4.920783 -1.14493,2.259391 -1.21294,3.436231 -1.21294,20.987318 v 16.625301 l 0.77593,0.17043 c 1.10783,0.24332 3.65631,1.96073 4.80312,3.23679 5.66314,6.30139 3.79747,18.11155 -3.42327,21.67011 -1.59446,0.7858 -1.98775,0.8665 -4.51455,0.92633 -1.82461,0.0432 -3.09548,-0.0554 -3.72906,-0.28914 z m 1.58216,-5.98977 c -0.5121,-1.45687 -0.58825,-2.20205 -0.58751,-5.74889 8.6e-4,-4.21208 0.391,-6.5718 1.35705,-8.20776 0.63715,-1.07898 0.18158,-1.19519 -1.41284,-0.36038 -1.55216,0.81266 -2.43358,1.71213 -3.34235,3.41082 -0.49785,0.93064 -0.57788,1.4874 -0.5712,3.97423 0.009,3.31667 0.41759,4.54936 2.14046,6.45637 0.91129,1.0087 2.73289,2.39044 2.92586,2.21938 0.0434,-0.0385 -0.18589,-0.82313 -0.50947,-1.74377 z m 9.36946,-66.35616 c 8.64448,-2.563586 11.37488,-3.657213 14.88691,-5.962712 2.59506,-1.703567 5.40856,-4.236069 6.80281,-6.123395 1.42099,-1.923534 3.28986,-5.496611 3.91912,-7.49297 0.46131,-1.463549 1.33911,-5.820736 1.33911,-6.647066 0,-0.460474 -5.18467,0.02017 -8.01866,0.743389 -6.32125,1.613115 -11.0274,4.518766 -14.64789,9.043803 -3.04892,3.810691 -5.61575,9.065882 -6.91047,14.148125 -0.78456,3.079693 -0.79995,3.324343 -0.19719,3.136163 0.25305,-0.07899 1.52486,-0.459407 2.82626,-0.845337 z M 350.3627,59.049531 c -0.006,-1.484555 -1.80045,-7.321415 -3.0109,-9.793284 -3.07369,-6.276856 -7.90321,-10.600685 -14.2701,-12.775875 -2.54435,-0.869257 -7.84086,-1.639555 -8.27794,-1.203903 -0.26407,0.263201 0.92877,5.921601 1.60416,7.609548 1.38446,3.460057 2.89602,5.783035 5.32317,8.180686 2.86674,2.831922 5.76902,4.433312 11.00916,6.074526 1.95208,0.611392 4.3774,1.382276 5.3896,1.713067 2.30172,0.752224 2.23506,0.74639 2.23285,0.195235 z"
       id="path2"
       sodipodi:nodetypes="sscccsscccssssscccscssssssssssssssssssssssssscssscssssscssssscsscssssssssssssssssssssssscsssssssccsssscscssssscssssssssssssssssssssssssssssssssss" /><path
       style="fill:#f1d04b;fill-opacity:0.988235;stroke:#d4aa00;stroke-width:1.99612;stroke-dasharray:none;stroke-opacity:1"
       d="M 75.207065,151.20502 H 271.77272"
       id="path3" /><g
       style="clip-rule:evenodd;fill:#f1d04b;fill-opacity:1;fill-rule:evenodd;stroke-linejoin:round;stroke-miterlimit:2"
       id="g3"
       transform="matrix(0.0195862,0,0,0.0195862,415.02111,245.15885)"><g
         id="logo"
         transform="matrix(1.25,0,0,-1.25,286.036,1693.12)"
         style="fill:#f1d04b;fill-opacity:1">
        <path
   id="path992"
   d="m 607.972,1279.86 c -161.259,0 -315.913,-64.06 -429.94,-178.09 C 64.004,987.746 -0.056,833.091 -0.056,671.833 -0.056,510.574 64.004,355.919 178.032,241.892 292.059,127.865 446.713,63.804 607.972,63.804 c 161.259,0 315.915,64.061 429.938,178.088 114.03,114.027 178.09,268.682 178.09,429.941 0,161.258 -64.06,315.913 -178.09,429.937 -114.023,114.03 -268.679,178.09 -429.938,178.09 z m 160.791,-127.34 80.798,-34.76 V 953.315 h 231.419 l -32.58,-75.75 H 849.561 V 529.108 h 0.02 v -218.68 c 2.286,4.872 4.809,9.983 6.905,13.864 15.215,28.19 33.309,52.2 56.48,74.953 57.112,55.946 151.304,91.14 239.584,82.604 13.86,-1.409 22.61,-2.199 30.32,-2.679 -9.44,-28.173 -20.94,-55.62 -34.41,-82.111 -21.92,0.049 -43.08,-0.023 -49.41,-0.266 -49.77,-1.911 -88.5,-6.949 -126.476,-16.456 -40.4,-10.111 -71.984,-26.472 -99.331,-51.455 -7.709,-7.043 -16.854,-17.048 -23.662,-25.772 v -21.56 c 0.536,0.704 1.068,1.394 1.582,2.047 23.44,29.76 54.671,51.769 91.346,64.372 25.803,8.867 63.371,16.223 100.961,19.769 28.04,2.643 45.23,3.28 90.83,3.086 -9.93,-17.364 -20.73,-34.265 -32.38,-50.63 -36.98,-0.976 -73.78,-4.543 -109.914,-10.76 -47.413,-8.158 -101.492,-22.679 -141.478,-37.986 -0.322,-0.124 -0.64,-0.242 -0.947,-0.355 v -25.85 c 0.509,0.143 0.994,0.29 1.427,0.447 73.762,26.699 142.236,40.81 222.692,45.896 1.7,0.108 4.07,0.204 6.79,0.292 -13.64,-16.961 -28.24,-33.257 -43.77,-48.791 -4.58,-4.574 -9.22,-9.057 -13.92,-13.468 -65.805,-8.355 -130.404,-25.922 -192.61,-52.614 -5.986,-2.568 -13.329,-5.799 -16.322,-7.18 l -3.824,-1.764 v -0.457 l -0.368,-0.168 -0.495,0.228 -0.495,-0.228 -0.368,0.168 0.003,0.457 -3.826,1.764 c -2.994,1.381 -10.342,4.612 -16.33,7.18 -88.695,38.038 -182.249,57.581 -277.222,58.275 -3.109,0.022 -6.221,0.027 -9.333,0.011 -46.683,-0.265 -93.681,-5.082 -140.585,-14.484 C 321.38,212.858 280.8,201.111 244.638,187.28 l -49.345,40.992 1.049,0.47 h -0.001 c 0.132,0.059 0.266,0.116 0.398,0.174 l 0.991,0.442 0.015,-0.009 c 84.6,37.23 179.474,58.737 276.701,62.704 14.666,0.599 57.755,0.309 70.092,-0.47 80.491,-5.086 149.001,-19.197 222.799,-45.897 0.434,-0.157 0.918,-0.306 1.428,-0.447 v 25.848 c -0.308,0.113 -0.625,0.231 -0.948,0.355 -40.005,15.307 -94.112,29.829 -141.547,37.986 -108.772,18.706 -223.636,13.585 -330.958,-14.747 -5.49,-1.448 -10.112,-2.496 -10.277,-2.326 -0.33,0.341 -42.984,101.872 -43.379,103.258 -0.038,0.141 -0.006,0.211 0.087,0.211 0.289,0 1.188,-0.639 2.651,-1.879 13.831,-11.731 34.016,-20.267 57.045,-24.121 13.063,-2.187 18.289,-2.581 37.962,-2.843 19.046,-0.253 26.448,-0.021 54.135,1.685 26.554,1.636 32.798,1.801 78.714,2.093 54.659,0.349 72.192,-0.168 102.528,-3.027 37.615,-3.546 75.198,-10.901 101.013,-19.769 36.692,-12.603 67.938,-34.611 91.39,-64.372 0.514,-0.651 1.048,-1.342 1.584,-2.047 v 21.56 c -6.811,8.725 -15.962,18.73 -23.675,25.774 -27.361,24.983 -58.959,41.346 -99.379,51.457 -37.998,9.505 -76.738,14.543 -126.535,16.454 -13.876,0.532 -98.772,0.25 -107.314,-0.355 l -4.068,-0.29 -8.504,8.582 c -20.581,20.768 -38,43.009 -51.84,66.186 -4.262,7.139 -12.694,23.396 -12.694,24.478 0,0.132 0.09,0.198 0.288,0.19 0.592,-0.025 2.166,-0.712 5.271,-2.268 21.626,-10.843 46.804,-15.512 79.73,-14.775 13.462,0.301 22.463,0.958 45.597,3.308 88.333,8.536 182.567,-26.658 239.706,-82.604 23.183,-22.753 41.285,-46.764 56.509,-74.953 2.096,-3.881 4.62,-8.992 6.908,-13.864 V 877.561 H 536.337 l 32.579,75.75 h 199.848 v 199.199 z"
   style="fill:#f1d04b;fill-opacity:1" />
        <g
   id="path1121"
   transform="matrix(0.75,0,0,-0.75,0,1280)"
   style="fill:#f1d04b;fill-opacity:1">
            <path
   d="M 3589.74,283.423 3425.7,659.417 h 46.7 l 46.93,-110.921 h 141.31 l 46.94,110.921 h 46.69 z m -486.48,5.683 c -26.52,0 -50.98,4.407 -73.37,13.215 -22.4,8.813 -42.83,22.11 -61.27,39.898 -19.11,18.612 -33.31,39.322 -42.61,62.129 -9.31,22.812 -13.96,48.135 -13.96,75.967 0,31.953 6.96,61.263 20.88,87.945 13.91,26.678 34.04,49.159 60.4,67.44 15.81,10.87 32.77,19.147 50.89,24.829 18.11,5.682 36.72,8.521 55.83,8.521 22.06,0 43.44,-3.333 64.1,-10.004 20.67,-6.669 39.98,-16.508 57.93,-29.521 V 572.46 c -16.3,18.94 -34.33,33.187 -54.1,42.736 -19.76,9.551 -41.17,14.329 -64.23,14.329 -24.54,0 -47.39,-5.558 -68.55,-16.675 -21.17,-11.116 -39,-26.968 -53.48,-47.554 -8.24,-11.86 -14.42,-24.866 -18.53,-39.031 -4.12,-14.164 -6.18,-29.647 -6.18,-46.446 0,-21.408 3.46,-40.967 10.38,-58.671 6.91,-17.704 17.29,-33.721 31.12,-48.05 13.34,-13.833 29.11,-24.619 47.31,-32.363 18.2,-7.738 36.85,-11.61 55.96,-11.61 23.71,0 45.37,4.49 64.97,13.462 19.6,8.98 38.04,22.853 55.33,41.628 v -56.078 c -19.1,-13.34 -38.45,-23.179 -58.05,-29.52 -19.6,-6.338 -39.86,-9.511 -60.77,-9.511 z M 2138.6,289.6 c -26.18,0 -50.06,3.95 -71.64,11.856 -21.58,7.906 -40.51,19.601 -56.81,35.079 -19.44,18.448 -33.98,39.816 -43.61,64.109 -9.64,24.294 -14.45,51.508 -14.45,81.648 0,36.561 8.07,69.212 24.21,97.95 16.14,28.743 39.03,51.258 68.68,67.564 13.01,6.916 27.21,12.185 42.61,15.809 15.4,3.619 31.58,5.437 48.54,5.437 55.84,0 99.89,-16.468 132.17,-49.408 32.28,-32.936 48.42,-77.898 48.42,-134.884 v -12.104 h -149.21 v 38.538 h 103.26 c -2.64,35.247 -16.02,63.859 -40.14,85.846 -24.13,21.986 -54.31,32.979 -90.54,32.979 -41.18,0 -75.06,-13.834 -101.66,-41.502 -26.6,-27.668 -39.9,-63.075 -39.9,-106.225 0,-45.783 13.1,-82.843 39.28,-111.171 26.19,-28.324 60.28,-42.488 102.28,-42.488 25.69,0 48.25,5.476 67.69,16.425 19.42,10.954 35.65,27.386 48.66,49.288 l 36.07,-28.906 c -16.8,-25.361 -37.96,-44.344 -63.49,-56.942 -25.53,-12.6 -55.67,-18.898 -90.42,-18.898 z m 668.56,8.048 -233.76,361.525 h 44.97 l 71.9,-111.208 116.07,0.104 v 111.104 h 35.75 V 297.648 Z m -415.82,0.102 v 361.665 h 42 V 486.981 h 6.17 l 130.73,170.879 24.36,-37.681 -106.67,-133.198 h 7.66 c 31.95,0 56.2,-7.694 72.75,-23.098 16.55,-15.395 24.83,-37.917 24.83,-67.562 0,-17.127 -2.96,-32.733 -8.89,-46.815 -5.93,-14.08 -14.25,-25.322 -24.95,-33.723 -8.57,-6.585 -18.49,-11.239 -29.77,-13.956 -11.28,-2.718 -29.03,-4.077 -53.24,-4.077 z m 933.17,0 v 361.667 h 42.99 V 297.75 Z m -891.17,36.317 h 32.85 c 32.94,0 55.25,4.655 66.95,13.958 11.69,9.306 17.54,25.566 17.54,48.79 0,21.576 -5.68,36.685 -17.04,45.331 -11.37,8.647 -33.85,12.971 -67.45,12.971 h -32.85 z m 373,34.393 v 142.877 l -92.33,-0.083 z m 783.4,10.073 57.56,133.154 h -115.12 z"
   style="fill:#f1d04b;fill-opacity:1;fill-rule:nonzero"
   id="path1" />
        </g>
        <g
   id="path1103"
   transform="matrix(0.75,0,0,-0.75,0,1280)"
   style="fill:#f1d04b;fill-opacity:1">
            <path
   d="m 1873.44,749.7 -150.25,541.67 h 2294.96 l 0.62,-1.75 149.76,-539.92 z m 1541.18,81.454 256.17,302.626 V 846.473 h 30.64 V 1128.2 l 125.49,-297.046 152.18,375.996 h -35.82 l -46.2,-122.53 h -147.73 l -47.92,122.52 v 0.01 H 3691.4 L 3445.53,922.573 V 1207.7 l 0.02,0.02 h -35.83 l -46.2,-122.53 h -147.73 l -27.96,71.14 38.72,51.39 h -40.02 l -126.98,-172.44 h -19.76 v 133.99 h -32.86 V 846.052 h 66.46 c 39.19,0 68.55,8.154 88.07,24.458 19.51,16.305 29.27,41.005 29.27,74.109 0,28.163 -8.36,50.314 -25.07,66.451 -16.72,16.15 -39.74,24.21 -69.05,24.21 l 69.86,92.71 126.9,-296.267 121.25,299.577 z m -1408.59,6.254 c 18.11,0 33.88,3.827 47.31,11.486 13.42,7.658 24.33,19.145 32.73,34.462 l -25.45,15.317 c -5.27,-10.375 -12.72,-18.282 -22.35,-23.717 -9.64,-5.436 -21.05,-8.15 -34.22,-8.15 -17.79,0 -31.95,5.229 -42.49,15.686 -10.54,10.459 -15.81,24.58 -15.81,42.366 0,25.364 20.91,49 62.75,70.902 7.57,3.951 13.34,7 17.29,9.14 30.8,16.97 51.38,32.98 61.76,48.05 10.38,15.07 15.56,34.63 15.56,58.67 0,32.45 -9.47,58.18 -28.41,77.2 -18.94,19.02 -44.71,28.53 -77.32,28.53 -23.72,0 -44.01,-5.89 -60.9,-17.66 -16.88,-11.77 -30.1,-29.35 -39.65,-52.74 l 28.17,-15.07 c 5.27,17.78 14.36,31.58 27.29,41.38 12.93,9.8 28.45,14.7 46.57,14.7 22.89,0 40.76,-6.76 53.61,-20.26 12.85,-13.5 19.27,-32.2 19.27,-56.08 0,-17.45 -4.33,-31.95 -12.97,-43.48 -8.65,-11.52 -27.22,-24.86 -55.71,-40.02 -36.4,-19.27 -60.61,-36.226 -72.63,-50.887 -12.02,-14.657 -18.03,-32.281 -18.03,-52.871 0,-25.691 8.68,-46.605 26.06,-62.745 17.38,-16.14 39.9,-24.209 67.57,-24.209 z m 311.3,0.492 c 26.7,0 51.71,4.657 75.02,13.958 23.32,9.307 44.05,22.85 62.18,40.638 18.45,18.281 32.5,38.911 42.14,61.883 9.64,22.978 14.46,47.391 14.46,73.241 0,25.54 -4.86,49.78 -14.58,72.76 -9.73,22.97 -23.74,43.44 -42.02,61.39 -18.63,18.12 -39.64,31.91 -63.04,41.38 -23.4,9.47 -48.12,14.2 -74.16,14.2 -26.04,0 -50.72,-4.73 -74.04,-14.2 -23.31,-9.47 -44.2,-23.26 -62.66,-41.38 -18.46,-18.28 -32.51,-38.82 -42.15,-61.64 -9.64,-22.81 -14.46,-46.97 -14.46,-72.51 0,-25.85 4.82,-50.263 14.46,-73.241 9.65,-22.972 23.69,-43.602 42.15,-61.883 18.13,-17.951 38.81,-31.535 62.05,-40.761 23.23,-9.22 48.12,-13.835 74.65,-13.835 z m 218.88,8.152 h 62.74 c 27.51,0 47.35,1.323 59.54,3.954 12.19,2.637 22.56,7.164 31.13,13.586 12.02,9.059 21.16,20.134 27.42,33.229 6.26,13.09 9.39,27.542 9.39,43.354 0,19.268 -5.03,35.658 -15.07,49.162 -10.05,13.503 -23.88,22.393 -41.51,26.673 23.23,3.47 41.42,12.77 54.6,27.92 13.17,15.16 19.77,34.34 19.77,57.56 0,16.97 -2.56,32.03 -7.67,45.21 -5.1,13.18 -12.84,24.54 -23.22,34.09 -10.54,9.88 -23.22,16.84 -38.04,20.88 -14.82,4.03 -40.11,6.05 -75.84,6.05 h -63.24 z m 244.48,0 h 179.1 v 30.881 h -146.25 v 113.144 h 146.25 v 30.883 h -146.25 v 155.88 h 313.32 l 22.26,30.88 h -370.46 z m -463.36,21.246 c -21.43,0 -41.62,3.954 -60.57,11.858 -18.96,7.906 -36.1,19.435 -51.43,34.586 -15.16,15.648 -26.7,33.062 -34.61,52.25 -7.91,19.185 -11.87,39.738 -11.87,61.638 0,21.74 3.96,42.28 11.87,61.63 7.91,19.36 19.45,36.77 34.61,52.25 15.16,15.32 32.14,26.89 50.93,34.71 18.79,7.82 39.15,11.74 61.07,11.74 21.42,0 41.7,-3.96 60.82,-11.86 19.12,-7.91 36.34,-19.43 51.67,-34.59 15,-15.31 26.49,-32.73 34.49,-52.25 7.99,-19.51 11.99,-40.06 11.99,-61.63 0,-21.74 -3.96,-42.285 -11.87,-61.638 -7.91,-19.353 -19.45,-36.768 -34.61,-52.25 -15,-15.151 -32.1,-26.68 -51.3,-34.586 -19.2,-7.904 -39.6,-11.858 -61.19,-11.858 z m 722.46,7.41 v 133.652 h 33.1 c 30.64,0 52,-4.9 64.11,-14.702 12.11,-9.796 18.16,-26.47 18.16,-50.025 0,-24.866 -6.26,-42.571 -18.78,-53.112 -12.51,-10.539 -33.68,-15.813 -63.49,-15.813 z m -470.73,0.002 v 132.17 h 41.01 c 30.14,0 51.42,-4.95 63.86,-14.828 12.43,-9.88 18.65,-26.346 18.65,-49.406 0,-24.866 -6.05,-42.407 -18.15,-52.621 -12.11,-10.207 -33.56,-15.315 -64.36,-15.315 z m 1255.64,24.384 -64.23,157.366 h 125.99 z m -533.56,0.566 -64.23,157.37 h 125.99 z m -722.08,135.63 v 144.02 h 42 c 23.87,0 40.35,-0.99 49.41,-2.96 9.05,-1.98 16.71,-5.35 22.97,-10.13 7.74,-5.93 13.92,-14.13 18.53,-24.59 4.61,-10.45 6.92,-21.61 6.92,-33.47 0,-14.49 -2.56,-27.21 -7.66,-38.17 -5.11,-10.95 -12.19,-19.14 -21.25,-24.58 -6.26,-3.62 -13.63,-6.21 -22.11,-7.78 -8.48,-1.56 -21.7,-2.34 -39.65,-2.34 z"
   style="fill:#f1d04b;fill-opacity:1;fill-rule:nonzero"
   id="path2-8" />
        </g>
        <g
   id="path32"
   transform="matrix(0.75,0,0,-0.75,0,1280)"
   style="fill:#f1d04b;fill-opacity:1">
            <path
   d="m 2861.02,1361.64 c -12.53,0 -24.38,2.24 -35.57,6.74 -11.19,4.49 -21.19,11.03 -30.02,19.61 -8.82,8.67 -15.52,18.48 -20.09,29.43 -4.57,10.95 -6.85,22.61 -6.85,34.98 0,12.45 2.28,24.11 6.85,34.98 4.57,10.87 11.27,20.61 20.09,29.19 8.67,8.51 18.66,15.07 29.96,19.68 11.31,4.61 23.18,6.91 35.63,6.91 12.29,0 24.03,-2.28 35.22,-6.85 11.19,-4.57 21.23,-11.15 30.14,-19.74 8.82,-8.58 15.53,-18.36 20.15,-29.31 4.6,-10.95 6.91,-22.57 6.91,-34.86 0,-12.21 -2.31,-23.82 -6.91,-34.8 -4.62,-10.99 -11.33,-20.86 -20.15,-29.61 -8.83,-8.58 -18.82,-15.12 -29.96,-19.61 -11.15,-4.5 -22.95,-6.74 -35.4,-6.74 z m 645.15,0.83 -83.79,179.87 h 29.55 l 20.08,-44.56 h 68.55 l 19.62,44.56 h 29.66 z m 357.79,0 -83.79,179.87 h 29.54 l 20.09,-44.56 h 68.55 l 19.62,44.56 h 29.65 z m -849.21,3.42 v 173.02 h 26.35 v -77.41 h 3.19 l 57.55,77.41 h 31.8 l -59.56,-78.71 c 13.07,-1.58 22.96,-6.28 29.66,-14.12 6.69,-7.84 10.04,-18.69 10.04,-32.56 0,-7.88 -1.46,-15.13 -4.37,-21.74 -2.92,-6.62 -7.05,-12.02 -12.41,-16.2 -4.49,-3.46 -9.91,-5.94 -16.25,-7.44 -6.34,-1.5 -15.26,-2.25 -26.77,-2.25 z m 161.2,0 v 173.02 h 28.12 v -173.02 z m 98.5,0 v 23.88 h 73.39 l -88.17,149.13 h 132.48 v -25.17 h -88.4 l 87.34,-147.84 z m 360.74,0 v 173.01 h 43.85 c 16.54,0 28.32,-0.98 35.33,-2.95 7.01,-1.97 12.88,-5.36 17.61,-10.16 4.49,-4.41 7.96,-9.77 10.4,-16.08 2.44,-6.3 3.66,-12.95 3.66,-19.97 0,-11.58 -2.89,-21.17 -8.68,-28.77 -5.8,-7.6 -13.74,-12.19 -23.81,-13.77 8.11,-2.44 14.29,-6.75 18.55,-12.94 4.25,-6.18 6.38,-13.89 6.38,-23.11 0,-7.72 -1.48,-14.77 -4.43,-21.15 -2.96,-6.38 -7.12,-11.54 -12.47,-15.48 -4.18,-3.07 -9.24,-5.28 -15.19,-6.62 -5.95,-1.34 -15.14,-2.01 -27.59,-2.01 z m -774.17,21.63 c 8.51,0 16.61,1.63 24.29,4.9 7.68,3.27 14.43,7.94 20.27,14.01 5.98,6.14 10.58,13.15 13.77,21.03 3.18,7.88 4.78,16.19 4.78,24.94 0,8.67 -1.59,16.92 -4.78,24.76 -3.19,7.84 -7.79,14.83 -13.77,20.97 -6.07,6.15 -12.9,10.84 -20.51,14.07 -7.6,3.23 -15.62,4.84 -24.04,4.84 -8.59,0 -16.71,-1.61 -24.35,-4.84 -7.64,-3.23 -14.46,-7.92 -20.44,-14.07 -5.99,-6.14 -10.56,-13.11 -13.71,-20.92 -3.15,-7.79 -4.73,-16.07 -4.73,-24.81 0,-8.82 1.58,-17.18 4.73,-25.06 3.15,-7.87 7.72,-14.85 13.71,-20.91 5.98,-6.15 12.82,-10.84 20.5,-14.06 7.68,-3.24 15.78,-4.85 24.29,-4.85 z m 801.7,1.77 h 10.76 c 14.26,0 23.95,1.91 29.07,5.73 5.12,3.83 7.69,10.46 7.69,19.92 0,8.67 -2.79,14.83 -8.34,18.49 -5.55,3.66 -15.02,5.5 -28.42,5.5 h -10.76 z m -619.84,0.71 h 5.08 c 14.18,0 23.89,1.95 29.13,5.85 5.24,3.9 7.86,10.62 7.86,20.15 0,8.82 -2.45,14.97 -7.33,18.43 -4.89,3.47 -14.77,5.2 -29.66,5.2 h -5.08 z m 463.52,25.29 c 1.11,4.02 2.21,7.66 3.31,10.93 1.11,3.27 2.17,6.17 3.19,8.69 l 17.73,39.47 h -48.22 l 17.73,-39.47 c 1.1,-2.76 2.19,-5.77 3.25,-9.04 1.06,-3.27 2.07,-6.8 3.01,-10.58 z m 357.79,0 c 1.11,4.02 2.21,7.66 3.31,10.93 1.11,3.27 2.17,6.17 3.19,8.69 l 17.73,39.47 h -48.22 l 17.73,-39.47 c 1.1,-2.76 2.19,-5.77 3.25,-9.04 1.06,-3.27 2.07,-6.8 3.01,-10.58 z m -201.47,44.91 h 18.21 c 5.67,0 10.22,0.32 13.65,0.95 3.42,0.63 6.48,1.61 9.16,2.95 4.25,2.28 7.52,5.48 9.81,9.57 2.28,4.1 3.42,8.91 3.42,14.42 0,4.65 -0.94,8.9 -2.84,12.76 -1.89,3.86 -4.56,6.94 -8.03,9.22 -2.84,1.97 -6.7,3.35 -11.58,4.14 -4.89,0.78 -12.25,1.18 -22.1,1.18 h -9.7 z"
   style="fill:#f1d04b;fill-opacity:1;fill-rule:nonzero"
   id="path3-5" />
        </g>
        <g
   id="path204"
   transform="matrix(0.75,0,0,-0.75,0,1280)"
   style="fill:#f1d04b;fill-opacity:1">
            <path
   d="m 2595.44,94.396 -52.66,113.062 h 18.57 l 12.62,-28.006 h 43.09 l 12.33,28.006 h 18.65 z m 670.25,0 -52.67,113.062 h 18.58 l 12.62,-28.006 h 43.09 l 12.33,28.006 h 18.64 z m 243.31,0 -52.67,113.062 h 18.58 l 12.62,-28.006 h 43.09 l 12.33,28.006 h 18.65 z m -170.27,0.002 V 207.456 H 3355 v -75.621 c 1.58,2.229 3.25,4.359 5.01,6.39 1.76,2.031 3.58,3.962 5.46,5.794 l 70.5,67.673 V 98.706 h -16.35 v 75.398 c -2.13,-2.675 -4.16,-5.078 -6.09,-7.208 -1.93,-2.128 -3.83,-4.134 -5.72,-6.017 z m -561.03,1.708 c -8.13,0 -15.68,1.373 -22.66,4.121 -6.98,2.749 -13.17,6.797 -18.57,12.146 -5.4,5.301 -9.52,11.451 -12.37,18.458 -2.85,7.009 -4.27,14.5 -4.27,22.473 0,7.975 1.42,15.488 4.27,22.544 2.85,7.058 6.92,13.188 12.22,18.387 5.35,5.301 11.55,9.312 18.61,12.034 7.05,2.723 14.74,4.085 23.06,4.085 6.54,0 12.61,-0.842 18.2,-2.525 5.6,-1.684 10.77,-4.234 15.53,-7.652 v -19.983 c -5.35,4.605 -10.94,8.049 -16.75,10.325 -5.82,2.28 -11.95,3.419 -18.39,3.419 -11.04,0 -20.19,-3.814 -27.45,-11.44 -7.25,-7.627 -10.88,-17.309 -10.88,-29.048 0,-12.133 3.73,-22.009 11.18,-29.635 7.46,-7.628 17.12,-11.442 29.01,-11.442 6.14,0 11.99,1.065 17.57,3.196 5.57,2.129 10.85,5.321 15.86,9.581 l 0.96,-17.829 c -5.44,-3.76 -11.06,-6.573 -16.86,-8.431 -5.79,-1.856 -11.89,-2.784 -18.27,-2.784 z m -619.28,0.148 c -8.12,0 -15.74,1.362 -22.88,4.086 -7.13,2.722 -13.34,6.685 -18.64,11.885 -5.5,5.301 -9.65,11.415 -12.44,18.348 -2.8,6.935 -4.2,14.511 -4.2,22.733 0,8.071 1.37,15.646 4.12,22.727 2.75,7.083 6.7,13.25 11.85,18.498 5.25,5.301 11.37,9.26 18.35,11.886 6.98,2.624 14.93,3.937 23.84,3.937 15.95,0 28.31,-4.235 37.07,-12.704 8.77,-8.468 13.15,-20.352 13.15,-35.656 0,-1.236 -0.07,-3.614 -0.22,-7.129 -0.05,-1.337 -0.08,-2.379 -0.08,-3.121 h -43.08 v 14.931 h 26.15 v 1.558 c 0,8.126 -2.9,14.537 -8.69,19.242 -5.8,4.705 -13.75,7.056 -23.85,7.056 -11.89,0 -21.55,-3.825 -29.01,-11.475 -7.45,-7.653 -11.18,-17.618 -11.18,-29.902 0,-12.082 3.73,-21.901 11.18,-29.454 7.46,-7.552 17.07,-11.325 28.86,-11.325 5.69,0 10.85,1.037 15.45,3.119 4.61,2.079 8.74,5.249 12.41,9.508 l 12.93,-9.731 c -5.31,-6.439 -11.33,-11.219 -18.1,-14.338 -6.75,-3.12 -14.42,-4.679 -22.99,-4.679 z m 281.36,0.002 c -9.75,0 -17.64,2.745 -23.65,8.242 -6.02,5.497 -9.03,12.678 -9.03,21.544 0,6.832 1.99,12.615 5.98,17.346 3.99,4.728 11.97,10.018 23.96,15.86 0.79,0.346 1.93,0.89 3.42,1.633 10.59,5.002 15.89,10.699 15.89,17.086 0,4.904 -1.55,8.814 -4.64,11.735 -3.1,2.924 -7.27,4.384 -12.52,4.384 -5.55,0 -10.1,-1.274 -13.67,-3.825 -3.56,-2.549 -6.01,-6.251 -7.35,-11.107 l -14.11,6.538 c 1.83,7.924 5.7,14.015 11.62,18.275 5.92,4.259 13.51,6.387 22.77,6.387 11.04,0 19.81,-3.033 26.29,-9.1 6.49,-6.066 9.73,-14.25 9.73,-24.55 0,-7.082 -2,-12.988 -6.01,-17.716 -4.01,-4.729 -11.39,-9.573 -22.14,-14.525 -0.54,-0.246 -1.29,-0.593 -2.22,-1.038 -12.29,-5.646 -18.43,-11.74 -18.43,-18.275 0,-4.16 1.4,-7.478 4.2,-9.954 2.8,-2.476 6.57,-3.715 11.33,-3.715 3.36,0 6.35,0.794 8.95,2.377 2.6,1.588 4.99,4.087 7.17,7.505 l 13.82,-7.132 c -2.09,-5.794 -5.82,-10.24 -11.22,-13.333 -5.4,-3.095 -12.11,-4.642 -20.14,-4.642 z m 582.65,0 c -9.75,0 -17.64,2.745 -23.65,8.242 -6.02,5.497 -9.03,12.678 -9.03,21.544 0,6.832 1.99,12.615 5.98,17.346 3.99,4.728 11.97,10.018 23.96,15.86 0.79,0.346 1.93,0.89 3.41,1.633 10.6,5.002 15.9,10.699 15.9,17.086 0,4.904 -1.55,8.814 -4.64,11.735 -3.1,2.924 -7.27,4.384 -12.52,4.384 -5.55,0 -10.1,-1.274 -13.67,-3.825 -3.56,-2.549 -6.01,-6.251 -7.35,-11.107 l -14.12,6.538 c 1.84,7.924 5.71,14.015 11.63,18.275 5.92,4.259 13.5,6.387 22.77,6.387 11.04,0 19.81,-3.033 26.29,-9.1 6.49,-6.066 9.73,-14.25 9.73,-24.55 0,-7.082 -2,-12.988 -6.01,-17.716 -4.01,-4.729 -11.39,-9.573 -22.14,-14.525 -0.54,-0.246 -1.29,-0.593 -2.23,-1.038 -12.28,-5.646 -18.42,-11.74 -18.42,-18.275 0,-4.16 1.4,-7.478 4.2,-9.954 2.8,-2.476 6.57,-3.715 11.33,-3.715 3.37,0 6.35,0.794 8.95,2.377 2.6,1.588 4.99,4.087 7.17,7.505 l 13.81,-7.132 c -2.08,-5.794 -5.82,-10.24 -11.21,-13.333 -5.4,-3.095 -12.11,-4.642 -20.14,-4.642 z m -970.69,2.448 v 108.75 h 17.68 V 98.704 Z m 452.54,0 v 108.75 h 17.68 V 98.704 Z m 435.39,0 v 108.75 h 17.68 V 98.704 Z m 135.52,0 v 15.006 h 28.9 v 93.748 h 17.68 V 113.71 h 28.75 V 98.704 Z m 99.34,0 v 108.75 h 17.68 V 98.704 Z m -937.13,0.002 v 108.75 h 57.2 v -15.821 h -39.52 V 98.706 Z m 81.73,0 v 108.75 h 60.69 v -15.821 h -43 v -35.137 h 43 v -15.525 h -43 V 113.71 h 43 V 98.706 Z m 524.84,0 v 108.752 h 16.57 v -48.656 h 2 l 36.18,48.656 h 19.98 l -37.44,-49.475 c 8.23,-0.99 14.44,-3.949 18.65,-8.877 4.21,-4.925 6.31,-11.748 6.31,-20.464 0,-4.951 -0.91,-9.508 -2.75,-13.669 -1.83,-4.16 -4.43,-7.55 -7.79,-10.177 -2.83,-2.178 -6.24,-3.741 -10.22,-4.679 -3.99,-0.942 -9.59,-1.411 -16.82,-1.411 z m 17.68,15.154 h 3.2 c 8.91,0 15.01,1.224 18.31,3.678 3.29,2.45 4.94,6.672 4.94,12.664 0,5.545 -1.54,9.408 -4.61,11.59 -3.07,2.177 -9.28,3.266 -18.64,3.266 h -3.2 z m -266.06,13.74 c 0.7,2.527 1.39,4.818 2.08,6.873 0.7,2.055 1.36,3.872 2.01,5.458 l 11.14,24.813 h -30.31 l 11.15,-24.813 c 0.69,-1.732 1.37,-3.624 2.04,-5.681 0.67,-2.054 1.3,-4.272 1.89,-6.65 z m 670.25,0 c 0.69,2.527 1.39,4.818 2.08,6.873 0.69,2.055 1.36,3.872 2.01,5.458 l 11.14,24.813 h -30.31 l 11.14,-24.813 c 0.69,-1.732 1.38,-3.624 2.04,-5.681 0.67,-2.054 1.3,-4.272 1.9,-6.65 z m 243.31,0 c 0.69,2.527 1.39,4.818 2.08,6.873 0.7,2.055 1.36,3.872 2.01,5.458 l 11.14,24.813 h -30.31 l 11.15,-24.813 c 0.68,-1.732 1.37,-3.624 2.03,-5.681 0.68,-2.054 1.31,-4.272 1.9,-6.65 z"
   style="fill:#f1d04b;fill-opacity:1;fill-rule:nonzero"
   id="path4" />
        </g>
    </g></g><text
       xml:space="preserve"
       style="font-style:normal;font-variant:normal;font-weight:bold;font-stretch:normal;font-size:20.5389px;font-family:'Playfair Display';-inkscape-font-specification:'Playfair Display Bold';text-align:end;writing-mode:lr-tb;direction:ltr;text-anchor:end;fill:#1c2a3a;fill-opacity:1;stroke:none;stroke-width:3.27456;stroke-dasharray:none;stroke-opacity:1"
       x="406.28741"
       y="187.78159"
       id="text3"><tspan
         sodipodi:role="line"
         id="tspan3"
         style="font-style:italic;font-variant:normal;font-weight:normal;font-stretch:normal;font-family:'Playfair Display';-inkscape-font-specification:'Playfair Display Italic';fill:#efce4b;fill-opacity:1;stroke-width:3.27456"
         x="406.28741"
         y="187.78159">&quot;Arraigados en Cristo y Su cuerpo&quot;</tspan></text></g><g
     inkscape:label="banner"
     inkscape:groupmode="layer"
     id="g16"
     style="display:inline"
     transform="matrix(0.51135183,0,0,0.51135183,123.24685,82.48002)"><text
       xml:space="preserve"
       style="font-size:19.7556px;text-align:start;writing-mode:lr-tb;direction:ltr;text-anchor:start;fill:#1e2f23;fill-opacity:1;stroke-width:2.49031"
       x="164.97565"
       y="91.037857"
       id="text6"><tspan
         sodipodi:role="line"
         id="tspan6"
         style="font-style:normal;font-variant:normal;font-weight:600;font-stretch:normal;font-size:19.7556px;font-family:Montserrat;-inkscape-font-specification:'Montserrat Semi-Bold';fill:#f1d04b;fill-opacity:1;stroke-width:2.49031"
         x="164.97565"
         y="91.037857">Curso de</tspan></text><text
       xml:space="preserve"
       style="font-size:29.6333px;text-align:start;writing-mode:lr-tb;direction:ltr;text-anchor:start;fill:#1e2f23;fill-opacity:1;stroke-width:2.47474;stroke-dasharray:none"
       x="266.04941"
       y="130.52654"
       id="text7"><tspan
         sodipodi:role="line"
         id="tspan7"
         style="font-style:normal;font-variant:normal;font-weight:normal;font-stretch:normal;font-size:29.6333px;font-family:Montserrat;-inkscape-font-specification:Montserrat;text-align:end;text-anchor:end;fill:#f1d04b;fill-opacity:1;stroke-width:2.47474;stroke-dasharray:none"
         x="266.04941"
         y="130.52654">MEMBRESÍA</tspan></text><path
       style="fill:#f1d04b;fill-opacity:0.988235;stroke-width:0.993664"
       d="m 354.83397,158.1955 c -3.52437,-0.37165 -4.96506,-0.92626 -9.72756,-3.74467 l -2.49761,-1.47808 -30.09279,-0.0722 -30.0928,-0.0722 -0.6016,-0.56517 c -0.87974,-0.82647 -0.83055,-2.35848 0.0991,-3.08983 l 0.70079,-0.55123 30.38796,0.0721 30.38796,0.0721 2.10324,0.99741 c 1.1568,0.54857 2.88312,1.46773 3.83629,2.04255 2.81363,1.69684 7.12874,2.27713 10.88651,1.464 1.74401,-0.37737 2.53842,-0.74569 4.89904,-2.27144 0.87833,-0.56769 2.2649,-1.30225 3.08128,-1.63235 l 1.48433,-0.60017 29.83993,-0.0754 c 16.41196,-0.0415 30.10914,-0.009 30.43816,0.0725 1.66295,0.41104 2.22723,2.52362 0.94376,3.5332 -0.69125,0.54375 -0.75537,0.54492 -30.16856,0.55643 -24.09744,0.01 -29.65792,0.0765 -30.47366,0.36748 -0.54879,0.19576 -2.0868,1.07107 -3.41779,1.94513 -3.00532,1.97357 -5.50394,2.83299 -8.72976,3.00264 -1.30137,0.0684 -2.78023,0.0808 -3.28633,0.0274 z m -0.27918,-8.65498 c -3.59228,-3.19045 -9.56627,-5.9402 -16.21329,-7.46276 -11.31552,-2.5919 -32.33528,-2.25705 -50.5488,0.80524 -1.80749,0.30391 -3.75495,0.71152 -4.32769,0.90582 -0.57275,0.1943 -1.08232,0.31232 -1.13239,0.26225 -0.0501,-0.0501 0.75192,-4.4518 1.78217,-9.78164 1.03026,-5.32984 2.22568,-11.64271 2.65649,-14.02858 0.82952,-4.59396 2.50059,-13.35352 4.02733,-21.110664 0.5065,-2.573415 1.07374,-4.9987 1.26054,-5.38952 0.41283,-0.863744 0.74635,-0.941064 6.51273,-1.509801 2.38588,-0.235317 6.5988,-0.706248 9.36203,-1.046513 4.47321,-0.550818 9.24278,-0.936306 15.74558,-1.272592 3.35094,-0.173286 9.76442,0.277462 12.74977,0.896095 2.97873,0.617245 6.46233,1.76349 8.5457,2.811884 1.81326,0.912474 5.04938,3.172682 5.66728,3.958236 0.78905,1.003094 0.66838,2.239938 -0.29787,3.052955 -1.19685,1.00708 -1.54164,0.92402 -4.60837,-1.110227 -4.01452,-2.662955 -7.63194,-3.927096 -12.98622,-4.538203 -3.71275,-0.423747 -13.22379,-0.16317 -19.4551,0.533017 -7.57047,0.845794 -14.46396,1.558771 -15.8924,1.643681 l -1.30105,0.0774 -0.33907,1.971778 c -2.121,12.334514 -6.59171,36.091254 -7.16498,38.073734 -0.24649,0.85243 -0.236,0.86908 0.45752,0.72624 7.1157,-1.46549 19.56888,-2.52014 29.71621,-2.51661 11.17793,0.004 18.43955,0.97263 25.84154,3.44745 3.09641,1.03528 8.94394,3.77178 10.82473,5.06573 0.54867,0.37747 1.06827,0.68632 1.15468,0.68632 0.0865,0 0.88482,-0.45961 1.77427,-1.02135 5.44134,-3.43652 12.56494,-5.98744 20.78673,-7.44361 3.21924,-0.57017 4.07451,-0.60503 14.72278,-0.60007 8.93503,0.004 12.24195,0.10294 15.77441,0.47122 5.28366,0.55083 13.49339,1.65606 14.13756,1.90326 0.57558,0.22087 0.5789,0.2774 -0.21093,-3.59239 -0.36559,-1.79123 -1.49536,-7.69332 -2.51057,-13.11578 -2.50795,-13.39526 -4.17193,-22.024834 -4.46628,-23.162658 l -0.245,-0.947044 -2.56368,-0.17619 c -1.41001,-0.0969 -5.69881,-0.525227 -9.53068,-0.951864 -9.41297,-1.048024 -13.02946,-1.316144 -17.71866,-1.313584 -8.55677,0.005 -13.31251,1.185384 -18.39487,4.567036 -3.28083,2.182964 -3.79932,2.297884 -5.09714,1.129684 -0.7012,-0.631167 -0.78334,-1.890301 -0.17955,-2.752325 0.86539,-1.235484 6.39504,-4.525566 9.11726,-5.42467 8.36966,-2.764375 15.3501,-2.956383 33.32458,-0.91662 3.83186,0.434843 8.44588,0.90799 10.25337,1.05145 4.15109,0.329437 4.37787,0.381747 4.86265,1.121604 0.37308,0.569387 1.37205,4.794103 1.95191,8.254871 0.13927,0.83117 0.78375,4.29143 1.43217,7.6895 0.64842,3.39807 2.02372,10.61486 3.05621,16.03733 1.0325,5.42245 2.22509,11.68217 2.65022,13.91048 0.42512,2.22833 0.72282,4.10162 0.66156,4.16288 -0.0613,0.0613 -2.45774,-0.25004 -5.32552,-0.69177 -12.29522,-1.8939 -19.7057,-2.49671 -30.84757,-2.5093 -9.08531,-0.01 -11.96959,0.19021 -17.30908,1.20312 -6.05227,1.14811 -12.4738,3.76784 -16.26587,6.63581 -3.22545,1.82344 -2.1217,1.60189 -4.12397,2.41367 -0.21128,0.0859 -0.95285,-0.37236 -1.75342,-1.08337 z m -1.33924,-13.88031 c -1.72181,-0.6354 -3.29165,-1.70782 -4.56959,-3.12171 -3.63834,-4.02544 -4.53974,-10.78469 -2.1182,-15.88375 1.21607,-2.5607 3.55933,-4.96064 5.88558,-6.02796 l 1.65445,-0.75907 -0.084,-18.803567 c -0.0933,-20.901222 -0.007,-19.858268 -1.91559,-23.114892 -1.65371,-2.821602 -3.09581,-3.707727 -8.80214,-5.408602 -4.34138,-1.294028 -5.6683,-1.782761 -7.94997,-2.928118 -5.97132,-2.997487 -10.97479,-8.323108 -13.23277,-14.084789 -1.29331,-3.300088 -2.37164,-8.591635 -2.57592,-12.64035 -0.1017,-2.014981 -0.0943,-2.042844 0.58859,-2.23471 0.38033,-0.106863 2.82108,-0.189442 5.42384,-0.18351 4.0544,0.009 5.08836,0.09887 7.21763,0.625979 9.88441,2.446777 16.84079,9.062901 20.61638,19.60797 0.74324,2.075824 2.14228,7.314242 2.40428,9.002288 0.17745,1.143269 0.65327,1.809562 0.65327,0.914756 0,-1.136135 1.94015,-6.499753 3.36002,-9.288939 6.69058,-13.142894 16.35119,-19.206699 30.68643,-19.261381 2.31357,-0.009 4.54897,0.07522 4.96751,0.1867 l 0.76101,0.202747 -0.14628,3.074605 c -0.44215,9.293252 -3.85034,17.121952 -9.86786,22.666717 -4.621,4.257968 -8.86184,6.374649 -18.45583,9.211664 -4.15021,1.227245 -5.95262,2.459075 -7.20007,4.920783 -1.14493,2.259391 -1.21294,3.436231 -1.21294,20.987318 v 16.625301 l 0.77593,0.17043 c 1.10783,0.24332 3.65631,1.96073 4.80312,3.23679 5.66314,6.30139 3.79747,18.11155 -3.42327,21.67011 -1.59446,0.7858 -1.98775,0.8665 -4.51455,0.92633 -1.82461,0.0432 -3.09548,-0.0554 -3.72906,-0.28914 z m 1.58216,-5.98977 c -0.5121,-1.45687 -0.58825,-2.20205 -0.58751,-5.74889 8.6e-4,-4.21208 0.391,-6.5718 1.35705,-8.20776 0.63715,-1.07898 0.18158,-1.19519 -1.41284,-0.36038 -1.55216,0.81266 -2.43358,1.71213 -3.34235,3.41082 -0.49785,0.93064 -0.57788,1.4874 -0.5712,3.97423 0.009,3.31667 0.41759,4.54936 2.14046,6.45637 0.91129,1.0087 2.73289,2.39044 2.92586,2.21938 0.0434,-0.0385 -0.18589,-0.82313 -0.50947,-1.74377 z m 9.36946,-66.35616 c 8.64448,-2.563586 11.37488,-3.657213 14.88691,-5.962712 2.59506,-1.703567 5.40856,-4.236069 6.80281,-6.123395 1.42099,-1.923534 3.28986,-5.496611 3.91912,-7.49297 0.46131,-1.463549 1.33911,-5.820736 1.33911,-6.647066 0,-0.460474 -5.18467,0.02017 -8.01866,0.743389 -6.32125,1.613115 -11.0274,4.518766 -14.64789,9.043803 -3.04892,3.810691 -5.61575,9.065882 -6.91047,14.148125 -0.78456,3.079693 -0.79995,3.324343 -0.19719,3.136163 0.25305,-0.07899 1.52486,-0.459407 2.82626,-0.845337 z M 350.3627,59.049531 c -0.006,-1.484555 -1.80045,-7.321415 -3.0109,-9.793284 -3.07369,-6.276856 -7.90321,-10.600685 -14.2701,-12.775875 -2.54435,-0.869257 -7.84086,-1.639555 -8.27794,-1.203903 -0.26407,0.263201 0.92877,5.921601 1.60416,7.609548 1.38446,3.460057 2.89602,5.783035 5.32317,8.180686 2.86674,2.831922 5.76902,4.433312 11.00916,6.074526 1.95208,0.611392 4.3774,1.382276 5.3896,1.713067 2.30172,0.752224 2.23506,0.74639 2.23285,0.195235 z"
       id="path7"
       sodipodi:nodetypes="sscccsscccssssscccscssssssssssssssssssssssssscssscssssscssssscsscssssssssssssssssssssssscsssssssccsssscscssssscssssssssssssssssssssssssssssssssss" /><path
       style="fill:#f1d04b;fill-opacity:0.988235;stroke:#d4aa00;stroke-width:1.99612;stroke-dasharray:none;stroke-opacity:1"
       d="M 75.207065,151.20502 H 271.77272"
       id="path8" /><text
       xml:space="preserve"
       style="font-style:normal;font-variant:normal;font-weight:bold;font-stretch:normal;font-size:20.5389px;font-family:'Playfair Display';-inkscape-font-specification:'Playfair Display Bold';text-align:end;writing-mode:lr-tb;direction:ltr;text-anchor:end;fill:#1c2a3a;fill-opacity:1;stroke:none;stroke-width:3.27456;stroke-dasharray:none;stroke-opacity:1"
       x="406.28741"
       y="187.78159"
       id="text15"><tspan
         sodipodi:role="line"
         id="tspan15"
         style="font-style:italic;font-variant:normal;font-weight:normal;font-stretch:normal;font-family:'Playfair Display';-inkscape-font-specification:'Playfair Display Italic';fill:#efce4b;fill-opacity:1;stroke-width:3.27456"
         x="406.28741"
         y="187.78159">&quot;Arraigados en Cristo y Su cuerpo&quot;</tspan></text></g></svg>
