<?xml version="1.0" encoding="UTF-8" standalone="no"?>
<!-- Created with Inkscape (http://www.inkscape.org/) -->

<svg
   width="1920"
   height="1920"
   viewBox="0 0 507.99999 508"
   version="1.1"
   id="svg1"
   inkscape:version="1.4.4 (dcaf3e7d9e, 2026-05-05)"
   sodipodi:docname="Una iglesia formada por el evangelio- logo.svg"
   xml:space="preserve"
   xmlns:inkscape="http://www.inkscape.org/namespaces/inkscape"
   xmlns:sodipodi="http://sodipodi.sourceforge.net/DTD/sodipodi-0.dtd"
   xmlns="http://www.w3.org/2000/svg"
   xmlns:svg="http://www.w3.org/2000/svg"><sodipodi:namedview
     id="namedview1"
     pagecolor="#ffffff"
     bordercolor="#000000"
     borderopacity="0.25"
     inkscape:showpageshadow="2"
     inkscape:pageopacity="0.0"
     inkscape:pagecheckerboard="0"
     inkscape:deskcolor="#d1d1d1"
     inkscape:document-units="px"
     showguides="true"
     showgrid="true"
     inkscape:zoom="0.115665"
     inkscape:cx="2511.5635"
     inkscape:cy="985.60495"
     inkscape:window-width="1656"
     inkscape:window-height="1011"
     inkscape:window-x="20"
     inkscape:window-y="20"
     inkscape:window-maximized="0"
     inkscape:current-layer="layer1"><sodipodi:guide
       position="254,254"
       orientation="-1,0"
       id="guide1"
       inkscape:locked="false"
       inkscape:label=""
       inkscape:color="rgb(0,134,229)" /><inkscape:grid
       id="grid1"
       units="px"
       originx="254"
       originy="254"
       spacingx="1.3229167"
       spacingy="1.3229167"
       empcolor="#0099e5"
       empopacity="0.30196078"
       color="#0099e5"
       opacity="0.14901961"
       empspacing="5"
       enabled="true"
       visible="true"
       dotted="false" /><sodipodi:guide
       position="254.00402,253.99598"
       orientation="0,-1"
       id="guide2"
       inkscape:locked="false" /><sodipodi:guide
       position="254,396.875"
       orientation="0,-1"
       id="guide4"
       inkscape:locked="false" /><sodipodi:guide
       position="254,111.12499"
       orientation="0,-1"
       id="guide5"
       inkscape:locked="false" /></sodipodi:namedview><defs
     id="defs1"><radialGradient
       id="_Radial1"
       cx="0"
       cy="0"
       r="1"
       gradientUnits="userSpaceOnUse"
       gradientTransform="matrix(12436.004,-123.52265,48.045,4837.071,14628.809,5723.508)"><stop
         offset="0"
         style="stop-color:#cd9888;stop-opacity:1"
         id="stop1" /><stop
         offset="1"
         style="stop-color:#015a6c;stop-opacity:1"
         id="stop2" /></radialGradient><radialGradient
       id="_Radial2"
       cx="0"
       cy="0"
       r="1"
       gradientUnits="userSpaceOnUse"
       gradientTransform="matrix(12436.004,-123.52265,48.045,4837.071,8601.31,6722.354)"><stop
         offset="0"
         style="stop-color:#cd9888;stop-opacity:1"
         id="stop3" /><stop
         offset="1"
         style="stop-color:#015a6c;stop-opacity:1"
         id="stop4" /></radialGradient><radialGradient
       id="_Radial2-7"
       cx="0"
       cy="0"
       r="1"
       gradientUnits="userSpaceOnUse"
       gradientTransform="matrix(370.10239,-3.6761026,1.4298459,143.95392,-169.03253,-294.55329)"><stop
         offset="0"
         style="stop-color:#cd9888;stop-opacity:1"
         id="stop3-5" /><stop
         offset="1"
         style="stop-color:#015a6c;stop-opacity:1"
         id="stop4-3" /></radialGradient><radialGradient
       id="_Radial1-6"
       cx="0"
       cy="0"
       r="1"
       gradientUnits="userSpaceOnUse"
       gradientTransform="matrix(12436.004,-123.52265,48.045,4837.071,14628.809,5723.508)"><stop
         offset="0"
         style="stop-color:#cd9888;stop-opacity:1"
         id="stop1-7" /><stop
         offset="1"
         style="stop-color:#015a6c;stop-opacity:1"
         id="stop2-5" /></radialGradient><radialGradient
       id="_Radial2-3"
       cx="0"
       cy="0"
       r="1"
       gradientUnits="userSpaceOnUse"
       gradientTransform="matrix(12436.004,-123.52265,48.045,4837.071,8601.31,6722.354)"><stop
         offset="0"
         style="stop-color:#cd9888;stop-opacity:1"
         id="stop3-56" /><stop
         offset="1"
         style="stop-color:#015a6c;stop-opacity:1"
         id="stop4-2" /></radialGradient></defs><g
     inkscape:label="Capa 1"
     inkscape:groupmode="layer"
     id="layer1"><g
       id="g6"
       transform="matrix(0.00939924,0,0,0.00938428,403.2643,193.93031)"
       style="clip-rule:evenodd;display:none;fill:#2c2c2c;fill-opacity:1;fill-rule:evenodd;stroke-linejoin:round;stroke-miterlimit:2"><path
         id="logo2"
         style="fill:#2c2c2c;fill-opacity:1"
         d="m 4358.3213,388.70921 c -839.891,0 -1645.3639,333.64286 -2239.2549,927.54889 -593.896,593.875 -927.557,1399.4153 -927.557,2239.3003 0,839.891 333.661,1645.3542 927.557,2239.2452 593.891,593.891 1399.3639,927.5488 2239.2549,927.5488 839.89,0 1645.3848,-333.6578 2239.2548,-927.5488 593.906,-593.891 927.557,-1399.3542 927.557,-2239.2452 0,-839.885 -333.651,-1645.4253 -927.557,-2239.3003 -57.1555,-57.1591 -116.2255,-111.8826 -177.1435,-164.1548 -4.2035,13.9102 -8.6409,27.7407 -13.25,41.5205 -24.8522,74.2514 -55.5303,146.5568 -91.7606,215.9729 -15.8097,30.3081 -32.5662,60.1534 -50.3061,89.3737 -24.9386,41.118 -51.4916,81.1897 -78.4006,121.0373 11.5684,-3.4442 23.2556,-6.5022 35.0218,-9.1962 13.3136,-3.0822 26.77,-5.5242 40.2999,-7.434 31.443,-4.4554 63.1657,-6.6111 94.8944,-7.5992 44.3553,-1.3228 88.77,-0.1992 133.0501,2.5881 46.2093,3.094 92.4027,6.243 138.603,9.4715 36.9627,2.6184 73.9544,5.2106 110.8934,8.1499 16.2189,1.3455 32.4423,2.6101 48.4918,5.3966 15.8217,2.7447 31.6124,7.0754 45.5229,15.3086 11.281,6.6345 21.1527,15.8588 28.0945,26.9829 6.5453,10.3256 10.5193,22.3268 12.0405,34.3618 0.7046,5.0143 0.9937,10.0827 0.7697,15.1434 -0.3874,10.1458 -2.9483,20.105 -6.8175,29.4609 -4.4212,10.6555 -10.0964,20.7245 -15.6141,30.8375 -14.6037,26.2614 -28.9304,52.6946 -43.2138,79.1313 -13.9587,25.8969 -29.223,51.142 -47.2273,74.4506 -14.8725,19.3336 -31.6083,37.2192 -49.4814,53.8005 -21.808,20.3734 -45.3641,38.8392 -70.2637,55.2873 -31.7622,21.0221 -65.6857,38.709 -100.8321,53.3599 h 280.9995 l -169.7213,394.5002 h -762.8938 c 12.3243,3.188 24.3819,7.7663 34.9669,14.9231 9.9623,6.6656 18.4451,15.5915 24.2459,26.1018 5.8144,10.4383 8.9307,22.33 9.3465,34.2517 0.2765,6.5955 -0.296,13.2295 -1.8143,19.6589 -0.7886,3.275 -1.7674,6.5098 -3.0239,9.6367 -3.3494,8.5335 -8.4574,16.2219 -14.2396,23.2934 -7.1333,8.6784 -14.9983,16.7813 -22.7615,24.8903 -6.8276,7.1346 -13.7984,14.0605 -20.5623,21.2558 -18.0728,19.2247 -35.9066,38.702 -53.4949,58.3711 -27.4764,31.1136 -56.409,61.0278 -87.857,88.1623 -27.1904,23.5055 -56.311,44.7848 -87.1423,63.272 -10.185,6.1584 -20.597,11.9036 -31.0634,17.5664 -6.4305,1.5931 -12.8672,3.1977 -19.2977,4.7908 V 4298.908 h 0.1099 v 125.3876 c 12.0609,7.5588 24.1156,15.1289 36.1764,22.6877 3.2445,3.1502 6.3999,6.4024 9.6214,9.5816 28.8125,28.7247 57.3076,57.778 84.5583,87.9971 18.9599,20.9711 37.1516,42.5907 55.0344,64.4835 3.5704,-7.2389 7.3327,-14.351 11.3257,-21.366 25.5716,-45.004 59.4223,-84.9594 97.7533,-119.6056 16.7945,-15.1448 34.431,-29.384 52.5603,-42.8972 41.5899,-30.9248 86.0801,-57.7309 131.3457,-82.8758 37.8308,-20.978 76.273,-40.7918 114.9069,-60.2434 22.0821,-11.0617 44.1503,-22.1331 66.4701,-32.7098 14.5052,-6.812 29.1157,-13.5076 44.2034,-18.943 13.3591,-4.7694 27.3424,-8.4151 41.6194,-8.3151 3.3001,0 6.6222,0.1939 9.8963,0.6057 9.8075,1.2213 19.3276,4.3859 27.9295,9.2512 7.0428,4.0019 13.4752,9.1378 19.0778,14.9783 4.3193,4.5586 8.0714,9.6426 11.1059,15.1434 5.5576,9.9904 8.5779,21.2633 9.2365,32.6547 0.8063,13.1738 -1.3683,26.2963 -4.2884,39.0976 -1.4994,6.689 -3.329,13.2889 -5.0031,19.9343 -4.5222,18.4831 -8.7946,37.0731 -12.8102,55.6727 -4.2127,19.9324 -8.7335,39.8071 -13.8548,59.5275 -9.6578,37.3931 -21.4268,74.2485 -36.2864,109.9138 -10.1699,24.4487 -21.7019,48.3644 -34.527,71.532 -16.5315,29.8021 -35.0889,58.4353 -55.2543,85.9046 272.0556,-145.1326 601.8602,-221.7352 917.1659,-191.2478 72.188,7.338 117.7447,11.432 157.9007,13.932 -49.167,146.734 -109.0767,289.6764 -179.2327,427.6504 -114.167,-0.256 -224.3894,0.1107 -257.3584,1.3767 -259.219,9.953 -460.9159,36.2234 -658.7079,85.7394 -210.417,52.662 -374.9239,137.8911 -517.3559,268.0111 -40.151,36.682 -87.7508,88.7604 -123.2088,134.1984 v 112.2816 c 2.792,-3.666 5.5149,-7.2269 8.1919,-10.6279 122.083,-155 284.7755,-269.6621 475.7915,-335.3031 134.391,-46.183 330.0418,-84.5063 525.8228,-102.9753 146.042,-13.766 235.5975,-17.0345 473.0975,-16.0245 -51.719,90.438 -107.9998,178.4269 -168.6768,263.6609 -192.604,5.084 -384.2472,23.6782 -572.4452,56.0582 -246.943,42.49 -528.6285,118.1318 -736.8885,197.8558 -1.677,0.646 -3.2942,1.2282 -4.8932,1.8172 v 134.6388 c 2.651,-0.745 5.1672,-1.4948 7.4222,-2.3128 384.177,-139.058 740.8029,-212.5559 1159.8449,-239.0459 8.855,-0.563 21.1847,-1.0839 35.3517,-1.5419 -71.042,88.339 -147.0595,173.2283 -227.9445,254.1343 -23.854,23.823 -48.0388,47.1814 -72.5178,70.1554 -342.734,43.515 -679.1636,134.9925 -1003.1536,274.0135 -31.177,13.375 -69.4641,30.1975 -85.0531,37.3905 l -19.9025,9.1962 v 2.3679 l -1.9243,0.881 -2.584,-1.1564 -2.584,1.1564 -1.8693,-0.881 v -2.3679 l -19.9576,-9.1962 c -15.594,-7.193 -53.865,-24.0155 -85.053,-37.3905 -461.954,-198.115 -949.1624,-299.8594 -1443.8134,-303.4744 -16.192,-0.114 -32.4487,-0.138 -48.6567,-0.055 -243.141,1.381 -487.9233,26.4177 -732.2153,75.3867 -206.484,41.401 -417.8036,102.5815 -606.1476,174.6175 l -257.0285,-213.4948 5.4979,-2.4229 c 0.687,-0.307 1.3462,-0.6342 2.0342,-0.9362 l 5.1681,-2.2577 0.11,0.055 c 440.625,-193.906 934.7283,-305.9414 1441.1193,-326.6024 76.385,-3.12 300.808,-1.6341 365.063,2.4229 419.223,26.49 776.0296,99.9829 1160.3946,239.0459 2.261,0.818 4.8212,1.6339 7.4772,2.3679 v -134.6388 c -1.605,-0.589 -3.2661,-1.2263 -4.9481,-1.8723 -208.359,-79.724 -490.1614,-155.3168 -737.2184,-197.8008 -566.521,-97.427 -1164.7993,-70.7985 -1723.7683,76.7635 -28.594,7.542 -52.6359,12.9997 -53.4949,12.1147 -1.718,-1.776 -223.9082,-530.5655 -225.9652,-537.7845 -0.062,-0.2294 -0.063,-0.4483 -0.055,-0.6057 0,-0.029 -0.01,-0.1395 0,-0.1652 l 0.055,-0.055 v -0.055 l 0.055,-0.055 0.055,-0.055 0.055,-0.055 h 0.055 c 0.051,-0.011 0.2144,-0.055 0.2749,-0.055 1.505,0 6.1798,3.3439 13.7998,9.8019 72.036,61.099 177.1655,105.5349 297.1085,125.6079 68.037,11.39 95.2419,13.448 197.7059,14.813 99.198,1.318 137.7312,0.1293 281.9342,-8.7557 138.302,-8.521 170.8352,-9.3822 409.9812,-10.9032 284.682,-1.817 376.0146,0.8581 534.0146,15.7491 195.911,18.469 391.6446,56.7874 526.0976,102.9754 191.105,65.641 353.8654,180.243 476.0114,335.248 2.677,3.39 5.4549,7.011 8.2469,10.683 V 5476.021 c -35.474,-45.443 -83.1467,-97.5664 -123.3187,-134.2534 -142.505,-130.12 -307.1098,-215.3501 -517.6308,-268.0111 -197.906,-49.505 -399.6787,-75.7313 -659.0377,-85.6843 -72.271,-2.771 -514.4303,-1.3338 -558.9203,1.8172 l -21.1671,1.5419 -44.3134,-44.7145 c -107.193,-108.167 -197.9207,-224.0055 -270.0037,-344.7195 -22.198,-37.183 -66.0852,-121.8451 -66.0852,-127.4801 0,-0.301 0.088,-0.5501 0.2749,-0.7159 0.2462,-0.1668 0.6941,-0.2963 1.2096,-0.2753 3.083,0.131 11.2627,3.6803 27.4347,11.7843 112.635,56.474 243.8242,80.8227 415.3142,76.9837 70.114,-1.568 116.9659,-4.996 237.4559,-17.236 460.068,-44.459 950.8726,138.8536 1248.4716,430.2386 120.745,118.505 215.0126,243.5521 294.3046,390.3701 10.917,20.213 24.0944,46.8179 36.0114,72.1929 v -725.4529 c -25.4924,3.7377 -51.216,6.0382 -76.9711,6.7732 -44.5242,1.2958 -89.1893,-1.9561 -133.105,-9.3614 -49.1216,-8.2775 -97.2906,-21.7356 -143.8811,-39.3178 -18.4791,-6.9767 -36.7524,-14.558 -54.7044,-22.7978 -24.0245,-11.1093 -47.4496,-23.3923 -70.6485,-36.1239 -35.6293,-19.6331 -70.6335,-40.421 -105.0106,-62.1707 -22.0683,-14.0204 -43.9173,-28.3836 -65.0956,-43.7232 -11.6939,-8.5304 -23.2534,-17.2914 -33.9223,-27.093 -7.757,-7.1736 -15.0313,-15.1513 -20.0674,-24.5048 -1.26,-2.3133 -2.2792,-4.7318 -3.2988,-7.1587 -0.7106,-1.9732 -1.4223,-3.9239 -1.9793,-5.9473 -1.3087,-4.7809 -2.1661,-9.6995 -2.474,-14.6478 -0.6234,-9.6406 0.6921,-19.3814 3.7935,-28.5247 3.8899,-11.419 10.5349,-21.8849 19.1329,-30.3419 5.5533,-5.4885 11.9578,-10.1242 18.8579,-13.7668 6.1804,-3.1554 12.8101,-5.233 19.5177,-6.9384 13.1506,-3.2738 26.5449,-5.5937 39.915,-7.7645 10.2965,-1.5939 20.576,-3.0683 30.8434,-4.8459 21.3336,-3.5906 42.4779,-8.2357 63.4462,-13.5465 28.0156,-7.0945 55.8043,-15.006 83.5687,-23.018 25.3603,-7.3417 50.7389,-14.794 76.1464,-21.9717 -6.777,-3.025 -13.536,-6.0595 -20.2874,-9.1411 -19.1455,-8.7865 -38.2736,-17.7426 -56.9586,-27.4785 -22.6767,-12.0583 -44.9147,-24.872 -66.69,-38.4918 -49.0963,-30.7305 -95.7842,-65.6516 -137.6684,-105.7287 -43.1016,-41.2356 -81.0995,-88.1384 -109.7388,-140.5861 -19.2213,-35.1317 -34.1348,-72.6909 -43.5986,-111.6208 -4.0268,-16.896 -7.4544,-33.9399 -9.7864,-51.1573 -3.9777,-28.9594 -4.5193,-58.2579 -4.5083,-87.4464 0.018,-30.3655 1.3836,-60.761 4.5083,-90.9707 4.0039,-39.2077 10.9534,-78.0661 19.2428,-116.5769 2.9562,-13.9454 6.2707,-27.7976 9.2366,-41.7408 -13.7127,-7.1952 -27.5867,-14.0415 -41.5645,-20.7052 -14.0867,-6.662 -28.2885,-13.1852 -42.3341,-19.9343 -28.659,-13.7371 -57.1622,-27.8426 -84.6132,-43.8884 -19.164,-11.1975 -37.6598,-23.4915 -55.4742,-36.7297 -14.008,-10.281 -27.4944,-21.2931 -40.2999,-33.0402 -38.0072,-34.7917 -70.2722,-75.6438 -96.5987,-119.8809 -24.7584,-41.5776 -44.3676,-86.1288 -59.2128,-132.1608 -7.5427,-23.2781 -13.723,-46.9874 -19.0229,-70.8713 -9.794,-43.8665 -16.4253,-88.3996 -21.0021,-133.097 -4.9953,-48.8058 -7.7602,-97.7925 -9.6214,-146.8086 -0.9053,-24.5073 -1.6564,-49.048 -2.0342,-73.5696 -0.2434,-18.6345 -0.3449,-37.2749 0.6047,-55.893 0.8287,-15.1748 2.3244,-30.4322 6.4876,-45.0999 3.0287,-10.6519 7.6585,-20.9061 14.2397,-29.8463 4.1777,-5.678 9.0823,-10.8414 14.6245,-15.1985 h 0.055 l 167.0274,-388.4428 h 875.8764 c -5.4571,-16.6812 -10.2112,-33.6245 -13.9648,-50.7718 -8.6773,-39.4091 -12.3745,-79.8276 -11.8755,-120.1562 0.7455,-60.308 10.7076,-120.2299 26.2251,-178.4171 7.9379,-29.9134 17.4883,-59.3882 28.1495,-88.4377 11.7652,-31.9885 24.8299,-63.5234 39.4202,-94.3298 9.445,-19.8309 19.469,-39.3813 30.8984,-58.1507 7.7211,-12.5737 16.0499,-24.9102 26.0602,-35.7936 11.2696,-12.0846 24.7171,-22.3472 40.025,-28.745 0.03,-0.013 0.079,-0.042 0.1099,-0.055 v -382.6608 l 420.8122,181.0053 v 788.4496 c 19.9383,-14.8907 39.5075,-30.2608 58.443,-46.4215 23.1724,-19.7869 45.5796,-40.4602 66.9099,-62.2257 28.2664,-28.8007 54.4231,-59.6183 79.3902,-91.3011 28.67,-36.4038 55.9637,-73.8914 82.854,-111.6209 22.4217,-31.548 44.6205,-63.2504 66.6899,-95.0457 0.2959,-0.4283 0.8476,-1.1648 0.9897,-1.3766 16.3985,-23.6608 32.6925,-47.3938 48.8766,-71.2017 21.0606,-31.0213 41.9801,-62.1505 62.2917,-93.669 -5.2193,-3.4124 -10.3772,-6.858 -15.5042,-10.4077 -29.7125,-20.4208 -58.319,-42.5751 -84.9432,-66.9064 -30.8173,-28.1517 -59.0088,-59.2918 -82.7439,-93.669 -20.0502,-28.9761 -36.8634,-60.2074 -49.7563,-93.0082 -6.5425,-16.7927 -12.3435,-33.873 -17.2636,-51.2123 -7.193,-25.2776 -12.212,-51.1861 -15.4492,-77.259 -4.2038,-33.7621 -5.7619,-67.77167 -6.5975,-101.76388 -0.587,-22.68444 -0.4306,-45.37515 -0.1649,-68.06283 0.5978,-46.23377 1.7962,-92.44603 3.2987,-138.65875 0.05,-1.48537 0.1142,-2.97507 0.165,-4.46043 -445.8447,-230.77143 -944.4656,-354.4668 -1455.799,-354.4668 z M 4096.4545,2484.0093 c 7.6158,5.4322 14.9671,11.2378 22.3216,17.0157 15.4398,12.1534 31.0758,24.0859 46.8974,35.7385 20.5419,14.8796 41.0153,29.8178 61.302,45.0448 43.2579,32.4892 85.8413,66.0849 124.8582,103.6361 22.4457,21.5587 43.616,44.431 63.6661,68.228 17.7665,21.1232 34.9496,42.7915 51.2958,65.0342 27.1135,36.8921 52.3023,75.171 75.7615,114.4843 19.2812,32.4092 37.3939,65.5309 53.6599,99.5612 11.4894,-18.4808 23.4191,-36.7052 35.6816,-54.6816 33.4574,-48.9906 69.2791,-96.2964 106.1102,-142.7887 42.786,-53.9364 86.9729,-106.7823 131.7306,-159.0887 37.9264,-44.3242 76.42,-88.1278 115.6766,-131.2797 18.6078,-20.4523 37.3617,-40.8074 56.3538,-60.9041 z m 785.1054,459.9197 c -20.3661,25.5213 -40.3024,51.3724 -59.5426,77.7546 -28.902,39.5894 -56.1328,80.419 -80.8747,122.7444 -17.2609,29.4449 -33.3059,59.612 -47.997,90.42 -30.7473,64.4441 -55.9738,131.4722 -75.9815,200.0035 -0.094,0.3238 -0.5405,1.8422 -0.3848,1.3216 -9.0583,31.1749 -17.0029,62.6532 -23.8611,94.3848 -6.7669,31.5164 -12.706,63.2004 -16.9886,95.1558 -4.5703,34.4192 -7.291,69.1733 -6.2127,103.9115 0.966,30.8598 5.1732,61.7435 14.0748,91.3562 2.7584,-11.0311 5.8633,-21.9405 9.3465,-32.7649 11.1342,-34.7188 26.0666,-68.1826 44.0384,-99.8916 25.7082,-45.4168 57.3035,-87.2479 91.5407,-126.544 15.2374,-17.4595 30.9869,-34.4633 47.1723,-51.0471 15.5203,-15.7315 31.6053,-30.924 47.7771,-45.981 27.3934,-25.4628 55.2417,-50.4873 83.2937,-75.2215 27.4826,-24.1984 55.1564,-48.1516 83.2938,-71.5871 13.6994,-11.377 27.4682,-22.6835 41.6743,-33.4257 7.1643,-5.3294 14.3766,-10.6341 22.3217,-14.758 6.3451,-3.1689 13.0318,-5.7485 19.8475,-7.7093 11.8193,-3.3685 24.3424,-4.4804 36.5063,-2.4781 9.1631,1.4688 18.0343,4.6634 26.0053,9.4165 8.7485,5.2026 16.3768,12.2619 22.4315,20.4299 8.4008,11.2998 13.7484,24.5881 17.2086,38.1614 1.3509,5.0491 2.2137,10.1688 3.4087,15.2536 4.0486,17.112 8.4806,34.1321 13.0851,51.1022 0.086,0.3223 0.4779,1.702 0.3849,1.3766 0.8945,3.2512 1.7998,6.4956 2.6939,9.7469 v -411.7361 c -20.1419,0.5351 -40.3357,0.5338 -60.4773,-0.1101 -47.3621,-1.5149 -94.6485,-6.3822 -141.132,-15.6941 -38.4462,-7.7325 -76.4022,-18.5512 -112.6528,-33.5909 z m 314.2621,778.6476 c -0.6938,2.4006 -1.4323,4.8186 -2.1442,7.2138 -11.8183,39.3996 -26.4994,77.9183 -43.3787,115.4205 -16.8945,37.4255 -35.9681,73.8899 -57.6733,108.7573 -21.6362,34.7865 -46.3154,67.6614 -73.8923,97.9643 -26.0135,28.558 -54.601,54.8779 -85.8778,77.5894 20.3313,8.8042 40.7541,17.4281 61.412,25.441 30.8476,11.9487 61.7859,23.5461 92.7502,35.1878 0.4791,0.1815 1.4486,0.5247 1.6493,0.6057 15.6235,5.8407 31.2084,11.6988 46.8425,17.5113 20.0797,7.4932 40.2062,14.9354 60.3123,22.3572 z m 420.9221,923.529 v 791.7536 c 11.907,-25.375 25.0395,-51.9789 35.9565,-72.1929 75.1791,-139.2897 163.8322,-258.9877 275.7766,-372.0878 -6.5919,-3.1965 -13.2008,-6.3851 -19.7926,-9.5817 -26.1812,-12.7742 -52.0491,-26.1919 -76.9711,-41.3002 -17.8722,-10.9135 -35.3505,-22.6762 -51.0209,-36.6196 -13.527,-12.0376 -25.6271,-25.9898 -34.1972,-42.0162 -5.543,-10.2595 -9.4542,-21.2988 -12.2604,-32.5996 -1.3469,-5.1407 -2.3584,-10.3631 -4.0135,-15.4188 -1.0437,-3.3339 -3.1233,-6.1592 -5.113,-8.9759 -3.4348,-5.9774 -6.767,-12.0294 -10.0063,-18.1171 -7.985,-14.9829 -15.2204,-30.3736 -21.7718,-46.036 -3.7949,-8.8137 -7.1589,-17.9037 -12.3154,-26.0467 -5.593,-8.8146 -12.3286,-16.8336 -19.1328,-24.7251 -6.872,-7.9696 -14.1193,-15.6255 -21.5519,-23.0731 -7.7601,-7.7756 -15.6031,-15.4166 -23.5862,-22.9629 z" /><path
         id="path4"
         style="display:inline;fill:#198011;fill-opacity:1;fill-rule:nonzero;stroke:none;stroke-width:0.223471"
         d="m 5876.3567,-1950.3725 c -2.361,0.1998 -6.5745,4.5737 -13.36,13.3813 -26.4744,34.5663 -126.3861,206.234 -169.7763,290.864 -112.7216,221.4491 -177.6758,439.2652 -206.0627,691.42143 -6.0025,52.2103 -8.4333,180.12799 -4.3433,227.26159 19.3604,225.8242 106.714,424.56623 272.9176,620.88063 16.7274,19.663703 27.5687,34.215898 27.6546,36.399298 v 0.05507 0.05507 h -0.055 v 0.05507 h -0.055 l -0.055,0.05507 h -0.055 -0.055 l -0.055,-0.05507 h -0.055 l -0.055,-0.05507 c -0.045,-0.01853 -0.1098,-0.02865 -0.165,-0.05507 -3.2948,-1.6954 -18.322,-10.152155 -33.5924,-19.108255 -78.3343,-46.185003 -180.6804,-91.625873 -258.458,-114.594473 -114.9003,-33.8437 -226.7751,-39.62034 -358.3006,-18.11704 -57.5944,9.2039 -66.9099,13.53729 -66.9099,30.23179 0,4.1095 3.277,11.60861 7.0924,16.68531 3.825,5.0783 37.0995,38.66017 74.2221,74.67087 37.1226,36.030809 85.1622,82.96627 106.9899,104.2418705 127.9921,124.7475995 223.7716,195.3412695 331.5806,244.1671595 110.8102,50.2905 234.7508,72.03375 345.2704,60.68385 43.1242,-4.6018 106.1438,-17.90537 148.4443,-31.44327 14.7383,-4.8522 28.9487,-8.67225 31.3933,-8.42525 2.4711,0 9.8344,5.75715 16.6587,12.77555 6.8262,6.7656 52.9258,52.74601 102.3166,101.81891 159.2252,127.08353 133.4327,344.77325 112.5978,533.15887 -5.1788,41.5823 -17.7221,105.66039 -28.3694,147.46949 -10.0916,38.9204 -25.0814,89.6827 -26.1702,88.713 -0.568,-0.4844 -1.6405,-21.2592 -2.1991,-46.6418 -2.1775,-71.0921 -11.4888,-122.12196 -33.3175,-179.90396 -25.3855,-67.6874 -61.911,-123.74386 -108.8592,-166.52266 -32.742,-29.9845 -64.9713,-51.7432 -123.0988,-83.6468 -23.7392,-13.0631 -58.6847,-32.44174 -77.246,-42.84214 -26.7403,-14.7343 -36.2903,-18.83292 -44.2034,-18.83292 -12.8259,0 -20.74,7.96314 -22.6515,22.46734 -4.09,28.2931 -10.3706,241.3062 -9.0167,307.5493 1.9125,98.88954 9.8335,149.65764 32.218,210.57624 32.7419,89.4587 97.1315,165.6195 198.9153,235.7419 14.1806,9.9055 33.6003,22.23 43.1588,27.5336 9.2688,5.3205 16.9337,11.3869 16.9337,13.3262 0,8.4611 -83.8286,134.6049 -186.4351,280.4012 -110.8103,157.6209 -166.7579,224.109 -248.8916,296.1505 -45.8584,40.138 -95.538,77.143 -191.0533,141.4671 -42.0354,28.5199 -84.8588,57.5151 -94.9494,64.7588 -9.4088,6.585 -17.7443,11.6251 -19.6276,11.9496 h -0.165 -0.055 v -0.055 h -0.055 l -0.055,-0.055 -0.055,-0.055 v -0.055 -0.055 -0.055 l -0.055,-0.055 v -0.055 c 7e-4,-1.9381 3.6379,-10.8451 8.3569,-20.9254 29.185,-63.0855 44.1721,-135.3606 47.1723,-226.9863 5.1789,-164.1629 -40.374,-301.9537 -134.5345,-406.3946 -18.5612,-20.5537 -68.736,-69.4044 -79.94,-77.8647 -20.1831,-15.0032 -39.5696,-13.0779 -58.663,5.782 -30.2973,29.7375 -84.0971,148.7031 -110.8384,245.1584 -32.7419,117.2561 -35.7197,219.0474 -9.5115,309.4766 17.714,61.6411 40.3326,101.9959 108.3094,192.8998 50.2144,67.2127 67.6796,94.0675 67.6796,103.7462 0,3.8591 -7.6481,12.3169 -23.4762,26.1018 -79.1571,69.3999 -189.6805,185.423 -312.2278,328.3096 -167.8482,195.5918 -258.7186,319.1463 -316.8462,430.1284 -7.4203,14.0458 -14.1637,25.7948 -15.889,27.2032 l -0.055,0.055 h -0.055 -0.055 -0.055 -0.055 -0.055 -0.055 l -0.055,-0.055 c -1.1725,-0.7166 -3.4301,-6.6884 -5.2231,-13.7117 -19.65,-79.0582 -99.5956,-221.9204 -181.4869,-325.8866 -70.3976,-89.2108 -122.2289,-136.0957 -260.6022,-236.1825 -15.8272,-11.3498 -41.7765,-31.1833 -57.8933,-43.9985 -30.2738,-23.6904 -38.743,-27.8408 -50.746,-24.2295 -19.9171,6.2974 -23.7214,30.2636 -21.277,129.1321 4.09,156.4244 14.183,251.942 36.0115,339.7085 31.6532,126.9146 95.8069,230.8502 182.5865,296.3707 42.858,32.3994 78.5887,52.4572 165.1031,92.843 50.5042,23.4432 91.7173,45.7227 93.6298,50.5515 0.568,1.4452 -4.1274,25.3706 -10.3911,53.415 -21.2956,92.3693 -28.6442,151.0839 -28.6442,224.8386 0,52.7053 2.4231,78.2971 11.1608,117.2377 31.6532,140.9465 144.3868,266.4519 328.0619,365.0943 48.036,25.6305 175.7872,80.7272 230.9134,99.3409 2.7796,0.9597 4.9554,2.3061 5.333,3.0287 v 0.055 0.055 0.055 0.055 h -0.055 v 0.055 l -0.055,0.055 -0.055,0.055 c -0.5682,0.7267 -11.475,2.8944 -24.3008,5.0662 -45.5688,7.4924 -90.3496,18.8317 -190.7785,48.0735 -113.254,33.1211 -148.4583,41.6222 -208.2068,50.3312 -22.1183,3.3829 -43.4033,7.7077 -47.2273,10.1323 -8.18,4.5938 -12.5687,14.0146 -10.3911,21.7515 6.0025,21.0325 183.1623,132.4846 276.7661,174.0669 126.9708,56.4231 252.9721,75.1205 375.2892,55.893 V 4289.822 c -70.8688,-26.0444 -186.486,-69.3219 -224.3708,-84.1975 -58.6843,-22.9686 -161.5609,-69.8891 -158.5605,-72.303 0.568,-0.4845 12.5148,-6.0343 26.72,-12.5553 69.041,-31.202 139.9858,-95.513 194.8469,-176.9854 46.9472,-69.8754 88.9969,-161.993 111.938,-245.1583 15.5601,-55.863 19.3438,-83.6279 19.0778,-138.2733 -0.284,-55.8427 -3.0101,-73.005 -22.9264,-145.0465 -7.3846,-26.6001 -14.7471,-56.1266 -16.6587,-65.3095 -6.2676,-33.1219 -18.2662,-41.5751 -42.829,-30.4521 -22.3598,10.1534 -211.2075,175.0503 -269.069,235.2463 -101.5423,105.4105 -154.4666,193.3728 -176.3189,293.2319 -8.18,37.7029 -12.016,89.2163 -9.0166,120.8721 1.596,14.054 2.0988,26.3998 1.6494,27.8088 l -0.055,0.055 -0.055,0.055 -0.055,0.055 h -0.055 -0.055 l -0.055,0.055 c -0.035,0.012 -0.098,0 -0.1099,0 h -0.055 c -6.6481,-0.1218 -53.812,-62.3245 -69.6589,-92.072 -49.6825,-93.0911 -57.2824,-197.2741 -25.8953,-357.3299 28.1199,-144.3309 78.3001,-284.041 145.6954,-405.4034 42.0354,-75.6738 91.7356,-147.9821 161.3095,-235.026 l 25.6753,-31.8838 29.469,12.7755 c 81.1491,35.9365 95.2065,30.1534 299.4176,49.0096 204.2111,18.8562 421.8568,-104.5172 421.8568,-104.5172 65.2973,-35.3413 119.1344,-80.1605 179.8925,-148.2954 21.8277,-24.66 50.748,-55.8684 64.1059,-69.8801 38.7681,-39.6632 42.2791,-43.9693 42.2791,-51.7079 0,-16.9222 -13.0783,-23.6891 -58.1131,-29.7362 -39.0342,-5.0783 -303.7421,-24.6447 -382.0517,-28.0291 -117.3685,-5.3206 -198.9994,4.2975 -277.8658,32.8199 -16.9159,6.0472 -30.7815,10.6621 -31.3382,10.1874 -1.3539,-1.2192 60.0132,-62.6298 101.4919,-101.3233 89.8044,-83.8863 161.8309,-139.4786 316.2964,-243.6715 98.2514,-66.2431 138.6387,-95.7379 181.7618,-132.4913 19.0936,-16.1997 36.0525,-29.5159 37.166,-29.5159 1.3539,0 25.0522,7.7461 52.6153,17.1809 64.9519,22.2258 92.8359,29.7683 134.3146,35.7936 105.6068,15.477 257.6114,12.0743 373.3099,-8.4804 134.8163,-23.6903 236.3746,-67.9358 314.1522,-136.3459 41.7448,-37.0013 66.592,-68.6436 96.5987,-124.5065 11.471,-21.2764 29.4877,-54.4261 40.135,-73.5145 17.1818,-30.955 19.0591,-35.9996 17.7033,-45.4303 -2.4711,-20.0589 -17.728,-27.5848 -66.0302,-31.9389 -24.8288,-2.414 -126.6104,-9.6493 -255.1593,-18.3373 -96.8709,-6.7657 -184.7851,-4.1319 -245.6478,6.9935 -59.4824,11.123 -130.6736,38.7011 -189.6239,73.5145 -18.0292,10.6281 -33.0357,19.0874 -33.5924,18.6127 -0.5682,-0.4844 25.921,-39.9281 58.663,-87.5566 95.5162,-138.0578 137.0031,-203.295 176.5938,-278.4739 71.4856,-135.643 121.3974,-284.5399 144.8706,-431.7805 5.4723,-35.3083 12.3154,-99.86229 12.3154,-118.22889 0,-24.6608 -0.2848,-24.21905 28.0945,-28.80005 35.7431,-5.5708 63.5849,-14.01943 104.2408,-31.66353 65.5077,-28.52 116.2886,-61.88476 180.4423,-118.44916 105.6069,-93.3381 194.8246,-219.77337 243.3937,-344.99487 31.9429,-81.96799 39.5566,-147.23129 27.8196,-234.750695 -6.2676,-45.688505 -7.5952,-50.060166 -17.9783,-57.324766 -14.1806,-9.9055 -24.0263,-6.288689 -78.6205,28.524715 -22.6505,14.5074 -83.4688,51.011556 -135.3042,81.223856 -51.8599,30.2324 -109.9913,65.51753 -129.6414,78.58063 -116.5457,77.83999 -177.4088,150.64333 -221.6218,265.25783 -6.0962,15.97865 -12.1101,28.71979 -14.0747,30.39699 -0.03,0.0213 -0.082,0.0396 -0.11,0.0551 v 0.0551 h -0.055 -0.055 -0.055 -0.055 v -0.0551 h -0.055 L 6282.4344,342.34278 c -224.8868,-222.66669 -372.5339,-374.249386 -446.4875,-458.15759 -126.3704,-143.6083 -206.5608,-277.28963 -252.6852,-421.86843 -19.6501,-61.1663 -25.6488,-87.02298 -21.0021,-91.85178 7.6214,-8.2133 31.6515,-16.18432 82.6889,-28.02912 78.0436,-17.8919 132.3189,-38.45637 183.3562,-68.66857 118.4573,-70.5972 203.8824,-206.49103 230.9134,-367.51729 6.0025,-35.7628 6.8292,-90.1237 2.4741,-141.6324 -3.5599,-39.1675 -6.2863,-49.3295 -15.2843,-54.4062 -10.3813,-6.0471 -23.232,-2.869 -48.3269,12.1148 -24.5628,14.5074 -234.4696,158.5857 -275.3916,189.045 -78.0674,58.0298 -136.6995,124.27025 -170.8209,193.17515 -6.561,13.2899 -12.5923,24.66329 -13.415,25.38589 -2.7078,2.1879 1.6927,-88.97562 6.0477,-131.77534 9.2878,-87.0237 28.0907,-195.0892 49.0966,-278.2537 44.7688,-177.7 111.6275,-336.5422 228.4393,-543.7317 42.5665,-74.9513 56.7387,-105.1814 56.7387,-120.4316 0,-4.1789 -0.6961,-6.2582 -2.4191,-6.1124 z m 484.8081,6228.7956 c -15.9127,0.3969 -44.3304,13.2398 -110.5635,46.3114 -151.1755,75.4356 -227.8939,121.8488 -290.4011,175.2783 -69.5986,59.4742 -114.5946,128.3985 -131.5106,200.444 -2.7076,11.6058 -5.5721,22.814 -6.0478,22.247 -81.0335,-96.5886 -94.3443,-121.8461 -209.3614,-235.6868 -0.3358,24.431 -0.7206,50.8723 -1.1545,79.0211 28.4083,24.351 66.0479,59.9494 85.053,81.0036 51.5939,57.2991 33.7979,55.5724 75.5417,129.793 35.0725,49.273 -22.6049,67.9472 164.5532,158.3728 56.216,-12.3284 111.6526,-43.5096 171.4257,-96.6977 76.1321,-67.6964 142.9711,-152.0902 185.0056,-234.5305 30.0323,-58.9914 50.2071,-119.1914 67.6796,-201.8756 4.6487,-22.0005 11.476,-51.2299 15.0094,-65.2545 9.0226,-33.369 9.2986,-44.2438 1.0996,-51.9832 -4.4315,-4.2303 -9.0958,-6.6233 -16.3289,-6.4429 z"
         sodipodi:nodetypes="scccccscccccccccccccccsscsccccccccccccccscccccscccccccccccccccsccccccccscccscccccccccccccccccscscccccccccccscccccccccccccccccccccccccccsscccccczcccscccccccssccccccccccscccscccccccsccsccccccccccccccscccccccccssscccscccccccsccs" /></g><path
       id="path1"
       style="baseline-shift:baseline;display:inline;overflow:visible;opacity:1;vector-effect:none;fill:#5a5a5a;fill-opacity:1;enable-background:accumulate;stop-color:#000000;stop-opacity:1"
       d="m 249.59045,152.96327 c -53.94802,1.92321 -97.27778,46.44428 -97.27778,100.85121 0,55.62466 45.29114,100.9158 100.9158,100.9158 55.62465,0 100.91632,-45.29114 100.91632,-100.9158 0,-35.01069 -17.94253,-65.92784 -45.11094,-84.03466 -0.78414,1.23183 -1.63728,2.41884 -2.54093,3.55533 -3.1697,3.90641 -7.14113,7.47257 -11.95431,9.12089 24.59296,14.2309 41.08431,40.81354 41.08431,71.35844 0,33.26849 -19.56353,61.83812 -47.85031,74.86675 -0.71517,1.38396 -1.53603,2.71377 -2.45928,3.97236 -2.15759,2.84462 -4.59039,5.60514 -7.6879,7.44968 -1.45411,0.75967 -3.1392,1.77788 -4.82245,1.13688 -2.17242,-1.18978 -4.62102,-2.36453 -5.83375,-4.65346 -0.18103,-0.47025 -0.34915,-0.94761 -0.52245,-1.42317 -1.32663,0.21259 -2.6638,0.3938 -4.01112,0.5426 v -7.42074 c -0.0148,-7.71482 0.12717,0.12449 -5.2e-4,-7.97419 l -0.002,-59.19897 c -2.23111,1.21812 -4.62526,2.14894 -7.06571,2.83187 -2.5937,0.79367 -5.32227,1.01434 -8.02019,0.82786 v 14.01827 c 0.11148,0.52441 0.21585,1.05054 0.36329,1.55701 1.35597,4.42176 1.15835,9.22175 -0.22893,13.6095 -0.0442,0.13572 -0.089,0.27152 -0.13436,0.40721 v 17.87385 c 0.26168,14.67154 -0.21855,0.63836 0,18.60144 v 5.16661 c -42.85424,-3.0011 -76.51522,-38.55398 -76.51522,-82.19136 0,-45.61525 36.78126,-82.39445 82.39652,-82.39445 5.68933,0 11.24136,0.57236 16.60157,1.66243 0.56444,-1.19296 1.99432,-1.96855 3.31969,-1.64435 1.79126,0.72336 3.40004,1.84936 5.05964,2.83394 1.01476,0.55888 1.97684,1.2119 2.87114,1.94665 1.84521,0.6595 3.65989,1.38289 5.44102,2.16731 0.11459,-3.31211 -0.0884,-6.70979 -1.71876,-9.65729 -1.46971,-2.30997 -3.65596,-4.04334 -5.40432,-6.13089 -2.12138,0.70303 -4.32645,1.1686 -6.55774,1.32033 -6.56626,0.47212 -12.9925,-2.22778 -18.079,-6.2358 -1.81724,-1.47208 -3.52358,-3.0649 -5.17126,-4.71909 z m 34.43149,4.74286 c 0.24217,0.26493 0.48401,0.52993 0.72553,0.7953 1.95263,1.96611 3.69111,4.13223 5.21571,6.44612 0.67533,-1.4657 1.54959,-2.82639 2.56625,-4.07468 -2.77493,-1.17851 -5.61297,-2.23651 -8.50749,-3.16674 z m -36.6758,31.38362 0.001,0.001 v 37.1936 h -37.31555 l -6.08283,14.14435 h 42.69352 c 0.68683,-0.71562 1.38151,-1.4236 2.08462,-2.1239 3.88776,-3.47018 7.8338,-6.90606 12.12071,-9.8826 1.04764,-0.63908 2.04118,-1.35685 2.98173,-2.13837 h -1.39681 v -30.70407 z m 53.56676,37.19411 c -0.8323,0.80631 -1.73914,1.53563 -2.71353,2.17093 -5.35931,3.40177 -11.86949,4.37488 -18.11569,4.30878 -3.76375,0.0993 -7.51463,-0.66475 -10.99365,-2.08566 -0.68172,0.5919 -1.36777,1.17903 -2.06602,1.75131 -4.80979,3.88008 -10.02676,7.27306 -14.47922,11.58637 0.79772,-0.0751 1.59923,-0.0855 2.39985,-0.0961 2.49958,0.0498 4.99473,0.2121 7.48792,0.40721 v -3.89899 h 37.12538 l 6.08387,-14.14384 z"
       sodipodi:nodetypes="cssscccscccccccccccccccccccssccccccccccccccccccccccccccccccccccccccc" /><g
       style="clip-rule:evenodd;fill-rule:evenodd;stroke-linejoin:round;stroke-miterlimit:2"
       id="g1"
       transform="matrix(0.0244984,0,0,0.0244984,289.16008,308.866)" /><path
       id="path4-9"
       style="clip-rule:evenodd;display:inline;fill:#198011;fill-opacity:1;fill-rule:nonzero;stroke:none;stroke-width:0.00822842;stroke-linejoin:round;stroke-miterlimit:2"
       d="m 271.6774,74.996562 c -0.0834,0.0065 -0.23213,0.175562 -0.47172,0.513863 -0.93466,1.327408 -4.46204,7.919781 -5.99396,11.169726 -3.97959,8.504069 -6.2728,16.868649 -7.27501,26.551939 -0.21186,2.00497 -0.29787,6.91726 -0.15326,8.72726 0.68351,8.67209 3.76754,16.30415 9.63537,23.84302 0.59054,0.75511 0.97328,1.31396 0.97632,1.39779 v 9.9e-4 9.8e-4 h -0.001 v 9.9e-4 h -10e-4 l -0.001,9.9e-4 h -10e-4 -0.001 l -10e-4,-9.9e-4 h -10e-4 l -0.001,-9.9e-4 c -10e-4,-7.3e-4 -0.002,-9.8e-4 -0.008,-9.8e-4 -0.11643,-0.0649 -0.64685,-0.39 -1.18599,-0.73381 -2.76557,-1.7736 -6.3789,-3.51861 -9.12485,-4.40065 -4.05657,-1.29963 -8.00629,-1.52145 -12.6498,-0.69572 -2.03338,0.35355 -2.36228,0.51985 -2.36228,1.16093 0,0.15804 0.11559,0.44582 0.25053,0.64076 0.13531,0.19521 1.30983,1.48462 2.62041,2.86749 1.31059,1.38368 3.00666,3.18607 3.77728,4.0031 4.51875,4.79058 7.90026,7.5015 11.70646,9.37647 3.91215,1.93127 8.28786,2.76626 12.18978,2.33042 1.52247,-0.17676 3.74739,-0.6876 5.24081,-1.20752 0.52034,-0.18619 1.02204,-0.33309 1.10831,-0.32369 0.0872,0 0.34707,0.22098 0.58813,0.49062 0.24117,0.25983 1.86858,2.02557 3.61231,3.91003 5.62147,4.8803 4.71087,13.23999 3.97531,20.47434 -0.18294,1.59682 -0.62573,4.05758 -1.00159,5.66312 -0.35645,1.49461 -0.88552,3.44399 -0.92395,3.40677 -0.0188,-0.017 -0.058,-0.81645 -0.0777,-1.79116 -0.0769,-2.73007 -0.40563,-4.68971 -1.17628,-6.90865 -0.89626,-2.59933 -2.18577,-4.75201 -3.8433,-6.3948 -1.15596,-1.15146 -2.2938,-1.98703 -4.34597,-3.21221 -0.83812,-0.50164 -2.07188,-1.24582 -2.72722,-1.64522 -0.94406,-0.56583 -1.28121,-0.7232 -1.56057,-0.7232 -0.45282,0 -0.73224,0.30568 -0.7997,0.86278 -0.14429,1.08652 -0.36623,9.26663 -0.31854,11.8105 0.0677,3.79754 0.34708,5.74714 1.13745,8.08653 1.15597,3.43537 3.42926,6.36012 7.02273,9.05293 0.50063,0.38055 1.18625,0.85366 1.52373,1.05735 0.32716,0.2042 0.59783,0.43724 0.59783,0.51174 0,0.32489 -2.9596,5.16906 -6.58209,10.76797 -3.91216,6.05292 -5.88742,8.60617 -8.78713,11.37274 -1.619,1.54134 -3.14091,2.32423 -6.51307,4.79439 -0.7354,0.42575 -7.1638,5.83681 -10.00831,8.37227 -0.1105,0.0985 -0.27007,0.47298 -0.8288,1.00239 -2.79465,2.66507 -6.69672,7.12059 -11.02323,12.60771 -5.92585,7.51107 -9.13407,12.2558 -11.18624,16.51773 -0.26181,0.53939 -0.50005,0.99059 -0.56099,1.04464 l -0.001,9.9e-4 h -10e-4 -0.001 -0.001 -0.001 -0.001 -10e-4 l -0.001,-9.9e-4 c -0.0415,-0.0287 -0.12097,-0.25695 -0.18442,-0.52654 -0.69374,-3.03595 -3.51623,-8.52211 -6.40737,-12.51463 -2.48544,-3.4259 -4.31532,-5.22637 -9.20059,-9.06992 -0.55877,-0.43586 -1.4749,-1.19745 -2.04392,-1.6896 -1.06882,-0.90978 -1.36784,-1.06915 -1.79157,-0.93047 -0.7032,0.24182 -0.83751,1.16221 -0.7512,4.95896 0.14428,6.00698 0.50074,9.67503 1.27138,13.04545 1.1175,4.87377 3.38247,8.86509 6.44619,11.38117 1.51315,1.24423 2.77462,2.0145 5.82901,3.56538 1.78303,0.90023 3.23807,1.75583 3.30561,1.94126 0.0188,0.0557 -0.14568,0.9743 -0.367,2.05127 -0.75181,3.54715 -1.0113,5.80187 -1.0113,8.63422 0,2.02398 0.0856,3.00674 0.39406,4.50214 1.1175,5.41262 5.09757,10.23227 11.58223,14.0203 1.69589,0.98427 6.20617,3.10009 8.15239,3.81491 0.0979,0.0368 0.17504,0.0883 0.18818,0.11617 v 9.8e-4 9.9e-4 9.9e-4 9.9e-4 h -0.001 v 9.9e-4 l -0.001,9.9e-4 -10e-4,9.8e-4 c -0.0188,0.0287 -0.40516,0.11126 -0.85795,0.19479 -1.60884,0.28769 -3.1898,0.72318 -6.73545,1.8461 -3.99844,1.27191 -5.24131,1.5984 -7.35074,1.93281 -0.7809,0.13015 -1.53235,0.29587 -1.66735,0.38917 -0.28886,0.17637 -0.44374,0.53816 -0.36697,0.83529 0.21184,0.80767 6.46652,5.08764 9.77122,6.68449 4.48271,2.16674 8.93116,2.88477 13.24957,2.14641 v -14.05416 c -2.50202,-1.00017 -6.58387,-2.66212 -7.92138,-3.23334 -2.07185,-0.88206 -5.70393,-2.68387 -5.59799,-2.77656 0.0188,-0.0204 0.44184,-0.23161 0.94336,-0.48219 2.43746,-1.19818 4.94219,-3.66788 6.87907,-6.79657 1.65747,-2.68336 3.142,-6.22081 3.95195,-9.41455 0.54938,-2.14523 0.68294,-3.21146 0.67354,-5.30997 -0.0118,-2.14444 -0.10644,-2.80354 -0.8094,-5.57005 -0.26068,-1.02149 -0.52065,-2.15535 -0.58814,-2.50804 -0.22122,-1.27191 -0.64489,-1.59654 -1.51208,-1.1694 -0.78942,0.38997 -7.45668,6.72228 -9.49951,9.03393 -3.58493,4.04796 -5.4534,7.42587 -6.22493,11.26066 -0.28883,1.44789 -0.4242,3.42608 -0.31813,4.64174 0.0564,0.53965 0.074,1.01378 0.0583,1.06788 l -0.001,9.9e-4 -0.001,9.9e-4 -0.001,9.9e-4 h -0.001 -10e-4 l -0.001,9.9e-4 c -0.001,4.5e-4 -0.002,0 -0.002,0 h -0.001 c -0.23477,-0.003 -1.89982,-2.3934 -2.45931,-3.53575 -1.75405,-3.57485 -2.02237,-7.57574 -0.91422,-13.72214 0.99275,-5.54261 2.76437,-10.90777 5.14375,-15.56828 1.48407,-2.90602 3.23875,-5.6828 5.69506,-9.02547 l 0.90646,-1.22438 1.04039,0.49063 c 2.86497,1.38001 3.36126,1.15795 10.57093,1.88205 7.20969,0.7241 14.89365,-4.01368 14.89365,-4.01368 2.30534,-1.35714 4.20606,-3.07832 6.35114,-5.69485 0.7706,-0.94697 1.79165,-2.14543 2.26322,-2.68351 1.36876,-1.52313 1.4927,-1.68849 1.4927,-1.98567 0,-0.64989 -0.46174,-0.90973 -2.05169,-1.14195 -1.37808,-0.19518 -10.72362,-0.9464 -13.48835,-1.07634 -4.14367,-0.20424 -7.02565,0.16491 -9.81007,1.26031 -0.59716,0.23243 -1.08672,0.40948 -1.10637,0.39121 -0.0477,-0.0468 2.11878,-2.40508 3.58319,-3.89099 3.17053,-3.2214 5.71341,-5.35624 11.16682,-9.3575 3.46877,-2.54382 4.89464,-3.67649 6.41711,-5.08786 0.67409,-0.6221 1.27285,-1.13351 1.31216,-1.13351 0.0477,0 0.88446,0.29751 1.85757,0.65979 2.29313,0.85355 3.27759,1.14318 4.742,1.37455 3.72843,0.59435 9.09497,0.46369 13.17967,-0.32575 4.75971,-0.9097 8.34523,-2.60887 11.09116,-5.23592 1.4738,-1.42093 2.35102,-2.63605 3.41041,-4.78128 0.40499,-0.81704 1.04105,-2.09006 1.41696,-2.8231 0.60662,-1.18873 0.6729,-1.38245 0.62504,-1.74461 -0.0872,-0.77028 -0.62588,-1.05928 -2.33121,-1.22649 -0.87658,-0.0926 -4.46998,-0.37075 -9.00838,-0.70423 -3.42004,-0.25983 -6.52386,-0.1587 -8.6726,0.26845 -2.10002,0.42714 -4.61346,1.4862 -6.69469,2.8231 -0.63649,0.40798 -1.16631,0.73299 -1.18598,0.71476 -0.0188,-0.0205 0.91514,-1.53329 2.0711,-3.36234 3.3722,-5.30168 4.83691,-7.8069 6.23465,-10.69388 2.52379,-5.20895 4.28593,-10.92691 5.11464,-16.58124 0.19307,-1.35588 0.43481,-3.83492 0.43481,-4.54021 0,-0.94701 -0.0118,-0.93005 0.99186,-1.10597 1.26191,-0.21402 2.24485,-0.53835 3.68023,-1.21594 2.31275,-1.09523 4.10556,-2.37653 6.37053,-4.54867 3.72844,-3.58434 6.87826,-8.43974 8.59298,-13.24846 1.12775,-3.14773 1.3966,-5.65398 0.9822,-9.0149 -0.22123,-1.75451 -0.26818,-1.9224 -0.63471,-2.2014 -0.50067,-0.38054 -0.84826,-0.24141 -2.77573,1.09545 -0.79964,0.5571 -2.94684,1.9589 -4.77689,3.11912 -1.83094,1.16099 -3.88327,2.51603 -4.57699,3.01767 -4.11468,2.98921 -6.26342,5.78494 -7.82437,10.18641 -0.21522,0.61361 -0.42756,1.10289 -0.49689,1.16728 -0.001,8.3e-4 -0.002,9.9e-4 -0.002,9.9e-4 v 9.9e-4 h -0.001 -10e-4 -10e-4 -0.001 v -9.9e-4 h -10e-4 l -4.38094,-6.29962 c -7.93963,-8.5508 -13.15231,-14.37189 -15.76321,-17.59414 -4.46152,-5.51484 -7.29267,-10.64842 -8.92105,-16.20053 -0.69377,-2.3489 -0.90554,-3.34186 -0.7415,-3.5273 0.26893,-0.31549 1.11745,-0.62149 2.91935,-1.07633 2.75533,-0.68712 4.67149,-1.47683 6.47337,-2.63703 4.18212,-2.71106 7.19805,-7.92966 8.15242,-14.11337 0.21184,-1.37334 0.24115,-3.46092 0.0874,-5.43894 -0.12591,-1.50411 -0.222,-1.89436 -0.53961,-2.08932 -0.36661,-0.23204 -0.8202,-0.11021 -1.7062,0.46522 -0.86718,0.55712 -8.27792,6.09004 -9.7227,7.25968 -2.75616,2.22846 -4.82615,4.77225 -6.03083,7.41832 -0.23175,0.51035 -0.44453,0.94712 -0.47362,0.97486 -0.0953,0.0839 0.0598,-3.41683 0.21374,-5.0604 0.3279,-3.3419 0.99173,-7.49184 1.73335,-10.68551 1.58055,-6.823989 3.94099,-12.923842 8.06503,-20.88035 1.50283,-2.878243 2.00313,-4.039143 2.00313,-4.624779 0,-0.160396 -0.0262,-0.240212 -0.0854,-0.234889 z m 17.11612,239.197678 c -0.56178,0.017 -1.56507,0.50843 -3.90344,1.77844 -5.33724,2.89688 -8.04579,4.67922 -10.25261,6.73101 -2.45717,2.2839 -4.04576,4.93077 -4.64299,7.69743 -0.0953,0.44567 -0.19681,0.87614 -0.21335,0.8543 -2.86092,-3.70914 -3.33084,-4.67908 -7.3915,-9.0508 -0.0118,0.93819 -0.0262,1.95361 -0.041,3.03459 1.00292,0.93514 2.33182,2.30214 3.00277,3.11068 1.82157,2.20039 1.19327,2.13412 2.66703,4.98428 1.2382,1.89222 -0.79807,2.60931 5.80952,6.08184 1.98474,-0.47343 3.9419,-1.67086 6.05219,-3.71339 2.68786,-2.59965 5.0476,-5.84056 6.53162,-9.00641 1.06032,-2.26537 1.77256,-4.57716 2.38945,-7.75243 0.16414,-0.84485 0.40518,-1.96731 0.52991,-2.50585 0.31853,-1.28147 0.32827,-1.69909 0.0388,-1.99632 -0.15664,-0.16239 -0.32117,-0.25451 -0.5765,-0.24754 z"
       sodipodi:nodetypes="scccccscccccccccccccccsscsccccccccccccccscccccscccscccscccccccccccccccccscscccccccccccscccccccccccccccccccccccccccsscccccczcccscccccccssccccccccccscccscccccccsccsccccccccccccccscccccccccssscccscccccccsccscc" /></g></svg>
