<!-- Generator: Adobe Illustrator 21.0.2, SVG Export Plug-In  -->
<svg version="1.1"
	 xmlns="http://www.w3.org/2000/svg" xmlns:xlink="http://www.w3.org/1999/xlink" xmlns:a="http://ns.adobe.com/AdobeSVGViewerExtensions/3.0/"
	 x="0px" y="0px" width="232.6px" height="58.5px" viewBox="0 0 232.6 58.5" style="enable-background:new 0 0 232.6 58.5;"
	 xml:space="preserve">
<style type="text/css">
	.st0{fill:#C41230;}
</style>
<defs>
</defs>
<path id="XMLID_16_" class="st0" d="M29.1,14.9h10v7.3c2-4.9,5.3-7.7,11.3-7.4v10.1l-0.5,0c-6.7,0-10.8,4.1-10.8,12.5v12h-10V14.9z"
	/>
<path id="XMLID_14_" class="st0" d="M53.9,36.8V14.9h10v18.7c0,4.8,2.3,7.2,6.1,7.2c3.8,0,6.2-2.5,6.2-7.2V14.9h10v34.5h-10v-5.2
	c-2.3,3-5.2,5.7-10.3,5.7C58.4,49.9,53.9,44.9,53.9,36.8z"/>
<path id="XMLID_12_" class="st0" d="M95.8,58.5v-35l-6.2,0v-8.6h6.2V5.7h10v9.2h6.3v8.6l-6.3,0v26L95.8,58.5z"/>
<path id="XMLID_10_" class="st0" d="M116,0.7h10l0.1,19.2c2.3-3,5.3-5.7,10.3-5.7c7.6,0,12,5,12,13.1v22.2h-10v-19
	c0-4.8-2.3-7.2-6.1-7.2c-3.8,0-6.3,2.5-6.2,7.2v19H116V0.7z"/>
<polygon id="XMLID_9_" class="st0" points="39.7,0.7 0,0.7 0,10 12.8,10 12.8,49.4 23.3,49.4 23.3,10 34.2,10 "/>
<path id="XMLID_7_" d="M199.4,0.7l-25.7,48.8h-12L183.1,10h-22.6l5.5-9.3H199.4z"/>
<path id="XMLID_3_" d="M195.4,35.7l0-0.1c0-5.8,2.7-9.3,7.7-11.6c-3.7-2.3-6.1-5.3-6.2-10.5l0-0.1C197,5.9,203.7,0,213.9,0
	s16.9,5.7,17,13.2l0,0.1c0,5.2-2.4,8.3-6.1,10.5c4.9,2.5,7.8,5.6,7.8,11.3l0,0.1c0,8.9-7.9,14.2-18.5,14.2
	C203.4,49.5,195.5,44.1,195.4,35.7z M222.3,34.8l0-0.1c0-3.7-3.5-5.9-8.3-5.9c-4.8,0-8.3,2.2-8.3,5.9l0,0.1c0,3.3,3.1,6,8.3,6
	C219.2,40.8,222.3,38.1,222.3,34.8z M220.8,14.5l0-0.1c0-3-2.6-5.6-6.9-5.6c-4.3,0-6.9,2.6-6.9,5.6l0,0.1c0,3.4,2.7,5.9,6.9,5.9
	C218.2,20.3,220.8,17.9,220.8,14.5z"/>
<ellipse id="XMLID_2_" transform="matrix(1 -2.834999e-03 2.834999e-03 1 -6.847852e-02 0.4448)" cx="156.8" cy="24.4" rx="4.9" ry="4.9"/>
<ellipse id="XMLID_1_" transform="matrix(1 -2.834999e-03 2.834999e-03 1 -0.1062 0.4449)" cx="156.9" cy="37.7" rx="4.9" ry="4.9"/>
</svg>
