<?xml version="1.0" encoding="UTF-8" standalone="no"?><!DOCTYPE svg PUBLIC "-//W3C//DTD SVG 1.1//EN" "http://www.w3.org/Graphics/SVG/1.1/DTD/svg11.dtd"><svg width="100%" height="100%" viewBox="0 0 1419 242" version="1.1" xmlns="http://www.w3.org/2000/svg" xmlns:xlink="http://www.w3.org/1999/xlink" xml:space="preserve" xmlns:serif="http://www.serif.com/" style="fill-rule:evenodd;clip-rule:evenodd;stroke-linejoin:round;stroke-miterlimit:10;"><path d="M130.83,241.9c-1.854,-0 -3.708,-0.545 -5.311,-1.636c-113.791,-77.436 -130.485,-138.257 -124.452,-175.643c5.265,-32.622 29.697,-53.511 51.575,-59.744c37.844,-10.841 65.496,10.443 78.192,23.478c12.707,-13.032 40.375,-34.32 78.232,-23.474c21.863,6.232 46.288,27.126 51.547,59.749c6.028,37.389 -10.673,98.21 -124.473,175.634c-1.601,1.091 -3.455,1.636 -5.31,1.636Zm-57.826,-221.053c-4.789,0 -9.856,0.66 -15.177,2.184c-16.14,4.597 -34.178,20.169 -38.121,44.598c-4.156,25.753 4.984,79.612 111.124,153.375c106.15,-73.753 115.297,-127.612 111.145,-153.369c-3.94,-24.431 -21.972,-40.004 -38.095,-44.601c-38.833,-11.114 -64.287,23.762 -65.351,25.253c-1.778,2.489 -4.659,3.895 -7.722,3.965c-3.059,-0.01 -5.933,-1.491 -7.695,-3.993c-0.903,-1.265 -19.959,-27.412 -50.108,-27.412Z" style="fill-rule:nonzero;"/><g><path d="M672.658,201.964c0,0 -66.676,-26.915 -108.907,-27.264c-33.07,-0.275 -79.803,15.996 -115.682,12.581c-7.228,-0.689 -74.851,-20.394 -74.851,-20.394l-14.841,-44.987l24.564,-34.283c0,0 24.865,7.992 5.213,37.341l8.816,17.693l33.89,5.466" style="fill:none;fill-rule:nonzero;stroke:#000;stroke-width:8.72px;"/><path d="M680,128.988c-48.067,-7.507 -72.675,-33.964 -102.682,-37.934c-39.492,-5.221 -63.693,9.807 -63.693,9.807l-19.342,-7.974l-7.442,-18.536l6.7,-4.069c24.442,16.463 34.592,-6.744 34.592,-6.744l-27.756,-17.035c-5.898,-3.385 -15.648,-3.568 -21.668,-0.406l-16.572,8.725c-6.02,3.167 -8.907,10.936 -6.421,17.261l27.949,64.36" style="fill:none;fill-rule:nonzero;stroke:#000;stroke-width:8.72px;stroke-linejoin:miter;"/><path d="M459.223,57.814l-19.176,8.899c-6.168,2.862 -9.03,10.321 -6.356,16.572l27.801,64.98" style="fill:none;fill-rule:nonzero;stroke:#000;stroke-width:8.72px;stroke-linejoin:miter;"/><path d="M437.835,159.118l-22.928,-52.765c-2.709,-6.238 0.166,-13.584 6.391,-16.319l12.171,-5.353" style="fill:none;fill-rule:nonzero;stroke:#000;stroke-width:8.72px;stroke-linejoin:miter;"/></g><path d="M879.186,8.728c-1.899,0 -3.811,0.105 -5.728,0.287c-0.089,-0 -0.172,0.028 -0.246,0.045c-0.554,0.156 -0.675,0.601 -0.235,1.151l13.408,16.761c0.714,0.893 0.707,2.164 -0.017,3.048l-8.727,10.662l12.08,10.003c0.845,0.699 1.114,1.879 0.657,2.876l-7.769,16.943l7.709,20.177l-19.488,-16.907c-0.657,-0.571 -0.958,-1.45 -0.788,-2.304l3.268,-16.371l-16.04,-10.246c-1.067,-0.682 -1.428,-2.072 -0.829,-3.188l6.048,-11.251l-16.171,-11.094c-0.564,-0.387 -1.069,-0.718 -2.093,-0.13c-22.682,14.75 -34.314,42.816 -26.913,70.435l28.294,105.595l68.533,-18.363l29.781,-111.144l-2.503,-9.341c-7.737,-28.877 -33.734,-47.788 -62.23,-47.642l-0.001,-0.002Zm123.012,41.957c-27.018,1.432 -51.124,19.924 -58.525,47.542l-28.294,105.595l124.105,33.254l28.294,-105.595c8.254,-30.801 -7.154,-62.171 -35.175,-74.99c-0.082,-0.037 -0.161,-0.065 -0.236,-0.085c-0.558,-0.145 -0.885,0.181 -0.779,0.878l3.232,21.221c0.171,1.126 -0.474,2.228 -1.539,2.63l-12.889,4.869l5.46,14.705c0.38,1.024 0.022,2.185 -0.869,2.818l-15.199,10.788l-3.414,21.329l-8.422,-24.386c-0.284,-0.822 -0.105,-1.736 0.469,-2.389l11.016,-12.543l-8.768,-16.894c-0.58,-1.118 -0.196,-2.512 0.875,-3.175l10.863,-6.721l-8.456,-17.692c-0.296,-0.618 -0.568,-1.157 -1.749,-1.159Zm-78.24,3.538c1.361,0.031 2.599,0.95 2.971,2.336c0.457,1.706 -0.577,3.455 -2.292,3.877l-11.346,3.041c-1.697,0.492 -3.466,-0.507 -3.924,-2.213c-0.457,-1.706 0.577,-3.455 2.292,-3.877l11.346,-3.04c0.318,-0.093 0.639,-0.133 0.953,-0.124Zm-22.69,6.08c1.361,0.031 2.598,0.95 2.969,2.336c0.457,1.706 -0.576,3.454 -2.291,3.877l-6.078,1.629c-1.696,0.492 -3.465,-0.506 -3.922,-2.212c-0.457,-1.706 0.576,-3.455 2.291,-3.877l6.078,-1.629c0.318,-0.093 0.639,-0.133 0.953,-0.124Zm26.379,8.931c1.456,-0.074 2.813,0.872 3.204,2.334c0.448,1.67 -0.534,3.389 -2.2,3.852l-11.346,3.04c-1.688,0.47 -3.436,-0.527 -3.889,-2.22c-0.454,-1.693 0.561,-3.432 2.258,-3.869l11.346,-3.04c0.209,-0.054 0.419,-0.085 0.627,-0.097l0,-0Zm-65.921,1.664c1.361,0.031 2.599,0.95 2.97,2.336c0.457,1.706 -0.576,3.455 -2.291,3.877l-3.972,1.064l-1.868,0.5c-1.696,0.492 -3.465,-0.505 -3.922,-2.211c-0.457,-1.706 0.576,-3.455 2.291,-3.877l1.868,-0.501l3.971,-1.063c0.318,-0.094 0.639,-0.133 0.953,-0.125Zm43.231,4.416c1.455,-0.077 2.813,0.872 3.205,2.334c0.448,1.67 -0.535,3.388 -2.201,3.852l-7.132,1.911l-1.867,0.501c-1.689,0.47 -3.436,-0.528 -3.89,-2.221c-0.454,-1.693 0.561,-3.432 2.259,-3.87l1.867,-0.5l7.132,-1.91c0.209,-0.054 0.419,-0.085 0.627,-0.097l0,-0Zm-60.415,0.189c1.361,0.032 2.599,0.95 2.971,2.337c0.457,1.705 -0.577,3.454 -2.292,3.876l-11.344,3.04c-1.696,0.492 -3.466,-0.505 -3.923,-2.211c-0.457,-1.706 0.576,-3.455 2.291,-3.877l11.345,-3.04c0.318,-0.094 0.638,-0.13 0.952,-0.125l0,0Zm87.217,8.703c3.47,-0.173 4.642,5.139 0.908,6.2l-11.347,3.041l-11.344,3.039c-1.692,0.48 -3.45,-0.516 -3.905,-2.216c-0.456,-1.699 0.568,-3.444 2.274,-3.874l11.344,-3.04l11.346,-3.039c0.251,-0.063 0.493,-0.1 0.724,-0.111l0,-0Zm-63.996,1.075c1.455,-0.076 2.813,0.873 3.205,2.334c0.447,1.671 -0.535,3.389 -2.201,3.853l-8.186,2.193l-11.345,3.04l-11.344,3.04c-1.689,0.47 -3.436,-0.528 -3.89,-2.221c-0.454,-1.693 0.561,-3.432 2.258,-3.87l11.344,-3.039l11.344,-3.04l8.187,-2.193c0.21,-0.054 0.42,-0.085 0.628,-0.096l-0,-0.001Zm29.961,8.045c3.47,-0.173 4.643,5.139 0.908,6.2l-11.346,3.041l-11.344,3.038c-1.692,0.481 -3.451,-0.516 -3.907,-2.215c-0.455,-1.7 0.569,-3.444 2.275,-3.874l11.344,-3.04l11.347,-3.04c0.251,-0.062 0.492,-0.099 0.723,-0.11l0,-0Zm63.408,2.754c0.314,0 0.635,0.034 0.953,0.125l11.344,3.038c1.715,0.423 2.749,2.171 2.292,3.877c-0.458,1.706 -2.227,2.705 -3.923,2.213l-11.344,-3.04c-1.715,-0.422 -2.749,-2.171 -2.291,-3.877c0.371,-1.386 1.608,-2.305 2.969,-2.337l0,0.001Zm-34.603,5.633c1.368,0.028 2.615,0.944 2.988,2.337c0.459,1.714 -0.587,3.469 -2.314,3.881l-1.867,0.501c-1.701,0.505 -3.485,-0.492 -3.944,-2.206c-0.46,-1.714 0.586,-3.47 2.313,-3.882l1.867,-0.5c0.319,-0.097 0.642,-0.136 0.957,-0.131l0,-0Zm57.291,0.447c0.314,-0 0.635,0.031 0.953,0.125l1.868,0.5l3.973,1.065c1.714,0.422 2.748,2.17 2.291,3.877c-0.457,1.705 -2.226,2.703 -3.923,2.211l-3.972,-1.065l-1.868,-0.5c-1.715,-0.422 -2.748,-2.171 -2.291,-3.877c0.371,-1.386 1.608,-2.304 2.969,-2.336Zm-120.132,0.285c3.47,-0.173 4.643,5.141 0.908,6.201l-11.345,3.039l-11.344,3.04c-1.693,0.481 -3.45,-0.516 -3.906,-2.216c-0.455,-1.699 0.568,-3.443 2.275,-3.873l11.344,-3.04l11.344,-3.04c0.251,-0.062 0.492,-0.099 0.724,-0.111l-0,0Zm49.629,2.807c1.367,0.028 2.615,0.945 2.988,2.338c0.46,1.714 -0.587,3.469 -2.313,3.881l-11.344,3.04c-1.702,0.506 -3.485,-0.491 -3.944,-2.205c-0.46,-1.714 0.586,-3.471 2.312,-3.883l11.344,-3.039c0.319,-0.096 0.641,-0.139 0.957,-0.133l-0,0.001Zm43.806,5.822c0.312,0 0.631,0.028 0.948,0.113l11.344,3.04l11.344,3.04l8.187,2.194c1.666,0.463 2.646,2.183 2.199,3.853c-0.448,1.67 -2.157,2.668 -3.831,2.236l-8.187,-2.193l-11.344,-3.04l-11.344,-3.039c-1.698,-0.437 -2.712,-2.175 -2.259,-3.868c0.369,-1.376 1.592,-2.293 2.943,-2.337l0,0.001Zm-66.497,0.258c1.368,0.028 2.615,0.944 2.988,2.337c0.459,1.714 -0.586,3.469 -2.313,3.881l-11.344,3.04l-11.346,3.04c-1.701,0.506 -3.485,-0.491 -3.944,-2.205c-0.459,-1.715 0.587,-3.47 2.313,-3.883l11.346,-3.039l11.344,-3.04c0.319,-0.097 0.641,-0.136 0.956,-0.131l0,-0Zm132.497,1.358c0.314,0 0.635,0.032 0.953,0.125l6.079,1.628c1.715,0.423 2.748,2.171 2.291,3.877c-0.457,1.706 -2.226,2.705 -3.922,2.213l-6.079,-1.63c-1.715,-0.422 -2.749,-2.17 -2.292,-3.876c0.372,-1.386 1.609,-2.305 2.97,-2.336l0,-0.001Zm17.423,4.668c0.314,0 0.635,0.032 0.953,0.125l11.346,3.04c1.715,0.422 2.749,2.171 2.291,3.877c-0.457,1.706 -2.226,2.704 -3.922,2.212l-11.346,-3.041c-1.715,-0.422 -2.749,-2.17 -2.292,-3.876c0.372,-1.386 1.609,-2.305 2.97,-2.336l-0,-0.001Zm-118.757,1.633c1.453,-0.071 2.806,0.875 3.196,2.333c0.447,1.668 -0.529,3.383 -2.191,3.851l-2.921,0.782l-1.865,0.5c-1.691,0.475 -3.444,-0.522 -3.898,-2.218c-0.455,-1.697 0.564,-3.438 2.266,-3.872l1.865,-0.499l2.922,-0.783c0.209,-0.054 0.418,-0.085 0.626,-0.093l-0,-0.001Zm-65.197,1.459c1.367,0.029 2.615,0.945 2.988,2.338c0.459,1.714 -0.587,3.469 -2.313,3.882l-11.345,3.04c-1.701,0.506 -3.484,-0.491 -3.944,-2.206c-0.459,-1.714 0.587,-3.47 2.313,-3.883l11.345,-3.039c0.319,-0.096 0.641,-0.138 0.956,-0.133l0,0.001Zm49.066,2.863c1.452,-0.071 2.806,0.875 3.197,2.333c0.447,1.667 -0.53,3.384 -2.191,3.851l-11.347,3.041c-1.691,0.475 -3.444,-0.523 -3.898,-2.219c-0.455,-1.697 0.564,-3.438 2.266,-3.872l11.347,-3.04c0.209,-0.054 0.418,-0.085 0.626,-0.093l-0,-0.001Zm47.447,2.74c0.313,0 0.632,0.028 0.95,0.119l11.345,3.04l11.344,3.039c3.984,1.131 2.383,7.102 -1.632,6.09l-22.689,-6.08c-1.706,-0.43 -2.729,-2.173 -2.274,-3.872c0.37,-1.381 1.6,-2.299 2.956,-2.337l-0,0.001Zm63.089,0.848c0.311,-0 0.631,0.028 0.947,0.113l1.868,0.501l7.131,1.911c1.666,0.463 2.648,2.183 2.2,3.853c-0.447,1.671 -2.157,2.668 -3.832,2.236l-7.132,-1.91l-1.867,-0.5c-1.698,-0.438 -2.712,-2.176 -2.259,-3.869c0.369,-1.375 1.592,-2.292 2.944,-2.336l-0,0.001Zm-133.226,2.491c1.452,-0.07 2.805,0.876 3.196,2.334c0.447,1.667 -0.53,3.383 -2.191,3.85l-11.347,3.042l-11.344,3.038l-11.344,3.04c-1.69,0.476 -3.443,-0.521 -3.898,-2.218c-0.454,-1.696 0.564,-3.438 2.266,-3.871l11.345,-3.04l11.344,-3.04l11.346,-3.04c0.209,-0.054 0.419,-0.085 0.627,-0.094l-0,-0.001Zm153.569,2.959c0.312,0 0.63,0.029 0.947,0.116l11.347,3.04c1.666,0.464 2.646,2.183 2.199,3.854c-0.448,1.67 -2.157,2.667 -3.831,2.236l-11.347,-3.04c-1.697,-0.437 -2.712,-2.175 -2.258,-3.868c0.369,-1.376 1.592,-2.293 2.943,-2.337l-0,-0.001Zm-49.397,2.821c0.313,0 0.633,0.028 0.95,0.119l11.344,3.039l11.346,3.041c3.984,1.131 2.385,7.101 -1.631,6.089l-11.346,-3.04l-11.345,-3.04c-1.706,-0.429 -2.73,-2.173 -2.275,-3.872c0.37,-1.381 1.601,-2.299 2.957,-2.337l0,0.001Zm-70.009,1.184c1.361,0.031 2.599,0.95 2.97,2.336c0.457,1.706 -0.576,3.455 -2.291,3.877l-11.344,3.04l-7.134,1.911l-11.344,3.04c-1.696,0.492 -3.466,-0.506 -3.923,-2.212c-0.457,-1.706 0.576,-3.454 2.291,-3.876l11.345,-3.04l7.133,-1.912l11.344,-3.039c0.318,-0.094 0.639,-0.134 0.953,-0.125Zm31.952,4.672c0.316,0 0.637,0.037 0.956,0.13l11.344,3.04c1.727,0.413 2.773,2.169 2.313,3.884c-0.459,1.714 -2.243,2.71 -3.944,2.204l-11.344,-3.039c-1.726,-0.412 -2.772,-2.168 -2.312,-3.882c0.373,-1.393 1.62,-2.313 2.987,-2.337l0,0Zm72.092,3.264c0.312,-0 0.632,0.028 0.949,0.118l11.344,3.04l11.348,3.041c3.983,1.132 2.383,7.102 -1.633,6.09l-11.346,-3.041l-11.344,-3.039c-1.706,-0.43 -2.731,-2.173 -2.275,-3.873c0.37,-1.38 1.6,-2.299 2.957,-2.337l-0,0.001Zm-49.404,2.816c0.316,-0 0.638,0.037 0.957,0.13l11.346,3.04l11.345,3.04c1.726,0.413 2.772,2.168 2.313,3.882c-0.46,1.715 -2.243,2.711 -3.944,2.205l-11.346,-3.04l-11.346,-3.04c-1.726,-0.412 -2.772,-2.166 -2.312,-3.88c0.373,-1.393 1.62,-2.313 2.987,-2.338l0,0.001Zm-95.809,0.28c1.361,0.032 2.6,0.95 2.971,2.336c0.457,1.706 -0.576,3.455 -2.291,3.877l-11.345,3.04l-11.344,3.04c-1.697,0.492 -3.466,-0.505 -3.923,-2.212c-0.457,-1.705 0.576,-3.455 2.291,-3.877l11.344,-3.039l11.344,-3.04c0.318,-0.093 0.639,-0.133 0.953,-0.125Zm38.866,5.649c1.36,0.031 2.598,0.951 2.969,2.337c0.457,1.706 -0.575,3.455 -2.29,3.877l-10.291,2.758l-11.347,3.039l-3.972,1.064l-9.24,2.477c-1.696,0.492 -3.466,-0.507 -3.923,-2.213c-0.457,-1.706 0.577,-3.454 2.292,-3.877l9.24,-2.475l3.971,-1.064l11.347,-3.041l10.291,-2.756c0.318,-0.094 0.638,-0.133 0.953,-0.125l-0,-0.001Zm30.247,2.992c0.313,-0 0.632,0.028 0.949,0.116l11.344,3.04l11.344,3.039l11.346,3.041c1.662,0.467 2.638,2.183 2.192,3.85c-0.447,1.667 -2.15,2.665 -3.823,2.239l-11.346,-3.04l-11.344,-3.04l-11.345,-3.039c-1.702,-0.434 -2.72,-2.175 -2.266,-3.871c0.369,-1.378 1.596,-2.295 2.949,-2.336l0,0.001Zm60.733,0.201c0.315,0 0.638,0.037 0.957,0.13l11.344,3.04c1.726,0.413 2.772,2.168 2.313,3.882c-0.46,1.715 -2.243,2.712 -3.944,2.205l-11.344,-3.038c-1.727,-0.413 -2.773,-2.168 -2.314,-3.883c0.373,-1.392 1.62,-2.312 2.988,-2.337l-0,0.001Zm22.689,6.079c0.315,-0 0.637,0.037 0.956,0.133l11.346,3.04c1.726,0.412 2.772,2.168 2.313,3.882c-0.459,1.714 -2.243,2.711 -3.944,2.205l-11.346,-3.04c-1.726,-0.412 -2.772,-2.167 -2.313,-3.881c0.373,-1.393 1.621,-2.313 2.988,-2.338l-0,-0.001Zm-159.862,3.107c1.361,0.031 2.598,0.95 2.969,2.336c0.457,1.706 -0.576,3.455 -2.291,3.877l-11.344,3.039c-1.696,0.492 -3.465,-0.505 -3.923,-2.211c-0.457,-1.706 0.577,-3.455 2.292,-3.877l11.344,-3.04c0.318,-0.093 0.639,-0.13 0.953,-0.124Zm121.82,2.772c0.312,0 0.632,0.029 0.949,0.117l11.346,3.041c1.661,0.467 2.638,2.184 2.191,3.851c-0.447,1.667 -2.151,2.664 -3.824,2.238l-11.346,-3.04c-1.702,-0.433 -2.721,-2.174 -2.267,-3.87c0.37,-1.379 1.597,-2.297 2.951,-2.337l-0,0Zm-49.399,2.818c0.314,-0 0.635,0.031 0.953,0.124l11.344,3.04l11.345,3.04c1.715,0.422 2.748,2.171 2.29,3.877c-0.457,1.706 -2.226,2.704 -3.922,2.212l-11.344,-3.04l-11.344,-3.039c-1.715,-0.422 -2.749,-2.171 -2.292,-3.877c0.372,-1.386 1.609,-2.305 2.97,-2.337Zm72.089,3.262c0.313,0 0.632,0.029 0.949,0.116l11.344,3.04l11.346,3.041c1.661,0.467 2.638,2.184 2.191,3.851c-0.446,1.667 -2.15,2.665 -3.822,2.239l-11.346,-3.04l-11.345,-3.04c-1.702,-0.434 -2.721,-2.174 -2.266,-3.871c0.369,-1.378 1.595,-2.296 2.949,-2.337l0,0.001Zm-38.054,5.857c0.314,0 0.635,0.032 0.953,0.125l11.344,3.04l11.347,3.04l11.344,3.04c1.715,0.422 2.748,2.171 2.291,3.877c-0.457,1.706 -2.226,2.703 -3.923,2.211l-11.344,-3.039l-11.346,-3.041l-11.345,-3.04c-1.715,-0.422 -2.749,-2.17 -2.291,-3.876c0.371,-1.387 1.609,-2.305 2.97,-2.337Zm-38.05,5.868c0.314,0 0.635,0.032 0.953,0.125l11.344,3.04c1.715,0.422 2.748,2.171 2.291,3.877c-0.457,1.706 -2.226,2.703 -3.922,2.211l-11.345,-3.04c-1.715,-0.422 -2.748,-2.17 -2.291,-3.876c0.372,-1.387 1.609,-2.305 2.97,-2.337Zm22.688,6.079c0.314,0 0.635,0.031 0.953,0.125l11.346,3.041l11.344,3.039l11.346,3.04l11.345,3.04c1.715,0.423 2.748,2.171 2.291,3.877c-0.458,1.706 -2.227,2.704 -3.923,2.212l-11.344,-3.04l-11.346,-3.04l-11.344,-3.04l-11.346,-3.04c-1.716,-0.422 -2.749,-2.171 -2.292,-3.877c0.372,-1.386 1.609,-2.305 2.97,-2.337Zm60.741,0.213c0.314,-0 0.635,0.031 0.953,0.124l11.346,3.04c1.715,0.423 2.748,2.171 2.291,3.877c-0.457,1.706 -2.226,2.704 -3.922,2.211l-11.347,-3.04c-1.715,-0.422 -2.748,-2.17 -2.291,-3.876c0.371,-1.386 1.609,-2.305 2.97,-2.336Zm-4.016,14.986c0.314,0 0.635,0.031 0.953,0.125l11.347,3.041c1.715,0.422 2.748,2.171 2.291,3.877c-0.457,1.706 -2.226,2.703 -3.923,2.211l-11.346,-3.04c-1.715,-0.422 -2.748,-2.17 -2.291,-3.876c0.371,-1.387 1.608,-2.306 2.969,-2.337l0,-0.001Z" style="fill-rule:nonzero;"/><path d="M1412.72,220.816c3.764,0.542 6.38,4.031 5.829,7.776c-0.486,3.434 -3.433,5.913 -6.802,5.913c-0.322,-0 -0.652,-0.019 -0.983,-0.074c-0.899,-0.128 -1.799,-0.284 -2.699,-0.45c-1.359,-0.257 -2.727,-0.532 -4.076,-0.541c-11.412,-0.092 -19.555,-1.249 -24.898,-6.693c-0.817,-0.826 -1.359,-1.845 -1.983,-2.8c-5.417,5.132 -11.421,7.868 -17.866,7.868c-4.581,-0 -9.364,-1.341 -14.266,-3.957c-4.508,4.774 -11.926,5.38 -18.105,5.416c-5.444,-0.027 -10.814,-0.578 -15.992,-1.11c-3.59,-0.377 -7.17,-0.744 -10.769,-0.937c-4.829,-0.257 -10.016,0.377 -15.02,0.982c-12.706,1.524 -28.203,3.407 -37.861,-11.76l-0.615,0.477c-8.171,6.253 -21.73,16.645 -35.878,0.524c-0.477,0.174 -1.276,0.652 -2.157,1.762c-4.93,6.252 -14.928,6.041 -24.623,5.931c-2.956,-0.064 -7.124,-0.119 -9.437,0.184c-1.029,2.176 -3.149,3.745 -5.711,3.938c-0.174,0.009 -0.349,0.019 -0.532,0.019c-3.572,-0 -6.583,-2.736 -6.858,-6.353c-0.221,-2.782 0.688,-5.408 2.561,-7.391c3.92,-4.177 10.484,-4.278 18.729,-4.168c-0.331,-13.762 -0.854,-28.377 -1.377,-42.809c-0.836,-23.209 -1.635,-45.132 -1.589,-62.456c0.055,-18.104 2.709,-34.354 8.088,-49.667c14.221,-40.478 58.142,-56.204 92.698,-50.623c20.537,-3.167 41.11,0.689 57.223,11.339c31.866,21.06 37.42,54.422 38.659,84.269c0.514,12.201 0.753,57.048 0.826,90.503c0.799,-0.322 1.653,-0.515 2.562,-0.515l0.073,0c3.801,0.037 6.849,3.159 6.812,6.959c-0.064,5.738 0.147,12.615 2.25,14.745c2.13,2.185 9.226,2.515 15.166,2.57c2.121,0.018 4.269,0.367 6.408,0.753l2.213,0.376Zm-205.518,-110.718c0.064,-18.123 2.717,-34.373 8.097,-49.668c4.517,-12.862 12.752,-24.025 23.594,-32.71c-16.911,6.481 -31.627,18.958 -38.081,37.301c-4.857,13.835 -7.253,28.607 -7.308,45.141c-0.055,17.058 0.744,38.843 1.579,61.923c0.523,14.432 1.047,29.048 1.377,42.828c0.68,-0.147 1.267,-0.312 1.607,-0.532c2.993,-3.865 7.418,-6.307 11.981,-6.647c-0.331,-12.991 -0.799,-26.174 -1.295,-39.128c-0.817,-21.336 -1.597,-41.487 -1.551,-58.508Zm140.923,103.576c6.086,4.241 10.934,5.416 15.368,3.415c-0.018,-30.517 -0.229,-96.36 -0.845,-111.068c-1.579,-37.888 -10.989,-59.141 -32.508,-73.362c-16.406,-10.852 -39.679,-13.202 -60.721,-6.124c-19.895,6.684 -34.877,20.712 -41.12,38.476c-4.866,13.827 -7.262,28.598 -7.317,45.151c-0.046,16.736 0.725,36.741 1.533,57.93c0.597,15.598 1.212,31.627 1.524,47.106c3.498,2.442 6.573,0.642 14.193,-5.187l0.79,-0.597c1.386,-1.083 2.938,-1.965 4.544,-2.864l1.699,-0.964c2.102,-1.267 4.728,-1.304 6.867,-0.12c1.037,0.377 3.681,1.423 5.003,4.425c4.866,10.778 11.577,10.439 26.294,8.667c5.581,-0.679 11.365,-1.377 17.388,-1.065c3.837,0.193 7.656,0.587 11.476,0.982c5.076,0.514 9.869,1.01 14.652,1.038c6.032,0.128 7.84,-0.928 8.079,-1.093c-0.119,-0.027 0.147,-1.992 -2.35,-7.969c-1.46,-3.497 0.192,-7.537 3.699,-9.006c3.498,-1.46 7.538,0.184 9.007,3.7c1.101,2.626 2.148,5.554 2.745,8.529Zm-45.702,-130.063c-0.587,13.175 -0.376,26.496 0.615,39.597c0.303,3.791 -2.543,7.096 -6.334,7.39c-0.175,0.018 -0.349,0.018 -0.533,0.018c-3.562,0 -6.582,-2.745 -6.858,-6.362c-1.037,-13.651 -1.257,-27.523 -0.651,-41.258c0.174,-3.8 3.47,-6.784 7.188,-6.573c3.801,0.174 6.748,3.388 6.573,7.188Zm-28.212,28.139l6.206,10.227c1.974,3.25 0.937,7.483 -2.313,9.456c-1.12,0.68 -2.35,1.001 -3.571,1.001c-2.332,0 -4.6,-1.184 -5.894,-3.314l-6.207,-10.227c-1.055,-1.735 -2.359,-3.902 -3.589,-4.563c-1.194,-0.652 -3.507,-0.514 -5.977,-0.367c-1.028,0.055 -2.139,0.082 -3.25,0.101c0.175,3.837 0.248,7.684 0.56,11.494c0.312,3.782 -2.515,7.106 -6.307,7.418c-0.193,0.009 -0.376,0.018 -0.569,0.018c-3.553,0 -6.564,-2.717 -6.858,-6.325c-1.065,-13.202 -1.267,-26.587 -0.753,-39.863c-0.413,-0.881 -0.688,-1.845 -0.688,-2.882c-0.01,-3.801 3.075,-6.886 6.876,-6.895l13.67,-0.037c1.744,0 4.104,0 6.582,0.918c6.253,2.323 9.934,9.548 8.392,16.434c-0.68,3.038 -2.231,5.848 -4.508,8.226c4.131,2.478 6.472,6.325 8.198,9.18Zm-20.124,-17.204c1.588,-0.9 2.764,-2.158 3.002,-3.223c0.028,-0.569 -0.909,-0.569 -1.524,-0.569l-6.16,0.018c-0.055,1.882 -0.073,3.755 -0.092,5.628c1.754,-0.523 3.425,-1.083 4.774,-1.854Zm63.677,-18.711c12.302,-1.937 22.768,1.708 28.111,9.769c4.159,6.233 4.352,13.945 0.524,20.124c-3.994,6.435 -11.366,9.942 -20.666,9.988l0,11.476c0,3.801 -3.085,6.886 -6.885,6.886c-3.801,-0 -6.886,-3.085 -6.886,-6.886l0,-44.554c0,-3.387 2.47,-6.27 5.802,-6.803Zm16.929,22.631c0.974,-1.57 0.873,-3.535 -0.284,-5.261c-1.588,-2.387 -4.664,-3.801 -8.676,-4.076l0,12.807c4.342,-0.027 7.583,-1.249 8.96,-3.47Z"/></svg>