<svg width="16px" height="16px" fill="currentColor" viewBox="0 0 24 24"><path id="rect1" d="M 0 0.029296875 L 0 2.3320312 L 1.1484375 2.3320312 L 1.1484375 21.638672 L 0.0703125 21.638672 L 0.0703125 24.008789 L 24.1875 24.008789 L 24.1875 21.638672 L 22.716797 21.638672 L 22.716797 2.3320312 L 24.117188 2.3320312 L 24.117188 0.029296875 L 0 0.029296875 z M 3.6005859 2.3320312 L 5.9033203 2.3320312 L 5.9033203 21.638672 L 3.6005859 21.638672 L 3.6005859 2.3320312 z M 8.3554688 2.3320312 L 10.705078 2.3320312 L 10.705078 21.638672 L 8.3554688 21.638672 L 8.3554688 2.3320312 z M 13.154297 2.3320312 L 15.46582 2.3320312 L 15.46582 7.2216797 L 13.154297 7.2216797 L 13.154297 2.3320312 z M 17.917969 2.3320312 L 20.267578 2.3320312 L 20.267578 7.2216797 L 17.917969 7.2216797 L 17.917969 2.3320312 z M 16.801758 9.6035156 A 2.390625 2.390625 0 0 1 19.192383 11.994141 A 2.390625 2.390625 0 0 1 17.953125 14.083008 L 17.953125 16.78125 L 15.609375 16.78125 L 15.609375 14.0625 A 2.390625 2.390625 0 0 1 14.411133 11.994141 A 2.390625 2.390625 0 0 1 16.801758 9.6035156 z M 13.154297 19.183594 L 15.46582 19.183594 L 15.46582 21.638672 L 13.154297 21.638672 L 13.154297 19.183594 z M 17.917969 19.183594 L 20.267578 19.183594 L 20.267578 21.638672 L 17.917969 21.638672 L 17.917969 19.183594 z " stroke="currentColor" stroke-width="0" stroke-linecap="round" stroke-linejoin="round"/></svg>
