<svg width="16px" height="16px" fill="currentColor" viewBox="0 0 24 24"><path d="m 3.1973709,24.000833 c -0.045101,-0.01198 -0.082003,-0.03598 -0.082003,-0.05334 0,-0.01735 1.1081455,-1.139838 2.4625452,-2.494418 l 2.462545,-2.462874 0.5715435,0.286102 c 1.0633179,0.532274 2.1239384,0.807134 3.2955654,0.854045 1.891062,0.07572 3.761502,-0.50898 5.265658,-1.646039 0.461721,-0.349036 1.343448,-1.26354 1.698973,-1.762132 0.385356,-0.540427 0.914404,-1.595528 1.106798,-2.20733 0.305663,-0.971994 0.353997,-1.316716 0.353997,-2.524718 0,-1.234331 -0.05443,-1.604549 -0.380741,-2.5896172 C 18.41629,4.7637297 13.091291,2.5361205 8.6681018,4.6800119 6.3607328,5.7983794 4.7481084,7.8945672 4.231274,10.447273 c -0.093332,0.460977 -0.1084003,0.675445 -0.1084003,1.54286 0,0.858556 0.015533,1.084033 0.1050917,1.525566 C 4.37496,14.240391 4.5720597,14.814 4.932302,15.565491 l 0.310009,0.646702 -2.5276371,2.527962 c -1.3902004,1.39038 -2.54271235,2.527962 -2.56113774,2.527962 -0.12257531,0 -0.13134472,-0.684286 -0.1195898,-9.331613 L 0.04613582,2.9698688 0.19753537,2.5950007 C 0.62925248,1.5260618 1.3844502,0.74360024 2.3874133,0.32606562 3.107424,0.02632453 2.548402,0.04291744 11.956849,0.04202557 21.401146,0.041129 20.830341,0.0240394 21.564567,0.3296981 c 0.95352,0.39695188 1.720015,1.1671128 2.121589,2.1317358 0.299777,0.7200969 0.283911,0.1489873 0.270258,9.7283181 l -0.01244,8.726926 -0.11081,0.32801 c -0.442191,1.308925 -1.344918,2.211652 -2.653842,2.653842 l -0.328009,0.110811 -8.785972,0.0067 c -4.8322832,0.0036 -8.8228712,-0.0032 -8.8679725,-0.01515 z M 11.151603,18.13434 C 8.5331808,17.650833 6.5412634,15.639523 6.0875805,13.02102 5.9720143,12.354011 6.0155184,11.148496 6.1780493,10.514089 6.316773,9.9726087 6.4246726,9.6803493 6.6593056,9.210545 8.1218358,6.2821276 11.63015,4.985784 14.660172,6.2541761 c 1.955927,0.8187672 3.401426,2.6677166 3.733351,4.7753569 0.08298,0.526921 0.07265,1.503765 -0.02155,2.038345 -0.233455,1.324744 -0.846204,2.466336 -1.832058,3.413244 -0.876741,0.842107 -1.838886,1.355574 -3.045382,1.625228 -0.529351,0.118312 -1.773314,0.133173 -2.342926,0.02799 z m 2.038345,-3.590419 v -2.319496 h 1.28861 1.288608 V 11.193537 10.16265 h -1.288608 -1.28861 V 8.8037534 7.4448563 H 12.159061 11.128174 V 8.8037534 10.16265 H 9.8161353 8.5040963 v 1.030887 1.030888 h 1.312039 1.3120387 v 2.319496 2.319496 h 1.030887 1.030887 z" id="path1" stroke="currentColor" stroke-width="0" stroke-linecap="round" stroke-linejoin="round"/></svg>
