<svg width="16px" height="16px" fill="currentColor" viewBox="0 0 24 24"><path id="path1" d="M 10.596833,23.882191 C 8.7831993,23.67215 6.909092,22.966803 5.2426303,21.867065 4.3226648,21.259956 2.7287506,19.666368 2.1102119,18.735285 1.1638343,17.310711 0.50598553,15.706213 0.20582472,14.090471 -0.0060111,12.950173 0.01612964,10.748112 0.25038704,9.6584843 0.76151602,7.2810109 1.8599865,5.262274 3.5663898,3.5644314 5.332812,1.8068707 7.5109979,0.65249011 9.8942869,0.21081491 11.050755,-0.00350431 13.32796,0.01670624 14.428808,0.25105894 17.922446,0.99479777 20.702265,2.9457184 22.45831,5.886293 c 1.531798,2.5650594 1.969234,6.002162 1.097052,8.619934 -0.491267,1.474487 -1.661706,2.554195 -3.147926,2.903901 -2.169886,0.510571 -4.165265,-0.611723 -4.848408,-2.726973 -0.116921,-0.362023 -0.153618,-0.85437 -0.191246,-2.565752 L 15.321212,9.9996402 14.47413,11.262153 c -0.465889,0.694382 -0.924935,1.348549 -1.020094,1.453707 -0.517959,0.572374 -1.610073,0.726149 -2.378121,0.334853 -0.362682,-0.184776 -0.511602,-0.358582 -1.3856501,-1.617206 L 8.7109708,10.023328 8.6896531,13.33067 8.668336,16.638013 H 7.7692791 6.8702227 L 6.8929085,12.735229 6.9155945,8.8324438 7.16151,8.4793388 C 7.6276848,7.8099689 8.4895591,7.5790415 9.2144433,7.9292831 9.5208149,8.077312 9.7133957,8.3151335 10.729555,9.8003196 c 0.689978,1.0084484 1.21748,1.7024164 1.295117,1.7038214 0.08042,0.0014 0.563952,-0.637232 1.252663,-1.6546432 0.710923,-1.0502242 1.212336,-1.710466 1.369258,-1.8029846 0.665692,-0.392485 1.455668,-0.2999968 1.991362,0.2331434 0.198364,0.1974174 0.374758,0.4700023 0.427988,0.6613709 0.05642,0.2028485 0.09072,1.1916185 0.09101,2.6235165 5.44e-4,2.664815 0.04861,2.909452 0.699467,3.559072 0.873634,0.871969 2.432722,0.813041 3.375127,-0.127576 0.439687,-0.438849 0.635653,-0.879205 0.824914,-1.853673 C 22.935642,8.6156354 20.072303,3.9316706 15.478457,2.3818129 14.219559,1.9570895 13.568927,1.8573613 12.056906,1.8573613 c -1.910645,0 -2.985585,0.2437839 -4.5694017,1.036286 C 6.4325947,3.4215026 5.6630738,3.9830747 4.7934518,4.8596857 3.3005364,6.3646 2.3796837,8.0935189 1.9690556,10.162545 c -0.1817748,0.915907 -0.1420148,3.082095 0.073713,4.015975 0.4632141,2.005244 1.4646456,3.759303 2.9537835,5.17371 1.7717228,1.68281 3.8995902,2.627903 6.2995089,2.797929 l 0.720035,0.05101 v 0.88378 0.88378 l -0.428443,-0.01069 c -0.235643,-0.0058 -0.681512,-0.04002 -0.99082,-0.07583 z" stroke="currentColor" stroke-width="0" stroke-linecap="round" stroke-linejoin="round"/></svg>
     
     