<?xml version="1.0" encoding="UTF-8" standalone="no"?><!DOCTYPE svg PUBLIC "-//W3C//DTD SVG 1.1//EN" "http://www.w3.org/Graphics/SVG/1.1/DTD/svg11.dtd"><svg width="100%" height="100%" viewBox="0 0 3800 2000" version="1.1" xmlns="http://www.w3.org/2000/svg" xmlns:xlink="http://www.w3.org/1999/xlink" xml:space="preserve" xmlns:serif="http://www.serif.com/" style="fill-rule:evenodd;clip-rule:evenodd;stroke-miterlimit:1.5;"><g transform="matrix(1.829268,0,0,1.008403,-295.121951,-3.361345)"><rect x="380" y="400" width="1640" height="1190" style="fill:#fff;"/><path d="M2020,400l0,1190l-1640,0l0,-1190l1640,-0Zm-10.933,19.833l-1618.133,-0l0,1150.333l1618.133,0l-0,-1150.333Z"/></g><rect x="400" y="440" width="20" height="90" style="fill:#fff;"/><rect x="400" y="760" width="20" height="90" style="fill:#fff;"/><rect x="400" y="1060" width="20" height="90" style="fill:#fff;"/><path d="M650,420l0,80" style="fill:none;stroke:#939393;stroke-width:18.33px;"/><g id="Escaleras"><circle cx="2940" cy="1000" r="120" style="fill:#fff;stroke:#000;stroke-width:3.17px;stroke-linecap:round;stroke-linejoin:round;"/><circle cx="2940" cy="1000" r="90" style="fill:#fff;stroke:#000;stroke-width:3.17px;stroke-linecap:round;stroke-linejoin:round;"/><circle cx="2940" cy="1000" r="60" style="fill:#fff;stroke:#000;stroke-width:3.17px;stroke-linecap:round;stroke-linejoin:round;"/><g><path d="M3380,417l0,1163l-225.882,0c-140.251,0 -254.118,-113.866 -254.118,-254.118l0,-908.882l480,0Z" style="fill:#fff;"/><clipPath id="_clip1"><path d="M3380,417l0,1163l-225.882,0c-140.251,0 -254.118,-113.866 -254.118,-254.118l0,-908.882l480,0Z"/></clipPath><g clip-path="url(#_clip1)"><path d="M2899.5,1241.296l481,-485.593" style="fill:none;stroke:#000;stroke-width:1px;stroke-linecap:round;stroke-linejoin:round;stroke-miterlimit:2;"/><path d="M2899.5,1227.59l481,-485.593" style="fill:none;stroke:#000;stroke-width:1px;stroke-linecap:round;stroke-linejoin:round;stroke-miterlimit:2;"/><path d="M2899.5,1213.884l481,-485.593" style="fill:none;stroke:#000;stroke-width:1px;stroke-linecap:round;stroke-linejoin:round;stroke-miterlimit:2;"/><path d="M2899.5,1200.178l481,-485.593" style="fill:none;stroke:#000;stroke-width:1px;stroke-linecap:round;stroke-linejoin:round;stroke-miterlimit:2;"/><path d="M2899.5,1186.472l481,-485.593" style="fill:none;stroke:#000;stroke-width:1px;stroke-linecap:round;stroke-linejoin:round;stroke-miterlimit:2;"/><path d="M2899.5,1172.766l481,-485.593" style="fill:none;stroke:#000;stroke-width:1px;stroke-linecap:round;stroke-linejoin:round;stroke-miterlimit:2;"/><path d="M2899.5,1159.06l481,-485.593" style="fill:none;stroke:#000;stroke-width:1px;stroke-linecap:round;stroke-linejoin:round;stroke-miterlimit:2;"/><path d="M2899.5,1145.354l481,-485.593" style="fill:none;stroke:#000;stroke-width:1px;stroke-linecap:round;stroke-linejoin:round;stroke-miterlimit:2;"/><path d="M2899.5,1131.648l481,-485.593" style="fill:none;stroke:#000;stroke-width:1px;stroke-linecap:round;stroke-linejoin:round;stroke-miterlimit:2;"/><path d="M2899.5,1117.942l481,-485.593" style="fill:none;stroke:#000;stroke-width:1px;stroke-linecap:round;stroke-linejoin:round;stroke-miterlimit:2;"/><path d="M2899.5,1104.236l481,-485.593" style="fill:none;stroke:#000;stroke-width:1px;stroke-linecap:round;stroke-linejoin:round;stroke-miterlimit:2;"/><path d="M2899.5,1090.529l481,-485.593" style="fill:none;stroke:#000;stroke-width:1px;stroke-linecap:round;stroke-linejoin:round;stroke-miterlimit:2;"/><path d="M2899.5,1076.823l481,-485.593" style="fill:none;stroke:#000;stroke-width:1px;stroke-linecap:round;stroke-linejoin:round;stroke-miterlimit:2;"/><path d="M2899.5,1063.117l481,-485.593" style="fill:none;stroke:#000;stroke-width:1px;stroke-linecap:round;stroke-linejoin:round;stroke-miterlimit:2;"/><path d="M2899.5,1049.411l481,-485.593" style="fill:none;stroke:#000;stroke-width:1px;stroke-linecap:round;stroke-linejoin:round;stroke-miterlimit:2;"/><path d="M2899.5,1035.705l481,-485.593" style="fill:none;stroke:#000;stroke-width:1px;stroke-linecap:round;stroke-linejoin:round;stroke-miterlimit:2;"/><path d="M2899.5,1021.999l481,-485.593" style="fill:none;stroke:#000;stroke-width:1px;stroke-linecap:round;stroke-linejoin:round;stroke-miterlimit:2;"/><path d="M2899.5,1008.293l481,-485.593" style="fill:none;stroke:#000;stroke-width:1px;stroke-linecap:round;stroke-linejoin:round;stroke-miterlimit:2;"/><path d="M2899.5,994.587l481,-485.593" style="fill:none;stroke:#000;stroke-width:1px;stroke-linecap:round;stroke-linejoin:round;stroke-miterlimit:2;"/><path d="M2899.5,980.881l481,-485.593" style="fill:none;stroke:#000;stroke-width:1px;stroke-linecap:round;stroke-linejoin:round;stroke-miterlimit:2;"/><path d="M2899.5,967.175l481,-485.593" style="fill:none;stroke:#000;stroke-width:1px;stroke-linecap:round;stroke-linejoin:round;stroke-miterlimit:2;"/><path d="M2899.5,953.469l481,-485.593" style="fill:none;stroke:#000;stroke-width:1px;stroke-linecap:round;stroke-linejoin:round;stroke-miterlimit:2;"/><path d="M2899.5,939.763l481,-485.593" style="fill:none;stroke:#000;stroke-width:1px;stroke-linecap:round;stroke-linejoin:round;stroke-miterlimit:2;"/><path d="M2899.5,926.056l481,-485.593" style="fill:none;stroke:#000;stroke-width:1px;stroke-linecap:round;stroke-linejoin:round;stroke-miterlimit:2;"/><path d="M2899.5,912.35l481,-485.593" style="fill:none;stroke:#000;stroke-width:1px;stroke-linecap:round;stroke-linejoin:round;stroke-miterlimit:2;"/><path d="M2899.5,898.644l477.584,-482.144" style="fill:none;stroke:#000;stroke-width:1px;stroke-linecap:round;stroke-linejoin:round;stroke-miterlimit:2;"/><path d="M2899.5,884.938l464.008,-468.438" style="fill:none;stroke:#000;stroke-width:1px;stroke-linecap:round;stroke-linejoin:round;stroke-miterlimit:2;"/><path d="M2899.5,871.232l450.431,-454.732" style="fill:none;stroke:#000;stroke-width:1px;stroke-linecap:round;stroke-linejoin:round;stroke-miterlimit:2;"/><path d="M2899.5,857.526l436.855,-441.026" style="fill:none;stroke:#000;stroke-width:1px;stroke-linecap:round;stroke-linejoin:round;stroke-miterlimit:2;"/><path d="M2899.5,843.82l423.278,-427.32" style="fill:none;stroke:#000;stroke-width:1px;stroke-linecap:round;stroke-linejoin:round;stroke-miterlimit:2;"/><path d="M2899.5,830.114l409.702,-413.614" style="fill:none;stroke:#000;stroke-width:1px;stroke-linecap:round;stroke-linejoin:round;stroke-miterlimit:2;"/><path d="M2899.5,816.408l396.125,-399.908" style="fill:none;stroke:#000;stroke-width:1px;stroke-linecap:round;stroke-linejoin:round;stroke-miterlimit:2;"/><path d="M2899.5,802.702l382.549,-386.202" style="fill:none;stroke:#000;stroke-width:1px;stroke-linecap:round;stroke-linejoin:round;stroke-miterlimit:2;"/><path d="M2899.5,788.996l368.972,-372.496" style="fill:none;stroke:#000;stroke-width:1px;stroke-linecap:round;stroke-linejoin:round;stroke-miterlimit:2;"/><path d="M2899.5,775.29l355.396,-358.79" style="fill:none;stroke:#000;stroke-width:1px;stroke-linecap:round;stroke-linejoin:round;stroke-miterlimit:2;"/><path d="M2899.5,761.583l341.82,-345.083" style="fill:none;stroke:#000;stroke-width:1px;stroke-linecap:round;stroke-linejoin:round;stroke-miterlimit:2;"/><path d="M2899.5,747.877l328.243,-331.377" style="fill:none;stroke:#000;stroke-width:1px;stroke-linecap:round;stroke-linejoin:round;stroke-miterlimit:2;"/><path d="M2899.5,734.171l314.667,-317.671" style="fill:none;stroke:#000;stroke-width:1px;stroke-linecap:round;stroke-linejoin:round;stroke-miterlimit:2;"/><path d="M2899.5,720.465l301.09,-303.965" style="fill:none;stroke:#000;stroke-width:1px;stroke-linecap:round;stroke-linejoin:round;stroke-miterlimit:2;"/><path d="M2899.5,706.759l287.514,-290.259" style="fill:none;stroke:#000;stroke-width:1px;stroke-linecap:round;stroke-linejoin:round;stroke-miterlimit:2;"/><path d="M2899.5,693.053l273.937,-276.553" style="fill:none;stroke:#000;stroke-width:1px;stroke-linecap:round;stroke-linejoin:round;stroke-miterlimit:2;"/><path d="M2899.5,679.347l260.361,-262.847" style="fill:none;stroke:#000;stroke-width:1px;stroke-linecap:round;stroke-linejoin:round;stroke-miterlimit:2;"/><path d="M2899.5,665.641l246.784,-249.141" style="fill:none;stroke:#000;stroke-width:1px;stroke-linecap:round;stroke-linejoin:round;stroke-miterlimit:2;"/><path d="M2899.5,651.935l233.208,-235.435" style="fill:none;stroke:#000;stroke-width:1px;stroke-linecap:round;stroke-linejoin:round;stroke-miterlimit:2;"/><path d="M2899.5,638.229l219.631,-221.729" style="fill:none;stroke:#000;stroke-width:1px;stroke-linecap:round;stroke-linejoin:round;stroke-miterlimit:2;"/><path d="M2899.5,624.523l206.055,-208.023" style="fill:none;stroke:#000;stroke-width:1px;stroke-linecap:round;stroke-linejoin:round;stroke-miterlimit:2;"/><path d="M2899.5,610.816l192.479,-194.316" style="fill:none;stroke:#000;stroke-width:1px;stroke-linecap:round;stroke-linejoin:round;stroke-miterlimit:2;"/><path d="M2899.5,597.11l178.902,-180.61" style="fill:none;stroke:#000;stroke-width:1px;stroke-linecap:round;stroke-linejoin:round;stroke-miterlimit:2;"/><path d="M2899.5,583.404l165.326,-166.904" style="fill:none;stroke:#000;stroke-width:1px;stroke-linecap:round;stroke-linejoin:round;stroke-miterlimit:2;"/><path d="M2899.5,569.698l151.749,-153.198" style="fill:none;stroke:#000;stroke-width:1px;stroke-linecap:round;stroke-linejoin:round;stroke-miterlimit:2;"/><path d="M2899.5,555.992l138.173,-139.492" style="fill:none;stroke:#000;stroke-width:1px;stroke-linecap:round;stroke-linejoin:round;stroke-miterlimit:2;"/><path d="M2899.5,542.286l124.596,-125.786" style="fill:none;stroke:#000;stroke-width:1px;stroke-linecap:round;stroke-linejoin:round;stroke-miterlimit:2;"/><path d="M2899.5,528.58l111.02,-112.08" style="fill:none;stroke:#000;stroke-width:1px;stroke-linecap:round;stroke-linejoin:round;stroke-miterlimit:2;"/><path d="M2899.5,514.874l97.443,-98.374" style="fill:none;stroke:#000;stroke-width:1px;stroke-linecap:round;stroke-linejoin:round;stroke-miterlimit:2;"/><path d="M2899.5,501.168l83.867,-84.668" style="fill:none;stroke:#000;stroke-width:1px;stroke-linecap:round;stroke-linejoin:round;stroke-miterlimit:2;"/><path d="M2899.5,487.462l70.291,-70.962" style="fill:none;stroke:#000;stroke-width:1px;stroke-linecap:round;stroke-linejoin:round;stroke-miterlimit:2;"/><path d="M2899.5,473.756l56.714,-57.256" style="fill:none;stroke:#000;stroke-width:1px;stroke-linecap:round;stroke-linejoin:round;stroke-miterlimit:2;"/><path d="M2899.5,460.05l43.138,-43.55" style="fill:none;stroke:#000;stroke-width:1px;stroke-linecap:round;stroke-linejoin:round;stroke-miterlimit:2;"/><path d="M2899.5,446.343l29.561,-29.843" style="fill:none;stroke:#000;stroke-width:1px;stroke-linecap:round;stroke-linejoin:round;stroke-miterlimit:2;"/><path d="M2899.5,432.637l15.985,-16.137" style="fill:none;stroke:#000;stroke-width:1px;stroke-linecap:round;stroke-linejoin:round;stroke-miterlimit:2;"/><path d="M2899.5,418.931l2.408,-2.431" style="fill:none;stroke:#000;stroke-width:1px;stroke-linecap:round;stroke-linejoin:round;stroke-miterlimit:2;"/><path d="M2899.5,1255.003l481,-485.593" style="fill:none;stroke:#000;stroke-width:1px;stroke-linecap:round;stroke-linejoin:round;stroke-miterlimit:2;"/><path d="M2899.5,1268.709l481,-485.593" style="fill:none;stroke:#000;stroke-width:1px;stroke-linecap:round;stroke-linejoin:round;stroke-miterlimit:2;"/><path d="M2899.5,1282.415l481,-485.593" style="fill:none;stroke:#000;stroke-width:1px;stroke-linecap:round;stroke-linejoin:round;stroke-miterlimit:2;"/><path d="M2899.5,1296.121l481,-485.593" style="fill:none;stroke:#000;stroke-width:1px;stroke-linecap:round;stroke-linejoin:round;stroke-miterlimit:2;"/><path d="M2899.5,1309.827l481,-485.593" style="fill:none;stroke:#000;stroke-width:1px;stroke-linecap:round;stroke-linejoin:round;stroke-miterlimit:2;"/><path d="M2899.5,1323.533l481,-485.593" style="fill:none;stroke:#000;stroke-width:1px;stroke-linecap:round;stroke-linejoin:round;stroke-miterlimit:2;"/><path d="M2899.5,1337.239l481,-485.593" style="fill:none;stroke:#000;stroke-width:1px;stroke-linecap:round;stroke-linejoin:round;stroke-miterlimit:2;"/><path d="M2899.5,1350.945l481,-485.593" style="fill:none;stroke:#000;stroke-width:1px;stroke-linecap:round;stroke-linejoin:round;stroke-miterlimit:2;"/><path d="M2899.5,1364.651l481,-485.593" style="fill:none;stroke:#000;stroke-width:1px;stroke-linecap:round;stroke-linejoin:round;stroke-miterlimit:2;"/><path d="M2899.5,1378.357l481,-485.593" style="fill:none;stroke:#000;stroke-width:1px;stroke-linecap:round;stroke-linejoin:round;stroke-miterlimit:2;"/><path d="M2899.5,1392.063l481,-485.593" style="fill:none;stroke:#000;stroke-width:1px;stroke-linecap:round;stroke-linejoin:round;stroke-miterlimit:2;"/><path d="M2899.5,1405.769l481,-485.593" style="fill:none;stroke:#000;stroke-width:1px;stroke-linecap:round;stroke-linejoin:round;stroke-miterlimit:2;"/><path d="M2899.5,1419.476l481,-485.593" style="fill:none;stroke:#000;stroke-width:1px;stroke-linecap:round;stroke-linejoin:round;stroke-miterlimit:2;"/><path d="M2899.5,1433.182l481,-485.593" style="fill:none;stroke:#000;stroke-width:1px;stroke-linecap:round;stroke-linejoin:round;stroke-miterlimit:2;"/><path d="M2899.5,1446.888l481,-485.593" style="fill:none;stroke:#000;stroke-width:1px;stroke-linecap:round;stroke-linejoin:round;stroke-miterlimit:2;"/><path d="M2899.5,1460.594l481,-485.593" style="fill:none;stroke:#000;stroke-width:1px;stroke-linecap:round;stroke-linejoin:round;stroke-miterlimit:2;"/><path d="M2899.5,1474.3l481,-485.593" style="fill:none;stroke:#000;stroke-width:1px;stroke-linecap:round;stroke-linejoin:round;stroke-miterlimit:2;"/><path d="M2899.5,1488.006l481,-485.593" style="fill:none;stroke:#000;stroke-width:1px;stroke-linecap:round;stroke-linejoin:round;stroke-miterlimit:2;"/><path d="M2899.5,1501.712l481,-485.593" style="fill:none;stroke:#000;stroke-width:1px;stroke-linecap:round;stroke-linejoin:round;stroke-miterlimit:2;"/><path d="M2899.5,1515.418l481,-485.593" style="fill:none;stroke:#000;stroke-width:1px;stroke-linecap:round;stroke-linejoin:round;stroke-miterlimit:2;"/><path d="M2899.5,1529.124l481,-485.593" style="fill:none;stroke:#000;stroke-width:1px;stroke-linecap:round;stroke-linejoin:round;stroke-miterlimit:2;"/><path d="M2899.5,1542.83l481,-485.593" style="fill:none;stroke:#000;stroke-width:1px;stroke-linecap:round;stroke-linejoin:round;stroke-miterlimit:2;"/><path d="M2899.5,1556.536l481,-485.593" style="fill:none;stroke:#000;stroke-width:1px;stroke-linecap:round;stroke-linejoin:round;stroke-miterlimit:2;"/><path d="M2899.5,1570.243l481,-485.593" style="fill:none;stroke:#000;stroke-width:1px;stroke-linecap:round;stroke-linejoin:round;stroke-miterlimit:2;"/><path d="M2902.916,1580.5l477.584,-482.144" style="fill:none;stroke:#000;stroke-width:1px;stroke-linecap:round;stroke-linejoin:round;stroke-miterlimit:2;"/><path d="M2916.492,1580.5l464.008,-468.438" style="fill:none;stroke:#000;stroke-width:1px;stroke-linecap:round;stroke-linejoin:round;stroke-miterlimit:2;"/><path d="M2930.069,1580.5l450.431,-454.732" style="fill:none;stroke:#000;stroke-width:1px;stroke-linecap:round;stroke-linejoin:round;stroke-miterlimit:2;"/><path d="M2943.645,1580.5l436.855,-441.026" style="fill:none;stroke:#000;stroke-width:1px;stroke-linecap:round;stroke-linejoin:round;stroke-miterlimit:2;"/><path d="M2957.222,1580.5l423.278,-427.32" style="fill:none;stroke:#000;stroke-width:1px;stroke-linecap:round;stroke-linejoin:round;stroke-miterlimit:2;"/><path d="M2970.798,1580.5l409.702,-413.614" style="fill:none;stroke:#000;stroke-width:1px;stroke-linecap:round;stroke-linejoin:round;stroke-miterlimit:2;"/><path d="M2984.375,1580.5l396.125,-399.908" style="fill:none;stroke:#000;stroke-width:1px;stroke-linecap:round;stroke-linejoin:round;stroke-miterlimit:2;"/><path d="M2997.951,1580.5l382.549,-386.202" style="fill:none;stroke:#000;stroke-width:1px;stroke-linecap:round;stroke-linejoin:round;stroke-miterlimit:2;"/><path d="M3011.528,1580.5l368.972,-372.496" style="fill:none;stroke:#000;stroke-width:1px;stroke-linecap:round;stroke-linejoin:round;stroke-miterlimit:2;"/><path d="M3025.104,1580.5l355.396,-358.79" style="fill:none;stroke:#000;stroke-width:1px;stroke-linecap:round;stroke-linejoin:round;stroke-miterlimit:2;"/><path d="M3038.68,1580.5l341.82,-345.083" style="fill:none;stroke:#000;stroke-width:1px;stroke-linecap:round;stroke-linejoin:round;stroke-miterlimit:2;"/><path d="M3052.257,1580.5l328.243,-331.377" style="fill:none;stroke:#000;stroke-width:1px;stroke-linecap:round;stroke-linejoin:round;stroke-miterlimit:2;"/><path d="M3065.833,1580.5l314.667,-317.671" style="fill:none;stroke:#000;stroke-width:1px;stroke-linecap:round;stroke-linejoin:round;stroke-miterlimit:2;"/><path d="M3079.41,1580.5l301.09,-303.965" style="fill:none;stroke:#000;stroke-width:1px;stroke-linecap:round;stroke-linejoin:round;stroke-miterlimit:2;"/><path d="M3092.986,1580.5l287.514,-290.259" style="fill:none;stroke:#000;stroke-width:1px;stroke-linecap:round;stroke-linejoin:round;stroke-miterlimit:2;"/><path d="M3106.563,1580.5l273.937,-276.553" style="fill:none;stroke:#000;stroke-width:1px;stroke-linecap:round;stroke-linejoin:round;stroke-miterlimit:2;"/><path d="M3120.139,1580.5l260.361,-262.847" style="fill:none;stroke:#000;stroke-width:1px;stroke-linecap:round;stroke-linejoin:round;stroke-miterlimit:2;"/><path d="M3133.716,1580.5l246.784,-249.141" style="fill:none;stroke:#000;stroke-width:1px;stroke-linecap:round;stroke-linejoin:round;stroke-miterlimit:2;"/><path d="M3147.292,1580.5l233.208,-235.435" style="fill:none;stroke:#000;stroke-width:1px;stroke-linecap:round;stroke-linejoin:round;stroke-miterlimit:2;"/><path d="M3160.869,1580.5l219.631,-221.729" style="fill:none;stroke:#000;stroke-width:1px;stroke-linecap:round;stroke-linejoin:round;stroke-miterlimit:2;"/><path d="M3174.445,1580.5l206.055,-208.023" style="fill:none;stroke:#000;stroke-width:1px;stroke-linecap:round;stroke-linejoin:round;stroke-miterlimit:2;"/><path d="M3188.021,1580.5l192.479,-194.316" style="fill:none;stroke:#000;stroke-width:1px;stroke-linecap:round;stroke-linejoin:round;stroke-miterlimit:2;"/><path d="M3201.598,1580.5l178.902,-180.61" style="fill:none;stroke:#000;stroke-width:1px;stroke-linecap:round;stroke-linejoin:round;stroke-miterlimit:2;"/><path d="M3215.174,1580.5l165.326,-166.904" style="fill:none;stroke:#000;stroke-width:1px;stroke-linecap:round;stroke-linejoin:round;stroke-miterlimit:2;"/><path d="M3228.751,1580.5l151.749,-153.198" style="fill:none;stroke:#000;stroke-width:1px;stroke-linecap:round;stroke-linejoin:round;stroke-miterlimit:2;"/><path d="M3242.327,1580.5l138.173,-139.492" style="fill:none;stroke:#000;stroke-width:1px;stroke-linecap:round;stroke-linejoin:round;stroke-miterlimit:2;"/><path d="M3255.904,1580.5l124.596,-125.786" style="fill:none;stroke:#000;stroke-width:1px;stroke-linecap:round;stroke-linejoin:round;stroke-miterlimit:2;"/><path d="M3269.48,1580.5l111.02,-112.08" style="fill:none;stroke:#000;stroke-width:1px;stroke-linecap:round;stroke-linejoin:round;stroke-miterlimit:2;"/><path d="M3283.057,1580.5l97.443,-98.374" style="fill:none;stroke:#000;stroke-width:1px;stroke-linecap:round;stroke-linejoin:round;stroke-miterlimit:2;"/><path d="M3296.633,1580.5l83.867,-84.668" style="fill:none;stroke:#000;stroke-width:1px;stroke-linecap:round;stroke-linejoin:round;stroke-miterlimit:2;"/><path d="M3310.209,1580.5l70.291,-70.962" style="fill:none;stroke:#000;stroke-width:1px;stroke-linecap:round;stroke-linejoin:round;stroke-miterlimit:2;"/><path d="M3323.786,1580.5l56.714,-57.256" style="fill:none;stroke:#000;stroke-width:1px;stroke-linecap:round;stroke-linejoin:round;stroke-miterlimit:2;"/><path d="M3337.362,1580.5l43.138,-43.55" style="fill:none;stroke:#000;stroke-width:1px;stroke-linecap:round;stroke-linejoin:round;stroke-miterlimit:2;"/><path d="M3350.939,1580.5l29.561,-29.843" style="fill:none;stroke:#000;stroke-width:1px;stroke-linecap:round;stroke-linejoin:round;stroke-miterlimit:2;"/><path d="M3364.515,1580.5l15.985,-16.137" style="fill:none;stroke:#000;stroke-width:1px;stroke-linecap:round;stroke-linejoin:round;stroke-miterlimit:2;"/><path d="M3378.092,1580.5l2.408,-2.431" style="fill:none;stroke:#000;stroke-width:1px;stroke-linecap:round;stroke-linejoin:round;stroke-miterlimit:2;"/></g><path d="M3380,417l0,1163l-225.882,0c-140.251,0 -254.118,-113.866 -254.118,-254.118l0,-908.882l480,0Z" style="fill:none;stroke:#000;stroke-width:3.17px;stroke-linecap:round;stroke-linejoin:round;"/></g><g><rect x="2800" y="619" width="100" height="20" style="fill:#fff;stroke:#000;stroke-width:2.08px;stroke-linecap:round;stroke-linejoin:round;"/><rect x="2800" y="599" width="100" height="20" style="fill:#fff;stroke:#000;stroke-width:2.08px;stroke-linecap:round;stroke-linejoin:round;"/><rect x="2800" y="579" width="100" height="20" style="fill:#fff;stroke:#000;stroke-width:2.08px;stroke-linecap:round;stroke-linejoin:round;"/><path id="ventana" d="M2800,600l0,-200" style="fill:none;stroke:#000;stroke-width:7.5px;stroke-linejoin:round;"/></g></g><g id="Ventana"><rect x="2460" y="1580" width="380" height="20" style="fill:#fff;"/><path d="M2840,1580l0,20l-380,0l0,-20l380,0Zm-1,1l-378,-0l-0,18l378,-0l-0,-18Z"/><path d="M2460,1590l380,0" style="fill:none;stroke:#000;stroke-width:1px;stroke-linejoin:round;"/></g><g id="Puerta"><rect x="2240" y="1580" width="100" height="20" style="fill:#fff;"/><path d="M2340,1580l0,20l-100,0l0,-20l100,0Zm-2.083,2.083l-95.833,0l-0,15.833l95.833,-0l0,-15.833Z"/><g id="Puerta1" serif:id="Puerta"><rect x="1960" y="1580" width="100" height="20" style="fill:#fff;"/><path d="M2060,1580l0,20l-100,0l0,-20l100,0Zm-2.083,2.083l-95.833,0l-0,15.833l95.833,-0l0,-15.833Z"/><path d="M1960,1590l100,0" style="fill:none;stroke:#000;stroke-width:2.92px;stroke-linejoin:round;"/></g><path d="M2240,1590l100,0" style="fill:none;stroke:#000;stroke-width:2.92px;stroke-linejoin:round;"/><path d="M2060,1570l88,0" style="fill:none;stroke:#2c2c2c;stroke-width:2.08px;stroke-linejoin:round;"/><path d="M2060,1570l-80,-35" style="fill:none;stroke:#2c2c2c;stroke-width:2.08px;stroke-linejoin:round;"/><path d="M1979.979,1535.509l-1.606,-0.694c0.118,-0.274 0.238,-0.546 0.359,-0.819l1.599,0.71c-0.118,0.267 -0.236,0.534 -0.351,0.802Zm1.079,-2.396l-1.585,-0.742c0.253,-0.54 0.511,-1.077 0.775,-1.611l1.569,0.774c-0.258,0.523 -0.511,1.05 -0.759,1.579Zm1.55,-3.142l-1.553,-0.806c0.274,-0.529 0.554,-1.055 0.839,-1.578l1.537,0.837c-0.279,0.513 -0.553,1.028 -0.822,1.547Zm1.676,-3.077l-1.52,-0.868c0.296,-0.518 0.596,-1.032 0.902,-1.543l1.502,0.898c-0.3,0.501 -0.594,1.005 -0.884,1.513Zm1.798,-3.007l-1.484,-0.928c0.316,-0.505 0.637,-1.007 0.963,-1.505l1.465,0.958c-0.319,0.489 -0.634,0.981 -0.944,1.476Zm1.917,-2.933l-1.445,-0.987c0.336,-0.492 0.677,-0.981 1.022,-1.466l1.425,1.016c-0.339,0.475 -0.673,0.954 -1.002,1.437Zm2.033,-2.853l-1.405,-1.044c0.355,-0.478 0.716,-0.953 1.08,-1.423l1.383,1.072c-0.358,0.462 -0.711,0.927 -1.059,1.396Zm2.146,-2.77l-1.362,-1.099c0.374,-0.464 0.753,-0.923 1.136,-1.379l1.339,1.126c-0.376,0.447 -0.747,0.898 -1.114,1.352Zm2.255,-2.682l-1.317,-1.153c0.392,-0.448 0.789,-0.892 1.19,-1.333l1.293,1.179c-0.393,0.432 -0.782,0.867 -1.167,1.307Zm2.36,-2.59l-1.27,-1.204c0.41,-0.432 0.824,-0.86 1.243,-1.284l1.245,1.23c-0.41,0.416 -0.817,0.835 -1.218,1.259Zm2.462,-2.493l-1.22,-1.254c0.427,-0.415 0.858,-0.827 1.293,-1.233l1.195,1.278c-0.427,0.399 -0.849,0.802 -1.268,1.209Zm2.559,-2.393l-1.169,-1.302c0.443,-0.398 0.89,-0.792 1.341,-1.181l1.143,1.325c-0.442,0.382 -0.881,0.767 -1.315,1.158Zm2.653,-2.289l-1.117,-1.348c0.459,-0.38 0.921,-0.755 1.387,-1.126l1.089,1.37c-0.457,0.364 -0.911,0.732 -1.36,1.104Zm2.742,-2.181l-1.062,-1.391c0.473,-0.361 0.95,-0.718 1.431,-1.07l1.034,1.412c-0.471,0.345 -0.939,0.695 -1.403,1.049Zm2.827,-2.07l-1.005,-1.432c0.487,-0.342 0.978,-0.679 1.473,-1.012l0.976,1.452c-0.485,0.326 -0.966,0.657 -1.444,0.992Zm2.908,-1.955l-0.947,-1.472c0.501,-0.322 1.005,-0.64 1.512,-0.952l0.917,1.49c-0.498,0.306 -0.992,0.617 -1.483,0.933Zm2.984,-1.836l-0.887,-1.508c0.513,-0.302 1.03,-0.599 1.55,-0.89l0.857,1.526c-0.51,0.286 -1.016,0.577 -1.519,0.873Zm3.055,-1.715l-0.826,-1.543c0.525,-0.281 1.053,-0.557 1.584,-0.827l0.794,1.559c-0.521,0.265 -1.038,0.536 -1.553,0.811Zm3.122,-1.59l-0.763,-1.575c0.536,-0.259 1.075,-0.514 1.616,-0.763l0.731,1.59c-0.531,0.244 -1.059,0.493 -1.584,0.748Zm3.183,-1.463l-0.699,-1.605c0.546,-0.238 1.094,-0.47 1.646,-0.697l0.666,1.618c-0.54,0.222 -1.078,0.45 -1.613,0.683Zm3.24,-1.333l-0.633,-1.631c0.555,-0.215 1.112,-0.425 1.673,-0.63l0.6,1.644c-0.549,0.2 -1.096,0.406 -1.639,0.617Zm3.291,-1.201l-0.566,-1.656c0.563,-0.193 1.129,-0.38 1.697,-0.561l0.533,1.667c-0.557,0.178 -1.111,0.361 -1.663,0.55Zm3.337,-1.067l-0.499,-1.677c0.57,-0.17 1.143,-0.334 1.718,-0.492l0.465,1.687c-0.564,0.155 -1.125,0.316 -1.684,0.482Zm3.378,-0.93l-0.43,-1.696c0.577,-0.146 1.156,-0.287 1.737,-0.422l0.396,1.705c-0.57,0.132 -1.137,0.27 -1.702,0.414Zm3.412,-0.793l-0.361,-1.712c0.582,-0.123 1.166,-0.24 1.752,-0.351l0.327,1.719c-0.575,0.109 -1.147,0.224 -1.718,0.344Zm3.442,-0.654l-0.292,-1.725c0.586,-0.099 1.175,-0.193 1.765,-0.28l0.257,1.731c-0.579,0.086 -1.155,0.177 -1.73,0.275Zm3.466,-0.515l-0.222,-1.736c0.59,-0.075 1.181,-0.145 1.775,-0.209l0.187,1.74c-0.582,0.063 -1.162,0.131 -1.74,0.205Zm3.484,-0.375l-0.152,-1.743c0.592,-0.052 1.186,-0.098 1.782,-0.138l0.117,1.746c-0.584,0.039 -1.166,0.084 -1.747,0.135Zm3.496,-0.235l-0.082,-1.748c0.594,-0.028 1.189,-0.05 1.786,-0.066l0.048,1.749c-0.585,0.016 -1.169,0.038 -1.751,0.065Zm3.503,-0.096l-0.013,-1.75l0.677,-0.003c0.37,0 0.74,0.002 1.109,0.007l-0.021,1.75c-0.362,-0.004 -0.725,-0.007 -1.088,-0.007l-0.664,0.002Zm3.504,0.043l0.056,-1.749c0.597,0.019 1.192,0.044 1.785,0.075l-0.091,1.748c-0.582,-0.03 -1.166,-0.055 -1.75,-0.074Zm3.499,0.182l0.126,-1.745c0.595,0.043 1.189,0.092 1.781,0.146l-0.161,1.743c-0.58,-0.054 -1.162,-0.101 -1.746,-0.143Zm3.489,0.322l0.196,-1.739c0.593,0.067 1.184,0.139 1.774,0.218l-0.231,1.735c-0.578,-0.077 -1.158,-0.148 -1.739,-0.213Zm3.473,0.461l0.265,-1.73c0.59,0.091 1.178,0.187 1.764,0.289l-0.3,1.724c-0.574,-0.1 -1.151,-0.194 -1.729,-0.283Zm3.452,0.601l0.335,-1.718c0.586,0.114 1.169,0.234 1.751,0.36l-0.37,1.71c-0.57,-0.123 -1.142,-0.241 -1.716,-0.353Zm3.424,0.74l0.404,-1.703c0.58,0.138 1.159,0.281 1.735,0.431l-0.439,1.694c-0.565,-0.146 -1.131,-0.287 -1.7,-0.422Zm3.391,0.878l0.473,-1.685c0.574,0.161 1.146,0.328 1.716,0.5l-0.507,1.675c-0.558,-0.169 -1.119,-0.333 -1.682,-0.491Zm3.353,1.015l0.541,-1.664c0.567,0.184 1.132,0.374 1.694,0.57l-0.575,1.653c-0.551,-0.192 -1.104,-0.378 -1.66,-0.558Zm3.309,1.15l0.608,-1.641c0.559,0.207 1.116,0.42 1.67,0.638l-0.641,1.628c-0.543,-0.214 -1.088,-0.422 -1.636,-0.625Zm3.26,1.283l0.674,-1.615c0.55,0.23 1.098,0.465 1.642,0.705l-0.706,1.601c-0.534,-0.236 -1.07,-0.466 -1.61,-0.691Zm3.205,1.414l0.739,-1.586c0.54,0.252 1.078,0.509 1.612,0.771l-0.77,1.571c-0.524,-0.257 -1.051,-0.509 -1.581,-0.755Zm3.146,1.543l0.802,-1.555c0.53,0.273 1.056,0.552 1.58,0.835l-0.833,1.539c-0.513,-0.278 -1.03,-0.551 -1.549,-0.819Zm3.081,1.668l0.864,-1.522c0.518,0.294 1.033,0.594 1.545,0.898l-0.894,1.504c-0.502,-0.298 -1.007,-0.592 -1.515,-0.88Zm3.011,1.791l0.924,-1.486c0.506,0.315 1.009,0.635 1.508,0.959l-0.954,1.467c-0.489,-0.318 -0.982,-0.632 -1.478,-0.94Zm2.937,1.91l0.983,-1.448c0.493,0.335 0.982,0.675 1.468,1.019l-1.012,1.428c-0.476,-0.338 -0.956,-0.671 -1.439,-0.999Zm2.858,2.027l1.041,-1.407c0.359,0.266 0.717,0.534 1.072,0.805l0.354,0.272l-1.068,1.386l-0.347,-0.266c-0.348,-0.266 -0.699,-0.529 -1.051,-0.79Zm2.775,2.139l1.096,-1.364c0.464,0.373 0.925,0.751 1.382,1.133l-1.123,1.342c-0.448,-0.375 -0.899,-0.745 -1.355,-1.111Zm2.687,2.248l1.15,-1.319c0.449,0.391 0.894,0.787 1.335,1.187l-1.176,1.296c-0.433,-0.392 -0.869,-0.78 -1.309,-1.164Zm2.595,2.354l1.201,-1.272c0.433,0.409 0.862,0.822 1.287,1.24l-1.227,1.248c-0.417,-0.409 -0.837,-0.814 -1.262,-1.215Zm2.499,2.456l1.251,-1.224c0.416,0.426 0.829,0.856 1.237,1.29l-1.275,1.198c-0.4,-0.426 -0.804,-0.847 -1.212,-1.265Zm2.399,2.554l1.299,-1.173c0.399,0.442 0.794,0.888 1.184,1.338l-1.322,1.146c-0.383,-0.441 -0.77,-0.879 -1.161,-1.312Zm2.295,2.647l1.345,-1.12c0.381,0.458 0.758,0.919 1.13,1.385l-1.367,1.093c-0.365,-0.456 -0.734,-0.909 -1.108,-1.358Zm2.188,2.737l1.389,-1.065c0.362,0.473 0.72,0.949 1.073,1.429l-1.41,1.037c-0.346,-0.471 -0.697,-0.937 -1.052,-1.401Zm2.077,2.822l1.43,-1.009c0.343,0.487 0.682,0.977 1.015,1.471l-1.45,0.98c-0.327,-0.484 -0.659,-0.965 -0.995,-1.442Zm1.962,2.903l1.469,-0.951c0.323,0.5 0.642,1.003 0.956,1.51l-1.488,0.921c-0.307,-0.497 -0.62,-0.99 -0.937,-1.48Zm1.844,2.979l1.506,-0.891c0.303,0.513 0.601,1.028 0.894,1.547l-1.524,0.86c-0.287,-0.509 -0.579,-1.014 -0.877,-1.517Zm1.722,3.051l1.541,-0.829c0.282,0.524 0.559,1.052 0.831,1.582l-1.557,0.798c-0.267,-0.52 -0.538,-1.037 -0.815,-1.551Zm1.598,3.118l1.573,-0.767c0.261,0.535 0.516,1.073 0.767,1.614l-1.588,0.735c-0.245,-0.53 -0.496,-1.058 -0.752,-1.582Zm1.471,3.18l1.603,-0.702c0.239,0.545 0.473,1.093 0.701,1.644l-1.617,0.67c-0.224,-0.54 -0.453,-1.077 -0.687,-1.611Zm1.341,3.236l1.63,-0.637c0.217,0.554 0.428,1.111 0.634,1.671l-1.642,0.604c-0.202,-0.549 -0.409,-1.095 -0.621,-1.638Zm1.209,3.288l1.654,-0.57c0.194,0.563 0.383,1.128 0.565,1.695l-1.666,0.537c-0.179,-0.556 -0.364,-1.11 -0.554,-1.662Zm1.075,3.334l1.676,-0.503c0.171,0.57 0.336,1.142 0.496,1.717l-1.686,0.469c-0.157,-0.563 -0.319,-1.124 -0.486,-1.683Zm0.939,3.375l1.695,-0.435c0.148,0.576 0.29,1.155 0.426,1.736l-1.704,0.4c-0.134,-0.569 -0.273,-1.136 -0.418,-1.701Zm0.801,3.41l1.711,-0.366c0.124,0.582 0.243,1.166 0.356,1.751l-1.718,0.331c-0.111,-0.574 -0.227,-1.147 -0.349,-1.717Zm0.662,3.44l1.725,-0.296c0.101,0.586 0.195,1.174 0.285,1.764l-1.73,0.261c-0.087,-0.578 -0.18,-1.155 -0.279,-1.729Zm0.523,3.464l1.735,-0.226c0.077,0.59 0.148,1.181 0.213,1.774l-1.74,0.191c-0.064,-0.582 -0.134,-1.161 -0.209,-1.739Zm0.383,3.483l1.743,-0.156c0.053,0.592 0.1,1.186 0.142,1.781l-1.746,0.122c-0.041,-0.584 -0.087,-1.166 -0.139,-1.746Zm0.243,3.495l1.748,-0.087c0.029,0.594 0.053,1.189 0.071,1.785l-1.749,0.052c-0.017,-0.585 -0.041,-1.169 -0.069,-1.751Zm0.104,3.503l1.75,-0.017c0.003,0.297 0.004,0.595 0.004,0.893l-1.75,0c0,-0.292 -0.001,-0.584 -0.004,-0.876Z" style="fill:#2c2c2c;"/><path d="M2243.588,1570l-88,0" style="fill:none;stroke:#2c2c2c;stroke-width:2.08px;stroke-linejoin:round;"/><path d="M2243.588,1570l80,-35" style="fill:none;stroke:#2c2c2c;stroke-width:2.08px;stroke-linejoin:round;"/><path d="M2325.215,1534.815l-1.606,0.694c-0.116,-0.268 -0.233,-0.536 -0.351,-0.802l1.599,-0.71c0.121,0.272 0.24,0.545 0.359,0.819Zm-1.1,-2.444l-1.585,0.742c-0.248,-0.529 -0.501,-1.055 -0.759,-1.579l1.569,-0.774c0.263,0.534 0.522,1.071 0.775,1.611Zm-1.581,-3.205l-1.553,0.806c-0.269,-0.519 -0.543,-1.034 -0.822,-1.547l1.537,-0.837c0.285,0.523 0.564,1.049 0.839,1.578Zm-1.709,-3.139l-1.52,0.868c-0.29,-0.507 -0.584,-1.012 -0.884,-1.513l1.502,-0.898c0.306,0.511 0.606,1.025 0.902,1.543Zm-1.834,-3.067l-1.484,0.928c-0.31,-0.495 -0.624,-0.987 -0.944,-1.476l1.465,-0.958c0.326,0.498 0.647,1 0.963,1.505Zm-1.956,-2.991l-1.445,0.987c-0.329,-0.482 -0.664,-0.961 -1.002,-1.437l1.425,-1.016c0.346,0.485 0.686,0.973 1.022,1.466Zm-2.074,-2.91l-1.405,1.044c-0.348,-0.469 -0.702,-0.934 -1.059,-1.396l1.383,-1.072c0.365,0.471 0.725,0.945 1.08,1.423Zm-2.189,-2.825l-1.362,1.099c-0.367,-0.454 -0.738,-0.905 -1.114,-1.352l1.339,-1.126c0.383,0.456 0.762,0.916 1.136,1.379Zm-2.3,-2.735l-1.317,1.153c-0.385,-0.439 -0.774,-0.875 -1.167,-1.307l1.293,-1.179c0.401,0.44 0.798,0.884 1.19,1.333Zm-2.407,-2.641l-1.27,1.204c-0.402,-0.424 -0.808,-0.843 -1.218,-1.259l1.245,-1.23c0.419,0.424 0.833,0.852 1.243,1.284Zm-2.511,-2.543l-1.22,1.254c-0.419,-0.407 -0.841,-0.81 -1.268,-1.209l1.195,-1.278c0.435,0.407 0.866,0.818 1.293,1.233Zm-2.61,-2.441l-1.169,1.302c-0.434,-0.39 -0.873,-0.776 -1.315,-1.158l1.143,-1.325c0.451,0.389 0.898,0.783 1.341,1.181Zm-2.706,-2.335l-1.117,1.348c-0.45,-0.373 -0.903,-0.741 -1.36,-1.104l1.089,-1.37c0.466,0.371 0.929,0.746 1.387,1.126Zm-2.797,-2.225l-1.062,1.391c-0.464,-0.354 -0.932,-0.704 -1.403,-1.049l1.034,-1.412c0.481,0.352 0.958,0.709 1.431,1.07Zm-2.884,-2.111l-1.005,1.432c-0.478,-0.335 -0.959,-0.666 -1.444,-0.992l0.976,-1.452c0.495,0.332 0.986,0.67 1.473,1.012Zm-2.966,-1.994l-0.947,1.472c-0.491,-0.316 -0.985,-0.627 -1.483,-0.933l0.917,-1.49c0.508,0.312 1.012,0.63 1.512,0.952Zm-3.044,-1.873l-0.887,1.508c-0.503,-0.296 -1.009,-0.587 -1.519,-0.873l0.857,-1.526c0.52,0.292 1.036,0.589 1.55,0.89Zm-3.116,-1.749l-0.826,1.543c-0.515,-0.275 -1.032,-0.546 -1.553,-0.811l0.794,-1.559c0.531,0.271 1.059,0.546 1.584,0.827Zm-3.185,-1.622l-0.763,1.575c-0.525,-0.254 -1.053,-0.504 -1.584,-0.748l0.731,-1.59c0.542,0.249 1.08,0.503 1.616,0.763Zm-3.248,-1.493l-0.699,1.605c-0.535,-0.233 -1.073,-0.461 -1.613,-0.683l0.666,-1.618c0.551,0.227 1.1,0.459 1.646,0.697Zm-3.305,-1.36l-0.633,1.631c-0.544,-0.211 -1.09,-0.417 -1.639,-0.617l0.6,-1.644c0.56,0.204 1.118,0.414 1.673,0.63Zm-3.358,-1.225l-0.566,1.656c-0.552,-0.189 -1.106,-0.372 -1.663,-0.55l0.533,-1.667c0.568,0.182 1.134,0.369 1.697,0.561Zm-3.405,-1.088l-0.499,1.677c-0.559,-0.166 -1.12,-0.327 -1.684,-0.482l0.465,-1.687c0.575,0.158 1.148,0.322 1.718,0.492Zm-3.446,-0.949l-0.43,1.696c-0.565,-0.143 -1.133,-0.281 -1.702,-0.414l0.396,-1.705c0.581,0.135 1.16,0.276 1.737,0.422Zm-3.482,-0.809l-0.361,1.712c-0.57,-0.12 -1.143,-0.235 -1.718,-0.344l0.327,-1.719c0.586,0.111 1.17,0.229 1.752,0.351Zm-3.511,-0.667l-0.292,1.725c-0.575,-0.097 -1.152,-0.189 -1.73,-0.275l0.257,-1.731c0.59,0.088 1.179,0.181 1.765,0.28Zm-3.535,-0.525l-0.222,1.736c-0.578,-0.074 -1.158,-0.142 -1.74,-0.205l0.187,-1.74c0.593,0.064 1.185,0.133 1.775,0.209Zm-3.553,-0.382l-0.152,1.743c-0.581,-0.051 -1.163,-0.096 -1.747,-0.135l0.117,-1.746c0.596,0.04 1.189,0.086 1.782,0.138Zm-3.566,-0.24l-0.082,1.748c-0.582,-0.027 -1.166,-0.049 -1.751,-0.065l0.048,-1.749c0.597,0.016 1.192,0.038 1.786,0.066Zm-3.572,-0.097l-0.013,1.75l-0.664,-0.002c-0.363,0 -0.726,0.002 -1.088,0.007l-0.021,-1.75c0.369,-0.005 0.739,-0.007 1.109,-0.007l0.677,0.003Zm-3.573,0.044l0.056,1.749c-0.585,0.019 -1.168,0.043 -1.75,0.074l-0.091,-1.748c0.594,-0.031 1.189,-0.056 1.785,-0.075Zm-3.569,0.186l0.126,1.745c-0.584,0.042 -1.166,0.09 -1.746,0.143l-0.161,-1.743c0.592,-0.055 1.186,-0.103 1.781,-0.146Zm-3.559,0.328l0.196,1.739c-0.581,0.065 -1.161,0.136 -1.739,0.213l-0.231,-1.735c0.589,-0.078 1.181,-0.151 1.774,-0.218Zm-3.543,0.471l0.265,1.73c-0.578,0.089 -1.154,0.183 -1.729,0.283l-0.3,-1.724c0.586,-0.102 1.174,-0.198 1.764,-0.289Zm-3.521,0.613l0.335,1.718c-0.574,0.112 -1.146,0.23 -1.716,0.353l-0.37,-1.71c0.581,-0.126 1.165,-0.246 1.751,-0.36Zm-3.493,0.755l0.404,1.703c-0.569,0.135 -1.136,0.276 -1.7,0.422l-0.439,-1.694c0.576,-0.149 1.154,-0.293 1.735,-0.431Zm-3.46,0.896l0.473,1.685c-0.563,0.158 -1.123,0.322 -1.682,0.491l-0.507,-1.675c0.57,-0.172 1.141,-0.339 1.716,-0.5Zm-3.421,1.036l0.541,1.664c-0.556,0.181 -1.109,0.367 -1.66,0.558l-0.575,-1.653c0.562,-0.195 1.127,-0.385 1.694,-0.57Zm-3.376,1.173l0.608,1.641c-0.548,0.203 -1.094,0.411 -1.636,0.625l-0.641,-1.628c0.554,-0.218 1.11,-0.431 1.67,-0.638Zm-3.326,1.309l0.674,1.615c-0.539,0.225 -1.076,0.455 -1.61,0.691l-0.706,-1.601c0.545,-0.24 1.092,-0.475 1.642,-0.705Zm-3.27,1.443l0.739,1.586c-0.53,0.247 -1.057,0.498 -1.581,0.755l-0.77,-1.571c0.535,-0.262 1.072,-0.519 1.612,-0.771Zm-3.209,1.574l0.802,1.555c-0.519,0.268 -1.036,0.541 -1.549,0.819l-0.833,-1.539c0.524,-0.283 1.05,-0.562 1.58,-0.835Zm-3.143,1.702l0.864,1.522c-0.508,0.288 -1.013,0.582 -1.515,0.88l-0.894,-1.504c0.512,-0.304 1.027,-0.604 1.545,-0.898Zm-3.072,1.827l0.924,1.486c-0.496,0.309 -0.989,0.622 -1.478,0.94l-0.954,-1.467c0.499,-0.325 1.002,-0.644 1.508,-0.959Zm-2.996,1.948l0.983,1.448c-0.483,0.328 -0.963,0.661 -1.439,0.999l-1.012,-1.428c0.486,-0.344 0.975,-0.684 1.468,-1.019Zm-2.915,2.067l1.041,1.407c-0.352,0.261 -0.703,0.524 -1.051,0.79l-0.347,0.266l-1.068,-1.386l0.354,-0.272c0.355,-0.271 0.713,-0.539 1.072,-0.805Zm-2.83,2.182l1.096,1.364c-0.455,0.366 -0.907,0.736 -1.355,1.111l-1.123,-1.342c0.457,-0.382 0.917,-0.76 1.382,-1.133Zm-2.741,2.293l1.15,1.319c-0.44,0.384 -0.877,0.772 -1.309,1.164l-1.176,-1.296c0.441,-0.4 0.886,-0.796 1.335,-1.187Zm-2.647,2.401l1.201,1.272c-0.425,0.401 -0.845,0.806 -1.262,1.215l-1.227,-1.248c0.425,-0.417 0.854,-0.831 1.287,-1.24Zm-2.549,2.505l1.251,1.224c-0.408,0.418 -0.812,0.839 -1.212,1.265l-1.275,-1.198c0.408,-0.434 0.82,-0.864 1.237,-1.29Zm-2.447,2.604l1.299,1.173c-0.391,0.433 -0.778,0.871 -1.161,1.312l-1.322,-1.146c0.39,-0.45 0.785,-0.896 1.184,-1.338Zm-2.341,2.7l1.345,1.12c-0.374,0.449 -0.743,0.901 -1.108,1.358l-1.367,-1.093c0.372,-0.465 0.749,-0.927 1.13,-1.385Zm-2.231,2.791l1.389,1.065c-0.355,0.463 -0.706,0.93 -1.052,1.401l-1.41,-1.037c0.353,-0.48 0.711,-0.956 1.073,-1.429Zm-2.118,2.879l1.43,1.009c-0.337,0.477 -0.668,0.958 -0.995,1.442l-1.45,-0.98c0.334,-0.494 0.672,-0.984 1.015,-1.471Zm-2.001,2.961l1.469,0.951c-0.317,0.49 -0.629,0.984 -0.937,1.48l-1.488,-0.921c0.314,-0.507 0.632,-1.01 0.956,-1.51Zm-1.881,3.039l1.506,0.891c-0.297,0.502 -0.589,1.008 -0.877,1.517l-1.524,-0.86c0.293,-0.519 0.591,-1.035 0.894,-1.547Zm-1.757,3.112l1.541,0.829c-0.277,0.514 -0.548,1.031 -0.815,1.551l-1.557,-0.798c0.272,-0.53 0.549,-1.058 0.831,-1.582Zm-1.63,3.181l1.573,0.767c-0.256,0.525 -0.506,1.052 -0.752,1.582l-1.588,-0.735c0.25,-0.541 0.506,-1.079 0.767,-1.614Zm-1.501,3.244l1.603,0.702c-0.234,0.534 -0.463,1.072 -0.687,1.611l-1.617,-0.67c0.228,-0.551 0.462,-1.099 0.701,-1.644Zm-1.368,3.302l1.63,0.637c-0.212,0.543 -0.419,1.089 -0.621,1.638l-1.642,-0.604c0.206,-0.56 0.417,-1.117 0.634,-1.671Zm-1.233,3.355l1.654,0.57c-0.19,0.551 -0.375,1.105 -0.554,1.662l-1.666,-0.537c0.183,-0.568 0.371,-1.133 0.565,-1.695Zm-1.096,3.402l1.676,0.503c-0.168,0.559 -0.33,1.12 -0.486,1.683l-1.686,-0.469c0.16,-0.575 0.325,-1.147 0.496,-1.717Zm-0.958,3.444l1.695,0.435c-0.145,0.565 -0.284,1.132 -0.418,1.701l-1.704,-0.4c0.136,-0.581 0.279,-1.159 0.426,-1.736Zm-0.817,3.479l1.711,0.366c-0.122,0.57 -0.238,1.142 -0.349,1.717l-1.718,-0.331c0.113,-0.586 0.231,-1.17 0.356,-1.751Zm-0.676,3.51l1.725,0.296c-0.099,0.575 -0.192,1.151 -0.279,1.729l-1.73,-0.261c0.089,-0.59 0.184,-1.178 0.285,-1.764Zm-0.533,3.534l1.735,0.226c-0.075,0.578 -0.145,1.158 -0.209,1.739l-1.74,-0.191c0.065,-0.593 0.136,-1.185 0.213,-1.774Zm-0.391,3.552l1.743,0.156c-0.052,0.581 -0.098,1.163 -0.139,1.746l-1.746,-0.122c0.041,-0.595 0.089,-1.189 0.142,-1.781Zm-0.248,3.565l1.748,0.087c-0.029,0.582 -0.052,1.166 -0.069,1.751l-1.749,-0.052c0.018,-0.597 0.041,-1.192 0.071,-1.785Zm-0.106,3.572l1.75,0.017c-0.003,0.292 -0.004,0.584 -0.004,0.876l-1.75,0c0,-0.298 0.001,-0.596 0.004,-0.893Z" style="fill:#2c2c2c;"/><rect x="2060" y="1580" width="180" height="20" style="fill:#fff;"/><path d="M2240,1580l0,20l-180,0l0,-20l180,0Zm-2.083,2.083l-175.833,0l0,15.833l175.833,-0l0,-15.833Z" style="fill:#fff;"/></g><g id="Puerta2" serif:id="Puerta"><rect x="1740" y="1580" width="100" height="20" style="fill:#fff;"/><path d="M1840,1580l0,20l-100,0l0,-20l100,0Zm-2.083,2.083l-95.833,0l-0,15.833l95.833,-0l0,-15.833Z"/><g id="Puerta3" serif:id="Puerta"><rect x="1460" y="1580" width="100" height="20" style="fill:#fff;"/><path d="M1560,1580l0,20l-100,0l0,-20l100,0Zm-2.083,2.083l-95.833,0l-0,15.833l95.833,-0l0,-15.833Z"/><path d="M1460,1590l100,0" style="fill:none;stroke:#000;stroke-width:2.92px;stroke-linejoin:round;"/></g><path d="M1740,1590l100,0" style="fill:none;stroke:#000;stroke-width:2.92px;stroke-linejoin:round;"/><path d="M1560,1570l88,0" style="fill:none;stroke:#2c2c2c;stroke-width:2.08px;stroke-linejoin:round;"/><path d="M1560,1570l-80,-35" style="fill:none;stroke:#2c2c2c;stroke-width:2.08px;stroke-linejoin:round;"/><path d="M1479.979,1535.509l-1.606,-0.694c0.118,-0.274 0.238,-0.546 0.359,-0.819l1.599,0.71c-0.118,0.267 -0.236,0.534 -0.351,0.802Zm1.079,-2.396l-1.585,-0.742c0.253,-0.54 0.511,-1.077 0.775,-1.611l1.569,0.774c-0.258,0.523 -0.511,1.05 -0.759,1.579Zm1.55,-3.142l-1.553,-0.806c0.274,-0.529 0.554,-1.055 0.839,-1.578l1.537,0.837c-0.279,0.513 -0.553,1.028 -0.822,1.547Zm1.676,-3.077l-1.52,-0.868c0.296,-0.518 0.596,-1.032 0.902,-1.543l1.502,0.898c-0.3,0.501 -0.594,1.005 -0.884,1.513Zm1.798,-3.007l-1.484,-0.928c0.316,-0.505 0.637,-1.007 0.963,-1.505l1.465,0.958c-0.319,0.489 -0.634,0.981 -0.944,1.476Zm1.917,-2.933l-1.445,-0.987c0.336,-0.492 0.677,-0.981 1.022,-1.466l1.425,1.016c-0.339,0.475 -0.673,0.954 -1.002,1.437Zm2.033,-2.853l-1.405,-1.044c0.355,-0.478 0.716,-0.953 1.08,-1.423l1.383,1.072c-0.358,0.462 -0.711,0.927 -1.059,1.396Zm2.146,-2.77l-1.362,-1.099c0.374,-0.464 0.753,-0.923 1.136,-1.379l1.339,1.126c-0.376,0.447 -0.747,0.898 -1.114,1.352Zm2.255,-2.682l-1.317,-1.153c0.392,-0.448 0.789,-0.892 1.19,-1.333l1.293,1.179c-0.393,0.432 -0.782,0.867 -1.167,1.307Zm2.36,-2.59l-1.27,-1.204c0.41,-0.432 0.824,-0.86 1.243,-1.284l1.245,1.23c-0.41,0.416 -0.817,0.835 -1.218,1.259Zm2.462,-2.493l-1.22,-1.254c0.427,-0.415 0.858,-0.827 1.293,-1.233l1.195,1.278c-0.427,0.399 -0.849,0.802 -1.268,1.209Zm2.559,-2.393l-1.169,-1.302c0.443,-0.398 0.89,-0.792 1.341,-1.181l1.143,1.325c-0.442,0.382 -0.881,0.767 -1.315,1.158Zm2.653,-2.289l-1.117,-1.348c0.459,-0.38 0.921,-0.755 1.387,-1.126l1.089,1.37c-0.457,0.364 -0.911,0.732 -1.36,1.104Zm2.742,-2.181l-1.062,-1.391c0.473,-0.361 0.95,-0.718 1.431,-1.07l1.034,1.412c-0.471,0.345 -0.939,0.695 -1.403,1.049Zm2.827,-2.07l-1.005,-1.432c0.487,-0.342 0.978,-0.679 1.473,-1.012l0.976,1.452c-0.485,0.326 -0.966,0.657 -1.444,0.992Zm2.908,-1.955l-0.947,-1.472c0.501,-0.322 1.005,-0.64 1.512,-0.952l0.917,1.49c-0.498,0.306 -0.992,0.617 -1.483,0.933Zm2.984,-1.836l-0.887,-1.508c0.513,-0.302 1.03,-0.599 1.55,-0.89l0.857,1.526c-0.51,0.286 -1.016,0.577 -1.519,0.873Zm3.055,-1.715l-0.826,-1.543c0.525,-0.281 1.053,-0.557 1.584,-0.827l0.794,1.559c-0.521,0.265 -1.038,0.536 -1.553,0.811Zm3.122,-1.59l-0.763,-1.575c0.536,-0.259 1.075,-0.514 1.616,-0.763l0.731,1.59c-0.531,0.244 -1.059,0.493 -1.584,0.748Zm3.183,-1.463l-0.699,-1.605c0.546,-0.238 1.094,-0.47 1.646,-0.697l0.666,1.618c-0.54,0.222 -1.078,0.45 -1.613,0.683Zm3.24,-1.333l-0.633,-1.631c0.555,-0.215 1.112,-0.425 1.673,-0.63l0.6,1.644c-0.549,0.2 -1.096,0.406 -1.639,0.617Zm3.291,-1.201l-0.566,-1.656c0.563,-0.193 1.129,-0.38 1.697,-0.561l0.533,1.667c-0.557,0.178 -1.111,0.361 -1.663,0.55Zm3.337,-1.067l-0.499,-1.677c0.57,-0.17 1.143,-0.334 1.718,-0.492l0.465,1.687c-0.564,0.155 -1.125,0.316 -1.684,0.482Zm3.378,-0.93l-0.43,-1.696c0.577,-0.146 1.156,-0.287 1.737,-0.422l0.396,1.705c-0.57,0.132 -1.137,0.27 -1.702,0.414Zm3.412,-0.793l-0.361,-1.712c0.582,-0.123 1.166,-0.24 1.752,-0.351l0.327,1.719c-0.575,0.109 -1.147,0.224 -1.718,0.344Zm3.442,-0.654l-0.292,-1.725c0.586,-0.099 1.175,-0.193 1.765,-0.28l0.257,1.731c-0.579,0.086 -1.155,0.177 -1.73,0.275Zm3.466,-0.515l-0.222,-1.736c0.59,-0.075 1.181,-0.145 1.775,-0.209l0.187,1.74c-0.582,0.063 -1.162,0.131 -1.74,0.205Zm3.484,-0.375l-0.152,-1.743c0.592,-0.052 1.186,-0.098 1.782,-0.138l0.117,1.746c-0.584,0.039 -1.166,0.084 -1.747,0.135Zm3.496,-0.235l-0.082,-1.748c0.594,-0.028 1.189,-0.05 1.786,-0.066l0.048,1.749c-0.585,0.016 -1.169,0.038 -1.751,0.065Zm3.503,-0.096l-0.013,-1.75l0.677,-0.003c0.37,0 0.74,0.002 1.109,0.007l-0.021,1.75c-0.362,-0.004 -0.725,-0.007 -1.088,-0.007l-0.664,0.002Zm3.504,0.043l0.056,-1.749c0.597,0.019 1.192,0.044 1.785,0.075l-0.091,1.748c-0.582,-0.03 -1.166,-0.055 -1.75,-0.074Zm3.499,0.182l0.126,-1.745c0.595,0.043 1.189,0.092 1.781,0.146l-0.161,1.743c-0.58,-0.054 -1.162,-0.101 -1.746,-0.143Zm3.489,0.322l0.196,-1.739c0.593,0.067 1.184,0.139 1.774,0.218l-0.231,1.735c-0.578,-0.077 -1.158,-0.148 -1.739,-0.213Zm3.473,0.461l0.265,-1.73c0.59,0.091 1.178,0.187 1.764,0.289l-0.3,1.724c-0.574,-0.1 -1.151,-0.194 -1.729,-0.283Zm3.452,0.601l0.335,-1.718c0.586,0.114 1.169,0.234 1.751,0.36l-0.37,1.71c-0.57,-0.123 -1.142,-0.241 -1.716,-0.353Zm3.424,0.74l0.404,-1.703c0.58,0.138 1.159,0.281 1.735,0.431l-0.439,1.694c-0.565,-0.146 -1.131,-0.287 -1.7,-0.422Zm3.391,0.878l0.473,-1.685c0.574,0.161 1.146,0.328 1.716,0.5l-0.507,1.675c-0.558,-0.169 -1.119,-0.333 -1.682,-0.491Zm3.353,1.015l0.541,-1.664c0.567,0.184 1.132,0.374 1.694,0.57l-0.575,1.653c-0.551,-0.192 -1.104,-0.378 -1.66,-0.558Zm3.309,1.15l0.608,-1.641c0.559,0.207 1.116,0.42 1.67,0.638l-0.641,1.628c-0.543,-0.214 -1.088,-0.422 -1.636,-0.625Zm3.26,1.283l0.674,-1.615c0.55,0.23 1.098,0.465 1.642,0.705l-0.706,1.601c-0.534,-0.236 -1.07,-0.466 -1.61,-0.691Zm3.205,1.414l0.739,-1.586c0.54,0.252 1.078,0.509 1.612,0.771l-0.77,1.571c-0.524,-0.257 -1.051,-0.509 -1.581,-0.755Zm3.146,1.543l0.802,-1.555c0.53,0.273 1.056,0.552 1.58,0.835l-0.833,1.539c-0.513,-0.278 -1.03,-0.551 -1.549,-0.819Zm3.081,1.668l0.864,-1.522c0.518,0.294 1.033,0.594 1.545,0.898l-0.894,1.504c-0.502,-0.298 -1.007,-0.592 -1.515,-0.88Zm3.011,1.791l0.924,-1.486c0.506,0.315 1.009,0.635 1.508,0.959l-0.954,1.467c-0.489,-0.318 -0.982,-0.632 -1.478,-0.94Zm2.937,1.91l0.983,-1.448c0.493,0.335 0.982,0.675 1.468,1.019l-1.012,1.428c-0.476,-0.338 -0.956,-0.671 -1.439,-0.999Zm2.858,2.027l1.041,-1.407c0.359,0.266 0.717,0.534 1.072,0.805l0.354,0.272l-1.068,1.386l-0.347,-0.266c-0.348,-0.266 -0.699,-0.529 -1.051,-0.79Zm2.775,2.139l1.096,-1.364c0.464,0.373 0.925,0.751 1.382,1.133l-1.123,1.342c-0.448,-0.375 -0.899,-0.745 -1.355,-1.111Zm2.687,2.248l1.15,-1.319c0.449,0.391 0.894,0.787 1.335,1.187l-1.176,1.296c-0.433,-0.392 -0.869,-0.78 -1.309,-1.164Zm2.595,2.354l1.201,-1.272c0.433,0.409 0.862,0.822 1.287,1.24l-1.227,1.248c-0.417,-0.409 -0.837,-0.814 -1.262,-1.215Zm2.499,2.456l1.251,-1.224c0.416,0.426 0.829,0.856 1.237,1.29l-1.275,1.198c-0.4,-0.426 -0.804,-0.847 -1.212,-1.265Zm2.399,2.554l1.299,-1.173c0.399,0.442 0.794,0.888 1.184,1.338l-1.322,1.146c-0.383,-0.441 -0.77,-0.879 -1.161,-1.312Zm2.295,2.647l1.345,-1.12c0.381,0.458 0.758,0.919 1.13,1.385l-1.367,1.093c-0.365,-0.456 -0.734,-0.909 -1.108,-1.358Zm2.188,2.737l1.389,-1.065c0.362,0.473 0.72,0.949 1.073,1.429l-1.41,1.037c-0.346,-0.471 -0.697,-0.937 -1.052,-1.401Zm2.077,2.822l1.43,-1.009c0.343,0.487 0.682,0.977 1.015,1.471l-1.45,0.98c-0.327,-0.484 -0.659,-0.965 -0.995,-1.442Zm1.962,2.903l1.469,-0.951c0.323,0.5 0.642,1.003 0.956,1.51l-1.488,0.921c-0.307,-0.497 -0.62,-0.99 -0.937,-1.48Zm1.844,2.979l1.506,-0.891c0.303,0.513 0.601,1.028 0.894,1.547l-1.524,0.86c-0.287,-0.509 -0.579,-1.014 -0.877,-1.517Zm1.722,3.051l1.541,-0.829c0.282,0.524 0.559,1.052 0.831,1.582l-1.557,0.798c-0.267,-0.52 -0.538,-1.037 -0.815,-1.551Zm1.598,3.118l1.573,-0.767c0.261,0.535 0.516,1.073 0.767,1.614l-1.588,0.735c-0.245,-0.53 -0.496,-1.058 -0.752,-1.582Zm1.471,3.18l1.603,-0.702c0.239,0.545 0.473,1.093 0.701,1.644l-1.617,0.67c-0.224,-0.54 -0.453,-1.077 -0.687,-1.611Zm1.341,3.236l1.63,-0.637c0.217,0.554 0.428,1.111 0.634,1.671l-1.642,0.604c-0.202,-0.549 -0.409,-1.095 -0.621,-1.638Zm1.209,3.288l1.654,-0.57c0.194,0.563 0.383,1.128 0.565,1.695l-1.666,0.537c-0.179,-0.556 -0.364,-1.11 -0.554,-1.662Zm1.075,3.334l1.676,-0.503c0.171,0.57 0.336,1.142 0.496,1.717l-1.686,0.469c-0.157,-0.563 -0.319,-1.124 -0.486,-1.683Zm0.939,3.375l1.695,-0.435c0.148,0.576 0.29,1.155 0.426,1.736l-1.704,0.4c-0.134,-0.569 -0.273,-1.136 -0.418,-1.701Zm0.801,3.41l1.711,-0.366c0.124,0.582 0.243,1.166 0.356,1.751l-1.718,0.331c-0.111,-0.574 -0.227,-1.147 -0.349,-1.717Zm0.662,3.44l1.725,-0.296c0.101,0.586 0.195,1.174 0.285,1.764l-1.73,0.261c-0.087,-0.578 -0.18,-1.155 -0.279,-1.729Zm0.523,3.464l1.735,-0.226c0.077,0.59 0.148,1.181 0.213,1.774l-1.74,0.191c-0.064,-0.582 -0.134,-1.161 -0.209,-1.739Zm0.383,3.483l1.743,-0.156c0.053,0.592 0.1,1.186 0.142,1.781l-1.746,0.122c-0.041,-0.584 -0.087,-1.166 -0.139,-1.746Zm0.243,3.495l1.748,-0.087c0.029,0.594 0.053,1.189 0.071,1.785l-1.749,0.052c-0.017,-0.585 -0.041,-1.169 -0.069,-1.751Zm0.104,3.503l1.75,-0.017c0.003,0.297 0.004,0.595 0.004,0.893l-1.75,0c0,-0.292 -0.001,-0.584 -0.004,-0.876Z" style="fill:#2c2c2c;"/><path d="M1743.588,1570l-88,0" style="fill:none;stroke:#2c2c2c;stroke-width:2.08px;stroke-linejoin:round;"/><path d="M1743.588,1570l80,-35" style="fill:none;stroke:#2c2c2c;stroke-width:2.08px;stroke-linejoin:round;"/><path d="M1825.215,1534.815l-1.606,0.694c-0.116,-0.268 -0.233,-0.536 -0.351,-0.802l1.599,-0.71c0.121,0.272 0.24,0.545 0.359,0.819Zm-1.1,-2.444l-1.585,0.742c-0.248,-0.529 -0.501,-1.055 -0.759,-1.579l1.569,-0.774c0.263,0.534 0.522,1.071 0.775,1.611Zm-1.581,-3.205l-1.553,0.806c-0.269,-0.519 -0.543,-1.034 -0.822,-1.547l1.537,-0.837c0.285,0.523 0.564,1.049 0.839,1.578Zm-1.709,-3.139l-1.52,0.868c-0.29,-0.507 -0.584,-1.012 -0.884,-1.513l1.502,-0.898c0.306,0.511 0.606,1.025 0.902,1.543Zm-1.834,-3.067l-1.484,0.928c-0.31,-0.495 -0.624,-0.987 -0.944,-1.476l1.465,-0.958c0.326,0.498 0.647,1 0.963,1.505Zm-1.956,-2.991l-1.445,0.987c-0.329,-0.482 -0.664,-0.961 -1.002,-1.437l1.425,-1.016c0.346,0.485 0.686,0.973 1.022,1.466Zm-2.074,-2.91l-1.405,1.044c-0.348,-0.469 -0.702,-0.934 -1.059,-1.396l1.383,-1.072c0.365,0.471 0.725,0.945 1.08,1.423Zm-2.189,-2.825l-1.362,1.099c-0.367,-0.454 -0.738,-0.905 -1.114,-1.352l1.339,-1.126c0.383,0.456 0.762,0.916 1.136,1.379Zm-2.3,-2.735l-1.317,1.153c-0.385,-0.439 -0.774,-0.875 -1.167,-1.307l1.293,-1.179c0.401,0.44 0.798,0.884 1.19,1.333Zm-2.407,-2.641l-1.27,1.204c-0.402,-0.424 -0.808,-0.843 -1.218,-1.259l1.245,-1.23c0.419,0.424 0.833,0.852 1.243,1.284Zm-2.511,-2.543l-1.22,1.254c-0.419,-0.407 -0.841,-0.81 -1.268,-1.209l1.195,-1.278c0.435,0.407 0.866,0.818 1.293,1.233Zm-2.61,-2.441l-1.169,1.302c-0.434,-0.39 -0.873,-0.776 -1.315,-1.158l1.143,-1.325c0.451,0.389 0.898,0.783 1.341,1.181Zm-2.706,-2.335l-1.117,1.348c-0.45,-0.373 -0.903,-0.741 -1.36,-1.104l1.089,-1.37c0.466,0.371 0.929,0.746 1.387,1.126Zm-2.797,-2.225l-1.062,1.391c-0.464,-0.354 -0.932,-0.704 -1.403,-1.049l1.034,-1.412c0.481,0.352 0.958,0.709 1.431,1.07Zm-2.884,-2.111l-1.005,1.432c-0.478,-0.335 -0.959,-0.666 -1.444,-0.992l0.976,-1.452c0.495,0.332 0.986,0.67 1.473,1.012Zm-2.966,-1.994l-0.947,1.472c-0.491,-0.316 -0.985,-0.627 -1.483,-0.933l0.917,-1.49c0.508,0.312 1.012,0.63 1.512,0.952Zm-3.044,-1.873l-0.887,1.508c-0.503,-0.296 -1.009,-0.587 -1.519,-0.873l0.857,-1.526c0.52,0.292 1.036,0.589 1.55,0.89Zm-3.116,-1.749l-0.826,1.543c-0.515,-0.275 -1.032,-0.546 -1.553,-0.811l0.794,-1.559c0.531,0.271 1.059,0.546 1.584,0.827Zm-3.185,-1.622l-0.763,1.575c-0.525,-0.254 -1.053,-0.504 -1.584,-0.748l0.731,-1.59c0.542,0.249 1.08,0.503 1.616,0.763Zm-3.248,-1.493l-0.699,1.605c-0.535,-0.233 -1.073,-0.461 -1.613,-0.683l0.666,-1.618c0.551,0.227 1.1,0.459 1.646,0.697Zm-3.305,-1.36l-0.633,1.631c-0.544,-0.211 -1.09,-0.417 -1.639,-0.617l0.6,-1.644c0.56,0.204 1.118,0.414 1.673,0.63Zm-3.358,-1.225l-0.566,1.656c-0.552,-0.189 -1.106,-0.372 -1.663,-0.55l0.533,-1.667c0.568,0.182 1.134,0.369 1.697,0.561Zm-3.405,-1.088l-0.499,1.677c-0.559,-0.166 -1.12,-0.327 -1.684,-0.482l0.465,-1.687c0.575,0.158 1.148,0.322 1.718,0.492Zm-3.446,-0.949l-0.43,1.696c-0.565,-0.143 -1.133,-0.281 -1.702,-0.414l0.396,-1.705c0.581,0.135 1.16,0.276 1.737,0.422Zm-3.482,-0.809l-0.361,1.712c-0.57,-0.12 -1.143,-0.235 -1.718,-0.344l0.327,-1.719c0.586,0.111 1.17,0.229 1.752,0.351Zm-3.511,-0.667l-0.292,1.725c-0.575,-0.097 -1.152,-0.189 -1.73,-0.275l0.257,-1.731c0.59,0.088 1.179,0.181 1.765,0.28Zm-3.535,-0.525l-0.222,1.736c-0.578,-0.074 -1.158,-0.142 -1.74,-0.205l0.187,-1.74c0.593,0.064 1.185,0.133 1.775,0.209Zm-3.553,-0.382l-0.152,1.743c-0.581,-0.051 -1.163,-0.096 -1.747,-0.135l0.117,-1.746c0.596,0.04 1.189,0.086 1.782,0.138Zm-3.566,-0.24l-0.082,1.748c-0.582,-0.027 -1.166,-0.049 -1.751,-0.065l0.048,-1.749c0.597,0.016 1.192,0.038 1.786,0.066Zm-3.572,-0.097l-0.013,1.75l-0.664,-0.002c-0.363,0 -0.726,0.002 -1.088,0.007l-0.021,-1.75c0.369,-0.005 0.739,-0.007 1.109,-0.007l0.677,0.003Zm-3.573,0.044l0.056,1.749c-0.585,0.019 -1.168,0.043 -1.75,0.074l-0.091,-1.748c0.594,-0.031 1.189,-0.056 1.785,-0.075Zm-3.569,0.186l0.126,1.745c-0.584,0.042 -1.166,0.09 -1.746,0.143l-0.161,-1.743c0.592,-0.055 1.186,-0.103 1.781,-0.146Zm-3.559,0.328l0.196,1.739c-0.581,0.065 -1.161,0.136 -1.739,0.213l-0.231,-1.735c0.589,-0.078 1.181,-0.151 1.774,-0.218Zm-3.543,0.471l0.265,1.73c-0.578,0.089 -1.154,0.183 -1.729,0.283l-0.3,-1.724c0.586,-0.102 1.174,-0.198 1.764,-0.289Zm-3.521,0.613l0.335,1.718c-0.574,0.112 -1.146,0.23 -1.716,0.353l-0.37,-1.71c0.581,-0.126 1.165,-0.246 1.751,-0.36Zm-3.493,0.755l0.404,1.703c-0.569,0.135 -1.136,0.276 -1.7,0.422l-0.439,-1.694c0.576,-0.149 1.154,-0.293 1.735,-0.431Zm-3.46,0.896l0.473,1.685c-0.563,0.158 -1.123,0.322 -1.682,0.491l-0.507,-1.675c0.57,-0.172 1.141,-0.339 1.716,-0.5Zm-3.421,1.036l0.541,1.664c-0.556,0.181 -1.109,0.367 -1.66,0.558l-0.575,-1.653c0.562,-0.195 1.127,-0.385 1.694,-0.57Zm-3.376,1.173l0.608,1.641c-0.548,0.203 -1.094,0.411 -1.636,0.625l-0.641,-1.628c0.554,-0.218 1.11,-0.431 1.67,-0.638Zm-3.326,1.309l0.674,1.615c-0.539,0.225 -1.076,0.455 -1.61,0.691l-0.706,-1.601c0.545,-0.24 1.092,-0.475 1.642,-0.705Zm-3.27,1.443l0.739,1.586c-0.53,0.247 -1.057,0.498 -1.581,0.755l-0.77,-1.571c0.535,-0.262 1.072,-0.519 1.612,-0.771Zm-3.209,1.574l0.802,1.555c-0.519,0.268 -1.036,0.541 -1.549,0.819l-0.833,-1.539c0.524,-0.283 1.05,-0.562 1.58,-0.835Zm-3.143,1.702l0.864,1.522c-0.508,0.288 -1.013,0.582 -1.515,0.88l-0.894,-1.504c0.512,-0.304 1.027,-0.604 1.545,-0.898Zm-3.072,1.827l0.924,1.486c-0.496,0.309 -0.989,0.622 -1.478,0.94l-0.954,-1.467c0.499,-0.325 1.002,-0.644 1.508,-0.959Zm-2.996,1.948l0.983,1.448c-0.483,0.328 -0.963,0.661 -1.439,0.999l-1.012,-1.428c0.486,-0.344 0.975,-0.684 1.468,-1.019Zm-2.915,2.067l1.041,1.407c-0.352,0.261 -0.703,0.524 -1.051,0.79l-0.347,0.266l-1.068,-1.386l0.354,-0.272c0.355,-0.271 0.713,-0.539 1.072,-0.805Zm-2.83,2.182l1.096,1.364c-0.455,0.366 -0.907,0.736 -1.355,1.111l-1.123,-1.342c0.457,-0.382 0.917,-0.76 1.382,-1.133Zm-2.741,2.293l1.15,1.319c-0.44,0.384 -0.877,0.772 -1.309,1.164l-1.176,-1.296c0.441,-0.4 0.886,-0.796 1.335,-1.187Zm-2.647,2.401l1.201,1.272c-0.425,0.401 -0.845,0.806 -1.262,1.215l-1.227,-1.248c0.425,-0.417 0.854,-0.831 1.287,-1.24Zm-2.549,2.505l1.251,1.224c-0.408,0.418 -0.812,0.839 -1.212,1.265l-1.275,-1.198c0.408,-0.434 0.82,-0.864 1.237,-1.29Zm-2.447,2.604l1.299,1.173c-0.391,0.433 -0.778,0.871 -1.161,1.312l-1.322,-1.146c0.39,-0.45 0.785,-0.896 1.184,-1.338Zm-2.341,2.7l1.345,1.12c-0.374,0.449 -0.743,0.901 -1.108,1.358l-1.367,-1.093c0.372,-0.465 0.749,-0.927 1.13,-1.385Zm-2.231,2.791l1.389,1.065c-0.355,0.463 -0.706,0.93 -1.052,1.401l-1.41,-1.037c0.353,-0.48 0.711,-0.956 1.073,-1.429Zm-2.118,2.879l1.43,1.009c-0.337,0.477 -0.668,0.958 -0.995,1.442l-1.45,-0.98c0.334,-0.494 0.672,-0.984 1.015,-1.471Zm-2.001,2.961l1.469,0.951c-0.317,0.49 -0.629,0.984 -0.937,1.48l-1.488,-0.921c0.314,-0.507 0.632,-1.01 0.956,-1.51Zm-1.881,3.039l1.506,0.891c-0.297,0.502 -0.589,1.008 -0.877,1.517l-1.524,-0.86c0.293,-0.519 0.591,-1.035 0.894,-1.547Zm-1.757,3.112l1.541,0.829c-0.277,0.514 -0.548,1.031 -0.815,1.551l-1.557,-0.798c0.272,-0.53 0.549,-1.058 0.831,-1.582Zm-1.63,3.181l1.573,0.767c-0.256,0.525 -0.506,1.052 -0.752,1.582l-1.588,-0.735c0.25,-0.541 0.506,-1.079 0.767,-1.614Zm-1.501,3.244l1.603,0.702c-0.234,0.534 -0.463,1.072 -0.687,1.611l-1.617,-0.67c0.228,-0.551 0.462,-1.099 0.701,-1.644Zm-1.368,3.302l1.63,0.637c-0.212,0.543 -0.419,1.089 -0.621,1.638l-1.642,-0.604c0.206,-0.56 0.417,-1.117 0.634,-1.671Zm-1.233,3.355l1.654,0.57c-0.19,0.551 -0.375,1.105 -0.554,1.662l-1.666,-0.537c0.183,-0.568 0.371,-1.133 0.565,-1.695Zm-1.096,3.402l1.676,0.503c-0.168,0.559 -0.33,1.12 -0.486,1.683l-1.686,-0.469c0.16,-0.575 0.325,-1.147 0.496,-1.717Zm-0.958,3.444l1.695,0.435c-0.145,0.565 -0.284,1.132 -0.418,1.701l-1.704,-0.4c0.136,-0.581 0.279,-1.159 0.426,-1.736Zm-0.817,3.479l1.711,0.366c-0.122,0.57 -0.238,1.142 -0.349,1.717l-1.718,-0.331c0.113,-0.586 0.231,-1.17 0.356,-1.751Zm-0.676,3.51l1.725,0.296c-0.099,0.575 -0.192,1.151 -0.279,1.729l-1.73,-0.261c0.089,-0.59 0.184,-1.178 0.285,-1.764Zm-0.533,3.534l1.735,0.226c-0.075,0.578 -0.145,1.158 -0.209,1.739l-1.74,-0.191c0.065,-0.593 0.136,-1.185 0.213,-1.774Zm-0.391,3.552l1.743,0.156c-0.052,0.581 -0.098,1.163 -0.139,1.746l-1.746,-0.122c0.041,-0.595 0.089,-1.189 0.142,-1.781Zm-0.248,3.565l1.748,0.087c-0.029,0.582 -0.052,1.166 -0.069,1.751l-1.749,-0.052c0.018,-0.597 0.041,-1.192 0.071,-1.785Zm-0.106,3.572l1.75,0.017c-0.003,0.292 -0.004,0.584 -0.004,0.876l-1.75,0c0,-0.298 0.001,-0.596 0.004,-0.893Z" style="fill:#2c2c2c;"/><rect x="1560" y="1580" width="180" height="20" style="fill:#fff;"/><path d="M1740,1580l0,20l-180,0l0,-20l180,0Zm-2.083,2.083l-175.833,0l0,15.833l175.833,-0l0,-15.833Z" style="fill:#fff;"/></g><g id="vENTANA"><rect x="960" y="1580" width="380" height="20" style="fill:#fff;"/><path d="M1340,1580l0,20l-380,0l0,-20l380,0Zm-1,1l-378,-0l-0,18l378,-0l-0,-18Z"/><path d="M960,1590l380,0" style="fill:none;stroke:#000;stroke-width:1px;stroke-linejoin:round;"/></g><circle cx="2900" cy="467" r="30" style="fill:#676767;"/><path d="M1200,920l0,160l-100,0l0,-160l100,0Zm-1.75,1.75l-96.5,-0l-0,156.5l96.5,0l-0,-156.5Z" style="fill:#2c2c2c;"/><g><path d="M1281.667,626.667l5,6.667l-78.333,58.75l0,247.917l-8.333,0l-0,-250c0,-1.311 0.617,-2.546 1.667,-3.333l80,-60Z" style="fill:#fff;"/><clipPath id="_clip2"><path d="M1281.667,626.667l5,6.667l-78.333,58.75l0,247.917l-8.333,0l-0,-250c0,-1.311 0.617,-2.546 1.667,-3.333l80,-60Z"/></clipPath><g clip-path="url(#_clip2)"><path d="M1287.167,812.532l-87.667,-58.398" style="fill:none;stroke:#000;stroke-width:1px;stroke-linecap:round;stroke-linejoin:round;stroke-miterlimit:2;"/><path d="M1287.167,819.335l-87.667,-58.398" style="fill:none;stroke:#000;stroke-width:1px;stroke-linecap:round;stroke-linejoin:round;stroke-miterlimit:2;"/><path d="M1287.167,826.138l-87.667,-58.398" style="fill:none;stroke:#000;stroke-width:1px;stroke-linecap:round;stroke-linejoin:round;stroke-miterlimit:2;"/><path d="M1287.167,832.941l-87.667,-58.398" style="fill:none;stroke:#000;stroke-width:1px;stroke-linecap:round;stroke-linejoin:round;stroke-miterlimit:2;"/><path d="M1287.167,839.744l-87.667,-58.398" style="fill:none;stroke:#000;stroke-width:1px;stroke-linecap:round;stroke-linejoin:round;stroke-miterlimit:2;"/><path d="M1287.167,846.547l-87.667,-58.398" style="fill:none;stroke:#000;stroke-width:1px;stroke-linecap:round;stroke-linejoin:round;stroke-miterlimit:2;"/><path d="M1287.167,853.35l-87.667,-58.398" style="fill:none;stroke:#000;stroke-width:1px;stroke-linecap:round;stroke-linejoin:round;stroke-miterlimit:2;"/><path d="M1287.167,860.153l-87.667,-58.398" style="fill:none;stroke:#000;stroke-width:1px;stroke-linecap:round;stroke-linejoin:round;stroke-miterlimit:2;"/><path d="M1287.167,866.956l-87.667,-58.398" style="fill:none;stroke:#000;stroke-width:1px;stroke-linecap:round;stroke-linejoin:round;stroke-miterlimit:2;"/><path d="M1287.167,873.759l-87.667,-58.398" style="fill:none;stroke:#000;stroke-width:1px;stroke-linecap:round;stroke-linejoin:round;stroke-miterlimit:2;"/><path d="M1287.167,880.562l-87.667,-58.398" style="fill:none;stroke:#000;stroke-width:1px;stroke-linecap:round;stroke-linejoin:round;stroke-miterlimit:2;"/><path d="M1287.167,887.365l-87.667,-58.398" style="fill:none;stroke:#000;stroke-width:1px;stroke-linecap:round;stroke-linejoin:round;stroke-miterlimit:2;"/><path d="M1287.167,894.168l-87.667,-58.398" style="fill:none;stroke:#000;stroke-width:1px;stroke-linecap:round;stroke-linejoin:round;stroke-miterlimit:2;"/><path d="M1287.167,900.97l-87.667,-58.398" style="fill:none;stroke:#000;stroke-width:1px;stroke-linecap:round;stroke-linejoin:round;stroke-miterlimit:2;"/><path d="M1287.167,907.773l-87.667,-58.398" style="fill:none;stroke:#000;stroke-width:1px;stroke-linecap:round;stroke-linejoin:round;stroke-miterlimit:2;"/><path d="M1287.167,914.576l-87.667,-58.398" style="fill:none;stroke:#000;stroke-width:1px;stroke-linecap:round;stroke-linejoin:round;stroke-miterlimit:2;"/><path d="M1287.167,921.379l-87.667,-58.398" style="fill:none;stroke:#000;stroke-width:1px;stroke-linecap:round;stroke-linejoin:round;stroke-miterlimit:2;"/><path d="M1287.167,928.182l-87.667,-58.398" style="fill:none;stroke:#000;stroke-width:1px;stroke-linecap:round;stroke-linejoin:round;stroke-miterlimit:2;"/><path d="M1287.167,934.985l-87.667,-58.398" style="fill:none;stroke:#000;stroke-width:1px;stroke-linecap:round;stroke-linejoin:round;stroke-miterlimit:2;"/><path d="M1285.233,940.5l-85.733,-57.11" style="fill:none;stroke:#000;stroke-width:1px;stroke-linecap:round;stroke-linejoin:round;stroke-miterlimit:2;"/><path d="M1275.021,940.5l-75.521,-50.307" style="fill:none;stroke:#000;stroke-width:1px;stroke-linecap:round;stroke-linejoin:round;stroke-miterlimit:2;"/><path d="M1264.808,940.5l-65.308,-43.504" style="fill:none;stroke:#000;stroke-width:1px;stroke-linecap:round;stroke-linejoin:round;stroke-miterlimit:2;"/><path d="M1254.596,940.5l-55.096,-36.701" style="fill:none;stroke:#000;stroke-width:1px;stroke-linecap:round;stroke-linejoin:round;stroke-miterlimit:2;"/><path d="M1244.383,940.5l-44.883,-29.898" style="fill:none;stroke:#000;stroke-width:1px;stroke-linecap:round;stroke-linejoin:round;stroke-miterlimit:2;"/><path d="M1234.17,940.5l-34.67,-23.095" style="fill:none;stroke:#000;stroke-width:1px;stroke-linecap:round;stroke-linejoin:round;stroke-miterlimit:2;"/><path d="M1223.958,940.5l-24.458,-16.292" style="fill:none;stroke:#000;stroke-width:1px;stroke-linecap:round;stroke-linejoin:round;stroke-miterlimit:2;"/><path d="M1213.745,940.5l-14.245,-9.489" style="fill:none;stroke:#000;stroke-width:1px;stroke-linecap:round;stroke-linejoin:round;stroke-miterlimit:2;"/><path d="M1203.533,940.5l-4.033,-2.687" style="fill:none;stroke:#000;stroke-width:1px;stroke-linecap:round;stroke-linejoin:round;stroke-miterlimit:2;"/><path d="M1287.167,805.729l-87.667,-58.398" style="fill:none;stroke:#000;stroke-width:1px;stroke-linecap:round;stroke-linejoin:round;stroke-miterlimit:2;"/><path d="M1287.167,798.926l-87.667,-58.398" style="fill:none;stroke:#000;stroke-width:1px;stroke-linecap:round;stroke-linejoin:round;stroke-miterlimit:2;"/><path d="M1287.167,792.124l-87.667,-58.398" style="fill:none;stroke:#000;stroke-width:1px;stroke-linecap:round;stroke-linejoin:round;stroke-miterlimit:2;"/><path d="M1287.167,785.321l-87.667,-58.398" style="fill:none;stroke:#000;stroke-width:1px;stroke-linecap:round;stroke-linejoin:round;stroke-miterlimit:2;"/><path d="M1287.167,778.518l-87.667,-58.398" style="fill:none;stroke:#000;stroke-width:1px;stroke-linecap:round;stroke-linejoin:round;stroke-miterlimit:2;"/><path d="M1287.167,771.715l-87.667,-58.398" style="fill:none;stroke:#000;stroke-width:1px;stroke-linecap:round;stroke-linejoin:round;stroke-miterlimit:2;"/><path d="M1287.167,764.912l-87.667,-58.398" style="fill:none;stroke:#000;stroke-width:1px;stroke-linecap:round;stroke-linejoin:round;stroke-miterlimit:2;"/><path d="M1287.167,758.109l-87.667,-58.398" style="fill:none;stroke:#000;stroke-width:1px;stroke-linecap:round;stroke-linejoin:round;stroke-miterlimit:2;"/><path d="M1287.167,751.306l-87.667,-58.398" style="fill:none;stroke:#000;stroke-width:1px;stroke-linecap:round;stroke-linejoin:round;stroke-miterlimit:2;"/><path d="M1287.167,744.503l-87.667,-58.398" style="fill:none;stroke:#000;stroke-width:1px;stroke-linecap:round;stroke-linejoin:round;stroke-miterlimit:2;"/><path d="M1287.167,737.7l-87.667,-58.398" style="fill:none;stroke:#000;stroke-width:1px;stroke-linecap:round;stroke-linejoin:round;stroke-miterlimit:2;"/><path d="M1287.167,730.897l-87.667,-58.398" style="fill:none;stroke:#000;stroke-width:1px;stroke-linecap:round;stroke-linejoin:round;stroke-miterlimit:2;"/><path d="M1287.167,724.094l-87.667,-58.398" style="fill:none;stroke:#000;stroke-width:1px;stroke-linecap:round;stroke-linejoin:round;stroke-miterlimit:2;"/><path d="M1287.167,717.291l-87.667,-58.398" style="fill:none;stroke:#000;stroke-width:1px;stroke-linecap:round;stroke-linejoin:round;stroke-miterlimit:2;"/><path d="M1287.167,710.488l-87.667,-58.398" style="fill:none;stroke:#000;stroke-width:1px;stroke-linecap:round;stroke-linejoin:round;stroke-miterlimit:2;"/><path d="M1287.167,703.685l-87.667,-58.398" style="fill:none;stroke:#000;stroke-width:1px;stroke-linecap:round;stroke-linejoin:round;stroke-miterlimit:2;"/><path d="M1287.167,696.883l-87.667,-58.398" style="fill:none;stroke:#000;stroke-width:1px;stroke-linecap:round;stroke-linejoin:round;stroke-miterlimit:2;"/><path d="M1287.167,690.08l-87.667,-58.398" style="fill:none;stroke:#000;stroke-width:1px;stroke-linecap:round;stroke-linejoin:round;stroke-miterlimit:2;"/><path d="M1287.167,683.277l-85.733,-57.11" style="fill:none;stroke:#000;stroke-width:1px;stroke-linecap:round;stroke-linejoin:round;stroke-miterlimit:2;"/><path d="M1287.167,676.474l-75.521,-50.307" style="fill:none;stroke:#000;stroke-width:1px;stroke-linecap:round;stroke-linejoin:round;stroke-miterlimit:2;"/><path d="M1287.167,669.671l-65.308,-43.504" style="fill:none;stroke:#000;stroke-width:1px;stroke-linecap:round;stroke-linejoin:round;stroke-miterlimit:2;"/><path d="M1287.167,662.868l-55.096,-36.701" style="fill:none;stroke:#000;stroke-width:1px;stroke-linecap:round;stroke-linejoin:round;stroke-miterlimit:2;"/><path d="M1287.167,656.065l-44.883,-29.898" style="fill:none;stroke:#000;stroke-width:1px;stroke-linecap:round;stroke-linejoin:round;stroke-miterlimit:2;"/><path d="M1287.167,649.262l-34.67,-23.095" style="fill:none;stroke:#000;stroke-width:1px;stroke-linecap:round;stroke-linejoin:round;stroke-miterlimit:2;"/><path d="M1287.167,642.459l-24.458,-16.292" style="fill:none;stroke:#000;stroke-width:1px;stroke-linecap:round;stroke-linejoin:round;stroke-miterlimit:2;"/><path d="M1287.167,635.656l-14.245,-9.489" style="fill:none;stroke:#000;stroke-width:1px;stroke-linecap:round;stroke-linejoin:round;stroke-miterlimit:2;"/><path d="M1287.167,628.853l-4.033,-2.687" style="fill:none;stroke:#000;stroke-width:1px;stroke-linecap:round;stroke-linejoin:round;stroke-miterlimit:2;"/></g><path d="M1281.667,626.667l5,6.667l-78.333,58.75l0,247.917l-8.333,0l-0,-250c0,-1.311 0.617,-2.546 1.667,-3.333l80,-60Z" style="fill:none;stroke:#2c2c2c;stroke-width:1.25px;stroke-linejoin:round;stroke-miterlimit:2;"/></g><g><path d="M1281.667,1373.333l5,-6.667l-78.333,-58.75l0,-247.917l-8.333,-0l-0,250c0,1.311 0.617,2.546 1.667,3.333l80,60Z" style="fill:#fff;"/><clipPath id="_clip3"><path d="M1281.667,1373.333l5,-6.667l-78.333,-58.75l0,-247.917l-8.333,-0l-0,250c0,1.311 0.617,2.546 1.667,3.333l80,60Z"/></clipPath><g clip-path="url(#_clip3)"><path d="M1286.167,1188.134l-85.667,57.066" style="fill:none;stroke:#000;stroke-width:1px;stroke-linecap:round;stroke-linejoin:round;stroke-miterlimit:2;"/><path d="M1286.167,1181.331l-85.667,57.066" style="fill:none;stroke:#000;stroke-width:1px;stroke-linecap:round;stroke-linejoin:round;stroke-miterlimit:2;"/><path d="M1286.167,1174.528l-85.667,57.066" style="fill:none;stroke:#000;stroke-width:1px;stroke-linecap:round;stroke-linejoin:round;stroke-miterlimit:2;"/><path d="M1286.167,1167.725l-85.667,57.066" style="fill:none;stroke:#000;stroke-width:1px;stroke-linecap:round;stroke-linejoin:round;stroke-miterlimit:2;"/><path d="M1286.167,1160.922l-85.667,57.066" style="fill:none;stroke:#000;stroke-width:1px;stroke-linecap:round;stroke-linejoin:round;stroke-miterlimit:2;"/><path d="M1286.167,1154.119l-85.667,57.066" style="fill:none;stroke:#000;stroke-width:1px;stroke-linecap:round;stroke-linejoin:round;stroke-miterlimit:2;"/><path d="M1286.167,1147.316l-85.667,57.066" style="fill:none;stroke:#000;stroke-width:1px;stroke-linecap:round;stroke-linejoin:round;stroke-miterlimit:2;"/><path d="M1286.167,1140.513l-85.667,57.066" style="fill:none;stroke:#000;stroke-width:1px;stroke-linecap:round;stroke-linejoin:round;stroke-miterlimit:2;"/><path d="M1286.167,1133.71l-85.667,57.066" style="fill:none;stroke:#000;stroke-width:1px;stroke-linecap:round;stroke-linejoin:round;stroke-miterlimit:2;"/><path d="M1286.167,1126.907l-85.667,57.066" style="fill:none;stroke:#000;stroke-width:1px;stroke-linecap:round;stroke-linejoin:round;stroke-miterlimit:2;"/><path d="M1286.167,1120.104l-85.667,57.066" style="fill:none;stroke:#000;stroke-width:1px;stroke-linecap:round;stroke-linejoin:round;stroke-miterlimit:2;"/><path d="M1286.167,1113.302l-85.667,57.066" style="fill:none;stroke:#000;stroke-width:1px;stroke-linecap:round;stroke-linejoin:round;stroke-miterlimit:2;"/><path d="M1286.167,1106.499l-85.667,57.066" style="fill:none;stroke:#000;stroke-width:1px;stroke-linecap:round;stroke-linejoin:round;stroke-miterlimit:2;"/><path d="M1286.167,1099.696l-85.667,57.066" style="fill:none;stroke:#000;stroke-width:1px;stroke-linecap:round;stroke-linejoin:round;stroke-miterlimit:2;"/><path d="M1286.167,1092.893l-85.667,57.066" style="fill:none;stroke:#000;stroke-width:1px;stroke-linecap:round;stroke-linejoin:round;stroke-miterlimit:2;"/><path d="M1286.167,1086.09l-85.667,57.066" style="fill:none;stroke:#000;stroke-width:1px;stroke-linecap:round;stroke-linejoin:round;stroke-miterlimit:2;"/><path d="M1286.167,1079.287l-85.667,57.066" style="fill:none;stroke:#000;stroke-width:1px;stroke-linecap:round;stroke-linejoin:round;stroke-miterlimit:2;"/><path d="M1286.167,1072.484l-85.667,57.066" style="fill:none;stroke:#000;stroke-width:1px;stroke-linecap:round;stroke-linejoin:round;stroke-miterlimit:2;"/><path d="M1286.167,1065.681l-85.667,57.066" style="fill:none;stroke:#000;stroke-width:1px;stroke-linecap:round;stroke-linejoin:round;stroke-miterlimit:2;"/><path d="M1285.233,1059.5l-84.733,56.444" style="fill:none;stroke:#000;stroke-width:1px;stroke-linecap:round;stroke-linejoin:round;stroke-miterlimit:2;"/><path d="M1275.021,1059.5l-74.521,49.641" style="fill:none;stroke:#000;stroke-width:1px;stroke-linecap:round;stroke-linejoin:round;stroke-miterlimit:2;"/><path d="M1264.808,1059.5l-64.308,42.838" style="fill:none;stroke:#000;stroke-width:1px;stroke-linecap:round;stroke-linejoin:round;stroke-miterlimit:2;"/><path d="M1254.596,1059.5l-54.096,36.035" style="fill:none;stroke:#000;stroke-width:1px;stroke-linecap:round;stroke-linejoin:round;stroke-miterlimit:2;"/><path d="M1244.383,1059.5l-43.883,29.232" style="fill:none;stroke:#000;stroke-width:1px;stroke-linecap:round;stroke-linejoin:round;stroke-miterlimit:2;"/><path d="M1234.17,1059.5l-33.67,22.429" style="fill:none;stroke:#000;stroke-width:1px;stroke-linecap:round;stroke-linejoin:round;stroke-miterlimit:2;"/><path d="M1223.958,1059.5l-23.458,15.626" style="fill:none;stroke:#000;stroke-width:1px;stroke-linecap:round;stroke-linejoin:round;stroke-miterlimit:2;"/><path d="M1213.745,1059.5l-13.245,8.823" style="fill:none;stroke:#000;stroke-width:1px;stroke-linecap:round;stroke-linejoin:round;stroke-miterlimit:2;"/><path d="M1203.533,1059.5l-3.033,2.02" style="fill:none;stroke:#000;stroke-width:1px;stroke-linecap:round;stroke-linejoin:round;stroke-miterlimit:2;"/><path d="M1286.167,1194.937l-85.667,57.066" style="fill:none;stroke:#000;stroke-width:1px;stroke-linecap:round;stroke-linejoin:round;stroke-miterlimit:2;"/><path d="M1286.167,1201.74l-85.667,57.066" style="fill:none;stroke:#000;stroke-width:1px;stroke-linecap:round;stroke-linejoin:round;stroke-miterlimit:2;"/><path d="M1286.167,1208.543l-85.667,57.066" style="fill:none;stroke:#000;stroke-width:1px;stroke-linecap:round;stroke-linejoin:round;stroke-miterlimit:2;"/><path d="M1286.167,1215.346l-85.667,57.066" style="fill:none;stroke:#000;stroke-width:1px;stroke-linecap:round;stroke-linejoin:round;stroke-miterlimit:2;"/><path d="M1286.167,1222.148l-85.667,57.066" style="fill:none;stroke:#000;stroke-width:1px;stroke-linecap:round;stroke-linejoin:round;stroke-miterlimit:2;"/><path d="M1286.167,1228.951l-85.667,57.066" style="fill:none;stroke:#000;stroke-width:1px;stroke-linecap:round;stroke-linejoin:round;stroke-miterlimit:2;"/><path d="M1286.167,1235.754l-85.667,57.066" style="fill:none;stroke:#000;stroke-width:1px;stroke-linecap:round;stroke-linejoin:round;stroke-miterlimit:2;"/><path d="M1286.167,1242.557l-85.667,57.066" style="fill:none;stroke:#000;stroke-width:1px;stroke-linecap:round;stroke-linejoin:round;stroke-miterlimit:2;"/><path d="M1286.167,1249.36l-85.667,57.066" style="fill:none;stroke:#000;stroke-width:1px;stroke-linecap:round;stroke-linejoin:round;stroke-miterlimit:2;"/><path d="M1286.167,1256.163l-85.667,57.066" style="fill:none;stroke:#000;stroke-width:1px;stroke-linecap:round;stroke-linejoin:round;stroke-miterlimit:2;"/><path d="M1286.167,1262.966l-85.667,57.066" style="fill:none;stroke:#000;stroke-width:1px;stroke-linecap:round;stroke-linejoin:round;stroke-miterlimit:2;"/><path d="M1286.167,1269.769l-85.667,57.066" style="fill:none;stroke:#000;stroke-width:1px;stroke-linecap:round;stroke-linejoin:round;stroke-miterlimit:2;"/><path d="M1286.167,1276.572l-85.667,57.066" style="fill:none;stroke:#000;stroke-width:1px;stroke-linecap:round;stroke-linejoin:round;stroke-miterlimit:2;"/><path d="M1286.167,1283.375l-85.667,57.066" style="fill:none;stroke:#000;stroke-width:1px;stroke-linecap:round;stroke-linejoin:round;stroke-miterlimit:2;"/><path d="M1286.167,1290.178l-85.667,57.066" style="fill:none;stroke:#000;stroke-width:1px;stroke-linecap:round;stroke-linejoin:round;stroke-miterlimit:2;"/><path d="M1286.167,1296.981l-85.667,57.066" style="fill:none;stroke:#000;stroke-width:1px;stroke-linecap:round;stroke-linejoin:round;stroke-miterlimit:2;"/><path d="M1286.167,1303.784l-85.667,57.066" style="fill:none;stroke:#000;stroke-width:1px;stroke-linecap:round;stroke-linejoin:round;stroke-miterlimit:2;"/><path d="M1286.167,1310.587l-85.667,57.066" style="fill:none;stroke:#000;stroke-width:1px;stroke-linecap:round;stroke-linejoin:round;stroke-miterlimit:2;"/><path d="M1286.167,1317.389l-84.733,56.444" style="fill:none;stroke:#000;stroke-width:1px;stroke-linecap:round;stroke-linejoin:round;stroke-miterlimit:2;"/><path d="M1286.167,1324.192l-74.521,49.641" style="fill:none;stroke:#000;stroke-width:1px;stroke-linecap:round;stroke-linejoin:round;stroke-miterlimit:2;"/><path d="M1286.167,1330.995l-64.308,42.838" style="fill:none;stroke:#000;stroke-width:1px;stroke-linecap:round;stroke-linejoin:round;stroke-miterlimit:2;"/><path d="M1286.167,1337.798l-54.096,36.035" style="fill:none;stroke:#000;stroke-width:1px;stroke-linecap:round;stroke-linejoin:round;stroke-miterlimit:2;"/><path d="M1286.167,1344.601l-43.883,29.232" style="fill:none;stroke:#000;stroke-width:1px;stroke-linecap:round;stroke-linejoin:round;stroke-miterlimit:2;"/><path d="M1286.167,1351.404l-33.67,22.429" style="fill:none;stroke:#000;stroke-width:1px;stroke-linecap:round;stroke-linejoin:round;stroke-miterlimit:2;"/><path d="M1286.167,1358.207l-23.458,15.626" style="fill:none;stroke:#000;stroke-width:1px;stroke-linecap:round;stroke-linejoin:round;stroke-miterlimit:2;"/><path d="M1286.167,1365.01l-13.245,8.823" style="fill:none;stroke:#000;stroke-width:1px;stroke-linecap:round;stroke-linejoin:round;stroke-miterlimit:2;"/><path d="M1286.167,1371.813l-3.033,2.02" style="fill:none;stroke:#000;stroke-width:1px;stroke-linecap:round;stroke-linejoin:round;stroke-miterlimit:2;"/></g><path d="M1281.667,1373.333l5,-6.667l-78.333,-58.75l0,-247.917l-8.333,-0l-0,250c0,1.311 0.617,2.546 1.667,3.333l80,60Z" style="fill:none;stroke:#2c2c2c;stroke-width:1.25px;stroke-linejoin:round;stroke-miterlimit:2;"/></g><path d="M520,500l40,0l0,200l-140,0l140,0l0,220l-40,0" style="fill:none;stroke:#939393;stroke-width:18.33px;"/><rect x="700" y="680" width="300" height="420" style="fill:#fff;stroke:#000;stroke-width:4.17px;"/><g id="Proyectos"><path d="M900,1300l300,0l1.667,13.333l98.333,76.667l0,190l-400,0l-0,-280Z" style="fill:none;stroke:#000;stroke-width:4px;"/><rect x="420" y="1300" width="480" height="280" style="fill:#fff;stroke:#000;stroke-width:4.17px;"/><g transform="matrix(50,0,0,50,793.003516,1474.549219)"></g><text x="479.854px" y="1474.549px" style="font-family:'Oswald-Regular', 'Oswald';font-size:50px;">ÁREA DE OFICINA</text><g transform="matrix(50,0,0,50,1216.325,1474.549219)"></g><text x="1002.225px" y="1474.549px" style="font-family:'Oswald-Regular', 'Oswald';font-size:50px;">GUARDERÍA</text><g transform="matrix(1,0,0,1,-901.940073,-957.843644)"><text x="1675.415px" y="1821.219px" style="font-family:'Oswald-Regular', 'Oswald';font-size:50px;">SALA DE</text><g transform="matrix(50,0,0,50,1861.190073,1895.318644)"></g><text x="1640.49px" y="1895.319px" style="font-family:'Oswald-Regular', 'Oswald';font-size:50px;">BIENVENIDA</text></g></g><g id="cOLUMNAS"><rect x="2340" y="1540" width="120" height="40" style="fill:#676767;"/><rect x="2840" y="1540" width="120" height="40" style="fill:#676767;"/><rect x="1840" y="1540" width="120" height="40" style="fill:#676767;"/><rect x="1340" y="1540" width="120" height="40" style="fill:#676767;"/><rect x="840" y="1540" width="120" height="40" style="fill:#676767;"/><circle cx="900" cy="467" r="30" style="fill:#676767;"/><circle cx="1400" cy="467" r="30" style="fill:#676767;"/><circle cx="1900" cy="467" r="30" style="fill:#676767;"/><circle cx="2400" cy="467" r="30" style="fill:#676767;"/><g id="Capa1"></g></g></svg>