<?xml version="1.0" encoding="UTF-8" standalone="no"?>
<!DOCTYPE svg PUBLIC "-//W3C//DTD SVG 1.1//EN" "http://www.w3.org/Graphics/SVG/1.1/DTD/svg11.dtd">
<svg width="100%" height="100%" viewBox="0 0 316 155" version="1.1" xmlns="http://www.w3.org/2000/svg" xmlns:xlink="http://www.w3.org/1999/xlink" xml:space="preserve" xmlns:serif="http://www.serif.com/" style="fill-rule:evenodd;clip-rule:evenodd;stroke-linejoin:round;stroke-miterlimit:1.5;">
    <g transform="matrix(1,0,0,1,-142.405,-204.979)">
        <g id="morfologia-aoristo" serif:id="morfologia aoristo" transform="matrix(1,0,0,1,0,175)">
            <g id="text4">
            </g>
            <g transform="matrix(1,0,-0.00560429,1,230.357,96.487)">
                <text x="-46.952px" y="0px" style="font-family:'SBLGreek', 'SBL Greek';font-size:89.2px;fill:rgb(41,128,185);">ἔ</text>
                <g transform="matrix(89.1997,0,0,89.1997,-10.8015,0)">
                    <path d="M0.48,-0.094C0.481,-0.09 0.482,-0.087 0.482,-0.083C0.482,-0.079 0.482,-0.075 0.482,-0.072C0.482,-0.062 0.481,-0.052 0.478,-0.043C0.475,-0.033 0.471,-0.025 0.465,-0.017C0.459,-0.01 0.452,-0.004 0.444,0.001C0.435,0.006 0.426,0.008 0.415,0.008C0.401,0.008 0.39,0.004 0.38,-0.002C0.371,-0.009 0.363,-0.018 0.357,-0.029C0.352,-0.039 0.346,-0.053 0.341,-0.071C0.335,-0.089 0.329,-0.111 0.322,-0.138C0.315,-0.164 0.308,-0.196 0.3,-0.231C0.292,-0.267 0.283,-0.308 0.273,-0.354C0.245,-0.293 0.219,-0.235 0.194,-0.181C0.17,-0.127 0.146,-0.076 0.122,-0.029C0.118,-0.021 0.114,-0.015 0.11,-0.01C0.106,-0.006 0.101,-0.002 0.096,0.001C0.09,0.003 0.085,0.005 0.078,0.006C0.072,0.007 0.065,0.008 0.057,0.008C0.049,0.008 0.04,0.007 0.031,0.006C0.023,0.005 0.014,0.003 0.005,-0.001L0.004,-0.005C0.025,-0.038 0.047,-0.072 0.069,-0.108C0.09,-0.144 0.112,-0.18 0.133,-0.218C0.154,-0.255 0.175,-0.292 0.196,-0.33C0.216,-0.367 0.236,-0.403 0.254,-0.438C0.245,-0.476 0.236,-0.508 0.227,-0.534C0.218,-0.56 0.209,-0.581 0.199,-0.597C0.19,-0.613 0.18,-0.625 0.169,-0.632C0.158,-0.639 0.146,-0.643 0.132,-0.643C0.123,-0.643 0.113,-0.642 0.105,-0.64C0.096,-0.638 0.086,-0.633 0.076,-0.627C0.065,-0.634 0.058,-0.642 0.053,-0.65C0.049,-0.658 0.046,-0.667 0.046,-0.676C0.046,-0.684 0.049,-0.691 0.053,-0.698C0.057,-0.704 0.063,-0.71 0.07,-0.715C0.077,-0.72 0.085,-0.724 0.095,-0.726C0.104,-0.729 0.114,-0.73 0.125,-0.73C0.152,-0.73 0.176,-0.722 0.195,-0.706C0.214,-0.69 0.23,-0.666 0.245,-0.634C0.259,-0.602 0.273,-0.562 0.285,-0.514C0.298,-0.466 0.311,-0.41 0.326,-0.347C0.335,-0.308 0.343,-0.275 0.349,-0.247C0.356,-0.219 0.362,-0.196 0.367,-0.176C0.373,-0.157 0.378,-0.141 0.383,-0.129C0.388,-0.116 0.393,-0.107 0.398,-0.1C0.403,-0.093 0.409,-0.089 0.415,-0.086C0.421,-0.084 0.429,-0.083 0.437,-0.083C0.448,-0.083 0.462,-0.087 0.477,-0.095L0.48,-0.094Z" style="fill-rule:nonzero;"/>
                </g>
                <g transform="matrix(89.1997,0,0,89.1997,-12.7615,0)">
                </g>
                <text x="31.533px" y="0px" style="font-family:'SBLGreek', 'SBL Greek';font-size:89.2px;"><tspan x="31.533px " y="0px ">υ</tspan></text>
                <text x="72.78px" y="0px" style="font-family:'SBLGreek', 'SBL Greek';font-size:89.2px;fill:rgb(111,56,116);">θη</text>
                <g transform="matrix(89.1997,0,0,89.1997,183.06,0)">
                </g>
                <text x="152.397px" y="0px" style="font-family:'SBLGreek', 'SBL Greek';font-size:89.2px;">ς</text>
            </g>
            <g id="Capa2">
                <g transform="matrix(1.44381,0,0,1.44381,-43.6122,-68.5309)">
                    <text x="128.778px" y="164.407px" style="font-family:'AtkinsonHyperlegible-Bold', 'Atkinson Hyperlegible';font-weight:700;font-size:12px;">A<tspan x="136.77px " y="164.407px ">u</tspan>mento</text>
                </g>
                <g transform="matrix(1.44381,0,0,1.44381,29.8935,-70.5234)">
                    <text x="141.774px" y="164.407px" style="font-family:'AtkinsonHyperlegible-Bold', 'Atkinson Hyperlegible';font-weight:700;font-size:12px;">Raiz</text>
                    <g transform="matrix(12,0,0,12,170.808,176.407)">
                    </g>
                    <text x="137.196px" y="176.407px" style="font-family:'AtkinsonHyperlegible-Bold', 'Atkinson Hyperlegible';font-weight:700;font-size:12px;">léxica</text>
                </g>
                <g transform="matrix(1.44381,0,0,1.44381,110.893,-72.5938)">
                    <text x="136.962px" y="164.407px" style="font-family:'AtkinsonHyperlegible-Bold', 'Atkinson Hyperlegible';font-weight:700;font-size:12px;">Marca</text>
                    <g transform="matrix(12,0,0,12,179.358,176.407)">
                    </g>
                    <text x="128.646px" y="176.407px" style="font-family:'AtkinsonHyperlegible-Bold', 'Atkinson Hyperlegible';font-weight:700;font-size:12px;">tempor<tspan x="168.954px " y="176.407px ">a</tspan>l</text>
                </g>
                <g transform="matrix(1.44381,0,0,1.44381,199.857,-71.3031)">
                    <text x="138.588px" y="164.407px" style="font-family:'AtkinsonHyperlegible-Bold', 'Atkinson Hyperlegible';font-weight:700;font-size:12px;">V<tspan x="145.896px " y="164.407px ">o</tspan>cal</text>
                    <g transform="matrix(12,0,0,12,178.908,176.407)">
                    </g>
                    <text x="129.096px" y="176.407px" style="font-family:'AtkinsonHyperlegible-Bold', 'Atkinson Hyperlegible';font-weight:700;font-size:12px;">temática</text>
                </g>
                <g transform="matrix(1.44381,0,0,1.44381,-112.858,-84.7399)">
                    <g transform="matrix(0.69261,-0,-0,0.69261,176.798,79.4557)">
                        <path d="M104.989,111.918L101.595,116.291L98.347,111.808L104.989,111.918Z" style="fill:rgb(137,137,137);"/>
                        <path d="M121.791,75.864C121.852,108.226 102.845,78.184 101.653,112.749" style="fill:none;stroke:rgb(137,137,137);stroke-width:1.48px;"/>
                    </g>
                </g>
                <g transform="matrix(-1.44381,0,0,1.44381,712.054,-84.7399)">
                    <g transform="matrix(-0.69261,0,0,0.69261,394.545,79.4557)">
                        <path d="M216.039,111.808L212.791,116.291L209.397,111.918L216.039,111.808Z" style="fill:rgb(137,137,137);"/>
                        <path d="M192.595,75.864C192.534,108.226 211.54,78.184 212.732,112.749" style="fill:none;stroke:rgb(137,137,137);stroke-width:1.48px;"/>
                    </g>
                </g>
                <g transform="matrix(-1.44381,0,0,1.44381,778.892,-84.7399)">
                    <g transform="matrix(-0.69261,0,0,0.69261,440.837,79.4557)">
                        <path d="M282.993,111.896L279.628,116.291L276.351,111.83L282.993,111.896Z" style="fill:rgb(137,137,137);"/>
                        <path d="M259.432,82.864C262.267,108.347 279.367,82.145 279.663,112.748" style="fill:none;stroke:rgb(137,137,137);stroke-width:1.48px;"/>
                    </g>
                </g>
                <g transform="matrix(1.44381,0,0,1.44381,-178.771,-78.5836)">
                    <g transform="matrix(0.69261,-0,-0,0.69261,222.45,75.1918)">
                        <path d="M33.892,119.64L29.675,123.227L27.412,118.175L33.892,119.64Z" style="fill:rgb(137,137,137);"/>
                        <path d="M60.877,71.021C59.016,106.644 37.469,93.141 30.457,119.771" style="fill:none;stroke:rgb(137,137,137);stroke-width:1.48px;"/>
                    </g>
                </g>
            </g>
        </g>
    </g>
</svg>
