<?xml version="1.0" encoding="UTF-8" standalone="no"?><!DOCTYPE svg PUBLIC "-//W3C//DTD SVG 1.1//EN" "http://www.w3.org/Graphics/SVG/1.1/DTD/svg11.dtd"><svg width="100%" height="100%" viewBox="0 0 620 204" version="1.1" xmlns="http://www.w3.org/2000/svg" xmlns:xlink="http://www.w3.org/1999/xlink" xml:space="preserve" xmlns:serif="http://www.serif.com/" style="fill-rule:evenodd;clip-rule:evenodd;stroke-linejoin:round;stroke-miterlimit:2;"><g id="desinencia"><g id="text4"><g transform="matrix(0.853136,0,0,0.853136,243.144,162.564)"><text x="20.483px" y="0px" style="font-family:'Arial-BoldMT', 'Arial', sans-serif;font-weight:700;font-size:24px;">Raíz:</text><g transform="matrix(15,0,0,15,24.5582,25)"></g><g transform="matrix(15,0,0,15,28.7257,25)"></g><g transform="matrix(15,0,0,15,107.102,25)"></g><text x="-8.796px" y="25px" style="font-family:'ArialMT', 'Arial', sans-serif;font-size:15px;">Signiﬁcado léxico</text></g><g transform="matrix(0.853136,0,0,0.853136,366.228,162.564)"><text x="3.151px" y="0px" style="font-family:'Arial-BoldMT', 'Arial', sans-serif;font-weight:700;font-size:24px;">Flexión:</text><g transform="matrix(15,0,0,15,9.13705,25)"></g><g transform="matrix(15,0,0,15,13.3045,25)"></g><g transform="matrix(15,0,0,15,122.523,25)"></g><text x="-24.217px" y="25px" style="font-family:'ArialMT', 'Arial', sans-serif;font-size:15px;">Signiﬁcado gramatical</text></g></g><g transform="matrix(1,0,0,1,242.599,100.487)"><text x="-46.56px" y="0px" style="font-family:'BookAntiqua', 'Book Antiqua', serif;font-size:89.2px;">λο</text><text x="48.607px" y="0px" style="font-family:'TimesNewRomanPSMT', 'Times New Roman', serif;font-size:89.2px;">́</text><text x="48.607px" y="0px" style="font-family:'BookAntiqua', 'Book Antiqua', serif;font-size:89.2px;">γ</text><text x="96.604px" y="0px" style="font-family:'BookAntiqua', 'Book Antiqua', serif;font-size:89.2px;">ο</text><g transform="matrix(89.1997,0,0,89.1997,182.668,0)"></g><text x="145.298px" y="0px" style="font-family:'BookAntiqua', 'Book Antiqua', serif;font-size:89.2px;fill:#8ac8c8;">ς</text></g><path id="text1-3" d="M372,129.609c-0,1.642 -0.5,2.897 -1.5,3.764c-1.001,0.868 -2.347,1.302 -4.04,1.302l-76.487,0c-1.052,0 -1.86,0.188 -2.424,0.563c-0.59,0.352 -1.001,0.845 -1.231,1.478c-0.257,0.633 -0.398,1.337 -0.424,2.111l-1.616,-0c-0.025,-0.774 -0.153,-1.478 -0.384,-2.111c-0.257,-0.633 -0.667,-1.126 -1.231,-1.478c-0.59,-0.375 -1.398,-0.563 -2.424,-0.563l-76.482,0c-1.744,0 -3.09,-0.434 -4.039,-1.302c-0.975,-0.867 -1.462,-2.122 -1.462,-3.764l-0,-2.322l1.654,-0l-0,1.055c-0,1.032 0.346,1.771 1.039,2.217c0.667,0.446 1.667,0.668 3.001,0.668l76.366,0c1.257,0 2.308,0.329 3.155,0.985c0.82,0.634 1.346,1.607 1.577,2.921l0.038,-0c0.257,-1.337 0.796,-2.322 1.616,-2.956c0.821,-0.633 1.873,-0.95 3.155,-0.95l76.449,0c1.308,0 2.308,-0.222 3.001,-0.668c0.692,-0.446 1.039,-1.185 1.039,-2.217l-0,-1.055l1.654,-0l-0,2.322Z" style="fill-rule:nonzero;"/><path id="text1-3-1" d="M433.418,129.609c0,1.642 -0.323,2.897 -0.969,3.764c-0.646,0.868 -1.516,1.302 -2.609,1.302l-18.709,0c-0.679,0 -1.201,0.188 -1.565,0.563c-0.381,0.352 -0.647,0.845 -0.796,1.478c-0.165,0.633 -0.256,1.337 -0.273,2.111l-1.044,-0c-0.016,-0.774 -0.099,-1.478 -0.248,-2.111c-0.166,-0.633 -0.431,-1.126 -0.795,-1.478c-0.381,-0.375 -0.903,-0.563 -1.566,-0.563l-18.708,0c-1.127,0 -1.997,-0.434 -2.61,-1.302c-0.629,-0.867 -0.944,-2.122 -0.944,-3.764l-0,-2.322l1.068,-0l0,1.055c0,1.032 0.224,1.771 0.671,2.217c0.431,0.446 1.077,0.668 1.939,0.668l18.634,0c0.811,0 1.491,0.329 2.037,0.985c0.531,0.634 0.87,1.607 1.019,2.921l0.025,-0c0.166,-1.337 0.514,-2.322 1.044,-2.956c0.53,-0.633 1.209,-0.95 2.038,-0.95l18.683,0c0.845,0 1.491,-0.222 1.939,-0.668c0.447,-0.446 0.671,-1.185 0.671,-2.217l-0,-1.055l1.068,-0l0,2.322Z" style="fill-rule:nonzero;"/><rect x="0" y="0" width="620" height="204" style="fill:none;"/></g></svg>