<?xml version="1.0" encoding="UTF-8" standalone="no"?><!DOCTYPE svg PUBLIC "-//W3C//DTD SVG 1.1//EN" "http://www.w3.org/Graphics/SVG/1.1/DTD/svg11.dtd"><svg width="100%" height="100%" viewBox="0 0 2419 781" version="1.1" xmlns="http://www.w3.org/2000/svg" xmlns:xlink="http://www.w3.org/1999/xlink" xml:space="preserve" xmlns:serif="http://www.serif.com/" style="fill-rule:evenodd;clip-rule:evenodd;stroke-linejoin:round;stroke-miterlimit:1.5;"><path d="M30.533,746.054l-9.533,-13.667c-0.4,0.045 -1,0.067 -1.8,0.067l-10.533,-0l-0,13.6l-8.667,-0l-0,-46.667l19.2,0c4.044,0 7.567,0.667 10.567,2c3,1.334 5.3,3.245 6.9,5.734c1.6,2.489 2.4,5.444 2.4,8.866c-0,3.511 -0.856,6.534 -2.567,9.067c-1.711,2.533 -4.167,4.422 -7.367,5.667l10.734,15.333l-9.334,-0Zm-0.2,-30.067c0,-2.977 -0.977,-5.266 -2.933,-6.866c-1.956,-1.6 -4.822,-2.4 -8.6,-2.4l-10.133,-0l-0,18.6l10.133,-0c3.778,-0 6.644,-0.811 8.6,-2.434c1.956,-1.622 2.933,-3.922 2.933,-6.9Z" style="fill-rule:nonzero;"/><path d="M83.733,738.787l0,7.267l-35,-0l0,-46.667l34.067,0l-0,7.267l-25.4,-0l-0,12.133l22.533,0l0,7.134l-22.533,-0l-0,12.866l26.333,0Z" style="fill-rule:nonzero;"/><path d="M93.4,699.387l20.4,0c4.978,0 9.4,0.967 13.267,2.9c3.866,1.934 6.866,4.667 9,8.2c2.133,3.534 3.2,7.611 3.2,12.234c-0,4.622 -1.067,8.7 -3.2,12.233c-2.134,3.533 -5.134,6.267 -9,8.2c-3.867,1.933 -8.289,2.9 -13.267,2.9l-20.4,-0l0,-46.667Zm20,39.334c3.422,-0 6.433,-0.656 9.033,-1.967c2.6,-1.311 4.6,-3.178 6,-5.6c1.4,-2.422 2.1,-5.233 2.1,-8.433c0,-3.2 -0.7,-6.011 -2.1,-8.434c-1.4,-2.422 -3.4,-4.289 -6,-5.6c-2.6,-1.311 -5.611,-1.966 -9.033,-1.966l-11.333,-0l-0,32l11.333,-0Z" style="fill-rule:nonzero;"/><path d="M168.533,746.721c-6.444,-0 -11.466,-1.811 -15.066,-5.434c-3.6,-3.622 -5.4,-8.811 -5.4,-15.566l-0,-26.334l8.666,0l0,26c0,9.156 3.956,13.734 11.867,13.734c7.867,-0 11.8,-4.578 11.8,-13.734l0,-26l8.533,0l0,26.334c0,6.755 -1.789,11.944 -5.366,15.566c-3.578,3.623 -8.589,5.434 -15.034,5.434Z" style="fill-rule:nonzero;"/><path d="M220.267,699.387c4.044,0 7.566,0.667 10.566,2c3,1.334 5.3,3.245 6.9,5.734c1.6,2.489 2.4,5.444 2.4,8.866c0,3.378 -0.8,6.323 -2.4,8.834c-1.6,2.511 -3.9,4.433 -6.9,5.766c-3,1.334 -6.522,2 -10.566,2l-10.534,0l0,13.467l-8.666,-0l-0,-46.667l19.2,0Zm-0.4,25.867c3.777,-0 6.644,-0.8 8.6,-2.4c1.955,-1.6 2.933,-3.889 2.933,-6.867c0,-2.977 -0.978,-5.266 -2.933,-6.866c-1.956,-1.6 -4.823,-2.4 -8.6,-2.4l-10.134,-0l0,18.533l10.134,-0Z" style="fill-rule:nonzero;"/><path d="M248.8,699.387l8.667,0l-0,39.334l24.4,-0l-0,7.333l-33.067,-0l0,-46.667Z" style="fill-rule:nonzero;"/><rect x="288.733" y="699.387" width="8.667" height="46.667" style="fill-rule:nonzero;"/><path d="M331.6,746.721c-4.711,-0 -8.967,-1.034 -12.767,-3.1c-3.8,-2.067 -6.777,-4.923 -8.933,-8.567c-2.156,-3.644 -3.233,-7.756 -3.233,-12.333c-0,-4.578 1.089,-8.689 3.266,-12.334c2.178,-3.644 5.167,-6.5 8.967,-8.566c3.8,-2.067 8.056,-3.1 12.767,-3.1c3.822,-0 7.311,0.666 10.466,2c3.156,1.333 5.823,3.266 8,5.8l-5.6,5.266c-3.377,-3.644 -7.533,-5.466 -12.466,-5.466c-3.2,-0 -6.067,0.7 -8.6,2.1c-2.534,1.4 -4.511,3.344 -5.934,5.833c-1.422,2.489 -2.133,5.311 -2.133,8.467c0,3.155 0.711,5.977 2.133,8.466c1.423,2.489 3.4,4.434 5.934,5.834c2.533,1.4 5.4,2.1 8.6,2.1c4.933,-0 9.089,-1.845 12.466,-5.534l5.6,5.334c-2.177,2.533 -4.855,4.466 -8.033,5.8c-3.178,1.333 -6.678,2 -10.5,2Z" style="fill-rule:nonzero;"/><path d="M387.733,735.254l-23.333,-0l-4.6,10.8l-8.933,-0l21,-46.667l8.533,0l21.067,46.667l-9.067,-0l-4.667,-10.8Zm-2.866,-6.8l-8.8,-20.4l-8.734,20.4l17.534,-0Z" style="fill-rule:nonzero;"/><path d="M428.333,746.721c-4.711,-0 -8.966,-1.034 -12.766,-3.1c-3.8,-2.067 -6.778,-4.923 -8.934,-8.567c-2.155,-3.644 -3.233,-7.756 -3.233,-12.333c0,-4.578 1.089,-8.689 3.267,-12.334c2.177,-3.644 5.166,-6.5 8.966,-8.566c3.8,-2.067 8.056,-3.1 12.767,-3.1c3.822,-0 7.311,0.666 10.467,2c3.155,1.333 5.822,3.266 8,5.8l-5.6,5.266c-3.378,-3.644 -7.534,-5.466 -12.467,-5.466c-3.2,-0 -6.067,0.7 -8.6,2.1c-2.533,1.4 -4.511,3.344 -5.933,5.833c-1.423,2.489 -2.134,5.311 -2.134,8.467c0,3.155 0.711,5.977 2.134,8.466c1.422,2.489 3.4,4.434 5.933,5.834c2.533,1.4 5.4,2.1 8.6,2.1c4.933,-0 9.089,-1.845 12.467,-5.534l5.6,5.334c-2.178,2.533 -4.856,4.466 -8.034,5.8c-3.177,1.333 -6.677,2 -10.5,2Z" style="fill-rule:nonzero;"/><rect x="455.2" y="699.387" width="8.667" height="46.667" style="fill-rule:nonzero;"/><path d="M498.267,746.721c-4.756,-0 -9.045,-1.034 -12.867,-3.1c-3.822,-2.067 -6.822,-4.934 -9,-8.6c-2.178,-3.667 -3.267,-7.767 -3.267,-12.3c0,-4.534 1.089,-8.634 3.267,-12.3c2.178,-3.667 5.178,-6.534 9,-8.6c3.822,-2.067 8.111,-3.1 12.867,-3.1c4.755,-0 9.044,1.033 12.866,3.1c3.823,2.066 6.823,4.922 9,8.566c2.178,3.645 3.267,7.756 3.267,12.334c0,4.577 -1.089,8.689 -3.267,12.333c-2.177,3.644 -5.177,6.5 -9,8.567c-3.822,2.066 -8.111,3.1 -12.866,3.1Zm-0,-7.6c3.111,-0 5.911,-0.7 8.4,-2.1c2.489,-1.4 4.444,-3.356 5.866,-5.867c1.423,-2.511 2.134,-5.322 2.134,-8.433c-0,-3.111 -0.711,-5.923 -2.134,-8.434c-1.422,-2.511 -3.377,-4.466 -5.866,-5.866c-2.489,-1.4 -5.289,-2.1 -8.4,-2.1c-3.111,-0 -5.911,0.7 -8.4,2.1c-2.489,1.4 -4.445,3.355 -5.867,5.866c-1.422,2.511 -2.133,5.323 -2.133,8.434c-0,3.111 0.711,5.922 2.133,8.433c1.422,2.511 3.378,4.467 5.867,5.867c2.489,1.4 5.289,2.1 8.4,2.1Zm3.4,-52.667l9.8,-0l-11.6,9.133l-7.2,0l9,-9.133Z" style="fill-rule:nonzero;"/><path d="M574.067,699.387l-0,46.667l-7.134,-0l-25.733,-31.6l0,31.6l-8.6,-0l0,-46.667l7.133,0l25.734,31.6l-0,-31.6l8.6,0Z" style="fill-rule:nonzero;"/><g transform="matrix(5.45278,0,0,5.45278,-8.61456,-183.756)"><g transform="matrix(12.2262,0,0,12.2262,138.951,164.407)"><path d="M0.552,-0l-0.143,-0.205c-0.006,0.001 -0.015,0.001 -0.027,0.001l-0.158,0l0,0.204l-0.13,-0l0,-0.7l0.288,0c0.061,0 0.113,0.01 0.158,0.03c0.045,0.02 0.08,0.049 0.104,0.086c0.024,0.037 0.036,0.082 0.036,0.133c0,0.053 -0.013,0.098 -0.039,0.136c-0.025,0.038 -0.062,0.066 -0.11,0.085l0.161,0.23l-0.14,0Zm-0.003,-0.451c0,-0.045 -0.015,-0.079 -0.044,-0.103c-0.029,-0.024 -0.072,-0.036 -0.129,-0.036l-0.152,0l0,0.279l0.152,0c0.057,0 0.1,-0.012 0.129,-0.036c0.029,-0.025 0.044,-0.059 0.044,-0.104Z" style="fill-rule:nonzero;"/></g><g transform="matrix(12.2262,0,0,12.2262,147.889,164.407)"><path d="M0.548,-0.162l-0.35,0l-0.069,0.162l-0.134,-0l0.315,-0.7l0.128,0l0.316,0.7l-0.136,-0l-0.07,-0.162Zm-0.043,-0.102l-0.132,-0.306l-0.131,0.306l0.263,0Z" style="fill-rule:nonzero;"/></g><g transform="matrix(12.2262,0,0,12.2262,157.046,164.407)"><path d="M0.094,-0.7l0.13,0l0,0.7l-0.13,-0l0,-0.7Zm0.116,-0.194l0.147,0l-0.174,0.137l-0.108,0l0.135,-0.137Z" style="fill-rule:nonzero;"/></g><g transform="matrix(12.2262,0,0,12.2262,160.946,164.407)"><path d="M0.638,-0.11l0,0.11l-0.597,-0l-0,-0.087l0.412,-0.503l-0.405,0l-0,-0.11l0.577,0l0,0.087l-0.412,0.503l0.425,-0Z" style="fill-rule:nonzero;"/></g><g transform="matrix(12.2262,0,0,12.2262,118.093,176.634)"><path d="M0.236,-0.59l-0.232,0l-0,-0.11l0.594,0l0,0.11l-0.232,0l0,0.59l-0.13,-0l0,-0.59Z" style="fill-rule:nonzero;"/></g><g transform="matrix(12.2262,0,0,12.2262,125.454,176.634)"><path d="M0.619,-0.109l0,0.109l-0.525,-0l0,-0.7l0.511,0l0,0.109l-0.381,0l0,0.182l0.338,0l0,0.107l-0.338,0l-0,0.193l0.395,0Z" style="fill-rule:nonzero;"/></g><g transform="matrix(12.2262,0,0,12.2262,133.645,176.634)"><path d="M0.737,-0l-0.001,-0.464l-0.23,0.384l-0.058,0l-0.23,-0.378l0,0.458l-0.124,-0l0,-0.7l0.107,0l0.278,0.464l0.273,-0.464l0.107,0l0.001,0.7l-0.123,-0Z" style="fill-rule:nonzero;"/></g><g transform="matrix(12.2262,0,0,12.2262,145.321,176.634)"><path d="M0.382,-0.7c0.061,0 0.113,0.01 0.158,0.03c0.045,0.02 0.08,0.049 0.104,0.086c0.024,0.037 0.036,0.082 0.036,0.133c0,0.051 -0.012,0.095 -0.036,0.133c-0.024,0.037 -0.058,0.066 -0.104,0.086c-0.045,0.02 -0.097,0.03 -0.158,0.03l-0.158,0l0,0.202l-0.13,0l0,-0.7l0.288,0Zm-0.006,0.388c0.057,0 0.1,-0.012 0.129,-0.036c0.029,-0.024 0.044,-0.058 0.044,-0.103c0,-0.045 -0.015,-0.079 -0.044,-0.103c-0.029,-0.024 -0.072,-0.036 -0.129,-0.036l-0.152,0l0,0.278l0.152,0Z" style="fill-rule:nonzero;"/></g><g transform="matrix(12.2262,0,0,12.2262,154.197,176.634)"><path d="M0.421,0.01c-0.071,-0 -0.136,-0.016 -0.193,-0.047c-0.057,-0.031 -0.102,-0.074 -0.135,-0.129c-0.033,-0.054 -0.049,-0.116 -0.049,-0.184c0,-0.068 0.016,-0.13 0.049,-0.185c0.033,-0.055 0.078,-0.098 0.135,-0.129c0.057,-0.031 0.122,-0.046 0.193,-0.046c0.071,0 0.136,0.015 0.193,0.046c0.057,0.031 0.102,0.074 0.135,0.129c0.033,0.055 0.049,0.116 0.049,0.185c0,0.069 -0.016,0.13 -0.049,0.185c-0.033,0.055 -0.078,0.097 -0.135,0.128c-0.057,0.031 -0.122,0.047 -0.193,0.047Zm0,-0.114c0.047,-0 0.089,-0.011 0.126,-0.032c0.037,-0.021 0.067,-0.05 0.088,-0.088c0.021,-0.037 0.032,-0.079 0.032,-0.126c0,-0.047 -0.011,-0.089 -0.032,-0.127c-0.021,-0.037 -0.051,-0.067 -0.088,-0.088c-0.037,-0.021 -0.079,-0.031 -0.126,-0.031c-0.047,0 -0.089,0.01 -0.126,0.031c-0.037,0.021 -0.067,0.051 -0.088,0.088c-0.021,0.038 -0.032,0.08 -0.032,0.127c0,0.047 0.011,0.089 0.032,0.126c0.021,0.038 0.051,0.067 0.088,0.088c0.037,0.021 0.079,0.032 0.126,0.032Z" style="fill-rule:nonzero;"/></g><g transform="matrix(12.2262,0,0,12.2262,164.492,176.634)"><path d="M0.552,-0l-0.143,-0.205c-0.006,0.001 -0.015,0.001 -0.027,0.001l-0.158,0l0,0.204l-0.13,-0l0,-0.7l0.288,0c0.061,0 0.113,0.01 0.158,0.03c0.045,0.02 0.08,0.049 0.104,0.086c0.024,0.037 0.036,0.082 0.036,0.133c0,0.053 -0.013,0.098 -0.039,0.136c-0.025,0.038 -0.062,0.066 -0.11,0.085l0.161,0.23l-0.14,0Zm-0.003,-0.451c0,-0.045 -0.015,-0.079 -0.044,-0.103c-0.029,-0.024 -0.072,-0.036 -0.129,-0.036l-0.152,0l0,0.279l0.152,0c0.057,0 0.1,-0.012 0.129,-0.036c0.029,-0.025 0.044,-0.059 0.044,-0.104Z" style="fill-rule:nonzero;"/></g><g transform="matrix(12.2262,0,0,12.2262,173.429,176.634)"><path d="M0.548,-0.162l-0.35,0l-0.069,0.162l-0.134,-0l0.315,-0.7l0.128,0l0.316,0.7l-0.136,-0l-0.07,-0.162Zm-0.043,-0.102l-0.132,-0.306l-0.131,0.306l0.263,0Z" style="fill-rule:nonzero;"/></g><g transform="matrix(12.2262,0,0,12.2262,182.586,176.634)"><path d="M0.094,-0.7l0.13,0l0,0.59l0.366,0l0,0.11l-0.496,0l0,-0.7Z" style="fill-rule:nonzero;"/></g></g><g transform="matrix(5.45278,0,0,5.45278,443.641,-189.889)"><g transform="matrix(12.2262,0,0,12.2262,130.185,164.407)"><path d="M0.737,-0l-0.001,-0.464l-0.23,0.384l-0.058,0l-0.23,-0.378l0,0.458l-0.124,-0l0,-0.7l0.107,0l0.278,0.464l0.273,-0.464l0.107,0l0.001,0.7l-0.123,-0Z" style="fill-rule:nonzero;"/></g><g transform="matrix(12.2262,0,0,12.2262,141.861,164.407)"><path d="M0.548,-0.162l-0.35,0l-0.069,0.162l-0.134,-0l0.315,-0.7l0.128,0l0.316,0.7l-0.136,-0l-0.07,-0.162Zm-0.043,-0.102l-0.132,-0.306l-0.131,0.306l0.263,0Z" style="fill-rule:nonzero;"/></g><g transform="matrix(12.2262,0,0,12.2262,151.018,164.407)"><path d="M0.552,-0l-0.143,-0.205c-0.006,0.001 -0.015,0.001 -0.027,0.001l-0.158,0l0,0.204l-0.13,-0l0,-0.7l0.288,0c0.061,0 0.113,0.01 0.158,0.03c0.045,0.02 0.08,0.049 0.104,0.086c0.024,0.037 0.036,0.082 0.036,0.133c0,0.053 -0.013,0.098 -0.039,0.136c-0.025,0.038 -0.062,0.066 -0.11,0.085l0.161,0.23l-0.14,0Zm-0.003,-0.451c0,-0.045 -0.015,-0.079 -0.044,-0.103c-0.029,-0.024 -0.072,-0.036 -0.129,-0.036l-0.152,0l0,0.279l0.152,0c0.057,0 0.1,-0.012 0.129,-0.036c0.029,-0.025 0.044,-0.059 0.044,-0.104Z" style="fill-rule:nonzero;"/></g><g transform="matrix(12.2262,0,0,12.2262,159.956,164.407)"><path d="M0.418,0.01c-0.071,-0 -0.135,-0.016 -0.191,-0.047c-0.057,-0.031 -0.102,-0.073 -0.134,-0.128c-0.033,-0.055 -0.049,-0.116 -0.049,-0.185c0,-0.069 0.016,-0.13 0.049,-0.185c0.033,-0.055 0.078,-0.098 0.135,-0.129c0.056,-0.031 0.12,-0.046 0.191,-0.046c0.057,0 0.11,0.01 0.157,0.03c0.047,0.02 0.087,0.049 0.12,0.087l-0.084,0.079c-0.051,-0.055 -0.113,-0.082 -0.187,-0.082c-0.048,0 -0.091,0.01 -0.129,0.031c-0.038,0.021 -0.068,0.051 -0.089,0.088c-0.021,0.037 -0.032,0.08 -0.032,0.127c0,0.047 0.011,0.09 0.032,0.127c0.021,0.037 0.051,0.066 0.089,0.087c0.038,0.021 0.081,0.032 0.129,0.032c0.074,-0 0.136,-0.028 0.187,-0.083l0.084,0.08c-0.033,0.038 -0.073,0.067 -0.12,0.087c-0.048,0.02 -0.101,0.03 -0.158,0.03Z" style="fill-rule:nonzero;"/></g><g transform="matrix(12.2262,0,0,12.2262,168.661,164.407)"><path d="M0.548,-0.162l-0.35,0l-0.069,0.162l-0.134,-0l0.315,-0.7l0.128,0l0.316,0.7l-0.136,-0l-0.07,-0.162Zm-0.043,-0.102l-0.132,-0.306l-0.131,0.306l0.263,0Z" style="fill-rule:nonzero;"/></g><g transform="matrix(12.2262,0,0,12.2262,118.093,176.634)"><path d="M0.236,-0.59l-0.232,0l-0,-0.11l0.594,0l0,0.11l-0.232,0l0,0.59l-0.13,-0l0,-0.59Z" style="fill-rule:nonzero;"/></g><g transform="matrix(12.2262,0,0,12.2262,125.454,176.634)"><path d="M0.619,-0.109l0,0.109l-0.525,-0l0,-0.7l0.511,0l0,0.109l-0.381,0l0,0.182l0.338,0l0,0.107l-0.338,0l-0,0.193l0.395,0Z" style="fill-rule:nonzero;"/></g><g transform="matrix(12.2262,0,0,12.2262,133.645,176.634)"><path d="M0.737,-0l-0.001,-0.464l-0.23,0.384l-0.058,0l-0.23,-0.378l0,0.458l-0.124,-0l0,-0.7l0.107,0l0.278,0.464l0.273,-0.464l0.107,0l0.001,0.7l-0.123,-0Z" style="fill-rule:nonzero;"/></g><g transform="matrix(12.2262,0,0,12.2262,145.321,176.634)"><path d="M0.382,-0.7c0.061,0 0.113,0.01 0.158,0.03c0.045,0.02 0.08,0.049 0.104,0.086c0.024,0.037 0.036,0.082 0.036,0.133c0,0.051 -0.012,0.095 -0.036,0.133c-0.024,0.037 -0.058,0.066 -0.104,0.086c-0.045,0.02 -0.097,0.03 -0.158,0.03l-0.158,0l0,0.202l-0.13,0l0,-0.7l0.288,0Zm-0.006,0.388c0.057,0 0.1,-0.012 0.129,-0.036c0.029,-0.024 0.044,-0.058 0.044,-0.103c0,-0.045 -0.015,-0.079 -0.044,-0.103c-0.029,-0.024 -0.072,-0.036 -0.129,-0.036l-0.152,0l0,0.278l0.152,0Z" style="fill-rule:nonzero;"/></g><g transform="matrix(12.2262,0,0,12.2262,154.197,176.634)"><path d="M0.421,0.01c-0.071,-0 -0.136,-0.016 -0.193,-0.047c-0.057,-0.031 -0.102,-0.074 -0.135,-0.129c-0.033,-0.054 -0.049,-0.116 -0.049,-0.184c0,-0.068 0.016,-0.13 0.049,-0.185c0.033,-0.055 0.078,-0.098 0.135,-0.129c0.057,-0.031 0.122,-0.046 0.193,-0.046c0.071,0 0.136,0.015 0.193,0.046c0.057,0.031 0.102,0.074 0.135,0.129c0.033,0.055 0.049,0.116 0.049,0.185c0,0.069 -0.016,0.13 -0.049,0.185c-0.033,0.055 -0.078,0.097 -0.135,0.128c-0.057,0.031 -0.122,0.047 -0.193,0.047Zm0,-0.114c0.047,-0 0.089,-0.011 0.126,-0.032c0.037,-0.021 0.067,-0.05 0.088,-0.088c0.021,-0.037 0.032,-0.079 0.032,-0.126c0,-0.047 -0.011,-0.089 -0.032,-0.127c-0.021,-0.037 -0.051,-0.067 -0.088,-0.088c-0.037,-0.021 -0.079,-0.031 -0.126,-0.031c-0.047,0 -0.089,0.01 -0.126,0.031c-0.037,0.021 -0.067,0.051 -0.088,0.088c-0.021,0.038 -0.032,0.08 -0.032,0.127c0,0.047 0.011,0.089 0.032,0.126c0.021,0.038 0.051,0.067 0.088,0.088c0.037,0.021 0.079,0.032 0.126,0.032Z" style="fill-rule:nonzero;"/></g><g transform="matrix(12.2262,0,0,12.2262,164.492,176.634)"><path d="M0.552,-0l-0.143,-0.205c-0.006,0.001 -0.015,0.001 -0.027,0.001l-0.158,0l0,0.204l-0.13,-0l0,-0.7l0.288,0c0.061,0 0.113,0.01 0.158,0.03c0.045,0.02 0.08,0.049 0.104,0.086c0.024,0.037 0.036,0.082 0.036,0.133c0,0.053 -0.013,0.098 -0.039,0.136c-0.025,0.038 -0.062,0.066 -0.11,0.085l0.161,0.23l-0.14,0Zm-0.003,-0.451c0,-0.045 -0.015,-0.079 -0.044,-0.103c-0.029,-0.024 -0.072,-0.036 -0.129,-0.036l-0.152,0l0,0.279l0.152,0c0.057,0 0.1,-0.012 0.129,-0.036c0.029,-0.025 0.044,-0.059 0.044,-0.104Z" style="fill-rule:nonzero;"/></g><g transform="matrix(12.2262,0,0,12.2262,173.429,176.634)"><path d="M0.548,-0.162l-0.35,0l-0.069,0.162l-0.134,-0l0.315,-0.7l0.128,0l0.316,0.7l-0.136,-0l-0.07,-0.162Zm-0.043,-0.102l-0.132,-0.306l-0.131,0.306l0.263,0Z" style="fill-rule:nonzero;"/></g><g transform="matrix(12.2262,0,0,12.2262,182.586,176.634)"><path d="M0.094,-0.7l0.13,0l0,0.59l0.366,0l0,0.11l-0.496,0l0,-0.7Z" style="fill-rule:nonzero;"/></g></g><g transform="matrix(5.45278,0,0,5.45278,882.648,-189.889)"><g transform="matrix(12.2262,0,0,12.2262,131.94,164.407)"><path d="M0.734,-0.7l-0.305,0.7l-0.128,-0l-0.306,-0.7l0.141,0l0.233,0.54l0.235,-0.54l0.13,0Z" style="fill-rule:nonzero;"/></g><g transform="matrix(12.2262,0,0,12.2262,140.583,164.407)"><path d="M0.421,0.01c-0.071,-0 -0.136,-0.016 -0.193,-0.047c-0.057,-0.031 -0.102,-0.074 -0.135,-0.129c-0.033,-0.054 -0.049,-0.116 -0.049,-0.184c0,-0.068 0.016,-0.13 0.049,-0.185c0.033,-0.055 0.078,-0.098 0.135,-0.129c0.057,-0.031 0.122,-0.046 0.193,-0.046c0.071,0 0.136,0.015 0.193,0.046c0.057,0.031 0.102,0.074 0.135,0.129c0.033,0.055 0.049,0.116 0.049,0.185c0,0.069 -0.016,0.13 -0.049,0.185c-0.033,0.055 -0.078,0.097 -0.135,0.128c-0.057,0.031 -0.122,0.047 -0.193,0.047Zm0,-0.114c0.047,-0 0.089,-0.011 0.126,-0.032c0.037,-0.021 0.067,-0.05 0.088,-0.088c0.021,-0.037 0.032,-0.079 0.032,-0.126c0,-0.047 -0.011,-0.089 -0.032,-0.127c-0.021,-0.037 -0.051,-0.067 -0.088,-0.088c-0.037,-0.021 -0.079,-0.031 -0.126,-0.031c-0.047,0 -0.089,0.01 -0.126,0.031c-0.037,0.021 -0.067,0.051 -0.088,0.088c-0.021,0.038 -0.032,0.08 -0.032,0.127c0,0.047 0.011,0.089 0.032,0.126c0.021,0.038 0.051,0.067 0.088,0.088c0.037,0.021 0.079,0.032 0.126,0.032Z" style="fill-rule:nonzero;"/></g><g transform="matrix(12.2262,0,0,12.2262,150.878,164.407)"><path d="M0.418,0.01c-0.071,-0 -0.135,-0.016 -0.191,-0.047c-0.057,-0.031 -0.102,-0.073 -0.134,-0.128c-0.033,-0.055 -0.049,-0.116 -0.049,-0.185c0,-0.069 0.016,-0.13 0.049,-0.185c0.033,-0.055 0.078,-0.098 0.135,-0.129c0.056,-0.031 0.12,-0.046 0.191,-0.046c0.057,0 0.11,0.01 0.157,0.03c0.047,0.02 0.087,0.049 0.12,0.087l-0.084,0.079c-0.051,-0.055 -0.113,-0.082 -0.187,-0.082c-0.048,0 -0.091,0.01 -0.129,0.031c-0.038,0.021 -0.068,0.051 -0.089,0.088c-0.021,0.037 -0.032,0.08 -0.032,0.127c0,0.047 0.011,0.09 0.032,0.127c0.021,0.037 0.051,0.066 0.089,0.087c0.038,0.021 0.081,0.032 0.129,0.032c0.074,-0 0.136,-0.028 0.187,-0.083l0.084,0.08c-0.033,0.038 -0.073,0.067 -0.12,0.087c-0.048,0.02 -0.101,0.03 -0.158,0.03Z" style="fill-rule:nonzero;"/></g><g transform="matrix(12.2262,0,0,12.2262,159.583,164.407)"><path d="M0.548,-0.162l-0.35,0l-0.069,0.162l-0.134,-0l0.315,-0.7l0.128,0l0.316,0.7l-0.136,-0l-0.07,-0.162Zm-0.043,-0.102l-0.132,-0.306l-0.131,0.306l0.263,0Z" style="fill-rule:nonzero;"/></g><g transform="matrix(12.2262,0,0,12.2262,168.74,164.407)"><path d="M0.094,-0.7l0.13,0l0,0.59l0.366,0l0,0.11l-0.496,0l0,-0.7Z" style="fill-rule:nonzero;"/></g><g transform="matrix(12.2262,0,0,12.2262,121.462,176.634)"><path d="M0.236,-0.59l-0.232,0l-0,-0.11l0.594,0l0,0.11l-0.232,0l0,0.59l-0.13,-0l0,-0.59Z" style="fill-rule:nonzero;"/></g><g transform="matrix(12.2262,0,0,12.2262,128.822,176.634)"><path d="M0.619,-0.109l0,0.109l-0.525,-0l0,-0.7l0.511,0l0,0.109l-0.381,0l0,0.182l0.338,0l0,0.107l-0.338,0l-0,0.193l0.395,0Z" style="fill-rule:nonzero;"/></g><g transform="matrix(12.2262,0,0,12.2262,137.013,176.634)"><path d="M0.737,-0l-0.001,-0.464l-0.23,0.384l-0.058,0l-0.23,-0.378l0,0.458l-0.124,-0l0,-0.7l0.107,0l0.278,0.464l0.273,-0.464l0.107,0l0.001,0.7l-0.123,-0Z" style="fill-rule:nonzero;"/></g><g transform="matrix(12.2262,0,0,12.2262,148.689,176.634)"><path d="M0.548,-0.162l-0.35,0l-0.069,0.162l-0.134,-0l0.315,-0.7l0.128,0l0.316,0.7l-0.136,-0l-0.07,-0.162Zm-0.043,-0.102l-0.132,-0.306l-0.131,0.306l0.263,0Zm-0.08,-0.63l0.147,0l-0.174,0.137l-0.108,0l0.135,-0.137Z" style="fill-rule:nonzero;"/></g><g transform="matrix(12.2262,0,0,12.2262,157.419,176.634)"><path d="M0.236,-0.59l-0.232,0l-0,-0.11l0.594,0l0,0.11l-0.232,0l0,0.59l-0.13,-0l0,-0.59Z" style="fill-rule:nonzero;"/></g><g transform="matrix(12.2262,0,0,12.2262,164.779,176.634)"><rect x="0.094" y="-0.7" width="0.13" height="0.7" style="fill-rule:nonzero;"/></g><g transform="matrix(12.2262,0,0,12.2262,168.679,176.634)"><path d="M0.418,0.01c-0.071,-0 -0.135,-0.016 -0.191,-0.047c-0.057,-0.031 -0.102,-0.073 -0.134,-0.128c-0.033,-0.055 -0.049,-0.116 -0.049,-0.185c0,-0.069 0.016,-0.13 0.049,-0.185c0.033,-0.055 0.078,-0.098 0.135,-0.129c0.056,-0.031 0.12,-0.046 0.191,-0.046c0.057,0 0.11,0.01 0.157,0.03c0.047,0.02 0.087,0.049 0.12,0.087l-0.084,0.079c-0.051,-0.055 -0.113,-0.082 -0.187,-0.082c-0.048,0 -0.091,0.01 -0.129,0.031c-0.038,0.021 -0.068,0.051 -0.089,0.088c-0.021,0.037 -0.032,0.08 -0.032,0.127c0,0.047 0.011,0.09 0.032,0.127c0.021,0.037 0.051,0.066 0.089,0.087c0.038,0.021 0.081,0.032 0.129,0.032c0.074,-0 0.136,-0.028 0.187,-0.083l0.084,0.08c-0.033,0.038 -0.073,0.067 -0.12,0.087c-0.048,0.02 -0.101,0.03 -0.158,0.03Z" style="fill-rule:nonzero;"/></g><g transform="matrix(12.2262,0,0,12.2262,177.384,176.634)"><path d="M0.548,-0.162l-0.35,0l-0.069,0.162l-0.134,-0l0.315,-0.7l0.128,0l0.316,0.7l-0.136,-0l-0.07,-0.162Zm-0.043,-0.102l-0.132,-0.306l-0.131,0.306l0.263,0Z" style="fill-rule:nonzero;"/></g></g><g transform="matrix(5.45278,0,0,5.45278,1349.07,-183.756)"><g transform="matrix(12.2262,0,0,12.2262,126.254,164.407)"><path d="M0.224,-0.591l0,0.213l0.338,0l0,0.11l-0.338,0l-0,0.268l-0.13,-0l-0,-0.7l0.511,0l0,0.109l-0.381,0Z" style="fill-rule:nonzero;"/></g><g transform="matrix(12.2262,0,0,12.2262,134.042,164.407)"><path d="M0.094,-0.7l0.13,0l0,0.59l0.366,0l0,0.11l-0.496,0l0,-0.7Z" style="fill-rule:nonzero;"/></g><g transform="matrix(12.2262,0,0,12.2262,141.366,164.407)"><path d="M0.619,-0.109l0,0.109l-0.525,-0l0,-0.7l0.511,0l0,0.109l-0.381,0l0,0.182l0.338,0l0,0.107l-0.338,0l-0,0.193l0.395,0Z" style="fill-rule:nonzero;"/></g><g transform="matrix(12.2262,0,0,12.2262,149.46,164.407)"><path d="M0.535,-0l-0.19,-0.266l-0.188,0.266l-0.148,-0l0.26,-0.357l-0.246,-0.343l0.147,0l0.179,0.249l0.177,-0.249l0.141,0l-0.245,0.338l0.263,0.362l-0.15,-0Z" style="fill-rule:nonzero;"/></g><g transform="matrix(12.2262,0,0,12.2262,157.651,164.407)"><rect x="0.094" y="-0.7" width="0.13" height="0.7" style="fill-rule:nonzero;"/></g><g transform="matrix(12.2262,0,0,12.2262,161.551,164.407)"><path d="M0.421,0.01c-0.071,-0 -0.136,-0.016 -0.193,-0.047c-0.057,-0.031 -0.102,-0.074 -0.135,-0.129c-0.033,-0.054 -0.049,-0.116 -0.049,-0.184c0,-0.068 0.016,-0.13 0.049,-0.185c0.033,-0.055 0.078,-0.098 0.135,-0.129c0.057,-0.031 0.122,-0.046 0.193,-0.046c0.071,0 0.136,0.015 0.193,0.046c0.057,0.031 0.102,0.074 0.135,0.129c0.033,0.055 0.049,0.116 0.049,0.185c0,0.069 -0.016,0.13 -0.049,0.185c-0.033,0.055 -0.078,0.097 -0.135,0.128c-0.057,0.031 -0.122,0.047 -0.193,0.047Zm0,-0.114c0.047,-0 0.089,-0.011 0.126,-0.032c0.037,-0.021 0.067,-0.05 0.088,-0.088c0.021,-0.037 0.032,-0.079 0.032,-0.126c0,-0.047 -0.011,-0.089 -0.032,-0.127c-0.021,-0.037 -0.051,-0.067 -0.088,-0.088c-0.037,-0.021 -0.079,-0.031 -0.126,-0.031c-0.047,0 -0.089,0.01 -0.126,0.031c-0.037,0.021 -0.067,0.051 -0.088,0.088c-0.021,0.038 -0.032,0.08 -0.032,0.127c0,0.047 0.011,0.089 0.032,0.126c0.021,0.038 0.051,0.067 0.088,0.088c0.037,0.021 0.079,0.032 0.126,0.032Zm0.051,-0.79l0.147,0l-0.174,0.137l-0.108,0l0.135,-0.137Z" style="fill-rule:nonzero;"/></g><g transform="matrix(12.2262,0,0,12.2262,171.846,164.407)"><path d="M0.716,-0.7l0,0.7l-0.107,-0l-0.386,-0.474l0,0.474l-0.129,-0l0,-0.7l0.107,0l0.386,0.474l0,-0.474l0.129,0Z" style="fill-rule:nonzero;"/></g><g transform="matrix(12.2262,0,0,12.2262,111.809,176.634)"><path d="M0.572,-0.358l0.123,0l-0,0.279c-0.036,0.029 -0.078,0.051 -0.126,0.066c-0.048,0.015 -0.097,0.023 -0.148,0.023c-0.071,-0 -0.136,-0.016 -0.193,-0.047c-0.057,-0.031 -0.102,-0.073 -0.135,-0.128c-0.033,-0.055 -0.049,-0.116 -0.049,-0.185c-0,-0.069 0.016,-0.13 0.049,-0.185c0.033,-0.055 0.078,-0.098 0.135,-0.129c0.058,-0.031 0.123,-0.046 0.195,-0.046c0.059,0 0.112,0.01 0.16,0.029c0.048,0.019 0.088,0.048 0.121,0.085l-0.082,0.08c-0.053,-0.053 -0.118,-0.08 -0.193,-0.08c-0.049,0 -0.093,0.01 -0.132,0.031c-0.038,0.021 -0.068,0.05 -0.09,0.087c-0.021,0.037 -0.032,0.08 -0.032,0.128c-0,0.047 0.011,0.089 0.032,0.126c0.022,0.037 0.052,0.067 0.09,0.088c0.039,0.021 0.082,0.032 0.131,0.032c0.055,-0 0.103,-0.012 0.144,-0.036l-0,-0.218Z" style="fill-rule:nonzero;"/></g><g transform="matrix(12.2262,0,0,12.2262,121.248,176.634)"><path d="M0.552,-0l-0.143,-0.205c-0.006,0.001 -0.015,0.001 -0.027,0.001l-0.158,0l0,0.204l-0.13,-0l0,-0.7l0.288,0c0.061,0 0.113,0.01 0.158,0.03c0.045,0.02 0.08,0.049 0.104,0.086c0.024,0.037 0.036,0.082 0.036,0.133c0,0.053 -0.013,0.098 -0.039,0.136c-0.025,0.038 -0.062,0.066 -0.11,0.085l0.161,0.23l-0.14,0Zm-0.003,-0.451c0,-0.045 -0.015,-0.079 -0.044,-0.103c-0.029,-0.024 -0.072,-0.036 -0.129,-0.036l-0.152,0l0,0.279l0.152,0c0.057,0 0.1,-0.012 0.129,-0.036c0.029,-0.025 0.044,-0.059 0.044,-0.104Z" style="fill-rule:nonzero;"/></g><g transform="matrix(12.2262,0,0,12.2262,130.185,176.634)"><path d="M0.548,-0.162l-0.35,0l-0.069,0.162l-0.134,-0l0.315,-0.7l0.128,0l0.316,0.7l-0.136,-0l-0.07,-0.162Zm-0.043,-0.102l-0.132,-0.306l-0.131,0.306l0.263,0Z" style="fill-rule:nonzero;"/></g><g transform="matrix(12.2262,0,0,12.2262,139.342,176.634)"><path d="M0.737,-0l-0.001,-0.464l-0.23,0.384l-0.058,0l-0.23,-0.378l0,0.458l-0.124,-0l0,-0.7l0.107,0l0.278,0.464l0.273,-0.464l0.107,0l0.001,0.7l-0.123,-0Z" style="fill-rule:nonzero;"/></g><g transform="matrix(12.2262,0,0,12.2262,151.018,176.634)"><path d="M0.548,-0.162l-0.35,0l-0.069,0.162l-0.134,-0l0.315,-0.7l0.128,0l0.316,0.7l-0.136,-0l-0.07,-0.162Zm-0.043,-0.102l-0.132,-0.306l-0.131,0.306l0.263,0Z" style="fill-rule:nonzero;"/></g><g transform="matrix(12.2262,0,0,12.2262,159.748,176.634)"><path d="M0.236,-0.59l-0.232,0l-0,-0.11l0.594,0l0,0.11l-0.232,0l0,0.59l-0.13,-0l0,-0.59Z" style="fill-rule:nonzero;"/></g><g transform="matrix(12.2262,0,0,12.2262,167.108,176.634)"><rect x="0.094" y="-0.7" width="0.13" height="0.7" style="fill-rule:nonzero;"/></g><g transform="matrix(12.2262,0,0,12.2262,171.008,176.634)"><path d="M0.418,0.01c-0.071,-0 -0.135,-0.016 -0.191,-0.047c-0.057,-0.031 -0.102,-0.073 -0.134,-0.128c-0.033,-0.055 -0.049,-0.116 -0.049,-0.185c0,-0.069 0.016,-0.13 0.049,-0.185c0.033,-0.055 0.078,-0.098 0.135,-0.129c0.056,-0.031 0.12,-0.046 0.191,-0.046c0.057,0 0.11,0.01 0.157,0.03c0.047,0.02 0.087,0.049 0.12,0.087l-0.084,0.079c-0.051,-0.055 -0.113,-0.082 -0.187,-0.082c-0.048,0 -0.091,0.01 -0.129,0.031c-0.038,0.021 -0.068,0.051 -0.089,0.088c-0.021,0.037 -0.032,0.08 -0.032,0.127c0,0.047 0.011,0.09 0.032,0.127c0.021,0.037 0.051,0.066 0.089,0.087c0.038,0.021 0.081,0.032 0.129,0.032c0.074,-0 0.136,-0.028 0.187,-0.083l0.084,0.08c-0.033,0.038 -0.073,0.067 -0.12,0.087c-0.048,0.02 -0.101,0.03 -0.158,0.03Z" style="fill-rule:nonzero;"/></g><g transform="matrix(12.2262,0,0,12.2262,179.713,176.634)"><path d="M0.548,-0.162l-0.35,0l-0.069,0.162l-0.134,-0l0.315,-0.7l0.128,0l0.316,0.7l-0.136,-0l-0.07,-0.162Zm-0.043,-0.102l-0.132,-0.306l-0.131,0.306l0.263,0Z" style="fill-rule:nonzero;"/></g><g transform="matrix(12.2262,0,0,12.2262,188.871,176.634)"><path d="M0.094,-0.7l0.13,0l0,0.59l0.366,0l0,0.11l-0.496,0l0,-0.7Z" style="fill-rule:nonzero;"/></g></g><path d="M1617.42,196.721c0.028,-4.96 0.272,-10.737 0.732,-17.331c0.46,-6.593 1.043,-13.308 1.746,-20.144c0.704,-6.835 1.528,-13.58 2.473,-20.234c0.945,-6.655 1.976,-12.583 3.094,-17.785c1.118,-5.203 2.291,-9.407 3.519,-12.613c1.227,-3.206 2.386,-4.809 3.475,-4.809c1.572,-0 3.899,0.514 6.978,1.543c3.079,1.028 6.097,2.238 9.053,3.629c2.957,1.391 5.55,2.873 7.779,4.446c2.229,1.573 3.341,2.904 3.335,3.993c-0.037,6.654 -1.047,14.185 -3.03,22.594c-1.983,8.408 -4.45,16.847 -7.401,25.316c-2.951,8.469 -6.082,16.544 -9.391,24.227c-3.31,7.683 -6.249,14.064 -8.819,19.146c-0.125,0.847 -0.221,1.663 -0.286,2.45c-0.064,0.786 -0.099,1.603 -0.104,2.45c-0.024,4.234 0.558,8.287 1.747,12.159c1.188,3.871 2.983,7.319 5.386,10.344c2.403,3.025 5.384,5.444 8.942,7.259c3.559,1.815 7.637,2.722 12.235,2.722c6.17,0 11.652,-1.391 16.447,-4.174c4.794,-2.782 8.596,-6.473 11.404,-11.07l1.63,0.726c0.592,2.178 1.065,4.204 1.417,6.079c0.353,1.876 0.524,3.66 0.515,5.354c-0.023,4.114 -0.772,8.106 -2.245,11.978c-1.474,3.871 -3.64,7.319 -6.501,10.344c-2.86,3.024 -6.352,5.444 -10.475,7.259c-4.124,1.815 -8.847,2.722 -14.171,2.722c-10.283,-0 -18.58,-3.72 -24.89,-11.161c-6.31,-7.44 -10.569,-19.206 -12.778,-35.297c-2.69,5.081 -5.684,10.405 -8.982,15.97c-3.298,5.565 -6.986,10.707 -11.066,15.425c-4.079,4.719 -8.547,8.59 -13.403,11.615c-4.857,3.025 -10.189,4.537 -15.996,4.537c-5.686,-0 -10.73,-1.24 -15.132,-3.72c-4.402,-2.481 -8.226,-5.656 -11.471,-9.528c-3.245,-3.871 -5.942,-8.257 -8.092,-13.157c-2.151,-4.9 -3.818,-9.709 -5.001,-14.428l-1.09,0.182c-0.632,4.839 -1.143,9.618 -1.532,14.337c-0.389,4.718 -0.598,9.618 -0.627,14.699c-0.092,16.454 1.967,32.213 6.178,47.275c4.21,15.063 11.174,29.914 20.892,44.553c-6.449,6.533 -13.121,9.8 -20.017,9.8c-5.687,-0 -10.333,-2.087 -13.939,-6.261c-3.606,-4.174 -6.42,-9.377 -8.442,-15.607c-2.022,-6.231 -3.405,-13.006 -4.151,-20.326c-0.745,-7.319 -1.1,-14.185 -1.064,-20.598c0.056,-10.041 0.598,-20.416 1.626,-31.123c1.028,-10.707 2.266,-21.082 3.714,-31.123c1.447,-10.042 3.042,-19.358 4.784,-27.948c1.742,-8.59 3.355,-15.788 4.839,-21.596c-0.102,-3.266 -0.144,-6.563 -0.126,-9.89c0.019,-3.327 0.038,-6.745 0.058,-10.254c0.124,-22.261 1.217,-39.138 3.278,-50.632c2.06,-11.493 4.724,-17.24 7.991,-17.24c1.935,-0 4.443,0.484 7.523,1.452c3.08,0.968 6.067,2.178 8.963,3.629c2.895,1.452 5.367,2.934 7.415,4.447c2.049,1.512 3.07,2.812 3.064,3.901c-0.029,5.082 -0.696,10.798 -2.002,17.15c-1.306,6.352 -2.977,13.036 -5.012,20.053c-2.036,7.017 -4.254,14.186 -6.654,21.505c-2.4,7.32 -4.769,14.488 -7.107,21.505c-0.031,5.445 0.21,10.98 0.723,16.605c0.513,5.626 1.755,10.768 3.725,15.426c1.97,4.658 4.882,8.469 8.737,11.433c3.855,2.964 9.11,4.446 15.764,4.446c5.807,0 11.108,-1.3 15.901,-3.902c4.793,-2.601 9.199,-6.109 13.216,-10.525c4.017,-4.416 7.736,-9.558 11.157,-15.426c3.42,-5.868 6.601,-12.128 9.542,-18.783Z" style="fill:#b7950b;fill-rule:nonzero;"/><path d="M1825.58,227.21c0.478,0.967 0.863,2.48 1.154,4.536c0.291,2.057 0.432,3.811 0.424,5.263c-0.039,6.896 -2.008,12.855 -5.907,17.876c-3.9,5.021 -8.853,9.164 -14.86,12.431c-6.007,3.267 -12.614,5.656 -19.822,7.168c-7.207,1.513 -14.137,2.269 -20.791,2.269c-7.501,-0 -14.605,-0.817 -21.31,-2.45c-6.706,-1.633 -12.59,-4.174 -17.652,-7.622c-5.062,-3.448 -9.06,-7.834 -11.994,-13.157c-2.934,-5.324 -4.381,-11.675 -4.339,-19.055c0.025,-4.477 0.744,-8.802 2.159,-12.976c1.415,-4.174 3.282,-8.076 5.601,-11.705c2.319,-3.63 5.029,-6.957 8.132,-9.982c3.102,-3.024 6.353,-5.746 9.754,-8.166c-3.498,-1.815 -6.631,-4.023 -9.399,-6.624c-2.768,-2.601 -5.142,-5.444 -7.121,-8.529c-1.979,-3.085 -3.473,-6.292 -4.483,-9.619c-1.01,-3.327 -1.505,-6.624 -1.487,-9.89c0.036,-6.412 1.218,-12.22 3.546,-17.422c2.328,-5.202 5.439,-9.83 9.333,-13.883c3.894,-4.053 8.421,-7.592 13.579,-10.616c5.159,-3.025 10.617,-5.505 16.375,-7.441c5.758,-1.936 11.603,-3.357 17.536,-4.265c5.934,-0.907 11.623,-1.361 17.067,-1.361c9.8,0 17.384,1.271 22.754,3.811c5.37,2.541 8.038,6.654 8.007,12.341c-0.013,2.177 -0.328,4.506 -0.947,6.987c-0.619,2.48 -1.418,4.748 -2.397,6.805c-9.308,-1.452 -17.833,-2.178 -25.576,-2.178c-17.785,0 -31.623,2.753 -41.514,8.257c-9.891,5.505 -14.863,12.976 -14.916,22.413c-0.023,4.113 0.741,7.985 2.294,11.614c1.552,3.63 4.435,7.381 8.648,11.252c5.823,-2.904 11.523,-5.323 17.099,-7.259c5.576,-1.936 10.817,-3.448 15.723,-4.537c4.906,-1.089 9.418,-1.875 13.534,-2.359c4.116,-0.484 7.626,-0.726 10.529,-0.726c1.815,-0 3.141,0.907 3.978,2.722c0.836,1.815 1.248,3.993 1.233,6.533c-0.01,1.815 -0.262,3.66 -0.756,5.535c-0.495,1.876 -1.11,3.66 -1.845,5.354c-0.736,1.694 -1.56,3.145 -2.475,4.355c-0.914,1.21 -1.856,2.057 -2.827,2.541c-3.639,1.694 -7.668,2.934 -12.089,3.72c-4.42,0.787 -8.869,1.18 -13.345,1.18c-4.597,-0 -9.163,-0.303 -13.696,-0.907c-4.534,-0.605 -8.673,-1.452 -12.417,-2.541c-4.372,2.792 -8.021,6.283 -10.948,10.472c-2.927,4.189 -4.404,8.773 -4.432,13.752c-0.025,4.494 0.89,8.379 2.747,11.657c1.857,3.278 4.413,5.949 7.668,8.014c3.255,2.064 7.058,3.612 11.407,4.644c4.35,1.032 9.065,1.549 14.147,1.549c10.888,-0 21.031,-1.862 30.429,-5.587c9.397,-3.724 17.136,-8.516 23.218,-14.376l1.27,0.182Z" style="fill:#b7950b;fill-rule:nonzero;"/><path d="M1953.85,104.712c1.335,-0.726 3.001,-1.27 5,-1.633c1.998,-0.363 3.662,-0.544 4.993,-0.544c1.331,-0 2.268,0.151 2.811,0.453c0.542,0.303 0.932,0.877 1.17,1.724c1.657,6.534 2.891,12.976 3.702,19.328c0.812,6.351 1.197,13.096 1.157,20.234c-0.076,13.672 -2.028,27.282 -5.854,40.833c-3.827,13.55 -9.402,26.042 -16.725,37.475c-7.323,11.433 -15.91,21.656 -25.76,30.67c-9.85,9.013 -21.267,16.786 -34.248,23.319c-1.213,0.484 -3.026,0.152 -5.439,-0.998c-2.413,-1.149 -4.524,-2.389 -6.331,-3.72c0.635,-5.444 1.053,-9.739 1.252,-12.885c0.199,-3.146 0.432,-6.957 0.699,-11.433c0.267,-4.476 0.471,-8.56 0.613,-12.25c0.142,-3.69 0.232,-8.983 0.271,-15.879c0.058,-10.405 -0.455,-21.445 -1.539,-33.12c-1.084,-11.675 -3.329,-21.172 -6.736,-28.492c-3.407,-7.319 -7.251,-12.37 -11.53,-15.153c-4.279,-2.783 -9.081,-4.174 -14.404,-4.174c-0.968,0 -1.845,0.03 -2.632,0.091c-0.787,0.06 -1.665,0.212 -2.634,0.454l-0.721,-0.908c0.065,-11.614 2.11,-20.325 6.135,-26.133c4.026,-5.807 9.728,-8.71 17.108,-8.71c5.686,-0 10.757,1.966 15.211,5.898c4.455,3.932 8.259,10.555 11.413,19.871c3.154,9.316 5.21,20.235 6.168,32.757c0.958,12.522 1.406,24.409 1.342,35.66c-0.022,3.993 -0.072,7.471 -0.149,10.435c-0.077,2.964 -0.186,6.291 -0.328,9.981c-0.142,3.69 -0.343,7.199 -0.603,10.526c-0.261,3.327 -0.584,6.987 -0.969,10.979l1.811,0.545c9.354,-6.775 17.26,-14.246 23.718,-22.413c6.458,-8.166 12.198,-17.694 17.219,-28.582c5.022,-10.889 8.777,-22.473 11.265,-34.753c2.489,-12.28 3.768,-24.772 3.84,-37.475c0.009,-1.694 -0.011,-3.509 -0.061,-5.444c-0.049,-1.936 -0.128,-4.114 -0.235,-6.534Z" style="fill:#b7950b;fill-rule:nonzero;"/><path d="M1423.44,151.171c2.469,-8.711 4.627,-16.091 6.476,-22.141c1.849,-6.049 3.479,-10.919 4.891,-14.609c1.412,-3.69 2.667,-6.382 3.766,-8.075c1.098,-1.694 2.131,-2.541 3.099,-2.541c1.694,-0 3.868,0.665 6.522,1.996c2.654,1.331 5.246,2.934 7.777,4.809c2.53,1.876 4.697,3.751 6.501,5.626c1.804,1.875 2.704,3.358 2.697,4.446c-0.017,3.025 -0.733,6.806 -2.15,11.343c-1.417,4.537 -3.29,9.497 -5.619,14.881c-2.328,5.384 -4.961,11.009 -7.898,16.877c-2.936,5.868 -5.902,11.585 -8.897,17.15c-2.996,5.565 -5.959,10.828 -8.891,15.788c-2.931,4.961 -5.495,9.195 -7.693,12.704c-0.245,0.605 -0.464,1.936 -0.657,3.992c-0.193,2.057 -0.297,4.295 -0.31,6.715c-0.025,4.355 0.589,8.166 1.841,11.433c1.252,3.267 2.961,5.958 5.127,8.076c2.166,2.117 4.728,3.72 7.686,4.809c2.958,1.089 6.131,1.633 9.518,1.633c4.84,0 9.897,-1.119 15.172,-3.357c5.276,-2.238 9.805,-6.201 13.587,-11.887l1.629,0.726c0.834,2.42 1.239,5.626 1.217,9.618c-0.027,4.719 -0.959,9.165 -2.797,13.339c-1.838,4.174 -4.339,7.803 -7.502,10.888c-3.163,3.086 -6.957,5.505 -11.383,7.26c-4.425,1.754 -9.24,2.631 -14.442,2.631c-4.718,-0 -9.069,-0.847 -13.052,-2.541c-3.983,-1.693 -7.476,-4.416 -10.48,-8.166c-3.004,-3.751 -5.336,-8.59 -6.996,-14.518c-1.661,-5.929 -2.468,-13.067 -2.421,-21.415l-0.543,-0.181c-10.008,15.607 -20.087,27.554 -30.236,35.842c-10.148,8.287 -19.76,12.431 -28.833,12.431c-4.719,-0 -8.796,-0.998 -12.233,-2.995c-3.437,-1.996 -6.387,-4.627 -8.849,-7.894c-2.461,-3.266 -4.497,-6.987 -6.107,-11.161c-1.61,-4.174 -2.856,-8.499 -3.738,-12.975c-0.883,-4.477 -1.493,-8.862 -1.832,-13.157c-0.339,-4.295 -0.499,-8.137 -0.48,-11.524c0.044,-7.864 0.635,-16.121 1.772,-24.772c1.137,-8.65 2.848,-17.119 5.133,-25.407c2.285,-8.287 5.172,-16.181 8.662,-23.682c3.49,-7.502 7.58,-14.095 12.27,-19.781c4.69,-5.687 9.978,-10.193 15.864,-13.521c5.887,-3.327 12.399,-4.99 19.537,-4.99c5.444,-0 10.337,1.361 14.677,4.083c4.34,2.722 8.282,6.261 11.827,10.617c3.545,4.355 6.693,9.285 9.445,14.79c2.752,5.505 5.2,11.1 7.346,16.787Zm-4.45,16.877c-1.908,-4.839 -3.94,-9.407 -6.093,-13.702c-2.154,-4.295 -4.552,-8.075 -7.196,-11.342c-2.643,-3.267 -5.532,-5.868 -8.667,-7.803c-3.135,-1.936 -6.638,-2.904 -10.509,-2.904c-5.082,-0 -9.898,1.301 -14.45,3.902c-4.551,2.601 -8.775,6.079 -12.671,10.435c-3.896,4.355 -7.433,9.406 -10.61,15.153c-3.178,5.747 -5.873,11.735 -8.086,17.966c-2.213,6.231 -3.911,12.492 -5.096,18.783c-1.185,6.291 -1.792,12.159 -1.823,17.603c-0.02,3.63 0.293,7.169 0.939,10.617c0.646,3.448 1.718,6.533 3.215,9.255c1.497,2.722 3.571,4.93 6.224,6.624c2.652,1.694 5.974,2.541 9.967,2.541c5.323,-0 10.623,-1.21 15.899,-3.63c5.277,-2.419 10.407,-5.747 15.391,-9.981c4.984,-4.234 9.852,-9.316 14.604,-15.244c4.751,-5.928 9.264,-12.341 13.537,-19.237c0.628,-4.234 1.38,-8.832 2.255,-13.792c0.874,-4.96 1.931,-10.042 3.17,-15.244Z" style="fill:#797d7f;fill-rule:nonzero;"/><path d="M1125.89,259.875c5.352,-5.081 10.553,-10.223 15.603,-15.425c5.05,-5.202 10.619,-11.373 16.709,-18.511c1.345,-2.541 2.694,-5.868 4.048,-9.981c1.354,-4.114 2.559,-8.62 3.615,-13.52c1.055,-4.9 1.931,-10.012 2.626,-15.335c0.696,-5.323 1.057,-10.526 1.086,-15.607c0.053,-9.558 -1.265,-17.21 -3.955,-22.957c-2.69,-5.747 -6.696,-8.62 -12.02,-8.62c-2.661,-0 -5.477,0.514 -8.447,1.543c-2.97,1.028 -6.034,2.691 -9.193,4.99l-0.907,0c-1.68,-2.42 -2.846,-4.839 -3.498,-7.259c-0.652,-2.42 -0.97,-5.021 -0.954,-7.803c0.02,-3.63 0.675,-7.108 1.964,-10.435c1.289,-3.327 3.12,-6.261 5.493,-8.802c2.374,-2.541 5.228,-4.597 8.564,-6.17c3.336,-1.573 7,-2.359 10.993,-2.359c5.444,-0 9.974,1.3 13.589,3.901c3.615,2.601 6.499,6.05 8.653,10.344c2.153,4.295 3.668,9.256 4.544,14.882c0.876,5.625 1.296,11.523 1.262,17.694c-0.029,5.202 -0.331,10.435 -0.905,15.697c-0.574,5.263 -1.328,10.314 -2.262,15.154c-0.935,4.839 -1.958,9.346 -3.071,13.52c-1.112,4.174 -2.281,7.773 -3.508,10.798l0.542,0.363c5.601,-6.292 11.627,-13.036 18.08,-20.235c6.452,-7.199 12.905,-14.367 19.357,-21.505c6.452,-7.138 12.722,-14.034 18.808,-20.688c6.087,-6.655 11.625,-12.643 16.615,-17.967c3.912,-7.259 7.635,-13.127 11.169,-17.603c3.534,-4.476 7.539,-6.715 12.015,-6.715c2.057,0 3.865,1.18 5.425,3.539c1.559,2.359 2.844,5.142 3.855,8.348c1.01,3.206 1.808,6.443 2.395,9.709c0.587,3.267 0.935,5.807 1.046,7.622c-2.919,2.783 -6.416,6.049 -10.49,9.8c-4.074,3.75 -8.239,7.682 -12.497,11.796c-4.257,4.113 -8.394,8.166 -12.409,12.159c-4.014,3.992 -7.483,7.622 -10.405,10.889c-2.94,6.533 -5.214,12.915 -6.822,19.145c-1.607,6.231 -2.427,12.19 -2.459,17.876c-0.028,4.96 0.582,9.497 1.829,13.611c1.247,4.113 3.224,7.712 5.928,10.798c2.705,3.085 6.17,5.474 10.395,7.168c4.225,1.694 9.241,2.541 15.049,2.541c6.412,-0 12.499,-1.361 18.261,-4.084c5.762,-2.722 10.048,-6.503 12.858,-11.342l1.629,0.726c0.832,2.662 1.238,5.807 1.217,9.437c-0.03,5.323 -1.145,10.132 -3.347,14.427c-2.202,4.295 -5.065,7.925 -8.591,10.889c-3.525,2.964 -7.56,5.232 -12.106,6.805c-4.546,1.573 -9.238,2.359 -14.078,2.359c-7.259,0 -13.603,-1.33 -19.032,-3.992c-5.43,-2.662 -9.946,-6.291 -13.55,-10.889c-3.604,-4.597 -6.266,-9.981 -7.985,-16.151c-1.72,-6.17 -2.56,-12.825 -2.52,-19.963c0.027,-4.839 0.418,-9.769 1.172,-14.79c0.754,-5.021 1.992,-10.072 3.714,-15.153l-0.541,-0.545c-10.471,11.736 -20.883,23.864 -31.237,36.386c-10.354,12.522 -19.617,24.712 -27.789,36.568c-1.708,2.541 -3.655,4.567 -5.841,6.08c-2.187,1.512 -4.611,2.268 -7.272,2.268c-1.573,-0 -3.145,-0.181 -4.716,-0.544c-1.57,-0.363 -3.23,-1.089 -4.978,-2.178c-1.748,-1.089 -3.646,-2.541 -5.692,-4.356c-2.047,-1.814 -4.332,-4.174 -6.857,-7.077l-0.174,-1.271Z" style="fill:#7a0669;fill-rule:nonzero;"/><path d="M950.04,238.098c0.356,1.331 0.59,2.692 0.703,4.083c0.114,1.392 0.166,2.753 0.159,4.084c-0.02,3.629 -0.585,7.228 -1.694,10.798c-1.109,3.569 -2.73,6.744 -4.862,9.527c-2.133,2.783 -4.777,5.021 -7.932,6.715c-3.155,1.694 -6.729,2.54 -10.722,2.54c-5.081,0 -9.369,-1.24 -12.864,-3.72c-3.494,-2.48 -6.319,-5.777 -8.474,-9.89c-2.035,-3.751 -4.093,-8.953 -6.173,-15.607c-2.08,-6.655 -4.332,-14.942 -6.757,-24.863c-2.425,-9.921 -5.082,-21.535 -7.971,-34.843c-2.89,-13.309 -6.102,-28.432 -9.636,-45.37c-10.531,22.503 -20.451,43.857 -29.759,64.062c-9.308,20.204 -18.366,39.017 -27.175,56.439c-1.468,2.904 -2.993,5.233 -4.576,6.987c-1.582,1.754 -3.344,3.146 -5.286,4.174c-1.942,1.028 -4.093,1.724 -6.454,2.087c-2.361,0.363 -4.994,0.544 -7.897,0.544c-3.146,0 -6.321,-0.211 -9.524,-0.635c-3.204,-0.423 -6.496,-1.3 -9.876,-2.631l-0.354,-1.633c8.052,-11.978 16.138,-24.651 24.259,-38.02c8.12,-13.369 16.181,-26.98 24.184,-40.832c8.002,-13.853 15.823,-27.736 23.462,-41.649c7.64,-13.914 15.004,-27.343 22.094,-40.288c-3.43,-14.035 -6.751,-25.921 -9.963,-35.661c-3.212,-9.739 -6.616,-17.633 -10.211,-23.682c-3.596,-6.05 -7.564,-10.405 -11.905,-13.067c-4.34,-2.661 -9.354,-3.992 -15.04,-3.992c-4.476,-0 -8.775,0.605 -12.895,1.815c-4.12,1.209 -8.186,3.448 -12.197,6.714c-3.856,-2.782 -6.711,-5.958 -8.566,-9.527c-1.856,-3.569 -2.774,-7.048 -2.755,-10.435c0.017,-3.025 0.729,-5.898 2.136,-8.62c1.406,-2.723 3.416,-5.082 6.028,-7.078c2.612,-1.996 5.888,-3.599 9.827,-4.809c3.938,-1.21 8.449,-1.815 13.53,-1.815c11.493,0 21.034,3.055 28.622,9.165c7.588,6.109 14.161,15.153 19.72,27.13c5.558,11.978 10.557,26.799 14.995,44.462c4.437,17.664 9.314,37.99 14.63,60.977c3.188,13.913 5.933,26.042 8.234,36.386c2.302,10.344 4.43,19.237 6.384,26.677c1.955,7.441 3.826,13.581 5.613,18.42c1.788,4.839 3.672,8.681 5.652,11.524c1.981,2.843 4.208,4.809 6.682,5.898c2.474,1.089 5.344,1.633 8.611,1.633c4.234,0 9.143,-1.512 14.725,-4.537l1.268,0.363Z" style="fill-rule:nonzero;"/><path d="M1070.74,105.62c1.095,-0.968 2.581,-1.724 4.459,-2.269c1.879,-0.544 3.665,-0.816 5.358,-0.816c0.968,-0 1.784,0.121 2.448,0.363c0.664,0.242 1.236,0.846 1.714,1.814c5.747,10.768 10.039,22.171 12.875,34.209c2.836,12.038 4.22,24.167 4.151,36.386c-0.073,13.066 -1.746,25.649 -5.02,37.747c-3.274,12.099 -8.083,22.806 -14.426,32.122c-6.344,9.316 -14.219,16.786 -23.627,22.412c-9.408,5.626 -20.222,8.439 -32.441,8.439c-6.412,-0 -12.545,-1.301 -18.398,-3.902c-5.854,-2.601 -10.974,-6.412 -15.362,-11.433c-4.388,-5.021 -7.892,-11.161 -10.513,-18.42c-2.621,-7.259 -3.905,-15.546 -3.853,-24.862c0.049,-8.832 0.455,-16.394 1.216,-22.685c0.761,-6.291 1.608,-11.796 2.542,-16.514c0.934,-4.719 1.774,-8.802 2.519,-12.25c0.745,-3.448 1.127,-6.745 1.144,-9.891c0.013,-2.298 -0.337,-4.506 -1.052,-6.623c-0.714,-2.118 -1.853,-3.963 -3.417,-5.536c-1.564,-1.572 -3.553,-2.812 -5.967,-3.72c-2.415,-0.907 -5.316,-1.361 -8.704,-1.361c-0.847,0 -1.724,0.03 -2.632,0.091c-0.907,0.06 -1.846,0.151 -2.814,0.272l-0.539,-0.907c0.158,-6.654 1.127,-12.22 2.906,-16.696c1.779,-4.477 3.947,-8.076 6.503,-10.798c2.556,-2.722 5.38,-4.658 8.471,-5.807c3.092,-1.15 6.15,-1.724 9.174,-1.724c2.662,-0 5.291,0.544 7.886,1.633c2.595,1.089 4.884,2.692 6.869,4.809c1.984,2.117 3.603,4.718 4.856,7.804c1.253,3.085 1.868,6.623 1.846,10.616c-0.029,5.202 -0.726,10.768 -2.09,16.696c-1.364,5.928 -2.851,12.25 -4.462,18.964c-1.61,6.715 -3.101,13.732 -4.473,21.052c-1.372,7.319 -2.08,14.911 -2.124,22.775c-0.028,4.96 0.49,9.709 1.554,14.246c1.063,4.537 2.795,8.529 5.195,11.977c2.401,3.449 5.531,6.201 9.391,8.258c3.86,2.056 8.572,3.085 14.138,3.085c6.533,-0 12.347,-1.24 17.442,-3.721c5.096,-2.48 9.531,-5.898 13.306,-10.253c3.775,-4.355 7.009,-9.437 9.703,-15.244c2.695,-5.807 4.846,-11.978 6.456,-18.511c1.609,-6.533 2.796,-13.278 3.561,-20.234c0.765,-6.957 1.167,-13.823 1.205,-20.598c0.051,-9.195 -0.534,-18.178 -1.755,-26.95c-1.221,-8.771 -2.961,-16.786 -5.219,-24.045Z" style="fill-rule:nonzero;"/><path d="M620.874,238.098c0.355,1.331 0.59,2.692 0.703,4.083c0.113,1.392 0.166,2.753 0.158,4.084c-0.02,3.629 -0.585,7.228 -1.693,10.798c-1.109,3.569 -2.73,6.744 -4.863,9.527c-2.133,2.783 -4.777,5.021 -7.932,6.715c-3.155,1.694 -6.729,2.54 -10.721,2.54c-5.082,0 -9.37,-1.24 -12.864,-3.72c-3.495,-2.48 -6.32,-5.777 -8.474,-9.89c-2.036,-3.751 -4.094,-8.953 -6.174,-15.607c-2.08,-6.655 -4.332,-14.942 -6.757,-24.863c-2.424,-9.921 -5.081,-21.535 -7.971,-34.843c-2.889,-13.309 -6.101,-28.432 -9.636,-45.37c-10.531,22.503 -20.45,43.857 -29.758,64.062c-9.308,20.204 -18.367,39.017 -27.175,56.439c-1.468,2.904 -2.994,5.233 -4.576,6.987c-1.583,1.754 -3.345,3.146 -5.287,4.174c-1.941,1.028 -4.093,1.724 -6.454,2.087c-2.361,0.363 -4.993,0.544 -7.897,0.544c-3.146,0 -6.32,-0.211 -9.524,-0.635c-3.204,-0.423 -6.496,-1.3 -9.876,-2.631l-0.354,-1.633c8.052,-11.978 16.139,-24.651 24.259,-38.02c8.121,-13.369 16.182,-26.98 24.184,-40.832c8.002,-13.853 15.823,-27.736 23.462,-41.649c7.64,-13.914 15.005,-27.343 22.094,-40.288c-3.43,-14.035 -6.751,-25.921 -9.963,-35.661c-3.212,-9.739 -6.615,-17.633 -10.211,-23.682c-3.596,-6.05 -7.564,-10.405 -11.904,-13.067c-4.341,-2.661 -9.354,-3.992 -15.041,-3.992c-4.476,-0 -8.774,0.605 -12.895,1.815c-4.12,1.209 -8.185,3.448 -12.196,6.714c-3.856,-2.782 -6.712,-5.958 -8.567,-9.527c-1.855,-3.569 -2.773,-7.048 -2.754,-10.435c0.016,-3.025 0.728,-5.898 2.135,-8.62c1.406,-2.723 3.416,-5.082 6.028,-7.078c2.613,-1.996 5.888,-3.599 9.827,-4.809c3.939,-1.21 8.449,-1.815 13.53,-1.815c11.494,0 21.034,3.055 28.622,9.165c7.588,6.109 14.161,15.153 19.72,27.13c5.559,11.978 10.557,26.799 14.995,44.462c4.438,17.664 9.315,37.99 14.63,60.977c3.189,13.913 5.934,26.042 8.235,36.386c2.301,10.344 4.429,19.237 6.383,26.677c1.955,7.441 3.826,13.581 5.614,18.42c1.787,4.839 3.671,8.681 5.652,11.524c1.98,2.843 4.207,4.809 6.681,5.898c2.474,1.089 5.345,1.633 8.611,1.633c4.235,0 9.143,-1.512 14.725,-4.537l1.269,0.363Z" style="fill:#9d68a6;fill-rule:nonzero;"/><path d="M759.765,227.21c0.478,0.967 0.863,2.48 1.154,4.536c0.291,2.057 0.432,3.811 0.424,5.263c-0.038,6.896 -2.008,12.855 -5.907,17.876c-3.9,5.021 -8.853,9.164 -14.86,12.431c-6.007,3.267 -12.614,5.656 -19.821,7.168c-7.208,1.513 -14.138,2.269 -20.792,2.269c-7.501,-0 -14.605,-0.817 -21.31,-2.45c-6.706,-1.633 -12.589,-4.174 -17.652,-7.622c-5.062,-3.448 -9.06,-7.834 -11.994,-13.157c-2.934,-5.324 -4.381,-11.675 -4.339,-19.055c0.025,-4.477 0.745,-8.802 2.159,-12.976c1.415,-4.174 3.282,-8.076 5.601,-11.705c2.319,-3.63 5.03,-6.957 8.132,-9.982c3.102,-3.024 6.353,-5.746 9.754,-8.166c-3.498,-1.815 -6.631,-4.023 -9.399,-6.624c-2.768,-2.601 -5.142,-5.444 -7.121,-8.529c-1.979,-3.085 -3.473,-6.292 -4.483,-9.619c-1.01,-3.327 -1.505,-6.624 -1.487,-9.89c0.036,-6.412 1.218,-12.22 3.546,-17.422c2.328,-5.202 5.439,-9.83 9.333,-13.883c3.894,-4.053 8.421,-7.592 13.579,-10.616c5.159,-3.025 10.617,-5.505 16.375,-7.441c5.758,-1.936 11.603,-3.357 17.537,-4.265c5.933,-0.907 11.622,-1.361 17.066,-1.361c9.8,0 17.384,1.271 22.754,3.811c5.37,2.541 8.039,6.654 8.007,12.341c-0.013,2.177 -0.328,4.506 -0.947,6.987c-0.619,2.48 -1.418,4.748 -2.397,6.805c-9.308,-1.452 -17.833,-2.178 -25.576,-2.178c-17.785,0 -31.623,2.753 -41.514,8.257c-9.891,5.505 -14.863,12.976 -14.916,22.413c-0.023,4.113 0.741,7.985 2.294,11.614c1.552,3.63 4.435,7.381 8.648,11.252c5.823,-2.904 11.523,-5.323 17.099,-7.259c5.576,-1.936 10.818,-3.448 15.724,-4.537c4.906,-1.089 9.417,-1.875 13.533,-2.359c4.116,-0.484 7.626,-0.726 10.53,-0.726c1.814,-0 3.14,0.907 3.977,2.722c0.837,1.815 1.248,3.993 1.234,6.533c-0.011,1.815 -0.263,3.66 -0.757,5.535c-0.495,1.876 -1.11,3.66 -1.845,5.354c-0.736,1.694 -1.56,3.145 -2.475,4.355c-0.914,1.21 -1.856,2.057 -2.827,2.541c-3.639,1.694 -7.668,2.934 -12.089,3.72c-4.42,0.787 -8.868,1.18 -13.345,1.18c-4.597,-0 -9.163,-0.303 -13.696,-0.907c-4.534,-0.605 -8.673,-1.452 -12.417,-2.541c-4.371,2.792 -8.021,6.283 -10.948,10.472c-2.927,4.189 -4.404,8.773 -4.432,13.752c-0.025,4.494 0.891,8.379 2.747,11.657c1.857,3.278 4.413,5.949 7.668,8.014c3.255,2.064 7.058,3.612 11.407,4.644c4.35,1.032 9.065,1.549 14.147,1.549c10.888,-0 21.031,-1.862 30.429,-5.587c9.397,-3.724 17.136,-8.516 23.219,-14.376l1.269,0.182Z" style="fill:#9d68a6;fill-rule:nonzero;"/><path d="M316.668,605.427l-29.635,36.319l-26.568,-38.619l56.203,2.3Z" style="fill:#898989;"/><path d="M602.174,325.079c-0.144,301.451 -292.525,21.645 -313.914,286.692" style="fill:none;stroke:#898989;stroke-width:12.5px;"/><path d="M859.681,604.704l-28.726,37.042l-27.516,-37.949l56.242,0.907Z" style="fill:#898989;"/><path d="M937.331,325.079c-0.253,257.706 -98.156,62.299 -105.892,286.671" style="fill:none;stroke:#898989;stroke-width:12.5px;"/><path d="M1324.94,603.883l-27.635,37.863l-28.61,-37.132l56.245,-0.731Z" style="fill:#898989;"/><path d="M1211.6,325.079c0.204,257.706 79.088,62.3 85.321,286.669" style="fill:none;stroke:#898989;stroke-width:12.5px;"/><path d="M1749.44,603.26l-26.76,38.486l-29.454,-36.466l56.214,-2.02Z" style="fill:#898989;"/><path d="M1396.64,325.079c0.789,307.602 304.554,20.35 324.971,286.686" style="fill:none;stroke:#898989;stroke-width:12.5px;"/><path d="M2216.14,602.851l-26.163,38.895l-30.013,-36.007l56.176,-2.888Z" style="fill:#898989;"/><path d="M1722.68,325.079c1.118,303.589 436.519,20.054 465.748,286.706" style="fill:none;stroke:#898989;stroke-width:12.5px;"/></svg>