<?xml version="1.0" encoding="UTF-8" standalone="no"?>
<!DOCTYPE svg PUBLIC "-//W3C//DTD SVG 1.1//EN" "http://www.w3.org/Graphics/SVG/1.1/DTD/svg11.dtd">
<svg width="100%" height="100%" viewBox="0 0 157 108" version="1.1" xmlns="http://www.w3.org/2000/svg" xmlns:xlink="http://www.w3.org/1999/xlink" xml:space="preserve" xmlns:serif="http://www.serif.com/" style="fill-rule:evenodd;clip-rule:evenodd;stroke-linejoin:round;stroke-miterlimit:2;">
    <g transform="matrix(1,0,0,1,-208.37,-20.6176)">
        <g id="griego">
            <g id="text1">
            </g>
            <g transform="matrix(1,0,0,1,299.843,85.6046)">
                <g id="text1-5">
                    <g transform="matrix(89.1997,0,0,89.1997,67.7491,0)">
                    </g>
                    <text x="6.642px" y="0px" style="font-family:'BookAntiqua', 'Book Antiqua', serif;font-size:89.2px;fill:rgb(0,112,165);">ω</text>
                </g>
            </g>
            <g transform="matrix(1,0,0,1,188.966,85.5139)">
                <g id="text1-9">
                    <g transform="matrix(89.1997,0,0,89.1997,115.92,0)">
                    </g>
                    <text x="20.188px" y="0px" style="font-family:'BookAntiqua', 'Book Antiqua', serif;font-size:89.2px;">λυ</text>
                </g>
            </g>
            <g id="text1-3" transform="matrix(0.729365,0,0,0.939194,175.401,5.98436)">
                <path d="M173.232,94.746C173.232,96.494 172.684,97.83 171.587,98.754C170.49,99.678 169.013,100.14 167.157,100.14L115.996,100.14C114.843,100.14 113.957,100.34 113.338,100.74C112.691,101.114 112.241,101.639 111.988,102.313C111.707,102.987 111.552,103.736 111.524,104.561L109.752,104.561C109.724,103.736 109.583,102.987 109.33,102.313C109.049,101.639 108.599,101.114 107.98,100.74C107.333,100.34 106.447,100.14 105.322,100.14L54.161,100.14C52.248,100.14 50.772,99.678 49.731,98.754C48.662,97.83 48.128,96.494 48.128,94.746L48.128,92.274L49.942,92.274L49.942,93.397C49.942,94.496 50.322,95.283 51.081,95.757C51.812,96.232 52.909,96.469 54.372,96.469L105.406,96.469C106.784,96.469 107.938,96.819 108.866,97.518C109.766,98.192 110.342,99.229 110.596,100.627L110.638,100.627C110.919,99.204 111.51,98.155 112.41,97.481C113.31,96.806 114.463,96.469 115.869,96.469L166.988,96.469C168.422,96.469 169.519,96.232 170.279,95.757C171.038,95.283 171.418,94.496 171.418,93.397L171.418,92.274L173.232,92.274L173.232,94.746Z" style="fill-rule:nonzero;"/>
            </g>
            <g id="text1-3-1" transform="matrix(0.408997,0,0,1,186.605,0)">
                <path d="M425.015,96.472C425.015,98.221 424.466,99.557 423.369,100.481C422.272,101.405 420.796,101.867 418.939,101.867L373.073,101.867C371.92,101.867 371.034,102.066 370.415,102.466C369.768,102.841 369.318,103.365 369.065,104.039C368.784,104.714 368.629,105.463 368.601,106.287L366.829,106.287C366.801,105.463 366.66,104.714 366.407,104.039C366.126,103.365 365.676,102.841 365.057,102.466C364.41,102.066 363.524,101.867 362.399,101.867L316.533,101.867C314.621,101.867 313.144,101.405 312.103,100.481C311.034,99.557 310.5,98.221 310.5,96.472L310.5,94L312.314,94L312.314,95.124C312.314,96.223 312.694,97.009 313.453,97.484C314.185,97.958 315.282,98.196 316.744,98.196L362.484,98.196C363.862,98.196 365.015,98.545 365.943,99.244C366.843,99.919 367.42,100.955 367.673,102.354L367.715,102.354C367.996,100.93 368.587,99.881 369.487,99.207C370.387,98.533 371.54,98.196 372.947,98.196L418.771,98.196C420.205,98.196 421.302,97.958 422.061,97.484C422.821,97.009 423.201,96.223 423.201,95.124L423.201,94L425.015,94L425.015,96.472Z" style="fill-rule:nonzero;"/>
            </g>
            <g id="text4">
                <g transform="matrix(1,0,0,1,206.573,127.609)">
                    <text x="36.81px" y="0px" style="font-family:'NotoSans-Bold', 'Noto Sans', sans-serif;font-weight:700;font-size:12px;">Raíz</text>
                </g>
                <g transform="matrix(1,0,0,1,287.776,127.609)">
                    <g transform="matrix(12,0,0,12,70.7213,0)">
                    </g>
                    <text x="27.585px" y="0px" style="font-family:'NotoSans-Bold', 'Noto Sans', sans-serif;font-weight:700;font-size:12px;">Fle<tspan x="44.805px " y="0px ">x</tspan>ión</text>
                </g>
            </g>
        </g>
    </g>
</svg>
