<?xml version="1.0" encoding="UTF-8" standalone="no"?>
<svg
   version="1.1"
   width="500"
   height="150"
   viewBox="-0.5 -0.5 500 150"
   content="&lt;mxGraphModel&gt;&lt;root&gt;&lt;mxCell id=&quot;0&quot;/&gt;&lt;mxCell id=&quot;1&quot; parent=&quot;0&quot;/&gt;&lt;/root&gt;&lt;/mxGraphModel&gt;"
   id="svg1"
   sodipodi:docname="Untitled Diagram.svg"
   inkscape:version="1.3 (0e150ed6c4, 2023-07-21)"
   xmlns:inkscape="http://www.inkscape.org/namespaces/inkscape"
   xmlns:sodipodi="http://sodipodi.sourceforge.net/DTD/sodipodi-0.dtd"
   xmlns="http://www.w3.org/2000/svg"
   xmlns:svg="http://www.w3.org/2000/svg">
  <defs
     id="defs1" />
  <sodipodi:namedview
     id="namedview1"
     pagecolor="#ffffff"
     bordercolor="#000000"
     borderopacity="0.25"
     inkscape:showpageshadow="2"
     inkscape:pageopacity="0.0"
     inkscape:pagecheckerboard="0"
     inkscape:deskcolor="#d1d1d1"
     inkscape:zoom="2.8284271"
     inkscape:cx="229.1026"
     inkscape:cy="101.29305"
     inkscape:window-width="1920"
     inkscape:window-height="1009"
     inkscape:window-x="-8"
     inkscape:window-y="-8"
     inkscape:window-maximized="1"
     inkscape:current-layer="svg1"
     showguides="true">
    <sodipodi:guide
       position="228.39549,48.02765"
       orientation="1,0"
       id="guide3"
       inkscape:locked="false" />
    <sodipodi:guide
       position="367.69552,40.60303"
       orientation="1,0"
       id="guide4"
       inkscape:locked="false" />
  </sodipodi:namedview>
  <text
     xml:space="preserve"
     style="font-size:89.1997px;fill:none;stroke:#83969a;stroke-width:0;stroke-dasharray:none"
     x="67.741653"
     y="85.013855"
     id="text1"><tspan
       sodipodi:role="line"
       id="tspan1"
       x="67.741653"
       y="85.013855"
       style="font-style:normal;font-variant:normal;font-weight:normal;font-stretch:normal;font-family:'Noto Serif';-inkscape-font-specification:'Noto Serif';fill:#bd0000;fill-opacity:1;stroke-width:0">invisible</tspan></text>
  <text
     xml:space="preserve"
     style="font-size:89.1997px;fill:none;stroke:#83969a;stroke-width:0;stroke-dasharray:none"
     x="302.70331"
     y="85.104584"
     id="text1-5"><tspan
       sodipodi:role="line"
       id="tspan1-4"
       x="302.70331"
       y="85.104584"
       style="font-style:normal;font-variant:normal;font-weight:normal;font-stretch:normal;font-family:'Noto Serif';-inkscape-font-specification:'Noto Serif';fill:#000000;fill-opacity:1;stroke-width:0"><tspan
         style="fill:#0070a5;fill-opacity:1"
         id="tspan3-0">ble</tspan></tspan></text>
  <text
     xml:space="preserve"
     style="font-size:89.1997px;fill:none;stroke:#83969a;stroke-width:0;stroke-dasharray:none"
     x="153.80048"
     y="85.054344"
     id="text1-9"><tspan
       sodipodi:role="line"
       id="tspan1-7"
       x="153.80048"
       y="85.054344"
       style="font-style:normal;font-variant:normal;font-weight:normal;font-stretch:normal;font-family:'Noto Serif';-inkscape-font-specification:'Noto Serif';fill:#000000;fill-opacity:1;stroke-width:0">visi<tspan
   style="fill:#0070a5;fill-opacity:1"
   id="tspan3-6" /></tspan></text>
  <path
     style="font-size:89.1997px;font-family:'Noto Serif';-inkscape-font-specification:'Noto Serif';stroke:#83969a;stroke-width:0"
     d="m 151.43723,94.24601 c 0,1.74814 -0.54846,3.08422 -1.64539,4.00823 -1.09693,0.92402 -2.57357,1.38603 -4.42991,1.38603 h -29.86611 c -1.15319,0 -2.03917,0.19979 -2.65795,0.59937 -0.64691,0.3746 -1.09694,0.89904 -1.35008,1.57332 -0.28126,0.67429 -0.43596,1.42349 -0.46408,2.24762 h -1.77197 c -0.0282,-0.82413 -0.16876,-1.57333 -0.4219,-2.24762 -0.28126,-0.67428 -0.73129,-1.19872 -1.35006,-1.57332 -0.64691,-0.39958 -1.5329,-0.59937 -2.65796,-0.59937 H 74.955723 c -1.912601,0 -3.389242,-0.46201 -4.429921,-1.38603 -1.068807,-0.92401 -1.60321,-2.26009 -1.60321,-4.00823 v -2.47238 h 1.814158 v 1.12381 c 0,1.09883 0.379708,1.8855 1.139122,2.35999 0.731288,0.47449 1.828221,0.71174 3.2908,0.71174 H 104.9062 c 1.37819,0 2.53138,0.34963 3.45956,1.04889 0.90004,0.67428 1.47664,1.71068 1.72978,3.1092 h 0.0422 c 0.28126,-1.42349 0.87192,-2.47238 1.77196,-3.14666 0.90005,-0.67429 2.05324,-1.01143 3.45956,-1.01143 h 29.82392 c 1.43444,0 2.53138,-0.23725 3.29079,-0.71174 0.75941,-0.47449 1.13913,-1.26116 1.13913,-2.35999 v -1.12381 h 1.81415 z"
     id="text1-3"
     aria-label="{"
     sodipodi:nodetypes="ssssccccccsscsccscsscccsssssccs" />
  <path
     style="font-size:89.1997px;font-family:'Noto Serif';-inkscape-font-specification:'Noto Serif';stroke:#83969a;stroke-width:0"
     d="m 424.51464,95.97238 c -10e-6,1.74814 -0.54846,3.08422 -1.64539,4.00823 -1.09693,0.92402 -2.57357,1.38603 -4.42991,1.38603 h -45.86611 c -1.15319,0 -2.03917,0.19979 -2.65795,0.59937 -0.64691,0.3746 -1.09694,0.89904 -1.35008,1.57332 -0.28126,0.67429 -0.43596,1.42349 -0.46408,2.24762 h -1.77197 c -0.0282,-0.82413 -0.16876,-1.57333 -0.4219,-2.24762 -0.28126,-0.67428 -0.73129,-1.19872 -1.35006,-1.57332 -0.64691,-0.39958 -1.5329,-0.59937 -2.65796,-0.59937 h -45.8661 c -1.9126,0 -3.38924,-0.46201 -4.42992,-1.38603 C 310.5344,99.0566 310,97.72052 310,95.97238 V 93.5 h 1.81416 v 1.12381 c 0,1.09883 0.37971,1.8855 1.13912,2.35999 0.73129,0.47449 1.82822,0.71174 3.2908,0.71174 h 45.73953 c 1.37819,0 2.53138,0.34963 3.45956,1.04889 0.90004,0.67428 1.47664,1.71068 1.72978,3.1092 h 0.0422 c 0.28126,-1.42349 0.87192,-2.47238 1.77196,-3.14666 0.90005,-0.67429 2.05324,-1.01143 3.45956,-1.01143 h 45.82392 c 1.43444,0 2.53138,-0.23725 3.29079,-0.71174 0.75941,-0.47449 1.13913,-1.26116 1.13913,-2.35999 V 93.5 h 1.81415 z"
     id="text1-3-1"
     aria-label="{"
     sodipodi:nodetypes="ssssccccccsscsccscsscccsssssccs" />
  <path
     style="font-size:89.1997px;font-family:'Noto Serif';-inkscape-font-specification:'Noto Serif';stroke:#83969a;stroke-width:0"
     d="m 293.51464,95.22238 c -10e-6,1.74814 -0.54846,3.08422 -1.64539,4.00823 -1.09693,0.92402 -2.57357,1.38603 -4.42991,1.38603 h -53.86611 c -1.15319,0 -2.03917,0.19979 -2.65795,0.59937 -0.64691,0.3746 -1.09694,0.89904 -1.35008,1.57332 -0.28126,0.67429 -0.43596,1.42349 -0.46408,2.24762 h -1.77197 c -0.0282,-0.82413 -0.16876,-1.57333 -0.4219,-2.24762 -0.28126,-0.67428 -0.73129,-1.19872 -1.35006,-1.57332 -0.64691,-0.39958 -1.5329,-0.59937 -2.65796,-0.59937 h -53.8661 c -1.9126,0 -3.38924,-0.46201 -4.42992,-1.38603 C 163.5344,98.3066 163,96.97052 163,95.22238 V 92.75 h 1.81416 v 1.12381 c 0,1.09883 0.37971,1.8855 1.13912,2.35999 0.73129,0.47449 1.82822,0.71174 3.2908,0.71174 h 53.73953 c 1.37819,0 2.53138,0.34963 3.45956,1.04889 0.90004,0.67428 1.47664,1.71068 1.72978,3.1092 h 0.0422 c 0.28126,-1.42349 0.87192,-2.47238 1.77196,-3.14666 0.90005,-0.67429 2.05324,-1.01143 3.45956,-1.01143 h 53.82392 c 1.43444,0 2.53138,-0.23725 3.29079,-0.71174 0.75941,-0.47449 1.13913,-1.26116 1.13913,-2.35999 V 92.75 h 1.81415 z"
     id="text1-3-6"
     aria-label="{"
     sodipodi:nodetypes="ssssccccccsscsccscsscccsssssccs" />
  <text
     xml:space="preserve"
     style="font-style:normal;font-variant:normal;font-weight:normal;font-stretch:normal;font-size:15.5144px;font-family:'Noto Serif';-inkscape-font-specification:'Noto Serif';fill:#000000;fill-opacity:1;stroke:#83969a;stroke-width:0;stroke-dasharray:none"
     x="175.9352"
     y="126.16835"
     id="text4"><tspan
       sodipodi:role="line"
       id="tspan4"
       x="175.9352"
       y="126.16835"
       style="font-style:normal;font-variant:normal;font-weight:normal;font-stretch:normal;font-family:'Noto Sa';-inkscape-font-specification:'Noto Sa';stroke-width:0">Lexema o raíz</tspan></text>
</svg>
