<?xml version="1.0" encoding="UTF-8" standalone="no"?>
<!-- Created with Inkscape (http://www.inkscape.org/) -->

<svg
   width="1000"
   height="1000"
   viewBox="0 0 264.58333 264.58333"
   version="1.1"
   id="svg1"
   xml:space="preserve"
   inkscape:version="1.3 (0e150ed6c4, 2023-07-21)"
   sodipodi:docname="revelation icons.svg"
   xmlns:inkscape="http://www.inkscape.org/namespaces/inkscape"
   xmlns:sodipodi="http://sodipodi.sourceforge.net/DTD/sodipodi-0.dtd"
   xmlns="http://www.w3.org/2000/svg"
   xmlns:svg="http://www.w3.org/2000/svg"><sodipodi:namedview
     id="namedview1"
     pagecolor="#ffffff"
     bordercolor="#000000"
     borderopacity="0.25"
     inkscape:showpageshadow="2"
     inkscape:pageopacity="0.0"
     inkscape:pagecheckerboard="0"
     inkscape:deskcolor="#d1d1d1"
     inkscape:document-units="px"
     showguides="true"
     inkscape:zoom="0.51213161"
     inkscape:cx="700.01537"
     inkscape:cy="660.96291"
     inkscape:window-width="1920"
     inkscape:window-height="1009"
     inkscape:window-x="-8"
     inkscape:window-y="-8"
     inkscape:window-maximized="1"
     inkscape:current-layer="layer1"><sodipodi:guide
       position="27.535516,238.05243"
       orientation="0,-1"
       id="guide2"
       inkscape:locked="false" /><sodipodi:guide
       position="26.48524,239.742"
       orientation="1,0"
       id="guide3"
       inkscape:locked="false" /><sodipodi:guide
       position="238.10255,27.384885"
       orientation="1,0"
       id="guide4"
       inkscape:locked="false" /><sodipodi:guide
       position="237.97339,26.287043"
       orientation="0,-1"
       id="guide5"
       inkscape:locked="false" /></sodipodi:namedview><defs
     id="defs1" /><g
     inkscape:label="Capa 1"
     inkscape:groupmode="layer"
     id="layer1"><path
       style="fill:#000000"
       d="m 156.70858,206.89513 c -0.11183,-0.69619 -0.34956,-9.72373 -0.25606,-9.7235 0.0147,3e-5 0.39114,0.12712 0.83661,0.28241 l 0.80995,0.28235 -0.14386,4.67859 c -0.0791,2.57322 -0.26181,4.82741 -0.40598,5.00931 -0.43201,0.54506 -0.69466,0.37973 -0.84066,-0.52916 z m 6.76461,-6.06417 c -0.50815,-1.50667 -2.22398,-2.87695 -5.19525,-4.14899 -6.69984,-2.8683 -8.37343,-3.97965 -9.42267,-6.25716 -0.65265,-1.41664 -0.64433,-3.88804 0.018,-5.34699 0.67744,-1.49225 2.48143,-3.24948 4.23095,-4.1213 0.78688,-0.39212 1.45777,-0.68435 1.49088,-0.64941 0.0331,0.0349 0.10777,0.82095 0.1659,1.74667 l 0.1057,1.68314 -0.98527,0.62198 c -1.79821,1.13516 -2.86688,3.04173 -2.50751,4.47356 0.2791,1.11204 1.61301,2.36023 3.37192,3.15524 4.81554,2.17658 5.66816,2.66747 7.11893,4.09868 1.79412,1.76993 2.58281,3.52116 2.18837,4.8591 l -0.25248,0.85642 z m -6.42826,-9.0218 c -0.65417,-0.25946 -0.71441,-0.42088 -0.85349,-2.28696 -0.0823,-1.10429 -0.21549,-5.22249 -0.29598,-9.15155 -0.0805,-3.92906 -0.21284,-7.94742 -0.29411,-8.92969 -0.17208,-2.0798 -0.13162,-2.1027 1.97925,-1.12005 l 1.41931,0.66072 -0.15415,1.38722 c -0.0848,0.76297 -0.23341,5.19721 -0.33027,9.85388 -0.0969,4.65667 -0.21059,8.64526 -0.25273,8.86354 -0.0421,0.21828 -0.0857,0.54571 -0.0969,0.72761 -0.0233,0.37996 -0.15243,0.37941 -1.12097,-0.005 z m 2.68822,-11.81478 v -2.11185 l 1.12448,-0.77567 c 1.83604,-1.26649 2.18281,-1.78702 2.18281,-3.27653 0,-1.22392 -0.0851,-1.4009 -1.11143,-2.3117 -0.67822,-0.60187 -2.5861,-1.64688 -4.89479,-2.68104 -6.24134,-2.79578 -9.38385,-5.2225 -10.87167,-8.39536 -0.70058,-1.49404 -0.77089,-1.87453 -0.66004,-3.57187 0.21748,-3.32996 1.96755,-5.73079 5.63443,-7.72961 1.19218,-0.64986 2.30435,-1.18156 2.47149,-1.18156 0.20916,0 0.30389,0.85076 0.30389,2.72912 v 2.72912 l -0.89975,0.42906 c -1.02659,0.48955 -2.12359,1.83526 -2.38033,2.92001 -0.28727,1.2137 0.31306,2.79652 1.57055,4.14087 0.88847,0.94985 2.11985,1.73095 5.20691,3.3029 5.00795,2.55007 5.57101,2.8827 7.22041,4.26547 1.82599,1.53082 2.64367,3.20755 2.64367,5.42115 0,1.55604 -0.0935,1.85935 -0.93828,3.04271 -0.92822,1.30031 -3.47032,3.39606 -5.53531,4.56343 l -1.06704,0.60321 z m -2.84427,-17.29091 -1.65364,-0.83438 -0.002,-3.05234 c -0.001,-1.6788 -0.0632,-4.36204 -0.1374,-5.96277 -0.22293,-4.80873 -0.66895,-20.84291 -0.5822,-20.92965 0.13853,-0.13854 3.7191,0.41944 4.6603,0.72625 l 0.89551,0.29191 -0.16229,2.81199 c -0.0893,1.5466 -0.30649,8.43771 -0.48274,15.31356 -0.21662,8.45062 -0.41135,12.49642 -0.60094,12.48568 -0.15426,-0.009 -1.02461,-0.39135 -1.93412,-0.85025 z m 3.79674,-15.32051 0.18714,-2.95749 1.65264,-1.54596 c 1.89727,-1.77481 2.55785,-3.1261 2.53479,-5.18519 -0.0383,-3.42144 -2.52008,-5.62773 -7.3753,-6.55669 -3.0262,-0.57901 -3.9971,-0.49414 -6.19251,0.54133 -3.47718,1.64001 -6.07012,2.05229 -9.01027,1.43266 -1.75942,-0.3708 -2.06354,-0.61779 -2.06354,-1.67592 0,-1.67686 3.07478,-5.21878 5.43794,-6.26412 1.13121,-0.50039 1.46491,-0.51285 7.06893,-0.26404 6.37993,0.28327 9.30488,0.7478 11.43792,1.81653 4.79869,2.4043 6.9961,6.14432 6.68125,11.37155 -0.24419,4.05409 -1.47005,6.26057 -4.96146,8.93032 -1.57657,1.20555 -4.98406,3.3145 -5.35532,3.3145 -0.1269,0 -0.14576,-1.32113 -0.0422,-2.95748 z m -14.61623,-19.32097 c 0.36056,-0.57257 0.17187,-0.76043 -0.56915,-0.56665 -0.69417,0.18153 -0.83703,1.23791 -0.14909,1.10252 0.23906,-0.0471 0.56227,-0.28819 0.71824,-0.53587 z m 11.28251,-4.0909 c -0.50932,-0.05 -1.41535,-0.1548 -2.0134,-0.23288 l -1.08737,-0.14198 -0.13636,-3.57371 -0.13637,-3.57371 -1.06811,-0.91427 c -1.49093,-1.27618 -2.27219,-3.00013 -2.27219,-5.01389 0,-5.98094 7.30266,-8.92448 11.38054,-4.58725 1.38728,1.47551 1.80169,2.53121 1.80071,4.58725 -10e-4,2.21872 -0.57921,3.5005 -2.26653,5.02489 l -1.12907,1.02005 -0.11404,3.79055 -0.11404,3.79055 -0.95886,-0.0423 c -0.52738,-0.0233 -1.37558,-0.0833 -1.88491,-0.13326 z m 3.95349,-11.3624 c 0.4647,-0.68057 0.64619,-1.3042 0.64619,-2.22033 0,-0.9155 -0.18182,-1.54089 -0.64619,-2.22267 -0.73039,-1.07233 -1.29942,-1.32496 -0.6082,-0.27001 0.65399,0.9981 0.58909,3.39768 -0.12981,4.80002 -0.68811,1.34227 -0.19849,1.28454 0.73801,-0.087 z"
       id="path5" /></g></svg>
