<?xml version="1.0" encoding="UTF-8" standalone="no"?>
<svg
   width="100%"
   height="100%"
   viewBox="0 0 18667 7113"
   version="1.1"
   xml:space="preserve"
   style="fill-rule:evenodd;clip-rule:evenodd;stroke-linejoin:round;stroke-miterlimit:2;"
   id="svg1"
   sodipodi:docname="dark_logo_GSO.svg"
   inkscape:version="1.4.4 (dcaf3e7d9e, 2026-05-05)"
   xmlns:inkscape="http://www.inkscape.org/namespaces/inkscape"
   xmlns:sodipodi="http://sodipodi.sourceforge.net/DTD/sodipodi-0.dtd"
   xmlns="http://www.w3.org/2000/svg"
   xmlns:svg="http://www.w3.org/2000/svg"><defs
     id="defs1" /><sodipodi:namedview
     id="namedview1"
     pagecolor="#ffffff"
     bordercolor="#000000"
     borderopacity="0.25"
     inkscape:showpageshadow="2"
     inkscape:pageopacity="0.0"
     inkscape:pagecheckerboard="0"
     inkscape:deskcolor="#d1d1d1"
     inkscape:zoom="0.040728835"
     inkscape:cx="8421.552"
     inkscape:cy="3989.8023"
     inkscape:window-width="1920"
     inkscape:window-height="1128"
     inkscape:window-x="0"
     inkscape:window-y="0"
     inkscape:window-maximized="1"
     inkscape:current-layer="svg1" /><g
     id="logo"
     style="fill:#000000;fill-opacity:1"><path
       id="path992"
       d="M4358.338,388.729c839.891,0 1645.391,333.646 2239.26,927.552c593.906,593.875 927.552,1399.37 927.552,2239.255c0,839.891 -333.646,1645.385 -927.552,2239.276c-593.87,593.891 -1399.37,927.542 -2239.26,927.542c-839.891,0 -1645.38,-333.651 -2239.271,-927.542c-593.896,-593.891 -927.542,-1399.385 -927.542,-2239.276c0,-839.885 333.646,-1645.38 927.542,-2239.255c593.891,-593.906 1399.38,-927.552 2239.271,-927.552Zm837.453,663.229l0.005,0.052l0,1037.495l-1040.875,0l-169.682,394.531l1210.562,0l0,2953.839c-11.917,-25.375 -25.062,-51.995 -35.979,-72.208c-79.292,-146.818 -173.573,-271.875 -294.318,-390.38c-297.599,-291.385 -788.401,-474.688 -1248.469,-430.229c-120.49,12.24 -167.37,15.661 -237.484,17.229c-171.49,3.839 -302.625,-20.479 -415.26,-76.953c-16.172,-8.104 -24.37,-11.682 -27.453,-11.813c-1.031,-0.042 -1.5,0.302 -1.5,0.99c0,5.635 43.917,90.307 66.115,127.49c72.083,120.714 162.807,236.552 270,344.719l44.292,44.698l21.188,-1.51c44.49,-3.151 486.656,-4.62 558.927,-1.849c259.359,9.953 461.13,36.193 659.036,85.698c210.521,52.661 375.094,137.885 517.599,268.005c40.172,36.687 87.833,88.797 123.307,134.24l0,112.292c-2.792,-3.672 -5.573,-7.271 -8.25,-10.661c-122.146,-155.005 -284.885,-269.63 -475.99,-335.271c-134.453,-46.188 -330.198,-84.495 -526.109,-102.964c-158,-14.891 -249.318,-17.583 -534,-15.766c-239.146,1.521 -271.667,2.38 -409.969,10.901c-144.203,8.885 -182.755,10.094 -281.953,8.776c-102.464,-1.365 -129.682,-3.417 -197.719,-14.807c-119.943,-20.073 -225.073,-64.531 -297.109,-125.63c-7.62,-6.458 -12.302,-9.786 -13.807,-9.786c-0.484,0 -0.651,0.365 -0.453,1.099c2.057,7.219 224.214,536.026 225.932,537.802c0.859,0.885 24.932,-4.573 53.526,-12.115c558.969,-147.562 1157.219,-174.234 1723.74,-76.807c247.057,42.484 528.865,118.12 737.224,197.844c1.682,0.646 3.333,1.26 4.938,1.849l0,134.625c-2.656,-0.734 -5.177,-1.51 -7.438,-2.328c-384.365,-139.063 -741.188,-212.557 -1160.411,-239.047c-64.255,-4.057 -288.677,-5.568 -365.062,-2.448c-506.391,20.661 -1000.526,132.677 -1441.151,326.583l-0.078,-0.047l-5.161,2.302c-0.688,0.302 -1.383,0.599 -2.07,0.906l-5.461,2.448l257.005,213.5c188.344,-72.036 399.698,-133.219 606.182,-174.62c244.292,-48.969 489.073,-74.057 732.214,-75.438c16.208,-0.083 32.417,-0.057 48.609,0.057c494.651,3.615 981.911,105.401 1443.865,303.516c31.188,13.375 69.458,30.203 85.052,37.396l19.927,9.188l-0.016,2.38l1.917,0.875l2.578,-1.187l2.578,1.187l1.917,-0.875l0,-2.38l19.917,-9.188c15.589,-7.193 53.833,-24.021 85.01,-37.396c323.99,-139.021 660.443,-230.516 1003.177,-274.031c24.479,-22.974 48.646,-46.323 72.5,-70.146c80.885,-80.906 156.927,-165.781 227.969,-254.12c-14.167,0.458 -26.51,0.958 -35.365,1.521c-419.042,26.49 -775.677,99.984 -1159.854,239.042c-2.255,0.818 -4.781,1.583 -7.432,2.328l0,-134.635c1.599,-0.589 3.255,-1.203 4.932,-1.849c208.26,-79.724 489.922,-155.354 736.865,-197.844c188.198,-32.38 379.865,-50.958 572.469,-56.042c60.677,-85.234 116.927,-173.26 168.646,-263.698c-237.5,-1.01 -327.031,2.307 -473.073,16.073c-195.781,18.469 -391.448,56.781 -525.839,102.964c-191.016,65.641 -353.677,180.271 -475.76,335.271c-2.677,3.401 -5.448,6.995 -8.24,10.661l0,-112.292c35.458,-45.438 83.089,-97.547 123.24,-134.229c142.432,-130.12 306.932,-215.333 517.349,-267.995c197.792,-49.516 399.51,-75.755 658.729,-85.708c32.969,-1.266 143.177,-1.641 257.344,-1.385c70.156,-137.974 130.052,-280.927 179.219,-427.661c-40.156,-2.5 -85.729,-6.615 -157.917,-13.953c-459.792,-44.458 -950.375,138.844 -1247.833,430.229c-120.682,118.505 -214.922,243.557 -294.167,390.38c-10.917,20.214 -24.057,46.833 -35.964,72.208l0,-1138.958l-0.104,0l0,-1814.88l1035.62,0l169.687,-394.531l-1205.307,0l0,-856.484l-420.823,-181.042Zm10018.448,443.163l642.695,1468.727l-182.383,0l-183.359,-433.285l-551.992,0l-183.32,433.285l-182.422,0l640.781,-1468.727Zm0,371.523l-224.844,520.133l449.688,0l-224.844,-520.133Zm-1900.312,-349.324c81.68,0 160.82,12.395 237.383,37.152c76.562,24.77 152.148,63.203 226.758,115.313l0,219.055c-67.539,-73.34 -139.57,-127.531 -216.133,-162.609c-76.562,-35.047 -161.172,-52.586 -253.789,-52.586c-74.648,0 -147.5,15.125 -218.594,45.352c-71.094,30.25 -132.695,72.383 -184.805,126.418c-54.023,55.973 -94.57,118.539 -121.563,187.695c-27.031,69.156 -40.547,145.559 -40.547,229.184c0,65.621 8.047,126.102 24.141,181.43c16.055,55.332 40.195,106.137 72.383,152.465c56.563,80.414 126.211,142.336 208.906,185.758c82.656,43.426 171.914,65.137 267.773,65.137c90.078,0 173.711,-18.664 250.898,-55.973c77.227,-37.301 147.656,-92.953 211.328,-166.938l0,222.91c-70.117,50.832 -145.547,89.266 -226.289,115.316c-80.703,26.059 -164.219,39.078 -250.391,39.078c-74.648,0 -147.344,-11.09 -218.086,-33.285c-70.781,-22.195 -137.031,-54.527 -198.789,-96.988c-102.969,-71.41 -181.602,-159.227 -235.938,-263.438c-54.375,-104.227 -81.562,-218.719 -81.562,-343.535c0,-108.719 18.164,-207.637 54.531,-296.746c36.328,-89.09 91.797,-169.988 166.445,-242.691c72.031,-69.484 151.836,-121.426 239.336,-155.852c87.461,-34.406 183.008,-51.621 286.602,-51.621Zm-3768.203,1.93c135.742,0 253.477,24.602 353.203,73.82c99.727,49.211 182.383,123.363 248.008,222.43l-140.898,112.914c-50.82,-85.555 -114.219,-149.742 -190.078,-192.531c-75.938,-42.77 -164.062,-64.16 -264.414,-64.16c-164.062,0 -297.227,55.328 -399.531,165.969c-102.266,110.656 -153.438,255.422 -153.438,434.262c0,168.555 51.953,306.863 155.859,414.941c103.906,108.078 236.25,162.117 397.109,162.117c141.523,0 259.414,-42.941 353.672,-128.824c94.219,-85.887 146.484,-197.652 156.797,-335.336l-403.359,0l0,-150.539l582.852,0l0,47.281c0,222.602 -63.047,398.234 -189.141,526.891c-126.094,128.672 -298.164,193 -516.289,193c-66.25,0 -129.453,-7.102 -189.609,-21.238c-60.156,-14.156 -115.625,-34.738 -166.445,-61.754c-115.82,-63.695 -205.234,-151.645 -268.281,-263.922c-63.047,-112.258 -94.57,-239.801 -94.57,-382.617c0,-117.734 18.789,-224.039 56.445,-318.938c37.617,-94.895 94.414,-178.363 170.352,-250.426c63.672,-60.461 137.617,-106.145 221.914,-137.027c84.297,-30.883 177.578,-46.312 279.844,-46.312Zm2611.562,31.438l136.445,0l0,1412.207l-139.648,0l0,-434l-453.398,-0.406l-280.859,434.406l-175.664,0l913.125,-1412.207Zm-3.203,276.609l-360.664,557.789l360.664,0.324l0,-558.113Zm-1621.094,-276.211l331.953,0c94.57,0 163.906,5.309 207.969,15.926c44.062,10.613 82.812,28.793 116.289,54.516c41.797,32.816 74.297,76.73 97.461,131.73c23.164,55.008 34.727,115.969 34.727,182.871c0,115.801 -32.344,203.777 -96.992,263.914c-64.648,60.172 -159.375,90.227 -284.18,90.227l-29.922,0l416.68,520.305l-95.156,147.191l-510.664,-667.496l-24.102,0l0,673.57l-164.062,0l0,-1412.754Zm164.062,141.863l0,472.852l128.32,0c131.25,0 219.062,-16.891 263.477,-50.668c44.375,-33.773 66.562,-92.793 66.562,-177.074c0,-90.719 -22.852,-154.234 -68.516,-190.586c-45.703,-36.34 -132.852,-54.523 -261.523,-54.523l-128.32,0Zm3481.133,-141.863l167.93,0l0,1412.762l-167.93,0l0,-1412.762Zm-5668.242,1765.43l8965.195,0l-585,2109.063l-2.422,6.836l-8964.688,0l586.914,-2115.898Zm517.93,342.609c-108.086,0 -196.055,31.52 -263.945,94.566c-67.891,63.047 -101.797,144.742 -101.797,245.098c0,80.43 23.477,149.273 70.43,206.527c46.953,57.27 141.523,123.504 283.711,198.777c111.289,59.219 183.828,111.328 217.617,156.328c33.75,45.039 50.664,101.68 50.664,169.844c0,93.281 -25.078,166.328 -75.273,219.062c-50.195,52.734 -120,79.141 -209.414,79.141c-70.781,0 -131.406,-19.141 -181.914,-57.422c-50.508,-38.281 -86.016,-92.188 -106.602,-161.641l-110.039,58.867c37.305,91.367 88.945,160.039 154.883,206.016c65.977,45.977 145.234,68.984 237.891,68.984c127.383,0 228.047,-37.148 302.031,-111.445c73.984,-74.297 110.977,-174.805 110.977,-301.562c0,-93.906 -20.234,-170.313 -60.781,-229.18c-40.547,-58.867 -120.938,-121.406 -241.25,-187.695c-15.43,-8.359 -37.969,-20.27 -67.539,-35.703c-163.437,-85.555 -245.117,-177.883 -245.117,-276.961c0,-69.477 20.586,-124.637 61.758,-165.492c41.172,-40.848 96.484,-61.273 165.977,-61.273c51.445,0 96.016,10.602 133.672,31.836c37.617,21.23 66.719,52.117 87.305,92.645l99.414,-59.832c-32.812,-59.832 -75.43,-104.703 -127.852,-134.617c-52.461,-29.918 -114.063,-44.867 -184.805,-44.867Zm5502.305,-24.43l0,1172.445l-473.633,-1170.223l-495.703,1157.293l-272.891,-362.148c114.492,0 204.414,-31.484 269.727,-94.57c65.273,-63.035 97.93,-149.562 97.93,-259.574c0,-129.312 -38.125,-225.797 -114.336,-289.488c-76.25,-63.688 -190.938,-95.539 -344.023,-95.539l-259.609,0l0,1262.57l128.359,0l0,-523.398l77.188,0l496.016,673.594l156.328,0l-151.25,-200.742l109.219,-277.891l577.07,0l180.469,478.633l139.961,0l-0.078,-0.078l0,-1113.777l960.43,1111.629l39.18,0l0,-0.039l187.188,-478.594l577.07,0l180.469,478.633l139.922,0l-594.453,-1468.734l-490.195,1160.336l0,-1100.496l-119.688,0l0,1122.293l-1000.664,-1182.133Zm1601.875,265.391l241.25,614.711l-492.148,0l250.898,-614.711Zm-3066.055,-95.258l129.297,0c116.445,0 199.141,20.602 248.008,61.77c48.906,41.176 73.359,110.336 73.359,207.469c0,92.012 -23.633,157.145 -70.937,195.41c-47.305,38.289 -130.742,57.43 -250.43,57.43l-129.297,0l0,-522.078Zm981.836,97.469l241.25,614.727l-492.148,0l250.898,-614.727Zm-3803.945,-241.25c-103.633,0 -200.859,18.027 -291.602,54.043c-90.781,36.039 -171.562,89.102 -242.383,159.223c-72.109,71.41 -126.953,151.996 -164.648,241.73c-37.656,89.758 -56.484,185.121 -56.484,286.098c0,99.766 18.828,194.141 56.484,283.242c37.656,89.141 92.539,169.375 164.648,240.781c72.109,70.781 153.711,124.648 244.766,161.641c91.094,36.992 187.5,55.469 289.219,55.469c101.719,0 198.281,-18.477 289.688,-55.469c91.406,-36.992 173.477,-90.859 246.25,-161.641c71.406,-70.117 126.133,-150.078 164.141,-239.805c37.969,-89.766 56.953,-184.453 56.953,-284.219c0,-100.977 -18.828,-196.34 -56.484,-286.098c-37.656,-89.734 -92.539,-170.32 -164.609,-241.73c-70.82,-69.484 -151.797,-122.387 -242.891,-158.742c-91.055,-36.332 -188.75,-54.523 -293.047,-54.523Zm0,114.836c84.336,0 164.023,15.445 239.023,46.32c75,30.883 141.797,75.918 200.391,135.102c59.219,60.477 104.297,128.504 135.195,204.102c30.898,75.598 46.367,155.852 46.367,240.773c0,84.258 -15.625,164.531 -46.836,240.742c-31.25,76.25 -76.133,144.297 -134.727,204.102c-59.883,59.219 -127.148,104.219 -201.836,135.117c-74.687,30.859 -153.906,46.328 -237.578,46.328c-85.625,0 -165.156,-15.313 -238.555,-45.859c-73.398,-30.547 -139.727,-75.742 -198.945,-135.586c-59.219,-60.469 -104.297,-128.477 -135.195,-204.102c-30.898,-75.586 -46.367,-155.82 -46.367,-240.742c0,-85.547 15.469,-165.832 46.367,-240.773c30.898,-74.953 75.977,-142.977 135.195,-204.102c59.883,-59.184 126.836,-104.219 200.898,-135.102c74.023,-30.875 152.891,-46.32 236.602,-46.32Zm855,-82.992l0,1412.766l247.031,0c139.57,0 238.359,-7.891 296.25,-23.633c57.891,-15.781 107.422,-42.969 148.594,-81.563c40.547,-37.305 70.781,-81.68 90.703,-133.164c19.961,-51.484 29.961,-110.312 29.961,-176.602c0,-90.703 -25.781,-165.625 -77.227,-224.844c-51.484,-59.18 -122.539,-95.508 -213.281,-109.062c68.867,-16.719 122.891,-51.445 162.148,-104.191c39.219,-52.75 58.867,-116.773 58.867,-192.039c0,-61.766 -12.227,-118.219 -36.68,-169.352c-24.453,-51.152 -60.156,-94.414 -107.109,-129.801c-33.477,-25.086 -73.984,-42.77 -121.602,-53.07c-47.617,-10.277 -125.117,-15.445 -232.578,-15.445l-245.078,0Zm128.32,739.211l192.031,0c70.117,0 121.758,3.047 154.883,9.141c33.125,6.133 61.914,16.25 86.367,30.391c35.391,21.25 63.047,53.242 83.008,96.016c19.922,42.812 29.922,92.5 29.922,149.102c0,46.328 -9.023,89.922 -27.031,130.742c-18.008,40.859 -42.148,72.891 -72.383,96.055c-24.453,18.672 -54.375,31.836 -89.727,39.57c-35.391,7.695 -99.766,11.562 -193.008,11.562l-164.062,0l0,-562.578Zm0,-627.266l160.195,0c120.312,0 204.102,19.953 251.406,59.824c47.266,39.898 70.898,108.418 70.898,205.551c0,90.078 -24.297,154.398 -72.852,192.992c-48.594,38.586 -131.719,57.922 -249.453,57.922l-160.195,0l0,-516.289Zm826.68,-111.945l-7.93,1412.766l1447.109,0l-86.953,-120.625l-1223.906,0l0,-608.906l571.289,0l0,-120.637l-571.289,0l0,-441.969l571.289,0l0,-120.629l-699.609,0Zm313.789,2014.016c48.633,0 94.727,8.75 138.281,26.328c43.516,17.539 82.539,43.086 117.031,76.602c34.453,34.18 60.664,72.734 78.711,115.664c17.969,42.891 26.992,88.242 26.992,135.937c0,48.008 -9.023,93.398 -26.992,136.172c-18.047,42.773 -44.258,80.977 -78.711,114.492c-34.805,33.555 -74.023,59.258 -117.734,77.109c-43.711,17.852 -89.57,26.758 -137.578,26.758c-48.633,0 -95,-8.984 -139.18,-26.992c-44.141,-18.008 -83.164,-43.633 -117.031,-76.875c-34.453,-33.516 -60.625,-71.562 -78.477,-114.023c-17.852,-42.461 -26.758,-88.008 -26.758,-136.641c0,-48.32 8.906,-93.867 26.758,-136.641c17.852,-42.773 44.023,-81.094 78.477,-114.961c34.492,-33.516 73.555,-59.062 117.266,-76.602c43.711,-17.578 90,-26.328 138.945,-26.328Zm0.039,101.094l-0.039,-0c-33.228,0.005 -64.856,6.294 -94.844,18.945c-30,12.578 -56.719,30.898 -80.078,54.922c-23.398,23.672 -41.25,50.938 -53.555,81.68c-12.305,30.781 -18.477,63.438 -18.477,97.891c0,34.141 6.172,66.484 18.477,96.914c12.305,30.508 30.156,57.734 53.555,81.719c23.359,24.023 50,42.344 79.844,54.961c29.844,12.617 61.562,18.906 95.117,18.906c32.891,0 64.219,-6.289 93.906,-18.906c29.727,-12.617 56.406,-30.937 80.117,-54.961c23.359,-23.984 41.328,-51.289 53.789,-81.914c12.461,-30.625 18.672,-62.852 18.672,-96.719c0,-34.18 -6.25,-66.641 -18.672,-97.422c-12.461,-30.781 -30.43,-58.164 -53.789,-82.148c-22.812,-23.711 -49.18,-41.953 -79.18,-54.727c-29.988,-12.768 -61.616,-19.136 -94.844,-19.141Zm2520.078,-97.852l326.836,702.617l-115.859,0l-76.641,-174.062l-267.773,0l-78.438,174.062l-115.43,0l327.305,-702.617Zm0.898,206.328c-3.672,14.766 -7.617,28.555 -11.758,41.328c-4.141,12.773 -8.398,24.531 -12.695,35.312l-69.258,154.18l188.359,0l-69.258,-154.18c-3.984,-9.844 -8.125,-21.172 -12.461,-33.945c-4.297,-12.773 -8.594,-26.992 -12.93,-42.695Zm1396.719,-206.328l326.797,702.617l-115.82,0l-76.641,-174.062l-267.773,0l-78.477,174.062l-115.391,0l327.305,-702.617Zm0.898,206.328c-3.672,14.766 -7.617,28.555 -11.758,41.328c-4.141,12.773 -8.398,24.531 -12.695,35.312l-69.258,154.18l188.359,0l-69.258,-154.18c-3.984,-9.844 -8.125,-21.172 -12.461,-33.945c-4.297,-12.773 -8.594,-26.992 -12.93,-42.695Zm-3318.125,-192.969l153.242,0c44.961,0 79.805,2.93 104.57,8.789c24.766,5.859 45.938,15.547 63.477,29.062c20.938,16.328 37.07,37.422 48.477,63.281c11.367,25.82 17.07,54.141 17.07,84.922c0,54.18 -13.086,96.563 -39.219,127.188c-26.172,30.625 -64.805,48.984 -115.859,55.156l232.656,307.461l-124.219,0l-224.805,-302.383l-12.461,0l0,302.383l-102.93,0l0,-675.859Zm109.883,94.18l0,193.867l19.844,0c58.164,0 96.758,-6.758 115.859,-20.313c19.062,-13.516 28.633,-37.539 28.633,-71.992c0,-37.227 -10.234,-63.477 -30.703,-78.711c-20.469,-15.234 -58.398,-22.852 -113.789,-22.852l-19.844,0Zm519.805,-94.18l109.844,0l0,675.859l-109.844,0l0,-675.859Zm384.766,0l455.625,0l-341.172,577.5l345.312,0l0,98.32l-517.5,0l344.414,-582.539l-286.68,0l0,-93.281Zm1409.141,0l170.352,0c48.633,0 84.531,2.617 107.773,7.852c23.242,5.234 43.008,13.867 59.336,25.859c20.898,15.391 37.148,35.547 48.711,60.469c11.523,24.922 17.305,52.461 17.305,82.617c0,36.016 -8.32,66.133 -24.922,90.273c-16.641,24.18 -40.781,41.016 -72.461,50.547c39.336,6.172 70.352,24.102 93.008,53.789c22.617,29.688 33.906,67.148 33.906,112.383c0,27.422 -4.766,53.398 -14.297,78.008c-9.531,24.648 -23.086,45.586 -40.625,62.812c-18.477,18.75 -41.406,31.992 -68.789,39.688c-27.383,7.695 -73.398,11.523 -138.008,11.523l-171.289,0l0,-675.82Zm107.539,91.406l0,193.906l42.031,0c52.344,0 89.336,-7.188 111.016,-21.484c21.68,-14.297 32.578,-38.359 32.578,-72.227c0,-36.953 -10.039,-62.852 -30.039,-77.813c-20,-14.922 -57.852,-22.383 -113.555,-22.383l-42.031,0Zm0,276.992l0,215.586l37.891,0c38.477,0 67.227,-1.563 86.328,-4.609c19.062,-3.086 34.141,-8.477 45.234,-16.172c13.555,-8.906 23.984,-20.937 31.367,-36.016c7.422,-15.078 11.094,-31.68 11.094,-49.844c0,-21.523 -4.453,-40.312 -13.359,-56.328c-8.945,-15.977 -21.719,-28.477 -38.32,-37.383c-10.469,-5.234 -22.422,-9.062 -35.781,-11.523c-13.398,-2.461 -31.172,-3.711 -53.32,-3.711l-71.133,0Zm-4169.062,-5335.172l205.469,441.648l-72.852,0l-48.164,-109.398l-168.32,0l-49.297,109.398l-72.539,0l205.703,-441.648Zm0.586,129.703c-2.305,9.289 -4.766,17.953 -7.383,25.977c-2.617,8.035 -5.273,15.426 -7.969,22.191l-43.555,96.926l118.398,0l-43.516,-96.926c-2.539,-6.195 -5.117,-13.293 -7.852,-21.32c-2.695,-8.027 -5.391,-16.977 -8.125,-26.848Zm2617.578,-129.703l205.43,441.648l-72.813,0l-48.164,-109.398l-168.32,0l-49.297,109.398l-72.578,0l205.742,-441.648Zm0.586,129.703c-2.344,9.289 -4.805,17.953 -7.422,25.977c-2.578,8.035 -5.273,15.426 -7.969,22.191l-43.516,96.926l118.398,0l-43.516,-96.926c-2.539,-6.195 -5.156,-13.293 -7.852,-21.32c-2.695,-8.027 -5.43,-16.977 -8.125,-26.848Zm949.844,-129.703l205.469,441.648l-72.852,0l-48.164,-109.398l-168.32,0l-49.297,109.398l-72.578,0l205.742,-441.648Zm0.586,129.703c-2.305,9.289 -4.766,17.953 -7.422,25.977c-2.578,8.035 -5.273,15.426 -7.93,22.191l-43.555,96.926l118.398,0l-43.516,-96.926c-2.539,-6.195 -5.117,-13.293 -7.852,-21.32c-2.695,-8.027 -5.43,-16.977 -8.125,-26.848Zm-665.703,-129.695l269.844,259.691c7.383,7.355 14.805,15.191 22.344,23.504c7.539,8.32 15.469,17.707 23.789,28.156l0,-294.523l63.867,0l0,441.352l-275.391,-264.348c-7.344,-7.156 -14.453,-14.699 -21.328,-22.633c-6.875,-7.934 -13.398,-16.254 -19.57,-24.961l0,295.395l-63.555,0l0,-441.633Zm-2191.523,6.672c24.922,0 48.75,3.625 71.367,10.875c22.656,7.258 44.609,18.246 65.859,32.934l-3.75,69.645c-19.57,-16.641 -40.195,-29.109 -61.953,-37.426c-21.797,-8.324 -44.648,-12.484 -68.633,-12.484c-46.445,0 -84.18,14.898 -113.32,44.695c-29.102,29.789 -43.672,68.367 -43.672,115.762c0,45.855 14.18,83.676 42.5,113.469c28.359,29.789 64.102,44.688 107.227,44.688c25.156,0 49.102,-4.449 71.836,-13.355c22.695,-8.891 44.531,-22.344 65.43,-40.332l0,78.059c-18.594,13.352 -38.789,23.313 -60.664,29.891c-21.836,6.574 -45.547,9.863 -71.094,9.863c-32.5,0 -62.539,-5.32 -90.078,-15.957c-27.578,-10.633 -51.797,-26.301 -72.695,-47.008c-20.703,-20.309 -36.602,-44.254 -47.734,-71.824c-11.133,-27.562 -16.68,-56.91 -16.68,-88.062c0,-31.145 5.547,-60.406 16.68,-87.785c11.133,-27.371 27.227,-51.395 48.32,-72.102c21.094,-20.895 45.273,-36.707 72.539,-47.445c27.266,-10.734 56.758,-16.098 88.516,-16.098Zm-2419.063,0.578c33.477,0 63.437,6.09 89.805,18.277c26.445,12.184 49.961,30.855 70.703,56.008l-50.508,38.012c-14.336,-16.637 -30.469,-29.02 -48.477,-37.141c-17.969,-8.133 -38.125,-12.184 -60.352,-12.184c-46.055,0 -83.594,14.738 -112.734,44.238c-29.102,29.504 -43.672,67.859 -43.672,115.055c0,47.984 14.57,86.91 43.672,116.805c29.141,29.883 66.875,44.824 113.32,44.824c39.453,0 70.508,-9.184 93.164,-27.562c22.617,-18.379 33.945,-43.422 33.945,-75.164l0,-6.086l-102.148,0l0,-58.324l168.281,0c0,2.898 0.117,6.969 0.313,12.191c0.586,13.73 0.859,23.02 0.859,27.848c0,59.781 -17.109,106.203 -51.367,139.281c-34.219,33.082 -82.5,49.625 -144.805,49.625c-34.805,0 -65.859,-5.129 -93.125,-15.379c-27.266,-10.258 -51.172,-25.723 -71.68,-46.43c-20.117,-20.5 -35.547,-44.59 -46.289,-72.258c-10.742,-27.66 -16.094,-57.25 -16.094,-88.777c0,-32.117 5.469,-61.711 16.406,-88.801c10.898,-27.082 27.109,-50.965 48.594,-71.672c20.703,-20.313 44.961,-35.793 72.812,-46.426c27.891,-10.641 57.656,-15.961 89.375,-15.961Zm1099.063,0.008c31.367,0 57.578,6.043 78.672,18.133c21.094,12.082 35.664,29.449 43.828,52.082l-53.984,27.859c-8.516,-13.352 -17.852,-23.113 -28.008,-29.316c-10.156,-6.184 -21.836,-9.285 -34.961,-9.285c-18.594,0 -33.32,4.84 -44.258,14.512c-10.937,9.672 -16.406,22.633 -16.406,38.883c0,25.527 23.984,49.332 71.992,71.387c3.633,1.738 6.562,3.094 8.672,4.055c41.992,19.344 70.82,38.266 86.484,56.738c15.664,18.469 23.477,41.539 23.477,69.203c0,40.234 -12.656,72.203 -38.008,95.898c-25.313,23.699 -59.57,35.547 -102.695,35.547c-36.172,0 -65.82,-8.313 -88.945,-24.949c-23.125,-16.641 -38.242,-40.434 -45.391,-71.387l55.117,-25.539c5.234,18.969 14.805,33.43 28.711,43.387c13.945,9.965 31.719,14.941 53.398,14.941c20.508,0 36.797,-5.703 48.906,-17.125c12.07,-11.41 18.125,-26.684 18.125,-45.84c0,-24.949 -20.703,-47.203 -62.07,-66.742c-5.82,-2.902 -10.273,-5.027 -13.359,-6.379c-46.836,-22.82 -78.008,-43.484 -93.594,-61.953c-15.586,-18.48 -23.359,-41.07 -23.359,-67.758c0,-34.633 11.758,-62.684 35.273,-84.156c23.477,-21.473 54.297,-32.195 92.383,-32.195Zm2275.977,0c31.367,0 57.578,6.043 78.672,18.133c21.055,12.082 35.664,29.449 43.789,52.082l-53.945,27.859c-8.516,-13.352 -17.852,-23.113 -28.008,-29.316c-10.156,-6.184 -21.797,-9.285 -34.961,-9.285c-18.594,0 -33.32,4.84 -44.258,14.512c-10.938,9.672 -16.406,22.633 -16.406,38.883c0,25.527 23.984,49.332 71.953,71.387c3.672,1.738 6.602,3.094 8.711,4.055c41.992,19.344 70.82,38.266 86.484,56.738c15.664,18.469 23.477,41.539 23.477,69.203c0,40.234 -12.656,72.203 -38.008,95.898c-25.313,23.699 -59.57,35.547 -102.695,35.547c-36.211,0 -65.82,-8.313 -88.945,-24.949c-23.125,-16.641 -38.242,-40.434 -45.43,-71.387l55.156,-25.539c5.234,18.969 14.805,33.43 28.711,43.387c13.945,9.965 31.719,14.941 53.398,14.941c20.508,0 36.797,-5.703 48.906,-17.125c12.07,-11.41 18.125,-26.684 18.125,-45.84c0,-24.949 -20.703,-47.203 -62.109,-66.742c-5.781,-2.902 -10.234,-5.027 -13.32,-6.379c-46.836,-22.82 -78.008,-43.484 -93.594,-61.953c-15.586,-18.48 -23.359,-41.07 -23.359,-67.758c0,-34.633 11.758,-62.684 35.273,-84.156c23.477,-21.473 54.297,-32.195 92.383,-32.195Zm-3791.758,9.562l69.063,0l0,424.805l-69.063,0l0,-424.805Zm1767.734,0l69.062,0l0,424.805l-69.062,0l0,-424.805Zm1700.742,0l69.062,0l0,424.805l-69.062,0l0,-424.805Zm529.375,0l294.258,0l0,58.617l-112.305,0l0,366.203l-69.063,0l0,-366.203l-112.891,0l0,-58.617Zm388.047,0l69.062,0l0,424.805l-69.062,0l0,-424.805Zm-3660.664,0.008l69.062,0l0,363.004l154.375,0l0,61.801l-223.438,0l0,-424.805Zm319.258,0l237.07,0l0,58.609l-167.969,0l0,106.496l167.969,0l0,60.645l-167.969,0l0,137.254l167.969,0l0,61.801l-237.07,0l0,-424.805Zm2050.156,0l96.367,0c28.242,0 50.117,1.832 65.703,5.512c15.547,3.664 28.867,9.77 39.922,18.277c13.125,10.262 23.281,23.504 30.43,39.754c7.188,16.254 10.742,34.055 10.742,53.395c0,34.047 -8.203,60.699 -24.648,79.938c-16.445,19.25 -40.703,30.809 -72.852,34.676l146.25,193.262l-78.047,0l-141.328,-190.063l-7.812,0l0,190.063l-64.727,0l0,-424.812Zm69.062,59.195l0,121.867l12.5,0c36.562,0 60.82,-4.254 72.812,-12.758c11.992,-8.523 18.008,-23.613 18.008,-45.273c0,-23.406 -6.445,-39.898 -19.297,-49.469c-12.891,-9.586 -36.719,-14.367 -71.523,-14.367l-12.5,0Z"
       style="fill:#000000;fill-opacity:1" /></g></svg>
