<?xml version="1.0" encoding="UTF-8" standalone="no"?>
<!DOCTYPE svg PUBLIC "-//W3C//DTD SVG 1.1//EN" "http://www.w3.org/Graphics/SVG/1.1/DTD/svg11.dtd">
<svg width="100%" height="100%" viewBox="0 0 8720 7580" version="1.1" xmlns="http://www.w3.org/2000/svg" xmlns:xlink="http://www.w3.org/1999/xlink" xml:space="preserve" xmlns:serif="http://www.serif.com/" style="fill-rule:evenodd;clip-rule:evenodd;stroke-linejoin:round;stroke-miterlimit:2;">
    <g id="Logo" transform="matrix(0.640648,0,0,0.640648,1566.176739,1.961494)">
        <g id="logo">
            <path id="Logo1" serif:id="Logo" d="M4358.338,388.729C5198.229,388.729 6003.729,722.375 6597.598,1316.281C7191.504,1910.156 7525.15,2715.651 7525.15,3555.536C7525.15,4395.427 7191.504,5200.921 6597.598,5794.812C6003.728,6388.703 5198.228,6722.354 4358.338,6722.354C3518.447,6722.354 2712.958,6388.703 2119.067,5794.812C1525.171,5200.921 1191.525,4395.427 1191.525,3555.536C1191.525,2715.651 1525.171,1910.156 2119.067,1316.281C2712.958,722.375 3518.447,388.729 4358.338,388.729ZM5195.791,1051.958L5195.796,1052.01L5195.796,2089.505L4154.921,2089.505L3985.239,2484.036L5195.801,2484.036L5195.801,5437.875C5183.884,5412.5 5170.739,5385.88 5159.822,5365.667C5080.53,5218.849 4986.249,5093.792 4865.504,4975.287C4567.905,4683.902 4077.103,4500.599 3617.035,4545.058C3496.545,4557.298 3449.665,4560.719 3379.551,4562.287C3208.061,4566.126 3076.926,4541.808 2964.291,4485.334C2948.119,4477.23 2939.921,4473.652 2936.838,4473.521C2935.807,4473.479 2935.338,4473.823 2935.338,4474.511C2935.338,4480.146 2979.255,4564.818 3001.453,4602.001C3073.536,4722.715 3164.26,4838.553 3271.453,4946.72L3315.745,4991.418L3336.933,4989.908C3381.423,4986.757 3823.589,4985.288 3895.86,4988.059C4155.219,4998.012 4356.99,5024.252 4554.896,5073.757C4765.417,5126.418 4929.99,5211.642 5072.495,5341.762C5112.667,5378.449 5160.328,5430.559 5195.802,5476.002L5195.802,5588.294C5193.01,5584.622 5190.229,5581.023 5187.552,5577.633C5065.406,5422.628 4902.667,5308.003 4711.562,5242.362C4577.109,5196.174 4381.364,5157.867 4185.453,5139.398C4027.453,5124.507 3936.135,5121.815 3651.453,5123.632C3412.307,5125.153 3379.786,5126.012 3241.484,5134.533C3097.281,5143.418 3058.729,5144.627 2959.531,5143.309C2857.067,5141.944 2829.849,5139.892 2761.812,5128.502C2641.869,5108.429 2536.739,5063.971 2464.703,5002.872C2457.083,4996.414 2452.401,4993.086 2450.896,4993.086C2450.412,4993.086 2450.245,4993.451 2450.443,4994.185C2452.5,5001.404 2674.657,5530.211 2676.375,5531.987C2677.234,5532.872 2701.307,5527.414 2729.901,5519.872C3288.87,5372.31 3887.12,5345.638 4453.641,5443.065C4700.698,5485.549 4982.506,5561.185 5190.865,5640.909C5192.547,5641.555 5194.198,5642.169 5195.803,5642.758L5195.803,5777.383C5193.147,5776.649 5190.626,5775.873 5188.365,5775.055C4804,5635.992 4447.177,5562.498 4027.954,5536.008C3963.699,5531.951 3739.277,5530.44 3662.892,5533.56C3156.501,5554.221 2662.366,5666.237 2221.741,5860.143L2221.663,5860.096L2216.502,5862.398C2215.814,5862.7 2215.119,5862.997 2214.432,5863.304L2208.971,5865.752L2465.976,6079.252C2654.32,6007.216 2865.674,5946.033 3072.158,5904.632C3316.45,5855.663 3561.231,5830.575 3804.372,5829.194C3820.58,5829.111 3836.789,5829.137 3852.981,5829.251C4347.632,5832.866 4834.892,5934.652 5296.846,6132.767C5328.034,6146.142 5366.304,6162.97 5381.898,6170.163L5401.825,6179.351L5401.809,6181.731L5403.726,6182.606L5406.304,6181.419L5408.882,6182.606L5410.799,6181.731L5410.799,6179.351L5430.716,6170.163C5446.305,6162.97 5484.549,6146.142 5515.726,6132.767C5839.716,5993.746 6176.169,5902.251 6518.903,5858.736C6543.382,5835.762 6567.549,5812.413 6591.403,5788.59C6672.288,5707.684 6748.33,5622.809 6819.372,5534.47C6805.205,5534.928 6792.862,5535.428 6784.007,5535.991C6364.965,5562.481 6008.33,5635.975 5624.153,5775.033C5621.898,5775.851 5619.372,5776.616 5616.721,5777.361L5616.721,5642.726C5618.32,5642.137 5619.976,5641.523 5621.653,5640.877C5829.913,5561.153 6111.575,5485.523 6358.518,5443.033C6546.716,5410.653 6738.383,5392.075 6930.987,5386.991C6991.664,5301.757 7047.914,5213.731 7099.633,5123.293C6862.133,5122.283 6772.602,5125.6 6626.56,5139.366C6430.779,5157.835 6235.112,5196.147 6100.721,5242.33C5909.705,5307.971 5747.044,5422.601 5624.961,5577.601C5622.284,5581.002 5619.513,5584.596 5616.721,5588.262L5616.721,5475.97C5652.179,5430.532 5699.81,5378.423 5739.961,5341.741C5882.393,5211.621 6046.893,5126.408 6257.31,5073.746C6455.102,5024.23 6656.82,4997.991 6916.039,4988.038C6949.008,4986.772 7059.216,4986.397 7173.383,4986.653C7243.539,4848.679 7303.435,4705.726 7352.602,4558.992C7312.446,4556.492 7266.873,4552.377 7194.685,4545.039C6734.893,4500.581 6244.31,4683.883 5946.852,4975.268C5826.17,5093.773 5731.93,5218.825 5652.685,5365.648C5641.768,5385.862 5628.628,5412.481 5616.721,5437.856L5616.721,4298.898L5616.617,4298.898L5616.617,2484.018L6652.237,2484.018L6821.924,2089.487L5616.617,2089.487L5616.617,1233.003L5195.794,1051.961L5195.791,1051.958Z" style="fill:rgb(161,130,100);"/>
        </g>
    </g>
    <g transform="matrix(2.106015,0,0,2.106015,-4751.286588,-10095.07085)">
        <g transform="matrix(288,0,0,288,6056.550572,7323.94143)">
        </g>
        <text x="2593.351px" y="7323.941px" style="font-family:'Merriweather-Italic', 'Merriweather';font-style:italic;font-size:288px;fill:rgb(46,42,37);">@GraciaSoberanaOrizaba</text>
    </g>
    <g transform="matrix(1.916217,0,0,1.916217,349.902026,5789.918939)">
        <path d="M677.787,410.522C677.787,534.702 577.119,635.369 452.939,635.369C328.76,635.369 228.092,534.702 228.092,410.522C228.092,286.342 328.76,185.674 452.939,185.674C577.119,185.674 677.787,286.342 677.787,410.522ZM410.784,580.183L472.124,580.183L472.124,438.682L517.432,438.682L526.494,381.524L472.124,381.524L472.124,338.307C472.124,322.275 487.459,313.213 502.097,313.213L528.585,313.213L528.585,265.814L481.185,263.723C435.877,260.935 410.784,296.484 410.784,339.004L410.784,381.524L359.202,381.524L359.202,438.682L410.784,438.682L410.784,580.183Z" style="fill:rgb(46,42,37);"/>
    </g>
    <g transform="matrix(1.916217,0,0,1.916217,349.902026,5789.918939)">
        <path d="M1325.68,410.522C1325.68,534.702 1225.01,635.369 1100.83,635.369C976.652,635.369 875.984,534.702 875.984,410.522C875.984,286.342 976.652,185.674 1100.83,185.674C1225.01,185.674 1325.68,286.342 1325.68,410.522ZM1034.699,267.291C992.21,267.291 957.259,302.242 957.259,344.732L957.259,476.311C957.259,518.801 992.21,553.752 1034.699,553.752L1166.96,553.752C1209.45,553.752 1244.4,518.801 1244.4,476.311L1244.4,344.732C1244.4,302.242 1209.45,267.291 1166.96,267.291L1034.699,267.291ZM1035.38,291.963L1166.28,291.963C1195.75,291.963 1219.73,315.948 1219.73,345.417L1219.73,475.626C1219.73,505.095 1195.75,529.081 1166.28,529.081L1035.38,529.081C1005.92,529.081 981.93,505.095 981.93,475.626L981.93,345.417C981.93,315.948 1005.92,291.963 1035.38,291.963ZM1100.49,332.396C1058,332.396 1023.05,368.032 1023.05,410.522C1023.05,453.696 1058,488.647 1100.49,488.647L1101.17,488.647C1143.66,488.647 1179.3,453.696 1179.3,410.522C1179.3,368.032 1143.66,332.396 1101.17,332.396L1100.49,332.396ZM1100.49,359.123L1101.17,359.123C1129.27,359.123 1152.57,382.424 1152.57,410.522C1152.57,439.305 1129.27,462.605 1101.17,462.605L1100.49,462.605C1072.39,462.605 1049.09,439.305 1049.09,410.522C1049.09,382.424 1072.39,359.123 1100.49,359.123ZM1177.93,317.319C1168.34,317.319 1161.48,324.858 1161.48,333.767C1161.48,342.676 1168.34,350.214 1177.93,350.214C1186.84,350.214 1194.38,342.676 1194.38,333.767C1194.38,324.858 1186.84,317.319 1177.93,317.319Z" style="fill:rgb(46,42,37);"/>
    </g>
    <g transform="matrix(1.916217,0,0,1.916217,2832.909624,4632.602269)">
        <path d="M1973.57,1014.48C1973.57,1138.66 1872.9,1239.33 1748.72,1239.33C1624.54,1239.33 1523.88,1138.66 1523.88,1014.48C1523.88,890.298 1624.54,789.631 1748.72,789.631C1872.9,789.631 1973.57,890.298 1973.57,1014.48ZM1748.72,872.236C1670.02,872.236 1606.48,935.776 1606.48,1014.48C1606.48,1038.311 1612.26,1060.69 1622.37,1080.18L1623.09,1081.63L1612.98,1156.72L1688.8,1143.72C1706.85,1152.39 1727.06,1156.72 1748.72,1156.72C1827.43,1156.72 1890.97,1093.18 1890.97,1014.48C1890.97,935.776 1827.43,872.236 1748.72,872.236ZM1659.19,1124.95L1641.86,1127.84L1644.03,1111.23L1646.92,1089.57L1648.36,1078.74C1636.81,1059.97 1629.59,1038.311 1629.59,1014.48C1629.59,948.773 1683.02,895.342 1748.72,895.342C1814.43,895.342 1867.86,948.773 1867.86,1014.48C1867.86,1080.18 1814.43,1133.62 1748.72,1133.62C1727.79,1133.62 1709.01,1128.56 1691.68,1119.17L1679.41,1121.34L1659.19,1124.95ZM1698.18,949.495C1683.02,958.881 1675.8,974.044 1680.85,992.095C1696.02,1039.03 1730.67,1072.24 1777.61,1084.52C1789.88,1087.4 1797.82,1086.68 1807.21,1075.13L1813.71,1067.19C1820.93,1058.52 1813.71,1054.19 1809.38,1050.58C1805.04,1047.69 1800.71,1044.08 1796.38,1041.19C1790.6,1036.86 1786.99,1039.03 1780.49,1044.801C1777.61,1047.69 1774,1051.3 1771.11,1054.19C1767.5,1057.08 1766.78,1057.08 1763.17,1054.91C1726.34,1034.7 1714.79,1008.7 1711.9,1000.04C1711.18,996.427 1711.18,996.427 1713.34,994.983C1726.34,984.875 1721.29,974.766 1721.29,974.766L1714.07,955.993C1711.18,948.051 1706.12,944.441 1698.18,949.495Z" style="fill:rgb(46,42,37);"/>
    </g>
    <g transform="matrix(1.916217,0,0,1.916217,349.057219,5789.918939)">
        <path d="M2621.91,410.522C2621.91,534.702 2521.24,635.369 2397.06,635.369C2272.88,635.369 2172.21,534.702 2172.21,410.522C2172.21,286.342 2272.88,185.674 2397.06,185.674C2521.24,185.674 2621.91,286.342 2621.91,410.522ZM2515.59,341.152C2501.76,339.267 2489.83,331.729 2479.78,320.422C2467.84,307.229 2460.93,289.639 2461.56,272.678L2411.93,272.678L2411.93,470.562C2411.93,493.805 2393.09,512.651 2369.21,512.651C2355.39,512.651 2342.83,505.741 2334.66,495.062C2329.64,488.151 2327.12,479.357 2327.12,470.562C2327.12,447.318 2345.97,428.472 2369.21,428.472C2373.61,428.472 2378.01,429.1 2381.78,430.357L2381.78,380.101C2378.01,379.473 2373.61,378.844 2369.21,378.844L2367.33,378.844C2317.07,380.101 2277.5,420.934 2277.5,470.562C2277.5,494.434 2286.92,516.421 2302,532.754C2318.96,550.344 2342.83,561.651 2369.21,561.651C2420.1,561.651 2461.56,520.818 2461.56,470.562L2461.56,367.537C2480.41,384.498 2504.91,392.665 2530.03,390.78L2530.03,341.152C2525.01,342.409 2519.98,342.409 2515.59,341.152Z" style="fill:rgb(46,42,37);"/>
    </g>
    <g transform="matrix(1.916217,0,0,1.916217,2832.907753,4632.602269)">
        <path d="M677.787,1014.48C677.787,1138.66 577.119,1239.33 452.939,1239.33C328.76,1239.33 228.092,1138.66 228.092,1014.48C228.092,890.298 328.76,789.631 452.939,789.631C577.119,789.631 677.787,890.298 677.787,1014.48ZM370.378,919.348C338.609,922.041 321.916,927.426 317.609,959.194C315.993,973.733 314.916,993.656 314.916,1014.12C314.916,1034.58 315.993,1055.04 317.609,1069.04C321.916,1101.35 338.609,1106.19 370.378,1108.89C397.301,1111.58 429.07,1112.12 453.3,1112.12C477.531,1112.12 508.762,1111.58 536.223,1108.89C567.992,1106.19 584.146,1101.35 588.454,1069.04C590.607,1055.04 591.684,1034.58 591.684,1014.12C591.684,993.656 590.607,973.733 588.454,959.194C584.146,927.426 567.992,922.041 536.223,919.348C508.762,917.195 477.531,916.118 453.3,916.118C429.07,916.118 397.301,917.195 370.378,919.348ZM425.301,972.656L497.454,1014.12L425.301,1056.12L425.301,972.656Z" style="fill:rgb(46,42,37);"/>
    </g>
    <g transform="matrix(0.576598,0,0,0.576598,6739.846171,6036.520159)">
        <path d="M1936.1,936.608C1936.1,1349.3 1601.56,1683.85 1188.87,1683.85C776.175,1683.85 441.626,1349.3 441.626,936.608C441.626,523.923 776.175,189.368 1188.87,189.368C1601.56,189.368 1936.1,523.923 1936.1,936.608ZM1612.76,901.636C1635.36,901.636 1657.36,889.974 1669.59,869.046C1687.91,837.692 1677.35,797.421 1646,779.1C1556.78,726.951 1454.91,689.771 1343.25,668.593C1255.08,651.866 1160.61,645.034 1062.46,648.264C895.83,653.757 776.012,686.307 770.993,687.687C735.98,697.33 715.42,733.534 725.064,768.546C734.708,803.559 770.906,824.124 805.929,814.475C810.273,813.274 1244.72,696.911 1579.64,892.642C1590.07,898.738 1601.49,901.636 1612.76,901.636ZM1476.9,1235.28C1489.51,1213.7 1482.24,1185.98 1460.66,1173.37C1399.24,1137.48 1329.14,1111.89 1252.29,1097.31C1191.6,1085.8 1126.58,1081.09 1059.03,1083.32C944.349,1087.1 861.89,1109.5 858.43,1110.45C834.354,1117.08 820.229,1141.96 826.832,1166.05C833.439,1190.13 858.333,1204.31 882.424,1197.73C883.186,1197.52 959.819,1176.89 1064.32,1173.71C1158.66,1170.84 1296.05,1182.01 1414.99,1251.52C1422.17,1255.71 1430.02,1257.71 1437.78,1257.71C1453.34,1257.7 1468.48,1249.67 1476.9,1235.28ZM1561.03,1060.52C1575.98,1034.97 1567.37,1002.14 1541.8,987.197C1469.05,944.683 1386.01,914.372 1294.98,897.103C1223.11,883.468 1146.08,877.893 1066.06,880.529C930.224,885.012 832.54,911.545 828.446,912.67C799.929,920.53 783.192,949.998 791.017,978.525C798.846,1007.06 828.339,1023.84 856.866,1016.05C857.766,1015.81 948.545,991.368 1072.33,987.602C1184.08,984.208 1346.83,997.435 1487.7,1079.77C1496.21,1084.73 1505.52,1087.09 1514.7,1087.09C1533.13,1087.09 1551.07,1077.58 1561.03,1060.52Z" style="fill:rgb(46,42,37);"/>
    </g>
</svg>
