<?xml version="1.0" encoding="UTF-8" standalone="no"?><!DOCTYPE svg PUBLIC "-//W3C//DTD SVG 1.1//EN" "http://www.w3.org/Graphics/SVG/1.1/DTD/svg11.dtd"><svg width="100%" height="100%" viewBox="0 0 4480 1707" version="1.1" xmlns="http://www.w3.org/2000/svg" xmlns:xlink="http://www.w3.org/1999/xlink" xml:space="preserve" xmlns:serif="http://www.serif.com/" style="fill-rule:evenodd;clip-rule:evenodd;stroke-linejoin:round;stroke-miterlimit:2;"><g id="logo"><path id="path992" d="M1046.001,93.295c201.574,0 394.894,80.075 537.423,222.612c142.538,142.53 222.613,335.849 222.613,537.421c0,201.574 -80.075,394.893 -222.613,537.426c-142.529,142.534 -335.849,222.61 -537.423,222.61c-201.574,0 -394.891,-80.076 -537.425,-222.61c-142.535,-142.534 -222.61,-335.853 -222.61,-537.426c0,-201.573 80.075,-394.891 222.61,-537.421c142.534,-142.537 335.851,-222.612 537.425,-222.612Zm200.989,159.175l0.001,0.013l0,248.999l-249.81,0l-40.724,94.688l290.535,0l0,708.921c-2.86,-6.09 -6.015,-12.479 -8.635,-17.33c-19.03,-35.236 -41.658,-65.25 -70.636,-93.691c-71.424,-69.932 -189.216,-113.925 -299.632,-103.255c-28.918,2.938 -40.169,3.759 -56.996,4.135c-41.157,0.921 -72.63,-4.915 -99.662,-18.469c-3.881,-1.945 -5.849,-2.804 -6.589,-2.835c-0.247,-0.01 -0.36,0.072 -0.36,0.237c0,1.352 10.54,21.674 15.868,30.598c17.3,28.971 39.074,56.772 64.8,82.732l10.63,10.728l5.085,-0.363c10.678,-0.756 116.798,-1.109 134.143,-0.444c62.246,2.389 110.671,8.686 158.169,20.567c50.525,12.639 90.023,33.092 124.224,64.321c9.641,8.805 21.08,21.311 29.594,32.217l0,26.95c-0.67,-0.881 -1.338,-1.745 -1.98,-2.559c-29.315,-37.201 -68.372,-64.711 -114.237,-80.465c-32.269,-11.085 -79.247,-20.279 -126.266,-24.711c-37.92,-3.574 -59.836,-4.22 -128.16,-3.784c-57.395,0.365 -65.2,0.571 -98.392,2.616c-34.609,2.132 -43.861,2.422 -67.669,2.106c-24.591,-0.328 -31.124,-0.82 -47.453,-3.554c-28.786,-4.817 -54.017,-15.487 -71.306,-30.151c-1.829,-1.55 -2.952,-2.349 -3.314,-2.349c-0.116,0 -0.156,0.087 -0.109,0.264c0.494,1.733 53.811,128.646 54.224,129.073c0.206,0.212 5.984,-1.098 12.846,-2.908c134.153,-35.415 277.733,-41.816 413.697,-18.434c59.294,10.196 126.928,28.349 176.934,47.482c0.404,0.155 0.8,0.303 1.185,0.444l0,32.31c-0.638,-0.176 -1.243,-0.363 -1.785,-0.559c-92.247,-33.375 -177.885,-51.014 -278.499,-57.371c-15.421,-0.974 -69.283,-1.336 -87.615,-0.587c-121.534,4.959 -240.126,31.842 -345.876,78.38l-0.019,-0.011l-1.239,0.553c-0.165,0.072 -0.332,0.144 -0.497,0.217l-1.311,0.588l61.681,51.24c45.203,-17.289 95.928,-31.973 145.484,-41.909c58.63,-11.753 117.378,-17.774 175.731,-18.105c3.89,-0.02 7.78,-0.014 11.666,0.014c118.716,0.867 235.659,25.296 346.527,72.844c7.485,3.21 16.67,7.249 20.412,8.975l4.783,2.205l-0.004,0.571l0.46,0.21l0.619,-0.285l0.619,0.285l0.46,-0.21l0,-0.571l4.78,-2.205c3.741,-1.726 12.92,-5.765 20.403,-8.975c77.757,-33.365 158.506,-55.324 240.762,-65.768c5.875,-5.514 11.675,-11.117 17.4,-16.835c19.412,-19.418 37.662,-39.788 54.712,-60.989c-3.4,0.11 -6.362,0.23 -8.487,0.365c-100.57,6.358 -186.162,23.996 -278.365,57.37c-0.541,0.196 -1.147,0.38 -1.784,0.559l0,-32.312c0.384,-0.141 0.781,-0.289 1.184,-0.444c49.982,-19.134 117.581,-37.285 176.848,-47.483c45.168,-7.771 91.168,-12.23 137.392,-13.45c14.562,-20.456 28.062,-41.582 40.475,-63.287c-57,-0.242 -78.487,0.554 -113.537,3.857c-46.988,4.433 -93.948,13.628 -126.201,24.711c-45.844,15.754 -84.882,43.265 -114.182,80.465c-0.643,0.816 -1.308,1.679 -1.978,2.559l0,-26.95c8.51,-10.905 19.941,-23.411 29.578,-32.215c34.184,-31.229 73.664,-51.68 124.164,-64.319c47.47,-11.884 95.882,-18.181 158.095,-20.57c7.912,-0.304 34.362,-0.394 61.762,-0.333c16.838,-33.114 31.213,-67.423 43.012,-102.639c-9.638,-0.6 -20.575,-1.588 -37.9,-3.349c-110.35,-10.67 -228.09,33.322 -299.48,103.255c-28.964,28.441 -51.581,58.454 -70.6,93.691c-2.62,4.851 -5.774,11.24 -8.631,17.33l0,-273.35l-0.025,0l0,-435.571l248.549,0l40.725,-94.688l-289.274,0l0,-205.556l-100.998,-43.45Zm795.396,543.494l2151.647,0l-140.4,506.175l-0.581,1.641l-2151.525,0l140.859,-507.816Zm1444.856,76.363l0,281.387l-113.672,-280.853l-118.969,277.75l-65.494,-86.916c27.478,0 49.059,-7.556 64.734,-22.697c15.666,-15.128 23.503,-35.895 23.503,-62.298c0,-31.035 -9.15,-54.191 -27.441,-69.477c-18.3,-15.285 -45.825,-22.929 -82.566,-22.929l-62.306,0l0,303.017l30.806,0l0,-125.616l18.525,0l119.044,161.662l37.519,0l-36.3,-48.178l26.212,-66.694l138.497,0l43.312,114.872l33.591,0l-0.019,-0.019l0,-267.307l230.503,266.791l9.403,0l0,-0.009l44.925,-114.862l138.497,0l43.312,114.872l33.581,0l-142.669,-352.496l-117.647,278.481l0,-264.119l-28.725,0l0,269.35l-240.159,-283.712Zm384.45,63.694l57.9,147.531l-118.116,0l60.216,-147.531Zm-735.853,-22.862l31.031,0c27.947,0 47.794,4.944 59.522,14.825c11.737,9.882 17.606,26.481 17.606,49.793c0,22.083 -5.672,37.715 -17.025,46.898c-11.353,9.189 -31.378,13.783 -60.103,13.783l-31.031,0l0,-125.299Zm235.641,23.393l57.9,147.534l-118.116,0l60.216,-147.534Zm-478.547,-50.258l-1.903,339.064l347.306,0l-20.869,-28.95l-293.738,0l0,-146.137l137.109,0l0,-28.953l-137.109,0l0,-106.073l137.109,0l0,-28.951l-167.906,0Zm-726.244,-8.104c-25.941,0 -47.053,7.565 -63.347,22.696c-16.294,15.131 -24.431,34.738 -24.431,58.823c0,19.303 5.634,35.826 16.903,49.567c11.269,13.745 33.966,29.641 68.091,47.707c26.709,14.212 44.119,26.719 52.228,37.519c8.1,10.809 12.159,24.403 12.159,40.763c0,22.388 -6.019,39.919 -18.066,52.575c-12.047,12.656 -28.8,18.994 -50.259,18.994c-16.987,0 -31.537,-4.594 -43.659,-13.781c-12.122,-9.188 -20.644,-22.125 -25.584,-38.794l-26.409,14.128c8.953,21.928 21.347,38.409 37.172,49.444c15.834,11.034 34.856,16.556 57.094,16.556c30.572,0 54.731,-8.916 72.487,-26.747c17.756,-17.831 26.634,-41.953 26.634,-72.375c0,-22.538 -4.856,-40.875 -14.588,-55.003c-9.731,-14.128 -29.025,-29.137 -57.9,-45.047c-3.703,-2.006 -9.113,-4.865 -16.209,-8.569c-39.225,-20.533 -58.828,-42.692 -58.828,-66.471c0,-16.674 4.941,-29.913 14.822,-39.718c9.881,-9.803 23.156,-14.706 39.834,-14.706c12.347,0 23.044,2.544 32.081,7.641c9.028,5.095 16.013,12.508 20.953,22.235l23.859,-14.36c-7.875,-14.36 -18.103,-25.129 -30.684,-32.308c-12.591,-7.18 -27.375,-10.768 -44.353,-10.768Zm497.044,8.104l0,339.064l59.287,0c33.497,0 57.206,-1.894 71.1,-5.672c13.894,-3.788 25.781,-10.312 35.663,-19.575c9.731,-8.953 16.988,-19.603 21.769,-31.959c4.791,-12.356 7.191,-26.475 7.191,-42.384c0,-21.769 -6.188,-39.75 -18.534,-53.963c-12.356,-14.203 -29.409,-22.922 -51.188,-26.175c16.528,-4.012 29.494,-12.347 38.916,-25.006c9.412,-12.66 14.128,-28.026 14.128,-46.089c0,-14.824 -2.934,-28.373 -8.803,-40.644c-5.869,-12.277 -14.437,-22.659 -25.706,-31.152c-8.034,-6.021 -17.756,-10.265 -29.184,-12.737c-11.428,-2.467 -30.028,-3.707 -55.819,-3.707l-58.819,0Zm30.797,177.411l46.087,0c16.828,0 29.222,0.731 37.172,2.194c7.95,1.472 14.859,3.9 20.728,7.294c8.494,5.1 15.131,12.778 19.922,23.044c4.781,10.275 7.181,22.2 7.181,35.784c0,11.119 -2.166,21.581 -6.488,31.378c-4.322,9.806 -10.116,17.494 -17.372,23.053c-5.869,4.481 -13.05,7.641 -21.534,9.497c-8.494,1.847 -23.944,2.775 -46.322,2.775l-39.375,0l0,-135.019Zm0,-150.544l38.447,0c28.875,0 48.984,4.789 60.337,14.358c11.344,9.576 17.016,26.02 17.016,49.332c0,21.619 -5.831,37.056 -17.484,46.318c-11.662,9.261 -31.612,13.901 -59.869,13.901l-38.447,0l0,-123.909Zm-235.997,-34.509c-24.872,0 -48.206,4.327 -69.984,12.97c-21.787,8.649 -41.175,21.384 -58.172,38.213c-17.306,17.138 -30.469,36.479 -39.516,58.015c-9.037,21.542 -13.556,44.429 -13.556,68.663c0,23.944 4.519,46.594 13.556,67.978c9.037,21.394 22.209,40.65 39.516,57.787c17.306,16.988 36.891,29.916 58.744,38.794c21.863,8.878 45,13.313 69.412,13.313c24.412,0 47.588,-4.434 69.525,-13.313c21.937,-8.878 41.634,-21.806 59.1,-38.794c17.138,-16.828 30.272,-36.019 39.394,-57.553c9.113,-21.544 13.669,-44.269 13.669,-68.213c0,-24.234 -4.519,-47.122 -13.556,-68.663c-9.038,-21.536 -22.209,-40.877 -39.506,-58.015c-16.997,-16.676 -36.431,-29.373 -58.294,-38.098c-21.853,-8.72 -45.3,-13.086 -70.331,-13.086Zm0,27.561c20.241,0 39.366,3.707 57.366,11.117c18,7.412 34.031,18.22 48.094,32.424c14.212,14.514 25.031,30.841 32.447,48.984c7.416,18.143 11.128,37.404 11.128,57.786c0,20.222 -3.75,39.488 -11.241,57.778c-7.5,18.3 -18.272,34.631 -32.334,48.984c-14.372,14.213 -30.516,25.013 -48.441,32.428c-17.925,7.406 -36.937,11.119 -57.019,11.119c-20.55,0 -39.637,-3.675 -57.253,-11.006c-17.616,-7.331 -33.534,-18.178 -47.747,-32.541c-14.212,-14.513 -25.031,-30.834 -32.447,-48.984c-7.416,-18.141 -11.128,-37.397 -11.128,-57.778c0,-20.531 3.712,-39.8 11.128,-57.786c7.416,-17.989 18.234,-34.314 32.447,-48.984c14.372,-14.204 30.441,-25.012 48.216,-32.424c17.766,-7.41 36.694,-11.117 56.784,-11.117Zm509.709,463.446c11.672,0 22.734,2.1 33.188,6.319c10.444,4.209 19.809,10.341 28.087,18.384c8.269,8.203 14.559,17.456 18.891,27.759c4.312,10.294 6.478,21.178 6.478,32.625c0,11.522 -2.166,22.416 -6.478,32.681c-4.331,10.266 -10.622,19.434 -18.891,27.478c-8.353,8.053 -17.766,14.222 -28.256,18.506c-10.491,4.284 -21.497,6.422 -33.019,6.422c-11.672,0 -22.8,-2.156 -33.403,-6.478c-10.594,-4.322 -19.959,-10.472 -28.088,-18.45c-8.269,-8.044 -14.55,-17.175 -18.834,-27.366c-4.284,-10.191 -6.422,-21.122 -6.422,-32.794c0,-11.597 2.137,-22.528 6.422,-32.794c4.284,-10.266 10.566,-19.463 18.834,-27.591c8.278,-8.044 17.653,-14.175 28.144,-18.384c10.491,-4.219 21.6,-6.319 33.347,-6.319Zm0.009,24.263l-0.009,-0c-7.975,0.001 -15.565,1.511 -22.763,4.547c-7.2,3.019 -13.613,7.416 -19.219,13.181c-5.616,5.681 -9.9,12.225 -12.853,19.603c-2.953,7.388 -4.434,15.225 -4.434,23.494c0,8.194 1.481,15.956 4.434,23.259c2.953,7.322 7.237,13.856 12.853,19.612c5.606,5.766 12,10.162 19.162,13.191c7.163,3.028 14.775,4.538 22.828,4.538c7.894,0 15.412,-1.509 22.537,-4.538c7.134,-3.028 13.537,-7.425 19.228,-13.191c5.606,-5.756 9.919,-12.309 12.909,-19.659c2.991,-7.35 4.481,-15.084 4.481,-23.213c0,-8.203 -1.5,-15.994 -4.481,-23.381c-2.991,-7.388 -7.303,-13.959 -12.909,-19.716c-5.475,-5.691 -11.803,-10.069 -19.003,-13.134c-7.197,-3.064 -14.788,-4.593 -22.763,-4.594Zm604.819,-23.484l78.441,168.628l-27.806,0l-18.394,-41.775l-64.266,0l-18.825,41.775l-27.703,0l78.553,-168.628Zm0.216,49.519c-0.881,3.544 -1.828,6.853 -2.822,9.919c-0.994,3.066 -2.016,5.887 -3.047,8.475l-16.622,37.003l45.206,0l-16.622,-37.003c-0.956,-2.362 -1.95,-5.081 -2.991,-8.147c-1.031,-3.066 -2.062,-6.478 -3.103,-10.247Zm335.213,-49.519l78.431,168.628l-27.797,0l-18.394,-41.775l-64.266,0l-18.834,41.775l-27.694,0l78.553,-168.628Zm0.216,49.519c-0.881,3.544 -1.828,6.853 -2.822,9.919c-0.994,3.066 -2.016,5.887 -3.047,8.475l-16.622,37.003l45.206,0l-16.622,-37.003c-0.956,-2.362 -1.95,-5.081 -2.991,-8.147c-1.031,-3.066 -2.063,-6.478 -3.103,-10.247Zm-796.35,-46.312l36.778,0c10.791,0 19.153,0.703 25.097,2.109c5.944,1.406 11.025,3.731 15.234,6.975c5.025,3.919 8.897,8.981 11.634,15.188c2.728,6.197 4.097,12.994 4.097,20.381c0,13.003 -3.141,23.175 -9.412,30.525c-6.281,7.35 -15.553,11.756 -27.806,13.237l55.837,73.791l-29.812,0l-53.953,-72.572l-2.991,0l0,72.572l-24.703,0l0,-162.206Zm26.372,22.603l0,46.528l4.762,0c13.959,0 23.222,-1.622 27.806,-4.875c4.575,-3.244 6.872,-9.009 6.872,-17.278c0,-8.934 -2.456,-15.234 -7.369,-18.891c-4.912,-3.656 -14.016,-5.484 -27.309,-5.484l-4.762,0Zm124.753,-22.603l26.363,0l0,162.206l-26.363,0l0,-162.206Zm92.344,0l109.35,0l-81.881,138.6l82.875,0l0,23.597l-124.2,0l82.659,-139.809l-68.803,0l0,-22.387Zm338.194,0l40.884,0c11.672,0 20.287,0.628 25.866,1.884c5.578,1.256 10.322,3.328 14.241,6.206c5.016,3.694 8.916,8.531 11.691,14.513c2.766,5.981 4.153,12.591 4.153,19.828c0,8.644 -1.997,15.872 -5.981,21.666c-3.994,5.803 -9.788,9.844 -17.391,12.131c9.441,1.481 16.884,5.784 22.322,12.909c5.428,7.125 8.137,16.116 8.137,26.972c0,6.581 -1.144,12.816 -3.431,18.722c-2.288,5.916 -5.541,10.941 -9.75,15.075c-4.434,4.5 -9.937,7.678 -16.509,9.525c-6.572,1.847 -17.616,2.766 -33.122,2.766l-41.109,0l0,-162.197Zm25.809,21.937l0,46.537l10.087,0c12.563,0 21.441,-1.725 26.644,-5.156c5.203,-3.431 7.819,-9.206 7.819,-17.334c0,-8.869 -2.409,-15.084 -7.209,-18.675c-4.8,-3.581 -13.884,-5.372 -27.253,-5.372l-10.087,0Zm0,66.478l0,51.741l9.094,0c9.234,0 16.134,-0.375 20.719,-1.106c4.575,-0.741 8.194,-2.034 10.856,-3.881c3.253,-2.138 5.756,-5.025 7.528,-8.644c1.781,-3.619 2.662,-7.603 2.662,-11.963c0,-5.166 -1.069,-9.675 -3.206,-13.519c-2.147,-3.834 -5.212,-6.834 -9.197,-8.972c-2.512,-1.256 -5.381,-2.175 -8.588,-2.766c-3.216,-0.591 -7.481,-0.891 -12.797,-0.891l-17.072,0Zm-1000.575,-1280.441l49.312,105.996l-17.484,0l-11.559,-26.256l-40.397,0l-11.831,26.256l-17.409,0l49.369,-105.996Zm0.141,31.129c-0.553,2.229 -1.144,4.309 -1.772,6.234c-0.628,1.928 -1.266,3.702 -1.913,5.326l-10.453,23.262l28.416,0l-10.444,-23.262c-0.609,-1.487 -1.228,-3.19 -1.884,-5.117c-0.647,-1.927 -1.294,-4.074 -1.95,-6.443Zm628.219,-31.129l49.303,105.996l-17.475,0l-11.559,-26.256l-40.397,0l-11.831,26.256l-17.419,0l49.378,-105.996Zm0.141,31.129c-0.562,2.229 -1.153,4.309 -1.781,6.234c-0.619,1.928 -1.266,3.702 -1.912,5.326l-10.444,23.262l28.416,0l-10.444,-23.262c-0.609,-1.487 -1.237,-3.19 -1.884,-5.117c-0.647,-1.927 -1.303,-4.074 -1.95,-6.443Zm227.962,-31.129l49.313,105.996l-17.484,0l-11.559,-26.256l-40.397,0l-11.831,26.256l-17.419,0l49.378,-105.996Zm0.141,31.129c-0.553,2.229 -1.144,4.309 -1.781,6.234c-0.619,1.928 -1.266,3.702 -1.903,5.326l-10.453,23.262l28.416,0l-10.444,-23.262c-0.609,-1.487 -1.228,-3.19 -1.884,-5.117c-0.647,-1.927 -1.303,-4.074 -1.95,-6.443Zm-159.769,-31.127l64.763,62.326c1.772,1.765 3.553,3.646 5.362,5.641c1.809,1.997 3.713,4.25 5.709,6.758l0,-70.686l15.328,0l0,105.924l-66.094,-63.443c-1.762,-1.717 -3.469,-3.528 -5.119,-5.432c-1.65,-1.904 -3.216,-3.901 -4.697,-5.991l0,70.895l-15.253,0l0,-105.992Zm-525.966,1.601c5.981,0 11.7,0.87 17.128,2.61c5.438,1.742 10.706,4.379 15.806,7.904l-0.9,16.715c-4.697,-3.994 -9.647,-6.986 -14.869,-8.982c-5.231,-1.998 -10.716,-2.996 -16.472,-2.996c-11.147,0 -20.203,3.576 -27.197,10.727c-6.984,7.149 -10.481,16.408 -10.481,27.783c0,11.005 3.403,20.082 10.2,27.232c6.806,7.149 15.384,10.725 25.734,10.725c6.037,0 11.784,-1.068 17.241,-3.205c5.447,-2.134 10.688,-5.363 15.703,-9.68l0,18.734c-4.462,3.204 -9.309,5.595 -14.559,7.174c-5.241,1.578 -10.931,2.367 -17.062,2.367c-7.8,0 -15.009,-1.277 -21.619,-3.83c-6.619,-2.552 -12.431,-6.312 -17.447,-11.282c-4.969,-4.874 -8.784,-10.621 -11.456,-17.238c-2.672,-6.615 -4.003,-13.658 -4.003,-21.135c0,-7.475 1.331,-14.498 4.003,-21.068c2.672,-6.569 6.534,-12.335 11.597,-17.304c5.062,-5.015 10.866,-8.81 17.409,-11.387c6.544,-2.576 13.622,-3.863 21.244,-3.863Zm-580.575,0.139c8.034,0 15.225,1.462 21.553,4.387c6.347,2.924 11.991,7.405 16.969,13.442l-12.122,9.123c-3.441,-3.993 -7.312,-6.965 -11.634,-8.914c-4.312,-1.952 -9.15,-2.924 -14.484,-2.924c-11.053,0 -20.062,3.537 -27.056,10.617c-6.984,7.081 -10.481,16.286 -10.481,27.613c0,11.516 3.497,20.858 10.481,28.033c6.994,7.172 16.05,10.758 27.197,10.758c9.469,0 16.922,-2.204 22.359,-6.615c5.428,-4.411 8.147,-10.421 8.147,-18.039l0,-1.461l-24.516,0l0,-13.998l40.388,0c0,0.696 0.028,1.673 0.075,2.926c0.141,3.295 0.206,5.525 0.206,6.683c0,14.348 -4.106,25.489 -12.328,33.428c-8.213,7.94 -19.8,11.91 -34.753,11.91c-8.353,0 -15.806,-1.231 -22.35,-3.691c-6.544,-2.462 -12.281,-6.173 -17.203,-11.143c-4.828,-4.92 -8.531,-10.702 -11.109,-17.342c-2.578,-6.638 -3.862,-13.74 -3.862,-21.307c0,-7.708 1.312,-14.811 3.938,-21.312c2.616,-6.5 6.506,-12.232 11.662,-17.201c4.969,-4.875 10.791,-8.59 17.475,-11.142c6.694,-2.554 13.838,-3.831 21.45,-3.831Zm263.775,0.002c7.528,0 13.819,1.45 18.881,4.352c5.062,2.9 8.559,7.068 10.519,12.5l-12.956,6.686c-2.044,-3.204 -4.284,-5.547 -6.722,-7.036c-2.438,-1.484 -5.241,-2.228 -8.391,-2.228c-4.463,0 -7.997,1.162 -10.622,3.483c-2.625,2.321 -3.937,5.432 -3.937,9.332c0,6.127 5.756,11.84 17.278,17.133c0.872,0.417 1.575,0.742 2.081,0.973c10.078,4.642 16.997,9.184 20.756,13.617c3.759,4.433 5.634,9.969 5.634,16.609c0,9.656 -3.037,17.329 -9.122,23.016c-6.075,5.688 -14.297,8.531 -24.647,8.531c-8.681,0 -15.797,-1.995 -21.347,-5.988c-5.55,-3.994 -9.178,-9.704 -10.894,-17.133l13.228,-6.129c1.256,4.552 3.553,8.023 6.891,10.413c3.347,2.392 7.613,3.586 12.816,3.586c4.922,0 8.831,-1.369 11.738,-4.11c2.897,-2.738 4.35,-6.404 4.35,-11.002c0,-5.988 -4.969,-11.329 -14.897,-16.018c-1.397,-0.697 -2.466,-1.207 -3.206,-1.531c-11.241,-5.477 -18.722,-10.436 -22.463,-14.869c-3.741,-4.435 -5.606,-9.857 -5.606,-16.262c0,-8.312 2.822,-15.044 8.466,-20.197c5.634,-5.153 13.031,-7.727 22.172,-7.727Zm546.234,0c7.528,0 13.819,1.45 18.881,4.352c5.053,2.9 8.559,7.068 10.509,12.5l-12.947,6.686c-2.044,-3.204 -4.284,-5.547 -6.722,-7.036c-2.437,-1.484 -5.231,-2.228 -8.391,-2.228c-4.463,0 -7.997,1.162 -10.622,3.483c-2.625,2.321 -3.937,5.432 -3.937,9.332c0,6.127 5.756,11.84 17.269,17.133c0.881,0.417 1.584,0.742 2.091,0.973c10.078,4.642 16.997,9.184 20.756,13.617c3.759,4.433 5.634,9.969 5.634,16.609c0,9.656 -3.037,17.329 -9.122,23.016c-6.075,5.688 -14.297,8.531 -24.647,8.531c-8.691,0 -15.797,-1.995 -21.347,-5.988c-5.55,-3.994 -9.178,-9.704 -10.903,-17.133l13.238,-6.129c1.256,4.552 3.553,8.023 6.891,10.413c3.347,2.392 7.612,3.586 12.816,3.586c4.922,0 8.831,-1.369 11.738,-4.11c2.897,-2.738 4.35,-6.404 4.35,-11.002c0,-5.988 -4.969,-11.329 -14.906,-16.018c-1.388,-0.697 -2.456,-1.207 -3.197,-1.531c-11.241,-5.477 -18.722,-10.436 -22.463,-14.869c-3.741,-4.435 -5.606,-9.857 -5.606,-16.262c0,-8.312 2.822,-15.044 8.466,-20.197c5.634,-5.153 13.031,-7.727 22.172,-7.727Zm-910.022,2.295l16.575,0l0,101.953l-16.575,0l0,-101.953Zm424.256,0l16.575,0l0,101.953l-16.575,0l0,-101.953Zm408.178,0l16.575,0l0,101.953l-16.575,0l0,-101.953Zm127.05,0l70.622,0l0,14.068l-26.953,0l0,87.889l-16.575,0l0,-87.889l-27.094,0l0,-14.068Zm93.131,0l16.575,0l0,101.953l-16.575,0l0,-101.953Zm-878.559,0.002l16.575,0l0,87.121l37.05,0l0,14.832l-53.625,0l0,-101.953Zm76.622,0l56.897,0l0,14.066l-40.312,0l0,25.559l40.312,0l0,14.555l-40.312,0l0,32.941l40.312,0l0,14.832l-56.897,0l0,-101.953Zm492.037,0l23.128,0c6.778,0 12.028,0.44 15.769,1.323c3.731,0.879 6.928,2.345 9.581,4.387c3.15,2.463 5.588,5.641 7.303,9.541c1.725,3.901 2.578,8.173 2.578,12.815c0,8.171 -1.969,14.568 -5.916,19.185c-3.947,4.62 -9.769,7.394 -17.484,8.322l35.1,46.383l-18.731,0l-33.919,-45.615l-1.875,0l0,45.615l-15.534,0l0,-101.955Zm16.575,14.207l0,29.248l3,0c8.775,0 14.597,-1.021 17.475,-3.062c2.878,-2.046 4.322,-5.667 4.322,-10.866c0,-5.618 -1.547,-9.576 -4.631,-11.872c-3.094,-2.301 -8.812,-3.448 -17.166,-3.448l-3,0Zm682.584,158.965l154.247,352.494l-43.772,0l-44.006,-103.988l-132.478,0l-43.997,103.988l-43.781,0l153.787,-352.494Zm0,89.166l-53.963,124.832l107.925,0l-53.963,-124.832Zm-456.075,-83.838c19.603,0 38.597,2.975 56.972,8.917c18.375,5.945 36.516,15.169 54.422,27.675l0,52.573c-16.209,-17.602 -33.497,-30.608 -51.872,-39.026c-18.375,-8.411 -38.681,-12.621 -60.909,-12.621c-17.916,0 -35.4,3.63 -52.462,10.884c-17.063,7.26 -31.847,17.372 -44.353,30.34c-12.966,13.433 -22.697,28.449 -29.175,45.047c-6.488,16.598 -9.731,34.934 -9.731,55.004c0,15.749 1.931,30.264 5.794,43.543c3.853,13.28 9.647,25.473 17.372,36.592c13.575,19.299 30.291,34.161 50.138,44.582c19.837,10.422 41.259,15.633 64.266,15.633c21.619,0 41.691,-4.479 60.216,-13.433c18.534,-8.952 35.438,-22.309 50.719,-40.065l0,53.498c-16.828,12.2 -34.931,21.424 -54.309,27.676c-19.369,6.254 -39.412,9.379 -60.094,9.379c-17.916,0 -35.362,-2.662 -52.341,-7.988c-16.988,-5.327 -32.887,-13.087 -47.709,-23.277c-24.713,-17.138 -43.584,-38.214 -56.625,-63.225c-13.05,-25.014 -19.575,-52.493 -19.575,-82.448c0,-26.093 4.359,-49.833 13.088,-71.219c8.719,-21.382 22.031,-40.797 39.947,-58.246c17.287,-16.676 36.441,-29.142 57.441,-37.404c20.991,-8.258 43.922,-12.389 68.784,-12.389Zm-904.369,0.463c32.578,0 60.834,5.904 84.769,17.717c23.934,11.811 43.772,29.607 59.522,53.383l-33.816,27.099c-12.197,-20.533 -27.413,-35.938 -45.619,-46.208c-18.225,-10.265 -39.375,-15.398 -63.459,-15.398c-39.375,0 -71.334,13.279 -95.888,39.832c-24.544,26.558 -36.825,61.301 -36.825,104.223c0,40.453 12.469,73.647 37.406,99.586c24.938,25.939 56.7,38.908 95.306,38.908c33.966,0 62.259,-10.306 84.881,-30.918c22.613,-20.613 35.156,-47.437 37.631,-80.481l-96.806,0l0,-36.129l139.884,0l0,11.348c0,53.424 -15.131,95.576 -45.394,126.454c-30.262,30.881 -71.559,46.32 -123.909,46.32c-15.9,0 -31.069,-1.704 -45.506,-5.097c-14.438,-3.397 -27.75,-8.337 -39.947,-14.821c-27.797,-15.287 -49.256,-36.395 -64.387,-63.341c-15.131,-26.942 -22.697,-57.552 -22.697,-91.828c0,-28.256 4.509,-53.769 13.547,-76.545c9.028,-22.775 22.659,-42.807 40.884,-60.102c15.281,-14.511 33.028,-25.475 53.259,-32.887c20.231,-7.412 42.619,-11.115 67.162,-11.115Zm626.775,7.545l32.747,0l0,338.93l-33.516,0l0,-104.16l-108.816,-0.097l-67.406,104.257l-42.159,0l219.15,-338.93Zm-0.769,66.386l-86.559,133.869l86.559,0.078l0,-133.947Zm-389.062,-66.291l79.669,0c22.697,0 39.337,1.274 49.912,3.822c10.575,2.547 19.875,6.91 27.909,13.084c10.031,7.876 17.831,18.415 23.391,31.615c5.559,13.202 8.334,27.832 8.334,43.889c0,27.792 -7.762,48.907 -23.278,63.339c-15.516,14.441 -38.25,21.654 -68.203,21.654l-7.181,0l100.003,124.873l-22.838,35.326l-122.559,-160.199l-5.784,0l0,161.657l-39.375,0l0,-339.061Zm39.375,34.047l0,113.484l30.797,0c31.5,0 52.575,-4.054 63.234,-12.16c10.65,-8.106 15.975,-22.27 15.975,-42.498c0,-21.773 -5.484,-37.016 -16.444,-45.741c-10.969,-8.722 -31.884,-13.086 -62.766,-13.086l-30.797,0Zm835.472,-34.047l40.303,0l0,339.063l-40.303,0l0,-339.063Z" style="fill:#fff;"/></g></svg>